<svg xmlns="http://www.w3.org/2000/svg" width="884" height="710" viewBox="0 0 884.000 710.000">
<rect width="100%" height="100%" fill="white"/>
<rect x="25.000" y="25.000" width="834.000" height="660.000" fill="#253438" stroke="#000" stroke-width="3"/>
<line x1="442.000" y1="25.000" x2="442.000" y2="685.000" stroke="#00ffff" stroke-width="1"/>
<line x1="25.000" y1="355.000" x2="859.000" y2="355.000" stroke="#00ffff" stroke-width="1"/>
<rect x="353.487" y="184.201" width="177.026" height="341.592" fill="#76b900" stroke="white" stroke-width="1"/>
<text x="442.000" y="358.997" font-family="sans-serif" font-size="11" text-anchor="middle" fill="white">gpu</text>
<rect x="268.508" y="458.749" width="61.040" height="85.598" fill="#444444" stroke="white" stroke-width="1"/>
<text x="299.029" y="505.548" font-family="sans-serif" font-size="11" text-anchor="middle" fill="white">01</text>
<rect x="268.508" y="361.846" width="61.040" height="85.598" fill="#444444" stroke="white" stroke-width="1"/>
<text x="299.029" y="408.645" font-family="sans-serif" font-size="11" text-anchor="middle" fill="white">02</text>
<rect x="268.508" y="263.148" width="61.040" height="85.598" fill="#444444" stroke="white" stroke-width="1"/>
<text x="299.029" y="309.947" font-family="sans-serif" font-size="11" text-anchor="middle" fill="white">03</text>
<rect x="268.508" y="168.040" width="61.040" height="85.598" fill="#444444" stroke="white" stroke-width="1"/>
<text x="299.029" y="214.839" font-family="sans-serif" font-size="11" text-anchor="middle" fill="white">04</text>
<rect x="552.664" y="458.749" width="61.040" height="85.598" fill="#444444" stroke="white" stroke-width="1"/>
<text x="583.184" y="505.548" font-family="sans-serif" font-size="11" text-anchor="middle" fill="white">05</text>
<rect x="552.664" y="361.846" width="61.040" height="85.598" fill="#444444" stroke="white" stroke-width="1"/>
<text x="583.184" y="408.645" font-family="sans-serif" font-size="11" text-anchor="middle" fill="white">06</text>
<rect x="552.664" y="263.148" width="61.040" height="85.598" fill="#444444" stroke="white" stroke-width="1"/>
<text x="583.184" y="309.947" font-family="sans-serif" font-size="11" text-anchor="middle" fill="white">07</text>
<rect x="552.664" y="168.040" width="61.040" height="85.598" fill="#444444" stroke="white" stroke-width="1"/>
<text x="583.184" y="214.839" font-family="sans-serif" font-size="11" text-anchor="middle" fill="white">08</text>
<rect x="55.938" y="129.864" width="56.040" height="55.810" fill="#d8d8d8" stroke="white" stroke-width="1"/>
<text x="83.958" y="161.769" font-family="sans-serif" font-size="11" text-anchor="middle" fill="#111">01</text>
<rect x="55.938" y="61.314" width="56.040" height="55.810" fill="#d8d8d8" stroke="white" stroke-width="1"/>
<text x="83.958" y="93.219" font-family="sans-serif" font-size="11" text-anchor="middle" fill="#111">02</text>
<rect x="688.751" y="173.719" width="72.260" height="358.835" fill="#d89c27" stroke="white" stroke-width="1"/>
<text x="724.881" y="357.137" font-family="sans-serif" font-size="11" text-anchor="middle" fill="white">01</text>
<rect x="126.361" y="173.719" width="72.260" height="358.835" fill="#d89c27" stroke="white" stroke-width="1"/>
<text x="162.491" y="357.137" font-family="sans-serif" font-size="11" text-anchor="middle" fill="white">02</text>
<rect x="264.158" y="582.097" width="357.364" height="72.558" fill="#d89c27" stroke="white" stroke-width="1"/>
<text x="442.840" y="622.376" font-family="sans-serif" font-size="11" text-anchor="middle" fill="white">03</text>
<rect x="264.158" y="56.308" width="357.364" height="72.558" fill="#d89c27" stroke="white" stroke-width="1"/>
<text x="442.840" y="96.587" font-family="sans-serif" font-size="11" text-anchor="middle" fill="white">04</text>
<rect x="65.997" y="227.183" width="22.852" height="40.683" fill="#8b4c39" stroke="white" stroke-width="1"/>
<text x="77.423" y="251.524" font-family="sans-serif" font-size="11" text-anchor="middle" fill="white">01</text>
<rect x="65.997" y="331.282" width="22.852" height="40.683" fill="#8b4c39" stroke="white" stroke-width="1"/>
<text x="77.423" y="355.623" font-family="sans-serif" font-size="11" text-anchor="middle" fill="white">02</text>
<rect x="65.997" y="431.774" width="22.852" height="40.683" fill="#8b4c39" stroke="white" stroke-width="1"/>
<text x="77.423" y="456.115" font-family="sans-serif" font-size="11" text-anchor="middle" fill="white">03</text>
<rect x="65.997" y="535.257" width="22.852" height="40.683" fill="#8b4c39" stroke="white" stroke-width="1"/>
<text x="77.423" y="559.598" font-family="sans-serif" font-size="11" text-anchor="middle" fill="white">04</text>
<rect x="171.935" y="108.414" width="40.516" height="22.946" fill="#8b4c39" stroke="white" stroke-width="1"/>
<text x="192.193" y="123.887" font-family="sans-serif" font-size="11" text-anchor="middle" fill="white">05</text>
<rect x="775.660" y="531.217" width="65.529" height="83.743" fill="#111111" stroke="white" stroke-width="1"/>
<text x="808.424" y="577.089" font-family="sans-serif" font-size="11" text-anchor="middle" fill="white">01</text>
<rect x="775.660" y="421.992" width="65.529" height="83.743" fill="#111111" stroke="white" stroke-width="1"/>
<text x="808.424" y="467.863" font-family="sans-serif" font-size="11" text-anchor="middle" fill="white">02</text>
<rect x="775.660" y="314.322" width="65.529" height="83.743" fill="#111111" stroke="white" stroke-width="1"/>
<text x="808.424" y="360.193" font-family="sans-serif" font-size="11" text-anchor="middle" fill="white">03</text>
<rect x="775.660" y="205.096" width="65.529" height="83.743" fill="#111111" stroke="white" stroke-width="1"/>
<text x="808.424" y="250.968" font-family="sans-serif" font-size="11" text-anchor="middle" fill="white">04</text>
<rect x="775.660" y="94.196" width="65.529" height="83.743" fill="#111111" stroke="white" stroke-width="1"/>
<text x="808.424" y="140.068" font-family="sans-serif" font-size="11" text-anchor="middle" fill="white">05</text>
</svg>
