<svg xmlns="http://www.w3.org/2000/svg" width="1920" height="1080" viewBox="0 0 1920 1080" role="img" aria-labelledby="t d">
  <title id="t">RUN 후보 E — 계기판</title>
  <desc id="d">원형 계기와 좌우 대칭으로 조직한 조종석형 안. 3m 거리에서 읽는 것을 목표로 한다.</desc>
<style>
      text { font-family: Inter, Pretendard, "Noto Sans KR", system-ui, sans-serif; }
      .l { fill:#68809e; font-size:11px; letter-spacing:2px; font-weight:700 }
      .m { fill:#68809e; font-size:13px }
      .b { fill:#dce6f5; font-size:15px }
    </style>
<rect width="1920" height="1080" fill="#0a1020"/>
<ellipse cx="960" cy="440" rx="900" ry="520" fill="#101a33" fill-opacity=".55"/>
<text x="960" y="46" text-anchor="middle" fill="#dce6f5" font-size="15" font-weight="800" letter-spacing="5">FR5 · CELL A</text>
<rect x="838" y="60" width="98" height="28" rx="14" fill="#ffb02e" fill-opacity=".16" stroke="#ffb02e" stroke-opacity=".6"/>
<text x="887" y="79" text-anchor="middle" fill="#ffb02e" font-size="12" font-weight="800" letter-spacing="1.6">MOCK</text>
<rect x="946" y="60" width="136" height="28" rx="14" fill="#38d39f" fill-opacity=".14" stroke="#38d39f" stroke-opacity=".6"/>
<circle cx="966" cy="74" r="4" fill="#38d39f"/>
<text x="1020" y="79" text-anchor="middle" fill="#38d39f" font-size="12" font-weight="800" letter-spacing="1.4">RUNNING</text>
<text x="60" y="46" class="l">LINK</text>
<circle cx="66" cy="66" r="5" fill="#38d39f" stroke="#68809e" stroke-opacity=".5"/>
<circle cx="84" cy="66" r="5" fill="#38d39f" stroke="#68809e" stroke-opacity=".5"/>
<circle cx="102" cy="66" r="5" fill="#16203a" stroke="#68809e" stroke-opacity=".5"/>
<text x="1860" y="46" text-anchor="end" class="l">JOB</text>
<text x="1860" y="70" text-anchor="end" fill="#dce6f5" font-size="14" font-weight="700">JOB-20260807-0142</text>
<rect x="500" y="124" width="920" height="600" rx="14" fill="none" stroke="#ffb02e" stroke-opacity=".22" stroke-width="2"/>
<g clip-path="url(#clip502_126)">
<clipPath id="clip502_126"><rect x="502" y="126" width="916" height="596"/></clipPath>
<rect x="502" y="126" width="916" height="596" fill="#20303f"/>
<g transform="translate(534.3 126.0) scale(0.8514)">
<rect x="0" y="300" width="1000" height="400" fill="#18242f"/>
<line x1="0" y1="308" x2="1000" y2="308" stroke="#42505c" stroke-opacity=".35"/>
<line x1="0" y1="326" x2="1000" y2="326" stroke="#42505c" stroke-opacity=".35"/>
<line x1="0" y1="352" x2="1000" y2="352" stroke="#42505c" stroke-opacity=".35"/>
<line x1="0" y1="384" x2="1000" y2="384" stroke="#42505c" stroke-opacity=".35"/>
<line x1="0" y1="423" x2="1000" y2="423" stroke="#42505c" stroke-opacity=".35"/>
<line x1="0" y1="468" x2="1000" y2="468" stroke="#42505c" stroke-opacity=".35"/>
<line x1="0" y1="518" x2="1000" y2="518" stroke="#42505c" stroke-opacity=".35"/>
<line x1="0" y1="574" x2="1000" y2="574" stroke="#42505c" stroke-opacity=".35"/>
<line x1="0" y1="634" x2="1000" y2="634" stroke="#42505c" stroke-opacity=".35"/>
<ellipse cx="520" cy="600" rx="290" ry="26" fill="#000" fill-opacity=".14"/>
<rect x="250" y="430" width="520" height="22" rx="3" fill="#5a6b78" stroke="#42505c"/>
<rect x="262" y="452" width="12" height="140" fill="#42505c"/>
<rect x="746" y="452" width="12" height="140" fill="#42505c"/>
<rect x="270" y="398" width="230" height="32" rx="3" fill="#4a5865"/>
<line x1="278" y1="400" x2="278" y2="428" stroke="#42505c"/>
<line x1="304" y1="400" x2="304" y2="428" stroke="#42505c"/>
<line x1="330" y1="400" x2="330" y2="428" stroke="#42505c"/>
<line x1="356" y1="400" x2="356" y2="428" stroke="#42505c"/>
<line x1="382" y1="400" x2="382" y2="428" stroke="#42505c"/>
<line x1="408" y1="400" x2="408" y2="428" stroke="#42505c"/>
<line x1="434" y1="400" x2="434" y2="428" stroke="#42505c"/>
<line x1="460" y1="400" x2="460" y2="428" stroke="#42505c"/>
<line x1="486" y1="400" x2="486" y2="428" stroke="#42505c"/>
<rect x="560" y="408" width="150" height="20" rx="3" fill="#2f6f5f"/>
<rect x="294" y="410" width="72" height="20" rx="5" fill="#4c5a66"/>
<rect x="314" y="300" width="32" height="130" rx="14" fill="#7f8d99" stroke="#4c5a66"/>
<rect x="317" y="140" width="26" height="160" rx="12" fill="#7f8d99" stroke="#4c5a66" transform="rotate(40 330 300)"/>
<rect x="422" y="177" width="22" height="145" rx="10" fill="#7f8d99" stroke="#4c5a66" transform="rotate(-32 433 177)"/>
<rect x="498" y="296" width="24" height="32" rx="4" fill="#2b343c"/>
<rect x="495" y="326" width="7" height="19" rx="2" fill="#2b343c"/>
<rect x="518" y="326" width="7" height="19" rx="2" fill="#2b343c"/>
<circle cx="330" cy="300" r="11" fill="none" stroke="#e0662e" stroke-width="3.5"/>
<circle cx="433" cy="177" r="10" fill="none" stroke="#e0662e" stroke-width="3.5"/>
<line x1="510" y1="350" x2="550" y2="337" stroke="#e0435a" stroke-width="2.5"/>
<line x1="510" y1="350" x2="482" y2="328" stroke="#2bbd7e" stroke-width="2.5"/>
<line x1="510" y1="350" x2="510" y2="386" stroke="#3f8fe0" stroke-width="2.5"/>
</g>
</g>
<rect x="500" y="124" width="920" height="600" rx="14" fill="none" stroke="#ffb02e" stroke-opacity=".35" stroke-width="2"/>
<text x="520" y="152" class="l">TWIN · OVERVIEW</text>
<text x="1400" y="152" text-anchor="end" fill="#ffb02e" font-size="12" font-weight="700">U7 · SK_HYNIX-01</text>
<text x="120" y="150" class="l">JOINTS</text>
<path d="M99.2 285.6 A62 62 0 1 1 200.8 285.6" fill="none" stroke="#16203a" stroke-opacity="1" stroke-width="12" stroke-linecap="round"/>
<path d="M99.2 285.6 A62 62 0 0 1 150.0 188.0" fill="none" stroke="#8fa6c4" stroke-opacity="1" stroke-width="12" stroke-linecap="round"/>
<text x="150" y="254" text-anchor="middle" fill="#dce6f5" font-size="24" font-weight="700">0</text>
<text x="150" y="276" text-anchor="middle" class="m" font-size="11">J1</text>
<path d="M289.2 285.6 A62 62 0 1 1 390.8 285.6" fill="none" stroke="#16203a" stroke-opacity="1" stroke-width="12" stroke-linecap="round"/>
<path d="M289.2 285.6 A62 62 0 0 1 278.2 255.4" fill="none" stroke="#ffb02e" stroke-opacity="1" stroke-width="12" stroke-linecap="round"/>
<text x="340" y="254" text-anchor="middle" fill="#dce6f5" font-size="24" font-weight="700">-90</text>
<text x="340" y="276" text-anchor="middle" class="m" font-size="11">J2</text>
<path d="M99.2 475.6 A62 62 0 1 1 200.8 475.6" fill="none" stroke="#16203a" stroke-opacity="1" stroke-width="12" stroke-linecap="round"/>
<path d="M99.2 475.6 A62 62 0 1 1 212.0 440.0" fill="none" stroke="#ffb02e" stroke-opacity="1" stroke-width="12" stroke-linecap="round"/>
<text x="150" y="444" text-anchor="middle" fill="#dce6f5" font-size="24" font-weight="700">90</text>
<text x="150" y="466" text-anchor="middle" class="m" font-size="11">J3</text>
<path d="M289.2 475.6 A62 62 0 1 1 390.8 475.6" fill="none" stroke="#16203a" stroke-opacity="1" stroke-width="12" stroke-linecap="round"/>
<path d="M289.2 475.6 A62 62 0 0 1 278.2 445.4" fill="none" stroke="#ffb02e" stroke-opacity="1" stroke-width="12" stroke-linecap="round"/>
<text x="340" y="444" text-anchor="middle" fill="#dce6f5" font-size="24" font-weight="700">-90</text>
<text x="340" y="466" text-anchor="middle" class="m" font-size="11">J4</text>
<path d="M99.2 665.6 A62 62 0 1 1 200.8 665.6" fill="none" stroke="#16203a" stroke-opacity="1" stroke-width="12" stroke-linecap="round"/>
<path d="M99.2 665.6 A62 62 0 0 1 150.0 568.0" fill="none" stroke="#8fa6c4" stroke-opacity="1" stroke-width="12" stroke-linecap="round"/>
<text x="150" y="634" text-anchor="middle" fill="#dce6f5" font-size="24" font-weight="700">-90</text>
<text x="150" y="656" text-anchor="middle" class="m" font-size="11">J5</text>
<path d="M289.2 665.6 A62 62 0 1 1 390.8 665.6" fill="none" stroke="#16203a" stroke-opacity="1" stroke-width="12" stroke-linecap="round"/>
<path d="M289.2 665.6 A62 62 0 0 1 340.0 568.0" fill="none" stroke="#8fa6c4" stroke-opacity="1" stroke-width="12" stroke-linecap="round"/>
<text x="340" y="634" text-anchor="middle" fill="#dce6f5" font-size="24" font-weight="700">0</text>
<text x="340" y="656" text-anchor="middle" class="m" font-size="11">J6</text>
<circle cx="1660" cy="330" r="128" fill="none" stroke="#16203a" stroke-width="18"/>
<circle cx="1660" cy="330" r="128" fill="none" stroke="#ffb02e" stroke-width="18" stroke-linecap="round" stroke-dasharray="482.5 804.2" transform="rotate(-90 1660 330)"/>
<text x="1660" y="344" text-anchor="middle" fill="#dce6f5" font-size="72" font-weight="800" letter-spacing="-3">6</text>
<text x="1660" y="374" text-anchor="middle" class="m" font-size="16">/ 10 대</text>
<circle cx="1660.0" cy="168.0" r="5" fill="#38d39f"/>
<circle cx="1755.2" cy="198.9" r="5" fill="#38d39f"/>
<circle cx="1814.1" cy="279.9" r="5" fill="#ff4d6d"/>
<circle cx="1814.1" cy="380.1" r="5" fill="#38d39f"/>
<circle cx="1755.2" cy="461.1" r="5" fill="#38d39f"/>
<circle cx="1660.0" cy="492.0" r="5" fill="#38d39f"/>
<circle cx="1564.8" cy="461.1" r="7" fill="#ffb02e"/>
<circle cx="1505.9" cy="380.1" r="5" fill="#16203a"/>
<circle cx="1505.9" cy="279.9" r="5" fill="#16203a"/>
<circle cx="1564.8" cy="198.9" r="5" fill="#16203a"/>
<text x="1660" y="540" text-anchor="middle" class="m">OK 5 · <tspan fill="#ff4d6d" font-weight="700">NG 1</tspan> · 잔여 4대</text>
<text x="1660" y="564" text-anchor="middle" class="m">완료 예정 10:47 · tact 38.0s</text>
<path d="M1612.5 673.3 A58 58 0 1 1 1707.5 673.3" fill="none" stroke="#16203a" stroke-opacity="1" stroke-width="10" stroke-linecap="round"/>
<path d="M1612.5 673.3 A58 58 0 0 1 1647.4 583.4" fill="none" stroke="#8fa6c4" stroke-opacity="1" stroke-width="10" stroke-linecap="round"/>
<text x="1660" y="646" text-anchor="middle" fill="#dce6f5" font-size="22" font-weight="700">45%</text>
<text x="1660" y="668" text-anchor="middle" class="m" font-size="11">SPEED</text>
<text x="500" y="792" class="l">ASSEMBLY STEP · U7</text>
<text x="1420" y="792" text-anchor="end" fill="#ffb02e" font-size="14" font-weight="700">TRANSFER · 5 / 8 · 18.2s</text>
<line x1="500" y1="828" x2="1420" y2="828" stroke="#16203a" stroke-width="4"/>
<line x1="500" y1="828" x2="1026" y2="828" stroke="#ffb02e" stroke-width="4"/>
<circle cx="500" cy="828" r="5" fill="#0a1020" stroke="#dce6f5" stroke-width="3"/>
<text x="500" y="864" text-anchor="middle" fill="#dce6f5" font-size="11.5" font-weight="700" letter-spacing=".8">READY</text>
<circle cx="631" cy="828" r="5" fill="#0a1020" stroke="#dce6f5" stroke-width="3"/>
<text x="631" y="864" text-anchor="middle" fill="#dce6f5" font-size="11.5" font-weight="700" letter-spacing=".8">DETECT</text>
<circle cx="763" cy="828" r="5" fill="#0a1020" stroke="#dce6f5" stroke-width="3"/>
<text x="763" y="864" text-anchor="middle" fill="#dce6f5" font-size="11.5" font-weight="700" letter-spacing=".8">APPROACH</text>
<circle cx="894" cy="828" r="5" fill="#0a1020" stroke="#dce6f5" stroke-width="3"/>
<text x="894" y="864" text-anchor="middle" fill="#dce6f5" font-size="11.5" font-weight="700" letter-spacing=".8">PICK</text>
<circle cx="1026" cy="828" r="10" fill="#0a1020" stroke="#ffb02e" stroke-width="3"/>
<circle cx="1026" cy="828" r="4" fill="#ffb02e"/>
<text x="1026" y="864" text-anchor="middle" fill="#ffb02e" font-size="11.5" font-weight="700" letter-spacing=".8">TRANSFER</text>
<circle cx="1157" cy="828" r="5" fill="#0a1020" stroke="#3a4a68" stroke-width="3"/>
<text x="1157" y="864" text-anchor="middle" fill="#3a4a68" font-size="11.5" font-weight="700" letter-spacing=".8">PLACE</text>
<circle cx="1289" cy="828" r="5" fill="#0a1020" stroke="#3a4a68" stroke-width="3"/>
<text x="1289" y="864" text-anchor="middle" fill="#3a4a68" font-size="11.5" font-weight="700" letter-spacing=".8">INSPECT</text>
<circle cx="1420" cy="828" r="5" fill="#0a1020" stroke="#3a4a68" stroke-width="3"/>
<text x="1420" y="864" text-anchor="middle" fill="#3a4a68" font-size="11.5" font-weight="700" letter-spacing=".8">RETURN</text>
<text x="120" y="792" class="l">TCP · GRIPPER</text>
<text x="120" y="826" class="m" font-size="11">X</text>
<text x="120" y="852" fill="#dce6f5" font-size="21" font-weight="700">412.6</text>
<text x="238" y="826" class="m" font-size="11">Y</text>
<text x="238" y="852" fill="#dce6f5" font-size="21" font-weight="700">-88.1</text>
<text x="356" y="826" class="m" font-size="11">Z</text>
<text x="356" y="852" fill="#dce6f5" font-size="21" font-weight="700">305.9</text>
<text x="120" y="892" fill="#ffb02e" font-size="12" font-weight="700" letter-spacing="1.4">HOLDING</text>
<text x="212" y="892" class="m">HBM3 · 18.4 / 40 mm · force 32 N</text>
<text x="120" y="916" class="m" font-size="12">watchdog 31 / 50 ms · tool Z +142.0</text>
<rect x="500" y="944" width="128" height="44" rx="22" fill="none" stroke="#68809e"/>
<text x="564" y="971" text-anchor="middle" fill="#dce6f5" font-size="13" font-weight="700" letter-spacing="1.6">PAUSE</text>
<rect x="640" y="944" width="128" height="44" rx="22" fill="none" stroke="#68809e"/>
<text x="704" y="971" text-anchor="middle" fill="#dce6f5" font-size="13" font-weight="700" letter-spacing="1.6">STEP</text>
<rect x="780" y="944" width="128" height="44" rx="22" fill="none" stroke="#22304e"/>
<text x="844" y="971" text-anchor="middle" fill="#3a4a68" font-size="13" font-weight="700" letter-spacing="1.6">ABORT</text>
<text x="932" y="971" class="m" font-size="12">ABORT — 취소 계약 미구현</text>
<text x="1420" y="971" text-anchor="end" class="m" font-size="12">VISION 68 ms · INSPECT 열기 →</text>
<circle cx="1790" cy="952" r="62" fill="#2a0a14"/>
<circle cx="1790" cy="946" r="56" fill="#ff4d6d"/>
<circle cx="1790" cy="946" r="46" fill="none" stroke="#ffffff" stroke-opacity=".45" stroke-width="2"/>
<text x="1790" y="953" text-anchor="middle" fill="#fff" font-size="19" font-weight="800" letter-spacing="1.6">STOP</text>
</svg>
