# Blender 5.2.0 LTS
# www.blender.org
mtllib BlackBox.mtl
o Black0.002
v -0.495001 -0.260127 0.630000
v -0.495001 -0.234114 0.700000
v -0.550001 -0.234114 0.630000
v -0.495001 -0.258147 0.656788
v -0.495001 -0.252508 0.679497
v -0.516047 -0.258147 0.630000
v -0.516576 -0.255757 0.657459
v -0.515481 -0.251185 0.675938
v -0.526754 -0.249133 0.670415
v -0.516047 -0.234114 0.694671
v -0.533892 -0.234114 0.679497
v -0.495001 -0.244069 0.694671
v -0.516576 -0.244318 0.688241
v -0.531095 -0.243801 0.675938
v -0.545814 -0.244069 0.630000
v -0.533892 -0.252508 0.630000
v -0.545814 -0.234114 0.656788
v -0.540761 -0.244318 0.657459
v -0.531095 -0.251185 0.656066
v -0.495001 0.234115 0.700000
v -0.495001 0.260127 0.630000
v -0.550001 0.234115 0.630000
v -0.495001 0.244069 0.694671
v -0.495001 0.252508 0.679497
v -0.516047 0.234115 0.694671
v -0.516576 0.244319 0.688241
v -0.515481 0.251186 0.675938
v -0.526754 0.249133 0.670415
v -0.516047 0.258147 0.630000
v -0.533892 0.252508 0.630000
v -0.495001 0.258147 0.656788
v -0.516576 0.255758 0.657459
v -0.531095 0.251186 0.656066
v -0.545814 0.234115 0.656788
v -0.533892 0.234115 0.679497
v -0.545814 0.244069 0.630000
v -0.540761 0.244319 0.657459
v -0.531095 0.243801 0.675938
v -0.495001 -0.260127 -0.630000
v -0.550001 -0.234114 -0.630000
v -0.495001 -0.234114 -0.700000
v -0.516047 -0.258147 -0.630000
v -0.533892 -0.252508 -0.630000
v -0.495001 -0.258147 -0.656788
v -0.516576 -0.255757 -0.657459
v -0.531095 -0.251185 -0.656066
v -0.526754 -0.249133 -0.670415
v -0.545814 -0.234114 -0.656788
v -0.533892 -0.234114 -0.679498
v -0.545814 -0.244069 -0.630000
v -0.540761 -0.244318 -0.657459
v -0.531095 -0.243801 -0.675938
v -0.495001 -0.244069 -0.694671
v -0.495001 -0.252508 -0.679498
v -0.516047 -0.234114 -0.694671
v -0.516576 -0.244318 -0.688241
v -0.515481 -0.251185 -0.675938
v -0.495001 0.260127 -0.630000
v -0.495001 0.234115 -0.700000
v -0.550001 0.234115 -0.630000
v -0.495001 0.258147 -0.656788
v -0.495001 0.252508 -0.679498
v -0.516047 0.258147 -0.630000
v -0.516576 0.255758 -0.657459
v -0.515481 0.251186 -0.675938
v -0.526754 0.249133 -0.670415
v -0.516047 0.234115 -0.694671
v -0.533892 0.234115 -0.679498
v -0.495001 0.244069 -0.694671
v -0.516576 0.244319 -0.688241
v -0.531095 0.243801 -0.675938
v -0.545814 0.244069 -0.630000
v -0.533892 0.252508 -0.630000
v -0.545814 0.234115 -0.656788
v -0.540761 0.244319 -0.657459
v -0.531095 0.251186 -0.656066
v 0.494999 -0.260127 0.630000
v 0.549999 -0.234114 0.630000
v 0.494999 -0.234114 0.700000
v 0.516047 -0.258147 0.630000
v 0.533890 -0.252508 0.630000
v 0.494999 -0.258147 0.656788
v 0.516574 -0.255757 0.657459
v 0.531094 -0.251185 0.656066
v 0.526754 -0.249133 0.670415
v 0.545813 -0.234114 0.656788
v 0.533890 -0.234114 0.679497
v 0.545813 -0.244069 0.630000
v 0.540761 -0.244318 0.657459
v 0.531094 -0.243801 0.675938
v 0.494999 -0.244069 0.694671
v 0.494999 -0.252508 0.679497
v 0.516047 -0.234114 0.694671
v 0.516574 -0.244318 0.688241
v 0.515481 -0.251185 0.675938
v 0.494999 0.260127 0.630000
v 0.494999 0.234115 0.700000
v 0.549999 0.234115 0.630000
v 0.494999 0.258147 0.656788
v 0.494999 0.252508 0.679497
v 0.516047 0.258147 0.630000
v 0.516574 0.255758 0.657459
v 0.515481 0.251186 0.675938
v 0.526754 0.249133 0.670415
v 0.516047 0.234115 0.694671
v 0.533890 0.234115 0.679497
v 0.494999 0.244069 0.694671
v 0.516574 0.244319 0.688241
v 0.531094 0.243801 0.675938
v 0.545813 0.244069 0.630000
v 0.533890 0.252508 0.630000
v 0.545813 0.234115 0.656788
v 0.540761 0.244319 0.657459
v 0.531094 0.251186 0.656066
v 0.494999 -0.260127 -0.630000
v 0.494999 -0.234114 -0.700000
v 0.549999 -0.234114 -0.630000
v 0.494999 -0.258147 -0.656788
v 0.494999 -0.252508 -0.679498
v 0.516047 -0.258147 -0.630000
v 0.516574 -0.255757 -0.657459
v 0.515481 -0.251185 -0.675938
v 0.526754 -0.249133 -0.670415
v 0.516047 -0.234114 -0.694671
v 0.533890 -0.234114 -0.679498
v 0.494999 -0.244069 -0.694671
v 0.516574 -0.244318 -0.688241
v 0.531094 -0.243801 -0.675938
v 0.545813 -0.244069 -0.630000
v 0.533890 -0.252508 -0.630000
v 0.545813 -0.234114 -0.656788
v 0.540761 -0.244318 -0.657459
v 0.531094 -0.251185 -0.656066
v 0.494999 0.260127 -0.630000
v 0.549999 0.234115 -0.630000
v 0.494999 0.234115 -0.700000
v 0.516047 0.258147 -0.630000
v 0.533890 0.252508 -0.630000
v 0.494999 0.258147 -0.656788
v 0.516574 0.255758 -0.657459
v 0.531094 0.251186 -0.656066
v 0.526754 0.249133 -0.670415
v 0.545813 0.234115 -0.656788
v 0.533890 0.234115 -0.679498
v 0.545813 0.244069 -0.630000
v 0.540761 0.244319 -0.657459
v 0.531094 0.243801 -0.675938
v 0.494999 0.244069 -0.694671
v 0.494999 0.252508 -0.679498
v 0.516047 0.234115 -0.694671
v 0.516574 0.244319 -0.688241
v 0.515481 0.251186 -0.675938
vn -0.1004 -0.9918 0.0789
vn -0.1018 -0.9649 0.2419
vn -0.3030 -0.9497 0.0787
vn -0.3007 -0.9240 0.2362
vn -0.2298 -0.4859 0.8433
vn -0.5929 -0.4144 0.6905
vn -0.1357 -0.8678 0.4780
vn -0.3842 -0.8123 0.4388
vn -0.9005 -0.4076 0.1515
vn -0.5712 -0.8147 0.1001
vn -0.8156 -0.3846 0.4323
vn -0.5417 -0.7879 0.2928
vn -0.2298 0.4859 0.8433
vn -0.1357 0.8678 0.4780
vn -0.5929 0.4144 0.6905
vn -0.3842 0.8123 0.4388
vn -0.1004 0.9918 0.0789
vn -0.3030 0.9497 0.0787
vn -0.1018 0.9649 0.2419
vn -0.3007 0.9240 0.2363
vn -0.9005 0.4076 0.1515
vn -0.8156 0.3847 0.4323
vn -0.5712 0.8147 0.1001
vn -0.5417 0.7879 0.2928
vn -0.1004 -0.9918 -0.0789
vn -0.3030 -0.9497 -0.0787
vn -0.1018 -0.9649 -0.2419
vn -0.3006 -0.9240 -0.2362
vn -0.9005 -0.4077 -0.1515
vn -0.8156 -0.3846 -0.4323
vn -0.5712 -0.8147 -0.1001
vn -0.5417 -0.7879 -0.2928
vn -0.2298 -0.4859 -0.8433
vn -0.1357 -0.8678 -0.4780
vn -0.5929 -0.4144 -0.6905
vn -0.3842 -0.8123 -0.4388
vn -0.1004 0.9918 -0.0789
vn -0.1018 0.9649 -0.2419
vn -0.3030 0.9497 -0.0787
vn -0.3007 0.9240 -0.2363
vn -0.2298 0.4859 -0.8433
vn -0.5929 0.4144 -0.6905
vn -0.1357 0.8678 -0.4780
vn -0.3842 0.8123 -0.4388
vn -0.9005 0.4077 -0.1515
vn -0.5712 0.8147 -0.1001
vn -0.8156 0.3846 -0.4323
vn -0.5417 0.7879 -0.2928
vn 0.1004 -0.9918 0.0789
vn 0.3030 -0.9497 0.0787
vn 0.1018 -0.9649 0.2419
vn 0.3006 -0.9240 0.2362
vn 0.9005 -0.4076 0.1515
vn 0.8156 -0.3846 0.4323
vn 0.5711 -0.8147 0.1001
vn 0.5417 -0.7879 0.2928
vn 0.2298 -0.4859 0.8433
vn 0.1357 -0.8678 0.4780
vn 0.5929 -0.4144 0.6905
vn 0.3842 -0.8123 0.4388
vn 0.1004 0.9918 0.0789
vn 0.1018 0.9649 0.2419
vn 0.3030 0.9497 0.0787
vn 0.3007 0.9240 0.2362
vn 0.2298 0.4859 0.8433
vn 0.5929 0.4144 0.6905
vn 0.1357 0.8678 0.4780
vn 0.3842 0.8123 0.4388
vn 0.9005 0.4077 0.1515
vn 0.5711 0.8147 0.1001
vn 0.8156 0.3846 0.4323
vn 0.5417 0.7879 0.2928
vn 0.1004 -0.9918 -0.0789
vn 0.1018 -0.9649 -0.2419
vn 0.3030 -0.9497 -0.0787
vn 0.3006 -0.9240 -0.2362
vn 0.2298 -0.4859 -0.8433
vn 0.5929 -0.4144 -0.6905
vn 0.1357 -0.8678 -0.4780
vn 0.3842 -0.8123 -0.4388
vn 0.9005 -0.4076 -0.1515
vn 0.5711 -0.8147 -0.1001
vn 0.8156 -0.3846 -0.4323
vn 0.5417 -0.7879 -0.2928
vn 0.1004 0.9918 -0.0789
vn 0.3030 0.9497 -0.0787
vn 0.1018 0.9649 -0.2419
vn 0.3007 0.9240 -0.2362
vn 0.9005 0.4077 -0.1515
vn 0.8156 0.3846 -0.4323
vn 0.5711 0.8147 -0.1001
vn 0.5417 0.7879 -0.2928
vn 0.2298 0.4859 -0.8433
vn 0.1357 0.8678 -0.4780
vn 0.5929 0.4144 -0.6905
vn 0.3842 0.8123 -0.4388
vn -0.0937 -0.9956 -0.0000
vn -0.3013 -0.9535 -0.0000
vn -0.5777 -0.8162 -0.0000
vn -0.9218 -0.3877 -0.0000
vn -0.2455 -0.0000 0.9694
vn -0.6478 -0.0000 0.7618
vn -0.8854 -0.0000 0.4648
vn -0.9880 -0.0000 0.1544
vn -0.0937 0.9956 -0.0000
vn -0.3013 0.9535 -0.0000
vn -0.5777 0.8162 -0.0000
vn -0.9218 0.3877 -0.0000
vn -0.2455 -0.0000 -0.9694
vn -0.6478 -0.0000 -0.7618
vn -0.8854 -0.0000 -0.4648
vn -0.9880 -0.0000 -0.1544
vn -0.0000 -0.9973 -0.0737
vn -0.0000 -0.9705 -0.2410
vn -0.0000 -0.8739 -0.4861
vn -0.0000 -0.4719 -0.8816
vn -0.0000 0.9973 -0.0737
vn -0.0000 0.9705 -0.2410
vn -0.0000 0.8739 -0.4861
vn -0.0000 0.4720 -0.8816
vn 0.9880 -0.0000 -0.1544
vn 0.8854 -0.0000 -0.4648
vn 0.6478 -0.0000 -0.7618
vn 0.2454 -0.0000 -0.9694
vn 0.0937 -0.9956 -0.0000
vn 0.3013 -0.9535 -0.0000
vn 0.5777 -0.8162 -0.0000
vn 0.9218 -0.3876 -0.0000
vn 0.0937 0.9956 -0.0000
vn 0.3013 0.9535 -0.0000
vn 0.5777 0.8162 -0.0000
vn 0.9218 0.3877 -0.0000
vn 0.2454 -0.0000 0.9694
vn 0.6478 -0.0000 0.7618
vn 0.8854 -0.0000 0.4648
vn 0.9880 -0.0000 0.1544
vn -0.0000 -0.9973 0.0737
vn -0.0000 -0.9705 0.2410
vn -0.0000 -0.8739 0.4860
vn -0.0000 -0.4719 0.8816
vn -0.0000 0.9973 0.0737
vn -0.0000 0.9705 0.2410
vn -0.0000 0.8739 0.4860
vn -0.0000 0.4720 0.8816
vn -0.0000 -1.0000 -0.0000
vn -1.0000 -0.0000 -0.0000
vn -0.0000 -0.0000 1.0000
vn -0.0000 1.0000 -0.0000
vn -0.0000 -0.0000 -1.0000
vn 1.0000 -0.0000 -0.0000
vt 0.323316 0.027515
vt 0.323316 0.017909
vt 0.329891 0.017669
vt 0.329730 0.027515
vt 0.323316 0.009766
vt 0.329558 0.011042
vt 0.334316 0.018168
vt 0.335168 0.027515
vt 0.332993 0.013023
vt 0.977793 0.479348
vt 0.984324 0.479348
vt 0.984708 0.489195
vt 0.977979 0.488954
vt 0.990234 0.479348
vt 0.989516 0.488696
vt 0.984808 0.495822
vt 0.978510 0.497098
vt 0.988400 0.493841
vt 0.020773 0.972485
vt 0.020960 0.982091
vt 0.014680 0.982331
vt 0.014614 0.972485
vt 0.021490 0.990234
vt 0.015441 0.988958
vt 0.010733 0.981832
vt 0.009766 0.972485
vt 0.012235 0.986977
vt 0.977793 0.027515
vt 0.977979 0.017909
vt 0.984708 0.017669
vt 0.984324 0.027515
vt 0.978510 0.009766
vt 0.984808 0.011042
vt 0.989516 0.018168
vt 0.990234 0.027515
vt 0.988400 0.013023
vt 0.350895 0.027515
vt 0.344481 0.027515
vt 0.344320 0.017669
vt 0.350895 0.017909
vt 0.339043 0.027515
vt 0.339896 0.018168
vt 0.344654 0.011042
vt 0.350895 0.009766
vt 0.341218 0.013023
vt 0.020773 0.520652
vt 0.014614 0.520652
vt 0.014680 0.510805
vt 0.020960 0.511046
vt 0.009766 0.520652
vt 0.010733 0.511304
vt 0.015441 0.504178
vt 0.021490 0.502902
vt 0.012235 0.506159
vt 0.323316 0.479348
vt 0.329730 0.479348
vt 0.329891 0.489195
vt 0.323316 0.488954
vt 0.335168 0.479348
vt 0.334316 0.488695
vt 0.329558 0.495822
vt 0.323316 0.497098
vt 0.332993 0.493841
vt 0.319237 0.972485
vt 0.325769 0.972485
vt 0.326153 0.982331
vt 0.319423 0.982091
vt 0.331679 0.972485
vt 0.330960 0.981832
vt 0.326253 0.988958
vt 0.319954 0.990234
vt 0.329845 0.986977
vt 0.672350 0.972485
vt 0.672537 0.982091
vt 0.666257 0.982331
vt 0.666191 0.972485
vt 0.673067 0.990234
vt 0.667018 0.988958
vt 0.662310 0.981832
vt 0.661343 0.972485
vt 0.663812 0.986977
vt 0.350895 0.479348
vt 0.350895 0.488954
vt 0.344320 0.489195
vt 0.344481 0.479348
vt 0.350895 0.497098
vt 0.344654 0.495822
vt 0.339896 0.488695
vt 0.339043 0.479348
vt 0.341218 0.493841
vt 0.672350 0.520652
vt 0.666191 0.520652
vt 0.666257 0.510805
vt 0.672537 0.511046
vt 0.661343 0.520652
vt 0.662310 0.511304
vt 0.667018 0.504178
vt 0.673067 0.502902
vt 0.663812 0.506159
vt 0.319237 0.520652
vt 0.319423 0.511046
vt 0.326153 0.510805
vt 0.325769 0.520652
vt 0.319954 0.502902
vt 0.326253 0.504178
vt 0.330960 0.511304
vt 0.331679 0.520652
vt 0.329845 0.506159
vt 0.021617 0.027515
vt 0.015203 0.027515
vt 0.015043 0.017669
vt 0.021617 0.017909
vt 0.009766 0.027515
vt 0.010618 0.018168
vt 0.015376 0.011042
vt 0.021617 0.009766
vt 0.011940 0.013023
vt 0.645026 0.972485
vt 0.651557 0.972485
vt 0.651941 0.982331
vt 0.645212 0.982091
vt 0.657467 0.972485
vt 0.656749 0.981832
vt 0.652041 0.988958
vt 0.645743 0.990234
vt 0.655633 0.986977
vt 0.679329 0.479348
vt 0.679515 0.488954
vt 0.673236 0.489195
vt 0.673170 0.479348
vt 0.680046 0.497098
vt 0.673996 0.495822
vt 0.669289 0.488696
vt 0.668321 0.479348
vt 0.670790 0.493841
vt 0.652594 0.027515
vt 0.652594 0.017909
vt 0.659169 0.017669
vt 0.659008 0.027515
vt 0.652594 0.009766
vt 0.658835 0.011042
vt 0.663594 0.018168
vt 0.664446 0.027515
vt 0.662271 0.013023
vt 0.679329 0.027515
vt 0.673170 0.027515
vt 0.673236 0.017669
vt 0.679515 0.017909
vt 0.668321 0.027515
vt 0.669289 0.018168
vt 0.673996 0.011042
vt 0.680046 0.009766
vt 0.670790 0.013023
vt 0.645026 0.520652
vt 0.645212 0.511046
vt 0.651941 0.510805
vt 0.651557 0.520652
vt 0.645743 0.502902
vt 0.652041 0.504178
vt 0.656749 0.511304
vt 0.657467 0.520652
vt 0.655633 0.506159
vt 0.021617 0.479348
vt 0.021617 0.488954
vt 0.015043 0.489195
vt 0.015203 0.479348
vt 0.021617 0.497098
vt 0.015376 0.495822
vt 0.010618 0.488695
vt 0.009766 0.479348
vt 0.011940 0.493841
vt 0.970814 0.972485
vt 0.977346 0.972485
vt 0.977730 0.982331
vt 0.971000 0.982091
vt 0.983256 0.972485
vt 0.982537 0.981832
vt 0.977830 0.988958
vt 0.971531 0.990234
vt 0.981422 0.986977
vt 0.346562 0.972485
vt 0.346748 0.982091
vt 0.340469 0.982331
vt 0.340403 0.972485
vt 0.347279 0.990234
vt 0.341229 0.988958
vt 0.336522 0.981832
vt 0.335554 0.972485
vt 0.338023 0.986977
vt 0.652594 0.479348
vt 0.659008 0.479348
vt 0.659169 0.489195
vt 0.652594 0.488954
vt 0.664446 0.479348
vt 0.663594 0.488695
vt 0.658835 0.495822
vt 0.652594 0.497098
vt 0.662271 0.493841
vt 0.346562 0.520652
vt 0.340403 0.520652
vt 0.340469 0.510805
vt 0.346748 0.511046
vt 0.335554 0.520652
vt 0.336522 0.511304
vt 0.341229 0.504178
vt 0.347279 0.502902
vt 0.338023 0.506159
vt 0.970814 0.520652
vt 0.971000 0.511046
vt 0.977730 0.510805
vt 0.977346 0.520652
vt 0.971531 0.502902
vt 0.977830 0.504178
vt 0.982537 0.511304
vt 0.983256 0.520652
vt 0.981422 0.506159
s 1
usemtl UVFaceColor_UDIM_Material.034
f 1/1/1 4/2/1 7/3/1 6/4/1
f 4/2/2 5/5/2 8/6/2 7/3/2
f 6/4/3 7/3/3 19/7/3 16/8/3
f 7/3/4 8/6/4 9/9/4 19/7/4
f 2/10/5 10/11/5 13/12/5 12/13/5
f 10/11/6 11/14/6 14/15/6 13/12/6
f 12/13/7 13/12/7 8/16/7 5/17/7
f 13/12/8 14/15/8 9/18/8 8/16/8
f 3/19/9 15/20/9 18/21/9 17/22/9
f 15/20/10 16/23/10 19/24/10 18/21/10
f 17/22/11 18/21/11 14/25/11 11/26/11
f 18/21/12 19/24/12 9/27/12 14/25/12
f 20/28/13 23/29/13 26/30/13 25/31/13
f 23/29/14 24/32/14 27/33/14 26/30/14
f 25/31/15 26/30/15 38/34/15 35/35/15
f 26/30/16 27/33/16 28/36/16 38/34/16
f 21/37/17 29/38/17 32/39/17 31/40/17
f 29/38/18 30/41/18 33/42/18 32/39/18
f 31/40/19 32/39/19 27/43/19 24/44/19
f 32/39/20 33/42/20 28/45/20 27/43/20
f 22/46/21 34/47/21 37/48/21 36/49/21
f 34/47/22 35/50/22 38/51/22 37/48/22
f 36/49/23 37/48/23 33/52/23 30/53/23
f 37/48/24 38/51/24 28/54/24 33/52/24
f 39/55/25 42/56/25 45/57/25 44/58/25
f 42/56/26 43/59/26 46/60/26 45/57/26
f 44/58/27 45/57/27 57/61/27 54/62/27
f 45/57/28 46/60/28 47/63/28 57/61/28
f 40/64/29 48/65/29 51/66/29 50/67/29
f 48/65/30 49/68/30 52/69/30 51/66/30
f 50/67/31 51/66/31 46/70/31 43/71/31
f 51/66/32 52/69/32 47/72/32 46/70/32
f 41/73/33 53/74/33 56/75/33 55/76/33
f 53/74/34 54/77/34 57/78/34 56/75/34
f 55/76/35 56/75/35 52/79/35 49/80/35
f 56/75/36 57/78/36 47/81/36 52/79/36
f 58/82/37 61/83/37 64/84/37 63/85/37
f 61/83/38 62/86/38 65/87/38 64/84/38
f 63/85/39 64/84/39 76/88/39 73/89/39
f 64/84/40 65/87/40 66/90/40 76/88/40
f 59/91/41 67/92/41 70/93/41 69/94/41
f 67/92/42 68/95/42 71/96/42 70/93/42
f 69/94/43 70/93/43 65/97/43 62/98/43
f 70/93/44 71/96/44 66/99/44 65/97/44
f 60/100/45 72/101/45 75/102/45 74/103/45
f 72/101/46 73/104/46 76/105/46 75/102/46
f 74/103/47 75/102/47 71/106/47 68/107/47
f 75/102/48 76/105/48 66/108/48 71/106/48
f 77/109/49 80/110/49 83/111/49 82/112/49
f 80/110/50 81/113/50 84/114/50 83/111/50
f 82/112/51 83/111/51 95/115/51 92/116/51
f 83/111/52 84/114/52 85/117/52 95/115/52
f 78/118/53 86/119/53 89/120/53 88/121/53
f 86/119/54 87/122/54 90/123/54 89/120/54
f 88/121/55 89/120/55 84/124/55 81/125/55
f 89/120/56 90/123/56 85/126/56 84/124/56
f 79/127/57 91/128/57 94/129/57 93/130/57
f 91/128/58 92/131/58 95/132/58 94/129/58
f 93/130/59 94/129/59 90/133/59 87/134/59
f 94/129/60 95/132/60 85/135/60 90/133/60
f 96/136/61 99/137/61 102/138/61 101/139/61
f 99/137/62 100/140/62 103/141/62 102/138/62
f 101/139/63 102/138/63 114/142/63 111/143/63
f 102/138/64 103/141/64 104/144/64 114/142/64
f 97/145/65 105/146/65 108/147/65 107/148/65
f 105/146/66 106/149/66 109/150/66 108/147/66
f 107/148/67 108/147/67 103/151/67 100/152/67
f 108/147/68 109/150/68 104/153/68 103/151/68
f 98/154/69 110/155/69 113/156/69 112/157/69
f 110/155/70 111/158/70 114/159/70 113/156/70
f 112/157/71 113/156/71 109/160/71 106/161/71
f 113/156/72 114/159/72 104/162/72 109/160/72
f 115/163/73 118/164/73 121/165/73 120/166/73
f 118/164/74 119/167/74 122/168/74 121/165/74
f 120/166/75 121/165/75 133/169/75 130/170/75
f 121/165/76 122/168/76 123/171/76 133/169/76
f 116/172/77 124/173/77 127/174/77 126/175/77
f 124/173/78 125/176/78 128/177/78 127/174/78
f 126/175/79 127/174/79 122/178/79 119/179/79
f 127/174/80 128/177/80 123/180/80 122/178/80
f 117/181/81 129/182/81 132/183/81 131/184/81
f 129/182/82 130/185/82 133/186/82 132/183/82
f 131/184/83 132/183/83 128/187/83 125/188/83
f 132/183/84 133/186/84 123/189/84 128/187/84
f 134/190/85 137/191/85 140/192/85 139/193/85
f 137/191/86 138/194/86 141/195/86 140/192/86
f 139/193/87 140/192/87 152/196/87 149/197/87
f 140/192/88 141/195/88 142/198/88 152/196/88
f 135/199/89 143/200/89 146/201/89 145/202/89
f 143/200/90 144/203/90 147/204/90 146/201/90
f 145/202/91 146/201/91 141/205/91 138/206/91
f 146/201/92 147/204/92 142/207/92 141/205/92
f 136/208/93 148/209/93 151/210/93 150/211/93
f 148/209/94 149/212/94 152/213/94 151/210/94
f 150/211/95 151/210/95 147/214/95 144/215/95
f 151/210/96 152/213/96 142/216/96 147/214/96
f 39/55/97 1/1/97 6/4/97 42/56/97
f 42/56/98 6/4/98 16/8/98 43/59/98
f 43/71/99 16/23/99 15/20/99 50/67/99
f 50/67/100 15/20/100 3/19/100 40/64/100
f 2/10/101 20/28/101 25/31/101 10/11/101
f 10/11/102 25/31/102 35/35/102 11/14/102
f 11/26/103 35/50/103 34/47/103 17/22/103
f 17/22/104 34/47/104 22/46/104 3/19/104
f 21/37/105 58/82/105 63/85/105 29/38/105
f 29/38/106 63/85/106 73/89/106 30/41/106
f 30/53/107 73/104/107 72/101/107 36/49/107
f 36/49/108 72/101/108 60/100/108 22/46/108
f 59/91/109 41/73/109 55/76/109 67/92/109
f 67/92/110 55/76/110 49/80/110 68/95/110
f 68/107/111 49/68/111 48/65/111 74/103/111
f 74/103/112 48/65/112 40/64/112 60/100/112
f 115/163/113 39/55/113 44/58/113 118/164/113
f 118/164/114 44/58/114 54/62/114 119/167/114
f 119/179/115 54/77/115 53/74/115 126/175/115
f 126/175/116 53/74/116 41/73/116 116/172/116
f 58/82/117 134/190/117 139/193/117 61/83/117
f 61/83/118 139/193/118 149/197/118 62/86/118
f 62/98/119 149/212/119 148/209/119 69/94/119
f 69/94/120 148/209/120 136/208/120 59/91/120
f 135/199/121 117/181/121 131/184/121 143/200/121
f 143/200/122 131/184/122 125/188/122 144/203/122
f 144/215/123 125/176/123 124/173/123 150/211/123
f 150/211/124 124/173/124 116/172/124 136/208/124
f 77/109/125 115/163/125 120/166/125 80/110/125
f 80/110/126 120/166/126 130/170/126 81/113/126
f 81/125/127 130/185/127 129/182/127 88/121/127
f 88/121/128 129/182/128 117/181/128 78/118/128
f 134/190/129 96/136/129 101/139/129 137/191/129
f 137/191/130 101/139/130 111/143/130 138/194/130
f 138/206/131 111/158/131 110/155/131 145/202/131
f 145/202/132 110/155/132 98/154/132 135/199/132
f 97/145/133 79/127/133 93/130/133 105/146/133
f 105/146/134 93/130/134 87/134/134 106/149/134
f 106/161/135 87/122/135 86/119/135 112/157/135
f 112/157/136 86/119/136 78/118/136 98/154/136
f 1/1/137 77/109/137 82/112/137 4/2/137
f 4/2/138 82/112/138 92/116/138 5/5/138
f 5/17/139 92/131/139 91/128/139 12/13/139
f 12/13/140 91/128/140 79/127/140 2/10/140
f 96/136/141 21/37/141 31/40/141 99/137/141
f 99/137/142 31/40/142 24/44/142 100/140/142
f 100/152/143 24/32/143 23/29/143 107/148/143
f 107/148/144 23/29/144 20/28/144 97/145/144
f 39/55/145 115/163/145 77/109/145 1/1/145
f 3/19/146 22/46/146 60/100/146 40/64/146
f 79/127/147 97/145/147 20/28/147 2/10/147
f 134/190/148 58/82/148 21/37/148 96/136/148
f 41/73/149 59/91/149 136/208/149 116/172/149
f 117/181/150 135/199/150 98/154/150 78/118/150
