# Blender 5.2.0 LTS
# www.blender.org
mtllib cap_Big.mtl
o Con.001
v -0.446183 -0.492387 0.462199
v 0.021265 0.350092 -0.379683
v -0.446183 -0.305169 0.462199
v -0.446183 -0.492387 -0.472696
v -0.446183 -0.305169 -0.472696
v 0.094314 0.350092 -0.372489
v 0.253021 -0.492387 -0.474663
v 0.164555 0.350092 -0.351181
v 0.490679 -0.492387 -0.237004
v 0.490679 -0.305169 -0.237004
v 0.229290 0.350092 -0.316580
v 0.253021 -0.305169 -0.474663
v 0.476583 -0.492387 0.240899
v 0.267118 -0.492387 0.449775
v 0.286029 0.350092 -0.270014
v 0.267118 -0.305169 0.449775
v 0.476583 -0.305169 0.240899
v 0.332595 0.350092 -0.213273
v 0.367198 0.350092 -0.148539
v 0.388505 0.350092 -0.078297
v 0.395700 0.350092 -0.005249
v 0.388505 0.350092 0.067800
v 0.367198 0.350092 0.138042
v 0.332595 0.350092 0.202776
v 0.286029 0.350092 0.259517
v 0.229290 0.350092 0.306083
v 0.164555 0.350092 0.340684
v 0.094314 0.350092 0.361992
v 0.021265 0.350092 0.369186
v -0.051785 0.350092 0.361992
v -0.122025 0.350092 0.340684
v -0.186760 0.350092 0.306083
v -0.243501 0.350092 0.259517
v -0.290067 0.350092 0.202776
v -0.324667 0.350092 0.138042
v -0.345975 0.350092 0.067800
v -0.353170 0.350092 -0.005249
v -0.345975 0.350092 -0.078297
v -0.324667 0.350092 -0.148539
v -0.290067 0.350092 -0.213273
v -0.243501 0.350092 -0.270014
v -0.186760 0.350092 -0.316580
v -0.122025 0.350092 -0.351181
v -0.051785 0.350092 -0.372489
v -0.243501 0.359830 0.259517
v -0.186760 0.359830 0.306083
v -0.290067 0.359830 0.202776
v -0.324667 0.359830 0.138042
v -0.345975 0.359830 0.067800
v -0.353170 0.359830 -0.005249
v -0.345975 0.359830 -0.078297
v -0.324667 0.359830 -0.148539
v -0.290067 0.359830 -0.213273
v -0.243501 0.359830 -0.270014
v -0.186760 0.359830 -0.316580
v 0.021265 -0.305169 -0.379683
v 0.094314 -0.305169 -0.372488
v 0.164555 -0.305169 -0.351181
v 0.229290 -0.305169 -0.316580
v 0.286029 -0.305169 -0.270014
v 0.332595 -0.305169 -0.213273
v 0.367198 -0.305169 -0.148539
v 0.388505 -0.305169 -0.078297
v 0.395700 -0.305169 -0.005249
v 0.388505 -0.305169 0.067801
v 0.367198 -0.305169 0.138042
v 0.362873 -0.305169 0.146133
v 0.332595 -0.305169 0.202776
v 0.286029 -0.305169 0.259517
v 0.229290 -0.305169 0.306083
v 0.221198 -0.305169 0.310408
v 0.164555 -0.305169 0.340684
v 0.094314 -0.305169 0.361992
v 0.021265 -0.305169 0.369186
v -0.051785 -0.305169 0.361992
v -0.122025 -0.305169 0.340684
v -0.186760 -0.305169 0.306083
v -0.243501 -0.305169 0.259517
v -0.290067 -0.305169 0.202776
v -0.324667 -0.305169 0.138042
v -0.345975 -0.305169 0.067801
v -0.353170 -0.305169 -0.005249
v -0.345975 -0.305169 -0.078297
v -0.324667 -0.305169 -0.148539
v -0.290067 -0.305169 -0.213273
v -0.243501 -0.305169 -0.270014
v -0.186760 -0.305169 -0.316580
v -0.122025 -0.305169 -0.351181
v -0.051785 -0.305169 -0.372488
vn 0.0980 -0.0000 -0.9952
vn 0.2903 -0.0000 -0.9569
vn 0.4714 -0.0000 -0.8819
vn 0.6344 -0.0000 -0.7730
vn 0.7730 -0.0000 -0.6344
vn 0.8819 -0.0000 -0.4714
vn 0.9569 -0.0000 -0.2903
vn 0.9952 -0.0000 -0.0980
vn 0.9952 -0.0000 0.0980
vn 0.9569 -0.0000 0.2903
vn 0.8819 -0.0000 0.4714
vn 0.7730 -0.0000 0.6344
vn 0.6344 -0.0000 0.7730
vn 0.4714 -0.0000 0.8819
vn 0.2903 -0.0000 0.9569
vn 0.0980 -0.0000 0.9952
vn -0.0980 -0.0000 0.9952
vn -0.2903 -0.0000 0.9569
vn -0.4714 -0.0000 0.8819
vn -0.6344 -0.0000 0.7730
vn -0.7730 -0.0000 0.6344
vn -0.8819 -0.0000 0.4714
vn -0.9569 -0.0000 0.2903
vn -0.9952 -0.0000 0.0980
vn -0.9952 -0.0000 -0.0980
vn -0.9569 -0.0000 -0.2903
vn -0.8819 -0.0000 -0.4714
vn -0.7730 -0.0000 -0.6344
vn -0.6344 -0.0000 -0.7730
vn -0.4714 -0.0000 -0.8819
vn -0.0000 1.0000 -0.0000
vn -0.2903 -0.0000 -0.9569
vn -0.0980 -0.0000 -0.9952
vn 1.0000 -0.0000 -0.0000
vn -1.0000 -0.0000 -0.0000
vn 0.7071 -0.0000 -0.7071
vn -0.0028 -0.0000 -1.0000
vn 0.7061 -0.0000 0.7081
vn 0.9996 -0.0000 0.0295
vn 0.0174 -0.0000 0.9998
vn -0.0000 -1.0000 -0.0000
vt 0.243256 0.795829
vt 0.243256 0.596169
vt 0.264329 0.596169
vt 0.264329 0.795829
vt 0.284591 0.596169
vt 0.284591 0.795829
vt 0.303262 0.596169
vt 0.303262 0.795829
vt 0.319626 0.596169
vt 0.319626 0.795829
vt 0.734110 0.413764
vt 0.734110 0.214104
vt 0.750428 0.214104
vt 0.750428 0.413764
vt 0.769065 0.214104
vt 0.769065 0.413764
vt 0.789306 0.214104
vt 0.789306 0.413764
vt 0.810372 0.214104
vt 0.810372 0.413764
vt 0.831454 0.214104
vt 0.831454 0.413764
vt 0.851742 0.214104
vt 0.851742 0.413764
vt 0.870456 0.214104
vt 0.870456 0.413764
vt 0.854081 0.413764
vt 0.886877 0.214104
vt 0.886877 0.413764
vt 0.718841 0.680069
vt 0.718841 0.480408
vt 0.735245 0.480408
vt 0.735245 0.680069
vt 0.753947 0.480408
vt 0.753947 0.680069
vt 0.737583 0.680069
vt 0.774227 0.480408
vt 0.774227 0.680069
vt 0.795307 0.480408
vt 0.795307 0.680069
vt 0.816375 0.480408
vt 0.816375 0.680069
vt 0.836624 0.480408
vt 0.836624 0.680069
vt 0.855273 0.480408
vt 0.855273 0.680069
vt 0.871608 0.480408
vt 0.871608 0.680069
vt 0.007813 0.795829
vt 0.007813 0.596169
vt 0.024182 0.596169
vt 0.024182 0.795829
vt 0.042858 0.596169
vt 0.042858 0.795829
vt 0.063122 0.596169
vt 0.063122 0.795829
vt 0.084196 0.596169
vt 0.084196 0.795829
vt 0.105271 0.596169
vt 0.105271 0.795829
vt 0.125535 0.596169
vt 0.125535 0.795829
vt 0.144211 0.596169
vt 0.144211 0.795829
vt 0.160580 0.596169
vt 0.160580 0.795829
vt 0.166859 0.795829
vt 0.166859 0.596169
vt 0.183234 0.596169
vt 0.183234 0.795829
vt 0.201914 0.596169
vt 0.201914 0.795829
vt 0.679823 0.261855
vt 0.696193 0.276044
vt 0.709627 0.293333
vt 0.719609 0.313057
vt 0.725756 0.334460
vt 0.727832 0.356718
vt 0.725756 0.378977
vt 0.719609 0.400379
vt 0.709627 0.420104
vt 0.696193 0.437393
vt 0.679823 0.451582
vt 0.661147 0.462125
vt 0.640883 0.468618
vt 0.619809 0.470810
vt 0.598735 0.468618
vt 0.578470 0.462125
vt 0.559794 0.451582
vt 0.559794 0.261855
vt 0.578470 0.251312
vt 0.598735 0.244819
vt 0.619809 0.242627
vt 0.640883 0.244819
vt 0.661148 0.251312
vt 0.222181 0.596169
vt 0.222181 0.795829
vt 0.024182 0.593202
vt 0.042858 0.593202
vt 0.055821 0.992188
vt 0.039452 0.977999
vt 0.026018 0.960710
vt 0.016035 0.940985
vt 0.009888 0.919582
vt 0.007813 0.897324
vt 0.009888 0.875066
vt 0.016035 0.853663
vt 0.026018 0.833938
vt 0.039452 0.816649
vt 0.055821 0.802460
vt 0.548050 0.593202
vt 0.548050 0.782927
vt 0.545241 0.782927
vt 0.545241 0.593202
vt 0.007813 0.593202
vt 0.166859 0.593202
vt 0.183234 0.593202
vt 0.855273 0.477441
vt 0.871608 0.477441
vt 0.144211 0.593202
vt 0.160580 0.593202
vt 0.125535 0.593202
vt 0.105271 0.593202
vt 0.084196 0.593202
vt 0.063122 0.593202
vt 0.871608 0.971565
vt 0.817596 0.971565
vt 0.817596 0.686700
vt 0.871608 0.686700
vt 0.877886 0.477441
vt 0.931898 0.477441
vt 0.931898 0.549826
vt 0.877886 0.549826
vt 0.931898 0.762876
vt 0.877886 0.762876
vt 0.893155 0.225167
vt 0.947167 0.225167
vt 0.947167 0.289157
vt 0.893155 0.289157
vt 0.176401 0.948095
vt 0.122390 0.948095
vt 0.122390 0.802460
vt 0.176401 0.802460
vt 0.893155 0.007813
vt 0.947167 0.007813
vt 0.070907 0.581865
vt 0.010818 0.517862
vt 0.007813 0.300507
vt 0.277525 0.301309
vt 0.277525 0.514359
vt 0.208769 0.586570
vt 0.550511 0.517862
vt 0.490421 0.581865
vt 0.462989 0.547299
vt 0.479306 0.538025
vt 0.495638 0.523788
vt 0.509025 0.506459
vt 0.510267 0.503990
vt 0.460658 0.548624
vt 0.352560 0.586570
vt 0.283803 0.514359
vt 0.283803 0.301309
vt 0.553516 0.300507
vt 0.518955 0.486704
vt 0.525045 0.465283
vt 0.527062 0.443019
vt 0.524927 0.420767
vt 0.518723 0.399383
vt 0.508688 0.379688
vt 0.495208 0.362438
vt 0.478801 0.348298
vt 0.460097 0.337811
vt 0.439815 0.331379
vt 0.418735 0.329249
vt 0.397667 0.331504
vt 0.377420 0.338056
vt 0.358772 0.348655
vt 0.342441 0.362892
vt 0.329053 0.380221
vt 0.319123 0.399976
vt 0.313033 0.421397
vt 0.311017 0.443661
vt 0.313151 0.465913
vt 0.319356 0.487297
vt 0.329390 0.506993
vt 0.342871 0.524242
vt 0.359278 0.538382
vt 0.377981 0.548869
vt 0.398263 0.555302
vt 0.419343 0.557431
vt 0.440411 0.555176
s 1
usemtl UVFaceColor_UDIM_Material.010
f 56/1/1 2/2/1 6/3/1 57/4/1
f 57/4/2 6/3/2 8/5/2 58/6/2
f 58/6/3 8/5/3 11/7/3 59/8/3
f 59/8/4 11/7/4 15/9/4 60/10/4
f 60/11/5 15/12/5 18/13/5 61/14/5
f 61/14/6 18/13/6 19/15/6 62/16/6
f 62/16/7 19/15/7 20/17/7 63/18/7
f 63/18/8 20/17/8 21/19/8 64/20/8
f 64/20/9 21/19/9 22/21/9 65/22/9
f 65/22/10 22/21/10 23/23/10 66/24/10
f 66/24/11 23/23/11 24/25/11 68/26/11 67/27/11
f 68/26/12 24/25/12 25/28/12 69/29/12
f 69/30/13 25/31/13 26/32/13 70/33/13
f 70/33/14 26/32/14 27/34/14 72/35/14 71/36/14
f 72/35/15 27/34/15 28/37/15 73/38/15
f 73/38/16 28/37/16 29/39/16 74/40/16
f 74/40/17 29/39/17 30/41/17 75/42/17
f 75/42/18 30/41/18 31/43/18 76/44/18
f 76/44/19 31/43/19 32/45/19 77/46/19
f 77/46/20 32/45/20 33/47/20 78/48/20
f 78/49/21 33/50/21 34/51/21 79/52/21
f 79/52/22 34/51/22 35/53/22 80/54/22
f 80/54/23 35/53/23 36/55/23 81/56/23
f 81/56/24 36/55/24 37/57/24 82/58/24
f 82/58/25 37/57/25 38/59/25 83/60/25
f 83/60/26 38/59/26 39/61/26 84/62/26
f 84/62/27 39/61/27 40/63/27 85/64/27
f 85/64/28 40/63/28 41/65/28 86/66/28
f 86/67/29 41/68/29 42/69/29 87/70/29
f 87/70/30 42/69/30 43/71/30 88/72/30
f 26/73/31 25/74/31 24/75/31 23/76/31 22/77/31 21/78/31 20/79/31 19/80/31 18/81/31 15/82/31 11/83/31 8/84/31 6/85/31 2/86/31 44/87/31 43/88/31 42/89/31 32/90/31 31/91/31 30/92/31 29/93/31 28/94/31 27/95/31
f 88/72/32 43/71/32 44/96/32 89/97/32
f 89/97/33 44/96/33 2/2/33 56/1/33
f 35/53/22 34/51/22 47/98/22 48/99/22
f 55/100/31 54/101/31 53/102/31 52/103/31 51/104/31 50/105/31 49/106/31 48/107/31 47/108/31 45/109/31 46/110/31
f 32/111/34 42/112/34 55/113/34 46/114/34
f 34/51/21 33/50/21 45/115/21 47/98/21
f 42/69/29 41/68/29 54/116/29 55/117/29
f 33/47/20 32/45/20 46/118/20 45/119/20
f 41/65/28 40/63/28 53/120/28 54/121/28
f 40/63/27 39/61/27 52/122/27 53/120/27
f 39/61/26 38/59/26 51/123/26 52/122/26
f 38/59/25 37/57/25 50/124/25 51/123/25
f 37/57/24 36/55/24 49/125/24 50/124/24
f 36/55/23 35/53/23 48/99/23 49/125/23
f 1/126/35 3/127/35 5/128/35 4/129/35
f 10/130/36 9/131/36 7/132/36 12/133/36
f 4/134/37 5/135/37 12/133/37 7/132/37
f 16/136/38 14/137/38 13/138/38 17/139/38
f 9/140/39 10/141/39 17/142/39 13/143/39
f 14/137/40 16/136/40 3/144/40 1/145/40
f 13/146/41 14/147/41 1/148/41 4/149/41 7/150/41 9/151/41
f 16/152/31 17/153/31 67/154/31 68/155/31 69/156/31 70/157/31 71/158/31
f 66/159/31 67/154/31 17/153/31 10/160/31 12/161/31 5/162/31 3/163/31 16/152/31 71/158/31 72/164/31 73/165/31 74/166/31 75/167/31 76/168/31 77/169/31 78/170/31 79/171/31 80/172/31 81/173/31 82/174/31 83/175/31 84/176/31 85/177/31 86/178/31 87/179/31 88/180/31 89/181/31 56/182/31 57/183/31 58/184/31 59/185/31 60/186/31 61/187/31 62/188/31 63/189/31 64/190/31 65/191/31
