# Blender 5.2.0 LTS
# www.blender.org
mtllib cap_small.mtl
o Cap.001
v -0.172621 -0.145963 0.306059
v -0.172621 -0.123588 0.340065
v -0.191802 -0.123588 0.306059
v -0.172621 -0.144260 0.319072
v -0.172621 -0.139409 0.330105
v -0.179961 -0.144260 0.306059
v -0.180145 -0.142204 0.319399
v -0.179763 -0.138272 0.328376
v -0.183695 -0.136506 0.325692
v -0.179961 -0.123588 0.337477
v -0.186184 -0.123588 0.330105
v -0.172621 -0.132150 0.337477
v -0.180145 -0.132365 0.334352
v -0.185209 -0.131920 0.328376
v -0.190342 -0.132150 0.306059
v -0.186184 -0.139409 0.306059
v -0.190342 -0.123588 0.319072
v -0.188579 -0.132365 0.319399
v -0.185209 -0.138272 0.318722
v -0.172621 0.134038 0.340065
v -0.172621 0.156413 0.306059
v -0.191802 0.134038 0.306059
v -0.172621 0.142600 0.337477
v -0.172621 0.149860 0.330105
v -0.179961 0.134038 0.337477
v -0.180145 0.142815 0.334352
v -0.179763 0.148722 0.328376
v -0.183695 0.146956 0.325692
v -0.179961 0.154710 0.306059
v -0.186184 0.149860 0.306059
v -0.172621 0.154710 0.319072
v -0.180145 0.152654 0.319399
v -0.185209 0.148722 0.318722
v -0.190342 0.134038 0.319072
v -0.186184 0.134038 0.330105
v -0.190342 0.142600 0.306059
v -0.188579 0.142815 0.319399
v -0.185209 0.142370 0.328376
v -0.172621 -0.145963 -0.306058
v -0.191802 -0.123588 -0.306058
v -0.172621 -0.124871 -0.339677
v -0.179961 -0.144260 -0.306058
v -0.186184 -0.139409 -0.306058
v -0.172621 -0.144260 -0.319072
v -0.180145 -0.142204 -0.319398
v -0.185209 -0.138272 -0.318721
v -0.183695 -0.136506 -0.325692
v -0.190342 -0.123588 -0.319072
v -0.186184 -0.123588 -0.330105
v -0.190342 -0.132150 -0.306058
v -0.188579 -0.132365 -0.319398
v -0.185209 -0.131920 -0.328375
v -0.172621 -0.130867 -0.337864
v -0.172621 -0.139409 -0.330105
v -0.179961 -0.123588 -0.337476
v -0.180145 -0.132365 -0.334352
v -0.179763 -0.138272 -0.328375
v -0.172621 0.156413 -0.306058
v -0.172621 0.134038 -0.340065
v -0.191802 0.134038 -0.306058
v -0.172621 0.154710 -0.319072
v -0.172621 0.149860 -0.330105
v -0.179961 0.154710 -0.306058
v -0.180145 0.152654 -0.319398
v -0.179763 0.148722 -0.328375
v -0.183695 0.146956 -0.325692
v -0.179961 0.134038 -0.337476
v -0.186184 0.134038 -0.330105
v -0.172621 0.142600 -0.337476
v -0.180145 0.142815 -0.334352
v -0.185209 0.142370 -0.328375
v -0.190342 0.142600 -0.306058
v -0.186184 0.149860 -0.306058
v -0.190342 0.134038 -0.319072
v -0.188579 0.142815 -0.319398
v -0.185209 0.148722 -0.318721
v 0.172632 -0.145963 0.306059
v 0.191813 -0.123588 0.306059
v 0.172632 -0.123588 0.340065
v 0.179973 -0.144260 0.306059
v 0.186196 -0.139409 0.306059
v 0.172632 -0.144260 0.319072
v 0.180156 -0.142204 0.319399
v 0.185220 -0.138272 0.318722
v 0.183706 -0.136506 0.325692
v 0.190353 -0.123588 0.319072
v 0.186196 -0.123588 0.330105
v 0.190353 -0.132150 0.306059
v 0.188591 -0.132365 0.319399
v 0.185220 -0.131920 0.328376
v 0.172632 -0.132150 0.337477
v 0.172632 -0.139409 0.330105
v 0.179973 -0.123588 0.337477
v 0.180156 -0.132365 0.334352
v 0.179775 -0.138272 0.328376
v 0.172632 0.156413 0.306059
v 0.172632 0.134038 0.340065
v 0.191813 0.134038 0.306059
v 0.172632 0.154710 0.319072
v 0.172632 0.149860 0.330105
v 0.179973 0.154710 0.306059
v 0.180156 0.152654 0.319399
v 0.179775 0.148722 0.328376
v 0.183706 0.146956 0.325692
v 0.179973 0.134038 0.337477
v 0.186196 0.134038 0.330105
v 0.172632 0.142600 0.337477
v 0.180156 0.142815 0.334352
v 0.185220 0.142370 0.328376
v 0.190353 0.142600 0.306059
v 0.186196 0.149860 0.306059
v 0.190353 0.134038 0.319072
v 0.188591 0.142815 0.319399
v 0.185220 0.148722 0.318722
v 0.172632 -0.145963 -0.306058
v 0.172632 -0.123588 -0.340065
v 0.191813 -0.123588 -0.306058
v 0.172632 -0.144260 -0.319072
v 0.172632 -0.139409 -0.330105
v 0.179973 -0.144260 -0.306058
v 0.180156 -0.142204 -0.319398
v 0.179775 -0.138272 -0.328375
v 0.183706 -0.136506 -0.325692
v 0.179973 -0.123588 -0.337476
v 0.186196 -0.123588 -0.330105
v 0.172632 -0.132150 -0.337476
v 0.180156 -0.132365 -0.334352
v 0.185220 -0.131920 -0.328375
v 0.190353 -0.132150 -0.306058
v 0.186196 -0.139409 -0.306058
v 0.190353 -0.123588 -0.319072
v 0.188591 -0.132365 -0.319398
v 0.185220 -0.138272 -0.318721
v 0.172632 0.156413 -0.306058
v 0.191813 0.134038 -0.306058
v 0.172632 0.134038 -0.340065
v 0.179973 0.154710 -0.306058
v 0.186196 0.149860 -0.306058
v 0.172632 0.154710 -0.319072
v 0.180156 0.152654 -0.319398
v 0.185220 0.148722 -0.318721
v 0.183706 0.146956 -0.325692
v 0.190353 0.134038 -0.319072
v 0.186196 0.134038 -0.330105
v 0.190353 0.142600 -0.306058
v 0.188591 0.142815 -0.319398
v 0.185220 0.142370 -0.328375
v 0.172632 0.142600 -0.337476
v 0.172632 0.149860 -0.330105
v 0.179973 0.134038 -0.337476
v 0.180156 0.142815 -0.334352
v 0.179775 0.148722 -0.328375
v -0.146443 -0.145821 0.000000
v -0.156010 -0.144299 0.000000
v -0.164121 -0.139963 0.000000
v -0.169540 -0.133475 0.000000
v -0.171443 -0.125821 0.000000
v -0.146443 0.112378 -0.000000
v -0.156010 0.110856 -0.000000
v -0.164121 0.106520 -0.000000
v -0.169540 0.100032 -0.000000
v -0.171443 0.092378 -0.000000
v 0.146455 -0.145821 0.000000
v 0.156023 -0.144299 0.000000
v 0.164133 -0.139963 0.000000
v 0.169552 -0.133475 0.000000
v 0.171456 -0.125821 0.000000
v 0.146455 0.112378 -0.000000
v 0.156023 0.110856 -0.000000
v 0.164133 0.106520 -0.000000
v 0.169552 0.100032 -0.000000
v 0.171456 0.092378 -0.000000
v -0.146443 -0.145821 0.225000
v -0.156010 0.110856 0.225000
v -0.164121 0.106520 0.225000
v -0.169540 0.100032 0.225000
v -0.171443 0.092378 0.225000
v 0.156023 -0.144299 0.225000
v 0.164133 -0.139963 0.225000
v 0.169552 -0.133475 0.225000
v 0.171456 -0.125821 0.225000
v 0.146455 0.112378 0.225000
v -0.156010 -0.144299 0.225000
v -0.164121 -0.139963 0.225000
v -0.169540 -0.133475 0.225000
v -0.171443 -0.125821 0.225000
v -0.146443 0.112378 0.225000
v 0.146455 -0.145821 0.225000
v 0.156023 0.110856 0.225000
v 0.164133 0.106520 0.225000
v 0.169552 0.100032 0.225000
v 0.171456 0.092378 0.225000
v -0.156010 -0.144299 -0.225000
v -0.164121 -0.139963 -0.225000
v -0.169540 -0.133475 -0.225000
v -0.171443 -0.125821 -0.225000
v -0.146443 0.112378 -0.225000
v 0.146455 -0.145821 -0.225000
v 0.156023 0.110856 -0.225000
v 0.164133 0.106520 -0.225000
v 0.169552 0.100032 -0.225000
v 0.171456 0.092378 -0.225000
v -0.146443 -0.145821 -0.225000
v -0.156010 0.110856 -0.225000
v -0.164121 0.106520 -0.225000
v -0.169540 0.100032 -0.225000
v -0.171443 0.092378 -0.225000
v 0.156023 -0.144299 -0.225000
v 0.164133 -0.139963 -0.225000
v 0.169552 -0.133475 -0.225000
v 0.171456 -0.125821 -0.225000
v 0.146455 0.112378 -0.225000
v -0.179961 -0.144260 -0.229544
v -0.186184 -0.139409 -0.229544
v -0.190342 -0.132150 -0.229544
v -0.191802 -0.123588 -0.229544
v -0.172621 0.156413 -0.229544
v 0.172632 -0.145963 -0.229544
v 0.179973 0.154710 -0.229544
v 0.186196 0.149860 -0.229544
v 0.190353 0.142600 -0.229544
v 0.191813 0.134038 -0.229544
v -0.172621 -0.145963 -0.229544
v -0.179961 0.154710 -0.229544
v -0.186184 0.149860 -0.229544
v -0.190342 0.142600 -0.229544
v -0.191802 0.134038 -0.229544
v 0.179973 -0.144260 -0.229544
v 0.186196 -0.139409 -0.229544
v 0.190353 -0.132150 -0.229544
v 0.191813 -0.123588 -0.229544
v 0.172632 0.156413 -0.229544
v -0.172621 -0.145963 0.229544
v -0.179961 0.154710 0.229544
v -0.186184 0.149860 0.229544
v -0.190342 0.142600 0.229544
v -0.191802 0.134038 0.229544
v 0.179973 -0.144260 0.229544
v 0.186196 -0.139409 0.229544
v 0.190353 -0.132150 0.229544
v 0.191813 -0.123588 0.229544
v 0.172632 0.156413 0.229544
v -0.179961 -0.144260 0.229544
v -0.186184 -0.139409 0.229544
v -0.190342 -0.132150 0.229544
v -0.191802 -0.123588 0.229544
v -0.172621 0.156413 0.229544
v 0.172632 -0.145963 0.229544
v 0.179973 0.154710 0.229544
v 0.186196 0.149860 0.229544
v 0.190353 0.142600 0.229544
v 0.191813 0.134038 0.229544
vn -0.2401 -0.9612 0.1354
vn -0.2313 -0.8892 0.3947
vn -0.6143 -0.7807 0.1145
vn -0.5901 -0.7355 0.3329
vn -0.3395 -0.2911 0.8944
vn -0.7497 -0.2124 0.6268
vn -0.2661 -0.6900 0.6731
vn -0.6445 -0.5526 0.5284
vn -0.9767 -0.1794 0.1180
vn -0.8606 -0.4976 0.1083
vn -0.9201 -0.1759 0.3500
vn -0.8170 -0.4817 0.3170
vn -0.3395 0.2911 0.8944
vn -0.2662 0.6900 0.6731
vn -0.7496 0.2124 0.6268
vn -0.6445 0.5526 0.5284
vn -0.2401 0.9613 0.1354
vn -0.6143 0.7807 0.1146
vn -0.2314 0.8892 0.3947
vn -0.5901 0.7355 0.3329
vn -0.9767 0.1794 0.1180
vn -0.9201 0.1759 0.3500
vn -0.8607 0.4975 0.1083
vn -0.8170 0.4816 0.3170
vn -0.2401 -0.9612 -0.1354
vn -0.6143 -0.7807 -0.1145
vn -0.2314 -0.8892 -0.3947
vn -0.5901 -0.7355 -0.3329
vn -0.9767 -0.1794 -0.1180
vn -0.9201 -0.1759 -0.3500
vn -0.8606 -0.4976 -0.1083
vn -0.8170 -0.4817 -0.3170
vn -0.3392 -0.2944 -0.8935
vn -0.2341 -0.6731 -0.7015
vn -0.7496 -0.2125 -0.6268
vn -0.6448 -0.5523 -0.5284
vn -0.2401 0.9612 -0.1354
vn -0.2315 0.8892 -0.3947
vn -0.6145 0.7805 -0.1146
vn -0.5901 0.7355 -0.3329
vn -0.3396 0.2911 -0.8944
vn -0.7496 0.2125 -0.6268
vn -0.2662 0.6900 -0.6731
vn -0.6445 0.5526 -0.5284
vn -0.9767 0.1794 -0.1180
vn -0.8607 0.4975 -0.1083
vn -0.9201 0.1759 -0.3500
vn -0.8170 0.4817 -0.3170
vn 0.2401 -0.9613 0.1354
vn 0.6144 -0.7807 0.1146
vn 0.2313 -0.8892 0.3947
vn 0.5902 -0.7354 0.3329
vn 0.9767 -0.1793 0.1180
vn 0.9201 -0.1759 0.3501
vn 0.8606 -0.4977 0.1083
vn 0.8169 -0.4818 0.3171
vn 0.3395 -0.2911 0.8944
vn 0.2661 -0.6901 0.6731
vn 0.7496 -0.2125 0.6268
vn 0.6446 -0.5525 0.5284
vn 0.2401 0.9613 0.1355
vn 0.2314 0.8892 0.3947
vn 0.6143 0.7807 0.1146
vn 0.5902 0.7354 0.3329
vn 0.3395 0.2911 0.8944
vn 0.7496 0.2125 0.6268
vn 0.2662 0.6900 0.6731
vn 0.6446 0.5525 0.5284
vn 0.9767 0.1793 0.1180
vn 0.8606 0.4976 0.1083
vn 0.9201 0.1759 0.3501
vn 0.8169 0.4818 0.3171
vn 0.2401 -0.9613 -0.1354
vn 0.2314 -0.8892 -0.3947
vn 0.6144 -0.7806 -0.1146
vn 0.5902 -0.7354 -0.3329
vn 0.3395 -0.2911 -0.8944
vn 0.7496 -0.2125 -0.6268
vn 0.2661 -0.6901 -0.6730
vn 0.6446 -0.5525 -0.5284
vn 0.9767 -0.1793 -0.1179
vn 0.8606 -0.4977 -0.1083
vn 0.9201 -0.1760 -0.3501
vn 0.8169 -0.4818 -0.3170
vn 0.2401 0.9613 -0.1354
vn 0.6143 0.7807 -0.1146
vn 0.2314 0.8892 -0.3947
vn 0.5902 0.7354 -0.3329
vn 0.9767 0.1793 -0.1179
vn 0.9201 0.1760 -0.3501
vn 0.8606 0.4976 -0.1083
vn 0.8169 0.4818 -0.3170
vn 0.3395 0.2911 -0.8944
vn 0.2662 0.6900 -0.6731
vn 0.7496 0.2125 -0.6268
vn 0.6446 0.5525 -0.5284
vn -0.2260 -0.9741 -0.0000
vn -0.6148 -0.7887 -0.0000
vn -0.8678 -0.4970 -0.0000
vn -0.9858 -0.1681 -0.0000
vn -0.3325 -0.0000 0.9431
vn -0.7641 -0.0000 0.6451
vn -0.9358 -0.0000 0.3526
vn -0.9938 -0.0000 0.1115
vn -0.2260 0.9741 -0.0000
vn -0.6147 0.7887 -0.0000
vn -0.8678 0.4969 -0.0000
vn -0.9858 0.1681 -0.0000
vn -0.3103 -0.0007 -0.9507
vn -0.7641 -0.0000 -0.6451
vn -0.9358 -0.0000 -0.3526
vn -0.9938 -0.0000 -0.1115
vn -0.0000 -0.9915 -0.1298
vn -0.0000 -0.9154 -0.4025
vn -0.0009 -0.6916 -0.7223
vn -0.0000 -0.2894 -0.9572
vn -0.0000 0.9915 -0.1298
vn -0.0000 0.9155 -0.4024
vn -0.0000 0.7124 -0.7017
vn -0.0000 0.2894 -0.9572
vn 0.9938 -0.0000 -0.1115
vn 0.9358 -0.0000 -0.3526
vn 0.7641 -0.0000 -0.6451
vn 0.3326 -0.0000 -0.9431
vn 0.2260 -0.9741 -0.0000
vn 0.6148 -0.7887 -0.0000
vn 0.8678 -0.4970 -0.0000
vn 0.9858 -0.1681 -0.0000
vn 0.2260 0.9741 -0.0000
vn 0.6147 0.7888 -0.0000
vn 0.8678 0.4969 -0.0000
vn 0.9858 0.1681 -0.0000
vn 0.3325 -0.0000 0.9431
vn 0.7641 -0.0000 0.6451
vn 0.9358 -0.0000 0.3526
vn 0.9938 -0.0000 0.1115
vn -0.0000 -0.9915 0.1298
vn -0.0000 -0.9154 0.4025
vn -0.0000 -0.7125 0.7016
vn -0.0000 -0.2893 0.9572
vn -0.0000 0.9915 0.1298
vn -0.0000 0.9155 0.4024
vn -0.0000 0.7125 0.7017
vn -0.0000 0.2893 0.9572
vn -0.0000 -1.0000 -0.0000
vn -1.0000 -0.0000 -0.0000
vn -0.0000 -0.0000 1.0000
vn -0.0000 1.0000 -0.0000
vn -0.0006 -0.0008 -1.0000
vn 1.0000 -0.0000 -0.0000
vn 0.9704 0.2414 -0.0000
vn 0.7675 0.6411 -0.0000
vn 0.4715 0.8819 -0.0000
vn 0.1571 0.9876 -0.0000
vn 0.9704 -0.2414 -0.0000
vn 0.7675 -0.6410 -0.0000
vn 0.7675 -0.6411 -0.0000
vn 0.4715 -0.8819 -0.0000
vn 0.1571 -0.9876 -0.0000
vn -0.9705 0.2412 -0.0000
vn -0.7675 0.6411 -0.0000
vn -0.4714 0.8819 -0.0000
vn -0.1571 0.9876 -0.0000
vn -0.9705 -0.2412 -0.0000
vn -0.7675 -0.6411 -0.0000
vn -0.4714 -0.8819 -0.0000
vn -0.1571 -0.9876 -0.0000
vn -0.0177 0.0928 -0.9955
vn -0.0497 0.0776 -0.9957
vn -0.0880 0.0613 -0.9942
vn -0.1531 0.0318 -0.9877
vn 0.1296 -0.6793 -0.7223
vn 0.1888 -0.2946 -0.9368
vn 0.2113 -0.1472 -0.9663
vn 0.2191 -0.0455 -0.9746
vn -0.2178 -0.0000 -0.9760
vn 0.7675 0.6410 -0.0000
vn -0.1296 -0.6792 0.7224
vn -0.1888 -0.2946 0.9368
vn -0.2113 -0.1472 0.9663
vn -0.2191 -0.0454 0.9746
vn 0.0177 0.0928 0.9955
vn 0.0497 0.0776 0.9957
vn 0.0880 0.0613 0.9942
vn 0.1531 0.0318 0.9877
vn -0.0000 -0.9995 0.0312
vn -0.0000 0.1026 0.9947
vn 0.2179 -0.0000 0.9760
vn 0.8676 0.4972 -0.0000
vn 0.6147 0.7887 -0.0000
vn -0.2178 -0.0000 0.9760
vn 0.2191 -0.0455 0.9746
vn 0.2113 -0.1472 0.9663
vn 0.1888 -0.2946 0.9368
vn 0.1296 -0.6793 0.7223
vn -0.1531 0.0318 0.9877
vn -0.0880 0.0613 0.9942
vn -0.0497 0.0776 0.9957
vn -0.0177 0.0928 0.9955
vn -0.6147 0.7888 -0.0000
vn 0.2178 -0.0000 -0.9760
vn -0.0000 0.1026 -0.9947
vn -0.0000 -0.9995 -0.0312
vn 0.1531 0.0318 -0.9877
vn 0.0879 0.0613 -0.9942
vn 0.0497 0.0776 -0.9957
vn 0.0177 0.0928 -0.9955
vn -0.2191 -0.0454 -0.9746
vn -0.2113 -0.1472 -0.9663
vn -0.1888 -0.2946 -0.9368
vn -0.1296 -0.6792 -0.7224
vt 0.686444 0.360725
vt 0.680474 0.360725
vt 0.680325 0.353933
vt 0.686444 0.354100
vt 0.791808 0.322325
vt 0.799329 0.322325
vt 0.799765 0.328772
vt 0.793658 0.329117
vt 0.810090 0.716914
vt 0.808312 0.722934
vt 0.801838 0.722629
vt 0.802119 0.716914
vt 0.731291 0.345090
vt 0.729543 0.339323
vt 0.733523 0.337684
vt 0.736056 0.340767
vt 0.309423 0.360725
vt 0.309430 0.354100
vt 0.319505 0.353934
vt 0.319250 0.360725
vt 0.976617 0.654504
vt 0.982762 0.654504
vt 0.982854 0.663905
vt 0.977861 0.664407
vt 0.807773 0.322325
vt 0.806629 0.329117
vt 0.729543 0.332355
vt 0.734927 0.332546
vt 0.039008 0.692285
vt 0.039008 0.682624
vt 0.045128 0.682382
vt 0.044978 0.692285
vt 0.793552 0.716914
vt 0.794874 0.722934
vt 0.989101 0.654504
vt 0.988004 0.664407
vt 0.739632 0.334591
vt 0.013957 0.360725
vt 0.004144 0.360725
vt 0.003906 0.353934
vt 0.013964 0.354100
vt 0.830213 0.322325
vt 0.838657 0.322325
vt 0.838221 0.328772
vt 0.831357 0.329117
vt 0.976617 0.363836
vt 0.977861 0.353934
vt 0.982854 0.354436
vt 0.982762 0.363836
vt 0.796177 0.345090
vt 0.796177 0.338121
vt 0.800157 0.339761
vt 0.801561 0.344899
vt 0.709009 0.322326
vt 0.709009 0.328951
vt 0.702889 0.329117
vt 0.703039 0.322326
vt 0.793552 0.760704
vt 0.801523 0.760704
vt 0.801804 0.766419
vt 0.795330 0.766724
vt 0.846178 0.322325
vt 0.844329 0.329117
vt 0.797926 0.332355
vt 0.802690 0.336678
vt 0.039008 0.982953
vt 0.044978 0.982953
vt 0.045128 0.992856
vt 0.039008 0.992614
vt 0.989101 0.363836
vt 0.988004 0.353934
vt 0.810090 0.760704
vt 0.808768 0.766724
vt 0.806266 0.342854
vt 0.967260 0.360725
vt 0.967260 0.354100
vt 0.973380 0.353933
vt 0.973230 0.360725
vt 0.849643 0.732193
vt 0.841672 0.732193
vt 0.841391 0.726478
vt 0.847865 0.726173
vt 0.334195 0.360725
vt 0.336044 0.353934
vt 0.342152 0.354278
vt 0.341716 0.360725
vt 0.751210 0.345090
vt 0.746445 0.340767
vt 0.748979 0.337684
vt 0.752959 0.339324
vt 0.884518 0.304477
vt 0.890488 0.304477
vt 0.890637 0.314380
vt 0.884518 0.314138
vt 0.989100 0.677548
vt 0.982762 0.677548
vt 0.982853 0.668147
vt 0.988004 0.667645
vt 0.833105 0.732193
vt 0.834427 0.726173
vt 0.742870 0.334591
vt 0.747574 0.332546
vt 0.660386 0.672355
vt 0.667268 0.672354
vt 0.668996 0.679145
vt 0.658921 0.678979
vt 0.677087 0.672353
vt 0.675787 0.678799
vt 0.976617 0.677548
vt 0.977861 0.667645
vt 0.752959 0.332355
vt 0.782451 0.322326
vt 0.788421 0.322326
vt 0.788571 0.329117
vt 0.782451 0.328951
vt 0.826975 0.010698
vt 0.819455 0.010698
vt 0.819018 0.004251
vt 0.825126 0.003906
vt 0.813328 0.732193
vt 0.815106 0.726172
vt 0.821581 0.726478
vt 0.821299 0.732193
vt 0.764537 0.332355
vt 0.766285 0.338121
vt 0.762306 0.339761
vt 0.759772 0.336678
vt 0.363448 0.672354
vt 0.363455 0.678979
vt 0.353397 0.679144
vt 0.353635 0.672353
vt 0.976617 0.968216
vt 0.982762 0.968216
vt 0.982854 0.977616
vt 0.977861 0.978118
vt 0.811011 0.010698
vt 0.812155 0.003906
vt 0.766285 0.345090
vt 0.760901 0.344899
vt 0.884518 0.013809
vt 0.884518 0.004149
vt 0.890637 0.003906
vt 0.890488 0.013809
vt 0.829867 0.732193
vt 0.828544 0.726172
vt 0.989100 0.968216
vt 0.988004 0.978118
vt 0.756196 0.342854
vt 0.686444 0.672353
vt 0.686444 0.678978
vt 0.680325 0.679144
vt 0.680474 0.672353
vt 0.793552 0.804493
vt 0.801523 0.804493
vt 0.801804 0.810208
vt 0.795330 0.810514
vt 0.791808 0.010698
vt 0.793658 0.003906
vt 0.799765 0.004251
vt 0.799329 0.010698
vt 0.777864 0.345090
vt 0.773099 0.340767
vt 0.775633 0.337684
vt 0.779612 0.339324
vt 0.928977 0.304477
vt 0.934947 0.304477
vt 0.935097 0.314380
vt 0.928977 0.314138
vt 0.973380 0.692285
vt 0.967042 0.692285
vt 0.967133 0.682884
vt 0.972283 0.682382
vt 0.810090 0.804493
vt 0.808768 0.810514
vt 0.769523 0.334591
vt 0.774228 0.332546
vt 0.309423 0.672353
vt 0.319250 0.672353
vt 0.319505 0.679144
vt 0.309430 0.678978
vt 0.807773 0.010698
vt 0.806629 0.003906
vt 0.960897 0.692285
vt 0.962140 0.682382
vt 0.779612 0.332355
vt 0.709009 0.010698
vt 0.703039 0.010698
vt 0.702889 0.003906
vt 0.709009 0.004072
vt 0.846178 0.010698
vt 0.838657 0.010698
vt 0.838221 0.004251
vt 0.844329 0.003906
vt 0.813328 0.688403
vt 0.815107 0.682383
vt 0.821581 0.682688
vt 0.821299 0.688403
vt 0.791191 0.332355
vt 0.792939 0.338121
vt 0.788960 0.339761
vt 0.786426 0.336678
vt 0.013957 0.672353
vt 0.013964 0.678978
vt 0.003906 0.679144
vt 0.004144 0.672353
vt 0.960897 0.982953
vt 0.967042 0.982953
vt 0.967133 0.992353
vt 0.962140 0.992856
vt 0.830213 0.010698
vt 0.831357 0.003906
vt 0.792939 0.345090
vt 0.787555 0.344899
vt 0.928977 0.013809
vt 0.928977 0.004149
vt 0.935097 0.003906
vt 0.934947 0.013809
vt 0.829867 0.688403
vt 0.828545 0.682383
vt 0.973380 0.982953
vt 0.972283 0.992856
vt 0.782850 0.342854
vt 0.967260 0.672353
vt 0.973230 0.672353
vt 0.973380 0.679144
vt 0.967260 0.678978
vt 0.334195 0.672353
vt 0.341716 0.672353
vt 0.342152 0.678800
vt 0.336044 0.679144
vt 0.813328 0.775982
vt 0.815106 0.769962
vt 0.821581 0.770268
vt 0.821299 0.775982
vt 0.704638 0.345090
vt 0.702889 0.339323
vt 0.706869 0.337684
vt 0.709402 0.340767
vt 0.658914 0.360727
vt 0.658921 0.354101
vt 0.668996 0.353935
vt 0.668741 0.360726
vt 0.060849 0.692285
vt 0.054704 0.692285
vt 0.054613 0.682884
vt 0.059605 0.682382
vt 0.350159 0.672353
vt 0.349016 0.679144
vt 0.702889 0.332355
vt 0.708273 0.332545
vt 0.944455 0.304477
vt 0.944455 0.314138
vt 0.938335 0.314380
vt 0.938485 0.304477
vt 0.829867 0.775982
vt 0.828544 0.769962
vt 0.048366 0.692285
vt 0.049462 0.682382
vt 0.712978 0.334591
vt 0.782451 0.010698
vt 0.782451 0.004072
vt 0.788571 0.003906
vt 0.788421 0.010698
vt 0.833105 0.804493
vt 0.841076 0.804493
vt 0.841357 0.810208
vt 0.834883 0.810514
vt 0.826975 0.322325
vt 0.825126 0.329117
vt 0.819018 0.328772
vt 0.819455 0.322325
vt 0.717965 0.332355
vt 0.722729 0.336678
vt 0.720196 0.339761
vt 0.716216 0.338121
vt 0.944455 0.013809
vt 0.938485 0.013809
vt 0.938335 0.003906
vt 0.944455 0.004149
vt 0.048366 0.982953
vt 0.054704 0.982953
vt 0.054613 0.992353
vt 0.049462 0.992856
vt 0.849643 0.804493
vt 0.848321 0.810514
vt 0.726305 0.342854
vt 0.721600 0.344899
vt 0.363448 0.360726
vt 0.353635 0.360725
vt 0.353397 0.353933
vt 0.363455 0.354100
vt 0.811011 0.322325
vt 0.812155 0.329117
vt 0.060849 0.982953
vt 0.059605 0.992856
vt 0.716216 0.345090
vt 0.721546 0.360725
vt 0.721546 0.354100
vt 0.810090 0.682383
vt 0.802119 0.682383
vt 0.793552 0.682383
vt 0.003906 0.682624
vt 0.003906 0.692285
vt 0.747349 0.322326
vt 0.747349 0.328951
vt 0.813328 0.766724
vt 0.821299 0.766724
vt 0.829867 0.766724
vt 0.849416 0.004149
vt 0.849416 0.013809
vt 0.677087 0.360725
vt 0.932158 0.672353
vt 0.932158 0.678978
vt 0.813328 0.810514
vt 0.821299 0.810514
vt 0.829867 0.810514
vt 0.979557 0.314138
vt 0.979557 0.304477
vt 0.744111 0.010698
vt 0.744111 0.004072
vt 0.813328 0.722934
vt 0.821299 0.722934
vt 0.829867 0.722934
vt 0.893875 0.004149
vt 0.893875 0.013809
vt 0.721546 0.672353
vt 0.849416 0.304477
vt 0.744111 0.322326
vt 0.893875 0.304477
vt 0.559840 0.691018
vt 0.559840 0.937203
vt 0.456619 0.937203
vt 0.456619 0.691018
vt 0.064087 0.955389
vt 0.064087 0.691017
vt 0.167308 0.691017
vt 0.167308 0.955389
vt 0.769520 0.691018
vt 0.769520 0.937203
vt 0.666299 0.937203
vt 0.666299 0.691018
vt 0.930073 0.384353
vt 0.930073 0.648725
vt 0.826852 0.648725
vt 0.826852 0.384353
vt 0.559840 0.945838
vt 0.456619 0.945838
vt 0.310718 0.682382
vt 0.310718 0.783926
vt 0.301949 0.783926
vt 0.301949 0.682382
vt 0.319505 0.682382
vt 0.319505 0.783926
vt 0.167308 0.964024
vt 0.064087 0.964024
vt 0.353397 0.682383
vt 0.456619 0.682383
vt 0.353397 0.691018
vt 0.282554 0.885469
vt 0.282554 0.783926
vt 0.291323 0.783926
vt 0.291323 0.885469
vt 0.273767 0.885469
vt 0.273767 0.783926
vt 0.723631 0.648725
vt 0.826852 0.657360
vt 0.723631 0.657360
vt 0.769520 0.945838
vt 0.666299 0.945838
vt 0.341372 0.682383
vt 0.341372 0.783926
vt 0.332604 0.783926
vt 0.332604 0.682383
vt 0.350159 0.682383
vt 0.350159 0.783926
vt 0.270529 0.691017
vt 0.167308 0.682382
vt 0.270529 0.682382
vt 0.563078 0.682383
vt 0.666299 0.682383
vt 0.563078 0.691018
vt 0.781545 0.885469
vt 0.781545 0.783926
vt 0.790314 0.783926
vt 0.790314 0.885469
vt 0.772758 0.885469
vt 0.772758 0.783926
vt 0.826852 0.375718
vt 0.930073 0.375718
vt 0.370711 0.003906
vt 0.394338 0.054397
vt 0.385703 0.056143
vt 0.364086 0.005860
vt 0.378382 0.061115
vt 0.358469 0.011423
vt 0.373491 0.068557
vt 0.354716 0.019748
vt 0.371773 0.077334
vt 0.353398 0.029568
vt 0.682338 0.350695
vt 0.658709 0.350520
vt 0.667344 0.348774
vt 0.688963 0.348742
vt 0.674665 0.343802
vt 0.694579 0.343179
vt 0.679557 0.336360
vt 0.698333 0.334854
vt 0.681274 0.327583
vt 0.699651 0.325034
vt 0.353397 0.325034
vt 0.371772 0.327583
vt 0.353397 0.937203
vt 0.270529 0.955389
vt 0.723631 0.384353
vt 0.353397 0.945838
vt 0.310718 0.885469
vt 0.301949 0.885469
vt 0.319505 0.885469
vt 0.270529 0.964024
vt 0.769520 0.682383
vt 0.781545 0.682383
vt 0.790314 0.682383
vt 0.772758 0.682383
vt 0.723631 0.375718
vt 0.021219 0.003906
vt 0.044847 0.004081
vt 0.036212 0.005827
vt 0.014594 0.005860
vt 0.028892 0.010800
vt 0.008977 0.011423
vt 0.024000 0.018241
vt 0.005224 0.019748
vt 0.022282 0.027019
vt 0.003906 0.029568
vt 0.332847 0.350696
vt 0.309219 0.300205
vt 0.317854 0.298459
vt 0.339472 0.348742
vt 0.325175 0.293487
vt 0.345089 0.343179
vt 0.330067 0.286045
vt 0.348841 0.334854
vt 0.331784 0.277267
vt 0.350159 0.325034
vt 0.932158 0.360725
vt 0.021219 0.350696
vt 0.044847 0.300205
vt 0.350159 0.029568
vt 0.331784 0.027019
vt 0.563078 0.937203
vt 0.559840 0.682383
vt 0.282554 0.682382
vt 0.291323 0.682382
vt 0.273767 0.682382
vt 0.930073 0.657360
vt 0.563078 0.945838
vt 0.341372 0.885469
vt 0.332604 0.885469
vt 0.350159 0.885469
vt 0.064087 0.682382
vt 0.979557 0.013809
vt 0.747349 0.010698
vt 0.979557 0.004149
vt 0.841076 0.769962
vt 0.849643 0.769962
vt 0.833105 0.769962
vt 0.747349 0.004072
vt 0.849416 0.314138
vt 0.841672 0.766724
vt 0.833105 0.766724
vt 0.849643 0.766724
vt 0.932158 0.354100
vt 0.022282 0.277267
vt 0.003906 0.325034
vt 0.330067 0.018241
vt 0.348841 0.019748
vt 0.325175 0.010800
vt 0.345089 0.011423
vt 0.317855 0.005827
vt 0.339472 0.005860
vt 0.309219 0.004081
vt 0.332847 0.003906
vt 0.024000 0.286045
vt 0.005224 0.334854
vt 0.028892 0.293487
vt 0.008977 0.343179
vt 0.036212 0.298459
vt 0.014594 0.348742
vt 0.003906 0.982953
vt 0.893875 0.314138
vt 0.801523 0.769962
vt 0.810090 0.769962
vt 0.793552 0.769962
vt 0.721546 0.678978
vt 0.003906 0.992614
vt 0.801523 0.726172
vt 0.810090 0.726172
vt 0.793552 0.726172
vt 0.744111 0.328951
vt 0.681275 0.077334
vt 0.699651 0.029568
vt 0.658710 0.054397
vt 0.682339 0.003906
vt 0.679558 0.068557
vt 0.698333 0.019748
vt 0.674666 0.061115
vt 0.694581 0.011423
vt 0.667345 0.056143
vt 0.688964 0.005860
vt 0.373490 0.336360
vt 0.354715 0.334854
vt 0.378381 0.343802
vt 0.358468 0.343179
vt 0.385702 0.348774
vt 0.364085 0.348742
vt 0.394337 0.350520
vt 0.370710 0.350695
s 1
usemtl UVFaceColor_UDIM_Material.002
f 1/1/1 4/2/1 7/3/1 6/4/1
f 4/5/2 5/6/2 8/7/2 7/8/2
f 6/9/3 7/10/3 19/11/3 16/12/3
f 7/13/4 8/14/4 9/15/4 19/16/4
f 2/17/5 10/18/5 13/19/5 12/20/5
f 10/21/6 11/22/6 14/23/6 13/24/6
f 12/25/7 13/26/7 8/7/7 5/6/7
f 13/27/8 14/28/8 9/15/8 8/14/8
f 3/29/9 15/30/9 18/31/9 17/32/9
f 15/33/10 16/12/10 19/11/10 18/34/10
f 17/35/11 18/36/11 14/23/11 11/22/11
f 18/37/12 19/16/12 9/15/12 14/28/12
f 20/38/13 23/39/13 26/40/13 25/41/13
f 23/42/14 24/43/14 27/44/14 26/45/14
f 25/46/15 26/47/15 38/48/15 35/49/15
f 26/50/16 27/51/16 28/52/16 38/53/16
f 21/54/17 29/55/17 32/56/17 31/57/17
f 29/58/18 30/59/18 33/60/18 32/61/18
f 31/62/19 32/63/19 27/44/19 24/43/19
f 32/64/20 33/65/20 28/52/20 27/51/20
f 22/66/21 34/67/21 37/68/21 36/69/21
f 34/70/22 35/49/22 38/48/22 37/71/22
f 36/72/23 37/73/23 33/60/23 30/59/23
f 37/74/24 38/53/24 28/52/24 33/65/24
f 39/75/25 42/76/25 45/77/25 44/78/25
f 42/79/26 43/80/26 46/81/26 45/82/26
f 44/83/27 45/84/27 57/85/27 54/86/27
f 45/87/28 46/88/28 47/89/28 57/90/28
f 40/91/29 48/92/29 51/93/29 50/94/29
f 48/95/30 49/96/30 52/97/30 51/98/30
f 50/99/31 51/100/31 46/81/31 43/80/31
f 51/101/32 52/102/32 47/89/32 46/88/32
f 41/103/33 53/104/33 56/105/33 55/106/33
f 53/104/34 54/107/34 57/108/34 56/105/34
f 55/109/35 56/110/35 52/97/35 49/96/35
f 56/111/36 57/90/36 47/89/36 52/102/36
f 58/112/37 61/113/37 64/114/37 63/115/37
f 61/116/38 62/117/38 65/118/38 64/119/38
f 63/120/39 64/121/39 76/122/39 73/123/39
f 64/124/40 65/125/40 66/126/40 76/127/40
f 59/128/41 67/129/41 70/130/41 69/131/41
f 67/132/42 68/133/42 71/134/42 70/135/42
f 69/136/43 70/137/43 65/118/43 62/117/43
f 70/138/44 71/139/44 66/126/44 65/125/44
f 60/140/45 72/141/45 75/142/45 74/143/45
f 72/144/46 73/123/46 76/122/46 75/145/46
f 74/146/47 75/147/47 71/134/47 68/133/47
f 75/148/48 76/127/48 66/126/48 71/139/48
f 77/149/49 80/150/49 83/151/49 82/152/49
f 80/153/50 81/154/50 84/155/50 83/156/50
f 82/157/51 83/158/51 95/159/51 92/160/51
f 83/161/52 84/162/52 85/163/52 95/164/52
f 78/165/53 86/166/53 89/167/53 88/168/53
f 86/169/54 87/170/54 90/171/54 89/172/54
f 88/173/55 89/174/55 84/155/55 81/154/55
f 89/175/56 90/176/56 85/163/56 84/162/56
f 79/177/57 91/178/57 94/179/57 93/180/57
f 91/181/58 92/160/58 95/159/58 94/182/58
f 93/183/59 94/184/59 90/171/59 87/170/59
f 94/185/60 95/164/60 85/163/60 90/176/60
f 96/186/61 99/187/61 102/188/61 101/189/61
f 99/190/62 100/191/62 103/192/62 102/193/62
f 101/194/63 102/195/63 114/196/63 111/197/63
f 102/198/64 103/199/64 104/200/64 114/201/64
f 97/202/65 105/203/65 108/204/65 107/205/65
f 105/206/66 106/207/66 109/208/66 108/209/66
f 107/210/67 108/211/67 103/192/67 100/191/67
f 108/212/68 109/213/68 104/200/68 103/199/68
f 98/214/69 110/215/69 113/216/69 112/217/69
f 110/218/70 111/197/70 114/196/70 113/219/70
f 112/220/71 113/221/71 109/208/71 106/207/71
f 113/222/72 114/201/72 104/200/72 109/213/72
f 115/223/73 118/224/73 121/225/73 120/226/73
f 118/227/74 119/228/74 122/229/74 121/230/74
f 120/231/75 121/232/75 133/233/75 130/234/75
f 121/235/76 122/236/76 123/237/76 133/238/76
f 116/239/77 124/240/77 127/241/77 126/242/77
f 124/243/78 125/244/78 128/245/78 127/246/78
f 126/247/79 127/248/79 122/229/79 119/228/79
f 127/249/80 128/250/80 123/237/80 122/236/80
f 117/251/81 129/252/81 132/253/81 131/254/81
f 129/255/82 130/234/82 133/233/82 132/256/82
f 131/257/83 132/258/83 128/245/83 125/244/83
f 132/259/84 133/238/84 123/237/84 128/250/84
f 134/260/85 137/261/85 140/262/85 139/263/85
f 137/264/86 138/265/86 141/266/86 140/267/86
f 139/268/87 140/269/87 152/270/87 149/271/87
f 140/272/88 141/273/88 142/274/88 152/275/88
f 135/276/89 143/277/89 146/278/89 145/279/89
f 143/280/90 144/281/90 147/282/90 146/283/90
f 145/284/91 146/285/91 141/266/91 138/265/91
f 146/286/92 147/287/92 142/274/92 141/273/92
f 136/288/93 148/289/93 151/290/93 150/291/93
f 148/292/94 149/271/94 152/270/94 151/293/94
f 150/294/95 151/295/95 147/282/95 144/281/95
f 151/296/96 152/275/96 142/274/96 147/287/96
f 233/297/97 1/1/97 6/4/97 243/298/97
f 243/299/98 6/9/98 16/12/98 244/300/98
f 244/300/99 16/12/99 15/33/99 245/301/99
f 245/302/100 15/30/100 3/29/100 246/303/100
f 2/17/101 20/38/101 25/41/101 10/18/101
f 10/21/102 25/46/102 35/49/102 11/22/102
f 11/22/103 35/49/103 34/70/103 17/35/103
f 17/32/104 34/67/104 22/66/104 3/29/104
f 217/304/105 58/112/105 63/115/105 224/305/105
f 224/306/106 63/120/106 73/123/106 225/307/106
f 225/307/107 73/123/107 72/144/107 226/308/107
f 226/309/108 72/141/108 60/140/108 227/310/108
f 59/128/109 41/103/109 55/106/109 67/129/109
f 67/132/110 55/109/110 49/96/110 68/133/110
f 68/133/111 49/96/111 48/95/111 74/146/111
f 74/143/112 48/92/112 40/91/112 60/140/112
f 115/223/113 39/75/113 44/78/113 118/224/113
f 118/227/114 44/83/114 54/86/114 119/228/114
f 119/311/115 54/107/115 53/104/115 126/242/115
f 126/242/116 53/104/116 41/103/116 116/239/116
f 58/112/117 134/260/117 139/263/117 61/113/117
f 61/116/118 139/268/118 149/271/118 62/117/118
f 62/117/119 149/271/119 148/292/119 69/136/119
f 69/131/120 148/289/120 136/288/120 59/128/120
f 135/276/121 117/251/121 131/254/121 143/277/121
f 143/280/122 131/257/122 125/244/122 144/281/122
f 144/281/123 125/244/123 124/243/123 150/294/123
f 150/291/124 124/240/124 116/239/124 136/288/124
f 218/312/125 115/223/125 120/226/125 228/313/125
f 228/314/126 120/231/126 130/234/126 229/315/126
f 229/315/127 130/234/127 129/255/127 230/316/127
f 230/317/128 129/252/128 117/251/128 231/318/128
f 242/319/129 96/186/129 101/189/129 249/320/129
f 249/321/130 101/194/130 111/197/130 250/322/130
f 250/322/131 111/197/131 110/218/131 251/323/131
f 251/324/132 110/215/132 98/214/132 252/325/132
f 97/202/133 79/177/133 93/180/133 105/203/133
f 105/206/134 93/183/134 87/170/134 106/207/134
f 106/207/135 87/170/135 86/169/135 112/220/135
f 112/217/136 86/166/136 78/165/136 98/214/136
f 1/1/137 77/149/137 82/152/137 4/2/137
f 4/5/138 82/157/138 92/160/138 5/6/138
f 5/6/139 92/160/139 91/181/139 12/25/139
f 12/20/140 91/178/140 79/177/140 2/17/140
f 96/186/141 21/54/141 31/57/141 99/187/141
f 99/190/142 31/62/142 24/43/142 100/191/142
f 100/191/143 24/43/143 23/42/143 107/210/143
f 107/205/144 23/39/144 20/38/144 97/202/144
f 233/297/145 248/326/145 77/149/145 1/1/145
f 216/327/146 227/310/146 60/140/146 40/91/146
f 79/177/147 97/202/147 20/38/147 2/17/147
f 242/319/148 247/328/148 21/54/148 96/186/148
f 41/103/149 59/128/149 136/288/149 116/239/149
f 241/329/150 252/325/150 98/214/150 78/165/150
f 211/330/150 202/331/150 172/332/150 167/333/150
f 212/334/148 197/335/148 158/336/148 168/337/148
f 186/338/146 177/339/146 162/340/146 157/341/146
f 203/342/145 198/343/145 163/344/145 153/345/145
f 201/346/151 171/347/151 172/332/151 202/331/151
f 200/348/152 170/349/152 171/350/152 201/351/152
f 199/352/153 169/353/153 170/349/153 200/348/153
f 212/334/154 168/337/154 169/354/154 199/355/154
f 180/356/155 166/357/155 167/333/155 181/358/155
f 179/359/156 165/360/157 166/361/157 180/362/156
f 178/363/158 164/364/158 165/360/158 179/359/158
f 188/365/159 163/344/159 164/366/159 178/367/159
f 176/368/160 161/369/160 162/340/160 177/339/160
f 175/370/161 160/371/161 161/372/161 176/373/161
f 174/374/162 159/375/162 160/371/162 175/370/162
f 187/376/163 158/336/163 159/377/163 174/378/163
f 195/379/164 156/380/164 157/341/164 196/381/164
f 194/382/165 155/383/165 156/384/165 195/385/165
f 193/386/166 154/387/166 155/383/166 194/382/166
f 203/342/167 153/345/167 154/388/167 193/389/167
f 247/390/168 187/391/168 174/392/168 234/393/168
f 234/393/169 174/392/169 175/394/169 235/395/169
f 235/395/170 175/394/170 176/396/170 236/397/170
f 236/397/171 176/396/171 177/398/171 237/399/171
f 248/400/172 188/401/172 178/402/172 238/403/172
f 238/403/173 178/402/173 179/404/173 239/405/173
f 239/405/174 179/404/174 180/406/174 240/407/174
f 240/407/175 180/406/175 181/408/175 241/409/175
f 246/410/176 237/399/176 177/398/176 186/411/176
f 167/333/150 172/332/150 192/412/150 181/358/150
f 168/337/148 158/336/148 187/376/148 182/413/148
f 153/345/145 163/344/145 188/365/145 173/414/145
f 171/347/151 191/415/151 192/412/151 172/332/151
f 170/349/152 190/416/177 191/417/177 171/350/152
f 169/353/153 189/418/153 190/416/153 170/349/153
f 168/337/154 182/413/154 189/419/154 169/354/154
f 156/380/164 185/420/164 186/338/164 157/341/164
f 155/383/165 184/421/165 185/422/165 156/384/165
f 154/387/166 183/423/166 184/421/166 155/383/166
f 153/345/167 173/414/167 183/424/167 154/388/167
f 223/425/178 203/426/178 193/427/178 213/428/178
f 213/428/179 193/427/179 194/429/179 214/430/179
f 214/430/180 194/429/180 195/431/180 215/432/180
f 215/432/181 195/431/181 196/433/181 216/434/181
f 232/435/182 212/436/182 199/437/182 219/438/182
f 219/438/183 199/437/183 200/439/183 220/440/183
f 220/440/184 200/439/184 201/441/184 221/442/184
f 221/442/185 201/441/185 202/443/185 222/444/185
f 223/445/186 218/312/186 198/343/186 203/342/186
f 232/435/187 217/446/187 197/447/187 212/436/187
f 231/448/188 222/444/188 202/443/188 211/449/188
f 157/341/146 162/340/146 207/450/146 196/381/146
f 166/357/155 210/451/155 211/330/155 167/333/155
f 165/360/157 209/452/157 210/453/157 166/361/157
f 164/364/158 208/454/158 209/452/158 165/360/158
f 163/344/159 198/343/159 208/455/159 164/366/159
f 161/369/160 206/456/160 207/450/160 162/340/160
f 160/371/161 205/457/161 206/458/161 161/372/161
f 159/375/162 204/459/162 205/457/162 160/371/162
f 158/336/163 197/335/163 204/460/163 159/377/163
f 117/251/150 135/276/150 222/461/150 231/318/150
f 134/260/148 58/112/148 217/304/148 232/462/148
f 39/75/145 115/223/145 218/312/145 223/445/145
f 145/279/132 221/463/132 222/461/132 135/276/132
f 138/265/189 220/464/189 221/465/189 145/284/189
f 137/264/190 219/466/190 220/464/190 138/265/190
f 134/260/129 232/462/129 219/467/129 137/261/129
f 50/94/100 215/468/100 216/327/100 40/91/100
f 43/80/99 214/469/99 215/470/99 50/99/99
f 42/79/98 213/471/98 214/469/98 43/80/98
f 39/75/97 223/445/97 213/472/97 42/76/97
f 196/433/191 207/473/191 227/474/191 216/434/191
f 210/475/192 230/476/192 231/448/192 211/449/192
f 209/477/193 229/478/193 230/476/193 210/475/193
f 208/479/194 228/480/194 229/478/194 209/477/194
f 198/481/195 218/482/195 228/480/195 208/479/195
f 206/483/196 226/484/196 227/474/196 207/473/196
f 205/485/197 225/486/197 226/484/197 206/483/197
f 204/487/198 224/488/198 225/486/198 205/485/198
f 197/447/199 217/446/199 224/488/199 204/487/199
f 3/29/146 22/66/146 237/489/146 246/303/146
f 88/168/128 240/490/128 241/329/128 78/165/128
f 81/154/127 239/491/127 240/492/127 88/173/127
f 80/153/126 238/493/126 239/491/126 81/154/126
f 77/149/125 248/326/125 238/494/125 80/150/125
f 36/69/108 236/495/108 237/489/108 22/66/108
f 30/59/107 235/496/107 236/497/107 36/72/107
f 29/58/200 234/498/200 235/496/200 30/59/200
f 21/54/105 247/328/105 234/499/105 29/55/105
f 181/408/201 192/500/201 252/501/201 241/409/201
f 182/502/202 187/391/202 247/390/202 242/503/202
f 173/414/203 188/365/203 248/326/203 233/297/203
f 191/504/204 251/505/204 252/501/204 192/500/204
f 190/506/205 250/507/205 251/505/205 191/504/205
f 189/508/206 249/509/206 250/507/206 190/506/206
f 182/502/207 242/503/207 249/509/207 189/508/207
f 185/510/208 245/511/208 246/410/208 186/411/208
f 184/512/209 244/513/209 245/511/209 185/510/209
f 183/514/210 243/515/210 244/513/210 184/512/210
f 173/516/211 233/517/211 243/515/211 183/514/211
