# File generated by ImageToStl.com - Free Image and 3D model conversion tools

o obj1
v -6.77359152 -10.76000214 27.14133263
v -6.77359152 -10.76000023 18.93121529
v -6.77359152 -26.19532013 18.93121338
v -6.77359152 -26.19532013 27.14133072
v 6.85321474 -26.19532013 18.93121338
v 6.85321474 -26.19532013 27.14133072
v 6.85321474 -10.76000023 18.93121529
v 6.85321474 -10.76000214 27.14133263
v -6.77359152 -13.70397663 46.11740112
v 6.85321474 -13.70397663 46.11740112
v 6.85321474 -10.76000214 46.11740112
v -6.77359152 -10.76000214 46.11740112
v 0.75248766 -20.0139904 18.93121338
v 0.82377148 -19.97283936 18.93121338
v -0.8975507 -19.97283936 18.93121338
v -0.82629293 -20.0139904 18.93121338
v 0.67923105 -20.05153275 18.93121338
v 0.60423523 -20.08537674 18.93121338
v -0.75306237 -20.05153275 18.93121338
v -0.67801458 -20.08537674 18.93121338
v 0.52760398 -20.11544418 18.93121338
v 0.44962275 -20.14165688 18.93121338
v -0.60140926 -20.11544418 18.93121338
v -0.52340215 -20.14165688 18.93121338
v 0.3703956 -20.16394997 18.93121338
v 0.29013005 -20.18226433 18.93121338
v -0.444175 -20.16394997 18.93121338
v -0.36393547 -20.18226433 18.93121338
v 0.20908576 -20.19655418 18.93121338
v 0.12741843 -20.20678902 18.93121338
v -0.28289115 -20.19655418 18.93121338
v -0.20122379 -20.20678902 18.93121338
v 0.04536171 -20.21293449 18.93121338
v -0.03690268 -20.21498489 18.93121338
v -0.11916707 -20.21293449 18.93121338
v -0.96667963 -19.92818832 18.93121338
v 0.8928746 -19.92818832 18.93121338
v 0.95969331 -19.88014603 18.93121338
v -1.03349853 -19.88014603 18.93121338
v -1.09785104 -19.82883644 18.93121338
v 1.02404594 -19.82883644 18.93121338
v 1.0857507 -19.77438164 18.93121338
v -1.15955591 -19.77438164 18.93121338
v -1.21848297 -19.71691513 18.93121338
v 1.14467776 -19.71691513 18.93121338
v 1.20064557 -19.65658569 18.93121338
v -1.27442479 -19.65658569 18.93121338
v -1.32732952 -19.59354401 18.93121338
v 1.25355029 -19.59354401 18.93121338
v 1.30323601 -19.52793884 18.93121338
v -1.37704122 -19.52793884 18.93121338
v -1.4234041 -19.45994568 18.93121338
v 1.349599 -19.45994568 18.93121338
v 1.39250934 -19.38971901 18.93121338
v -1.46628857 -19.38971901 18.93121338
v 1.43186331 -19.31744194 18.93121338
v -1.50566852 -19.31744194 18.93121338
v -1.54136229 -19.24328995 18.93121338
v 1.46758306 -19.24328995 18.93121338
v 1.49953878 -19.16745758 18.93121338
v -1.57336986 -19.16745758 18.93121338
v -1.60150957 -19.09011841 18.93121338
v 1.52770436 -19.09011841 18.93121338
v 1.55197608 -19.01148224 18.93121338
v -1.62575543 -19.01148224 18.93121338
v -1.64605546 -18.93172836 18.93121529
v 1.57227612 -18.93172836 18.93121529
v 1.58857846 -18.85106087 18.93121529
v -1.66238356 -18.85106087 18.93121529
v -1.67461026 -18.76968002 18.93121529
v 1.60083115 -18.76968002 18.93121529
v 1.60903418 -18.68779182 18.93121529
v -1.68283927 -18.68779182 18.93121529
v -1.68691504 -18.60559273 18.93121529
v 1.6131357 -18.60559273 18.93121529
v 1.6131357 -18.52329636 18.93121529
v -1.68691504 -18.52329636 18.93121529
v -1.68283927 -18.44110298 18.93121338
v 1.60903418 -18.44110298 18.93121338
v 1.60083115 -18.35921478 18.93121338
v -1.67461026 -18.35921478 18.93121338
v -1.66238356 -18.27783203 18.93121338
v 1.58857846 -18.27783203 18.93121338
v 1.57227612 -18.19716454 18.93121338
v -1.64605546 -18.19716454 18.93121338
v -1.62575543 -18.11741257 18.93121338
v 1.55197608 -18.11741257 18.93121338
v 1.52770436 -18.03876877 18.93121338
v -1.60150957 -18.03876877 18.93121338
v -1.57336986 -17.96143723 18.93121338
v 1.49953878 -17.96143723 18.93121338
v 1.46758306 -17.88559723 18.93121338
v -1.54136229 -17.88559723 18.93121338
v -1.50566852 -17.81145096 18.93121338
v 1.43186331 -17.81145096 18.93121338
v 1.39250934 -17.73917389 18.93121338
v -1.46628857 -17.73917389 18.93121338
v -1.4234041 -17.66894913 18.93121338
v 1.349599 -17.66894913 18.93121338
v 1.30323601 -17.60095596 18.93121338
v -1.37704122 -17.60095596 18.93121338
v -1.32732952 -17.5353508 18.93121338
v 1.25355029 -17.5353508 18.93121338
v 1.20064557 -17.47230911 18.93121338
v -1.27442479 -17.47230911 18.93121338
v -1.21848297 -17.41197968 18.93121338
v 1.14467776 -17.41197968 18.93121338
v 1.0857507 -17.35451317 18.93121338
v -1.15955591 -17.35451317 18.93121338
v -1.09785104 -17.30005646 18.93121338
v 1.02404594 -17.30005646 18.93121338
v 0.95969331 -17.24874496 18.93121338
v -1.03349853 -17.24874496 18.93121338
v 0.8928746 -17.20070457 18.93121338
v 0.82377148 -17.15605164 18.93121338
v -0.96667963 -17.20070457 18.93121338
v -0.8975507 -17.15605164 18.93121338
v 0.75248766 -17.1149044 18.93121338
v 0.67923105 -17.07736015 18.93121338
v -0.82629293 -17.1149044 18.93121338
v -0.75306237 -17.07736015 18.93121338
v 0.60423523 -17.04351044 18.93121338
v 0.52760398 -17.01344299 18.93121338
v -0.67801458 -17.04351044 18.93121338
v -0.60140926 -17.01344299 18.93121338
v 0.44962275 -16.98723412 18.93121338
v 0.3703956 -16.96494484 18.93121338
v -0.52340215 -16.98723412 18.93121338
v -0.444175 -16.96494484 18.93121338
v 0.29013005 -16.94663048 18.93121338
v 0.20908576 -16.93234062 18.93121338
v -0.36393547 -16.94663048 18.93121338
v -0.28289115 -16.93234062 18.93121338
v 0.12741843 -16.92210579 18.93121338
v 0.04536171 -16.91595268 18.93121338
v -0.20122379 -16.92210579 18.93121338
v -0.11916707 -16.91595268 18.93121338
v -0.03690268 -16.91390228 18.93121338
v 6.85321474 -10.76000214 31.31828499
v -6.77359152 -10.76000214 31.31828499
v 6.85321474 -15.67680073 32.3012352
v -1.77110612 -17.5564518 31.37916565
v -1.71907675 -17.47067642 31.42124367
v -6.77359152 -15.67680073 32.3012352
v 1.64527047 -17.47067642 31.42124367
v 1.69733143 -17.5564518 31.37916565
v 1.74507785 -17.64473152 31.3358593
v -1.8188839 -17.64473152 31.3358593
v 1.78841472 -17.73529243 31.29143524
v -1.86218929 -17.73529243 31.29143524
v -1.90102255 -17.82792473 31.24599457
v 1.82718515 -17.82792473 31.24599457
v 1.86135709 -17.92237854 31.19965935
v -1.93516302 -17.92237854 31.19965935
v -1.96457922 -18.01843452 31.1525383
v 1.89080477 -18.01843452 31.1525383
v 1.91543376 -18.11584473 31.10475349
v -1.9892081 -18.11584473 31.10475349
v -2.00901842 -18.21437454 31.05641937
v 1.93521249 -18.21437454 31.05641937
v 1.95007801 -18.31377411 31.007658
v -2.02385259 -18.31377411 31.007658
v -2.03383636 -18.41379356 30.95859337
v 1.96003032 -18.41379356 30.95859337
v 1.96500659 -18.51418495 30.90934563
v -2.03878093 -18.51418495 30.90934563
v -2.03878093 -18.61470413 30.86003494
v 1.96500659 -18.61470413 30.86003494
v 1.96003032 -18.71510315 30.81078339
v -2.03383636 -18.71510315 30.81078339
v -2.02385259 -18.8151207 30.76171875
v 1.95007801 -18.8151207 30.76171875
v 1.93521249 -18.91452217 30.71295929
v -2.00901842 -18.91452217 30.71295929
v -1.9892081 -19.01305008 30.66462326
v 1.91543376 -19.01305008 30.66462326
v 1.89080477 -19.11046219 30.61683846
v -1.96457922 -19.11046219 30.61683846
v -1.93516302 -19.20651054 30.56972313
v 1.86135709 -19.20651054 30.56972313
v 1.82718515 -19.30097198 30.52338409
v -1.90102255 -19.30097198 30.52338409
v -1.86218941 -19.39359474 30.47794724
v 1.7884146 -19.39359474 30.47794724
v 1.74507773 -19.48416519 30.43351746
v -1.81888402 -19.48416519 30.43351746
v -1.77110636 -19.57244492 30.39021111
v 1.69733131 -19.57244492 30.39021111
v 1.64527035 -19.65822029 30.34813499
v -1.71907675 -19.65822029 30.34813499
v -1.6628269 -19.74126816 30.30739403
v 1.58902049 -19.74126816 30.30739403
v 1.52873945 -19.82139778 30.26808548
v -1.60251415 -19.82139778 30.26808548
v -1.53832746 -19.89839935 30.23031235
v 1.46455276 -19.89839935 30.23031235
v 1.39664972 -19.97208405 30.19416618
v -1.47045612 -19.97208405 30.19416618
v -1.39896274 -20.04227448 30.15973473
v 1.32515633 -20.04227448 30.15973473
v 1.25029302 -20.10878754 30.12710571
v -1.32409942 -20.10878754 30.12710571
v -1.24602354 -20.17145729 30.09636307
v 1.17221713 -20.17145729 30.09636307
v 1.09114921 -20.23013687 30.06757736
v -1.16495562 -20.23013687 30.06757736
v 1.00730991 -20.28467369 30.04082489
v 0.92082494 -20.33493614 30.01616669
v -1.08108473 -20.28467369 30.04082489
v -0.99463123 -20.33493614 30.01616669
v 0.83194649 -20.38079262 29.99367332
v 0.74095774 -20.42213058 29.97339439
v -0.90578419 -20.38079262 29.99367332
v -0.81473237 -20.42213058 29.97339439
v 0.6479848 -20.45885468 29.95537949
v 0.55337411 -20.49087143 29.93967438
v -0.72179097 -20.45885468 29.95537949
v -0.62714881 -20.49087143 29.93967438
v 0.45725173 -20.51809883 29.92631721
v 0.35986951 -20.54046822 29.91534424
v -0.53102636 -20.51809883 29.92631721
v -0.43367574 -20.54046822 29.91534424
v 0.26154244 -20.55792236 29.90678024
v 0.16245951 -20.57042313 29.90065002
v -0.33534873 -20.55792236 29.90678024
v -0.23626576 -20.57042313 29.90065002
v 0.06290419 -20.57793045 29.89696693
v -0.03690312 -20.5804348 29.89573669
v -0.13671042 -20.57793045 29.89696693
v 1.58902049 -17.38762856 31.46198273
v -1.66282678 -17.38762856 31.46198273
v -1.60251403 -17.30749702 31.50129128
v 1.52873945 -17.30749702 31.50129128
v 1.46455276 -17.23049736 31.53906441
v -1.53832746 -17.23049736 31.53906441
v -1.47045612 -17.15681076 31.57521057
v 1.39664984 -17.15681076 31.57521057
v 1.32515645 -17.08662033 31.60964394
v -1.39896274 -17.08662033 31.60964394
v -1.3240993 -17.02010727 31.64227104
v 1.25029302 -17.02010727 31.64227104
v 1.17221713 -16.95743561 31.67301559
v -1.24602342 -16.95743561 31.67301559
v -1.1649555 -16.89875793 31.70179939
v 1.09114933 -16.89875793 31.70179939
v 1.00731003 -16.84421921 31.72855377
v -1.08108473 -16.84421921 31.72855377
v -0.99463111 -16.79396057 31.75321007
v 0.92082506 -16.79396057 31.75321007
v 0.83194655 -16.7481041 31.77570343
v -0.90578407 -16.7481041 31.77570343
v -0.81473237 -16.7067585 31.79598618
v 0.7409578 -16.7067585 31.79598618
v 0.64798486 -16.67003441 31.81400299
v -0.72179085 -16.67003441 31.81400299
v -0.62714869 -16.63802147 31.82970428
v 0.55337417 -16.63802147 31.82970428
v 0.45725176 -16.61079788 31.84305954
v -0.53102624 -16.61079788 31.84305954
v -0.43367568 -16.5884285 31.85403442
v 0.35986957 -16.5884285 31.85403442
v 0.26154253 -16.57097435 31.86259651
v -0.33534864 -16.57097435 31.86259651
v -0.23626567 -16.55847359 31.86872864
v 0.16245958 -16.55847359 31.86872864
v -0.13671036 -16.55095863 31.87241364
v -0.03690305 -16.54845428 31.87364197
v 0.06290425 -16.55095863 31.87241364
v -6.77359152 -10.76000214 39.25027466
v -6.77359152 -14.69038868 39.29122925
v 6.85321474 -14.69038868 39.29122925
v 6.85321474 -10.76000214 39.25027466
v -0.13671045 -20.57793045 29.2209034
v -0.23626579 -20.57042313 29.2209034
v -1.32409942 -20.10878754 29.2209034
v -1.39896274 -20.04227448 29.2209034
v 0.35986948 -20.54046822 29.2209034
v 0.26154241 -20.55792236 29.2209034
v -1.24602354 -20.17145729 29.2209034
v 1.7884146 -19.39359474 29.2209034
v 1.74507773 -19.48416519 29.2209034
v -1.77110636 -19.57244492 29.2209034
v -1.81888402 -19.48416519 29.2209034
v -1.86218941 -19.39359474 29.2209034
v -0.03690314 -16.54845428 29.2209034
v 0.06290417 -16.55095863 29.2209034
v -1.90102279 -17.82792473 29.2209034
v -1.86218941 -17.73529243 29.2209034
v 1.2502929 -17.02010727 29.2209034
v 1.32515633 -17.08662033 29.2209034
v -0.53102636 -20.51809883 29.2209034
v -0.62714881 -20.49087143 29.2209034
v -0.43367577 -20.54046822 29.2209034
v 1.32515633 -20.04227448 29.2209034
v 1.2502929 -20.10878754 29.2209034
v -1.47045624 -19.97208405 29.2209034
v -1.98920834 -18.11584473 29.2209034
v -1.96457946 -18.01843452 29.2209034
v 1.00730991 -20.28467369 29.2209034
v 0.92082494 -20.33493614 29.2209034
v 0.74095774 -16.7067585 29.2209034
v 0.83194643 -16.7481041 29.2209034
v 1.09114921 -16.89875793 29.2209034
v 1.17221701 -16.95743561 29.2209034
v -1.08108473 -20.28467369 29.2209034
v -1.16495562 -20.23013687 29.2209034
v 1.39664972 -17.15681076 29.2209034
v 1.46455264 -17.23049736 29.2209034
v -1.90102279 -19.30097198 29.2209034
v -1.93516326 -19.20651054 29.2209034
v 1.96003032 -18.41379356 29.2209034
v 1.96500647 -18.51418495 29.2209034
v 1.64527035 -17.47067642 29.2209034
v 1.69733119 -17.5564518 29.2209034
v -1.96457946 -19.11046219 29.2209034
v -1.98920834 -19.01305008 29.2209034
v -2.00901866 -18.91452217 29.2209034
v -2.02385283 -18.8151207 29.2209034
v 1.82718492 -17.82792473 29.2209034
v 1.86135685 -17.92237854 29.2209034
v 1.86135685 -19.20651054 29.2209034
v 1.82718492 -19.30097198 29.2209034
v -0.33534873 -20.55792236 29.2209034
v 1.93521237 -18.21437454 29.2209034
v 1.95007777 -18.31377411 29.2209034
v 1.96500647 -18.61470413 29.2209034
v 1.96003032 -18.71510315 29.2209034
v -2.0338366 -18.41379356 29.2209034
v -2.02385283 -18.31377411 29.2209034
v -1.93516326 -17.92237854 29.2209034
v -0.43367577 -16.5884285 29.2209034
v -0.33534873 -16.57097435 29.2209034
v -0.99463123 -20.33493614 29.2209034
v -0.99463123 -16.79395866 29.2209034
v -0.90578419 -16.7481041 29.2209034
v 1.91543353 -19.01305008 29.2209034
v 1.89080453 -19.11046219 29.2209034
v 0.26154241 -16.57097435 29.2209034
v 0.35986948 -16.5884285 29.2209034
v -1.81888402 -17.64473152 29.2209034
v -1.77110636 -17.5564518 29.2209034
v 1.58902037 -19.74126816 29.2209034
v 1.52873933 -19.82139778 29.2209034
v -1.39896274 -17.08662033 29.2209034
v -1.32409942 -17.02010727 29.2209034
v -1.6628269 -17.38762856 29.2209034
v -1.60251415 -17.30749702 29.2209034
v 0.6479848 -16.67003441 29.2209034
v -1.24602354 -16.95743561 29.2209034
v -1.16495562 -16.89875793 29.2209034
v -1.08108473 -16.84421921 29.2209034
v 1.00730991 -16.84421921 29.2209034
v -0.81473237 -16.7067585 29.2209034
v -0.72179097 -16.67003441 29.2209034
v 0.6479848 -20.45885468 29.2209034
v 0.55337411 -20.49087143 29.2209034
v 1.58902037 -17.38762856 29.2209034
v -0.62714881 -16.63802147 29.2209034
v 0.16245948 -20.57042313 29.2209034
v -1.53832757 -17.23049736 29.2209034
v -0.23626579 -16.55847359 29.2209034
v 1.7884146 -17.73529243 29.2209034
v -1.47045624 -17.15681076 29.2209034
v -0.13671045 -16.55095863 29.2209034
v 1.91543353 -18.11584473 29.2209034
v 1.93521237 -18.91452217 29.2209034
v 1.64527035 -19.65822029 29.2209034
v -1.71907675 -19.65822029 29.2209034
v 1.39664972 -19.97208405 29.2209034
v 0.74095774 -20.42213058 29.2209034
v -0.72179097 -20.45885468 29.2209034
v -0.81473237 -20.42213058 29.2209034
v -1.6628269 -19.74126816 29.2209034
v -0.03690314 -20.5804348 29.2209034
v -2.03878117 -18.51418495 29.2209034
v -2.00901866 -18.21437454 29.2209034
v -1.53832757 -19.89839935 29.2209034
v -1.71907675 -17.47067642 29.2209034
v 0.16245948 -16.55847359 29.2209034
v 0.55337411 -16.63802147 29.2209034
v -2.0338366 -18.71510315 29.2209034
v -2.03878117 -18.61470413 29.2209034
v 0.92082494 -16.79395866 29.2209034
v 1.52873933 -17.30749702 29.2209034
v 1.74507773 -17.64473152 29.2209034
v 1.89080453 -18.01843452 29.2209034
v 0.4572517 -16.61079788 29.2209034
v 1.95007777 -18.8151207 29.2209034
v -0.53102636 -16.61079788 29.2209034
v 1.69733119 -19.57244492 29.2209034
v 1.46455264 -19.89839935 29.2209034
v 1.17221701 -20.17145729 29.2209034
v 1.09114921 -20.23013687 29.2209034
v 0.83194643 -20.38079262 29.2209034
v 0.4572517 -20.51809883 29.2209034
v 0.06290417 -20.57793045 29.2209034
v -1.60251415 -19.82139778 29.2209034
v -0.90578419 -20.38079262 29.2209034
v -0.03690215 -16.91390228 28.28050995
v -0.11916655 -16.91595459 28.28050804
v 0.82377213 -19.97283936 28.28050804
v 0.89287525 -19.92819023 28.28050804
v -1.68283868 -18.68779182 28.28050804
v -1.67460966 -18.76968002 28.28050804
v -0.75306177 -20.05153465 28.28050804
v -0.67801398 -20.08537865 28.28050804
v -0.82629246 -20.0139904 28.28050804
v -1.37704062 -19.52793884 28.28050804
v -1.32732892 -19.59354401 28.28050804
v -1.2744242 -19.65658569 28.28050804
v -0.03690215 -20.2149868 28.28050804
v 0.04536223 -20.2129364 28.28050804
v 0.12741897 -20.20678902 28.28050804
v 0.37039614 -20.16394997 28.28050804
v 0.44962332 -20.14165878 28.28050804
v 0.37039614 -16.96494484 28.28050804
v 0.29013059 -16.94663048 28.28050995
v 0.67923164 -20.05153465 28.28050804
v 0.7524882 -20.0139904 28.28050804
v 0.95969391 -19.88014603 28.28050804
v 1.02404654 -19.82883835 28.28050804
v 1.39250994 -19.38972092 28.28050804
v 1.43186402 -19.31744385 28.28050804
v 1.52770495 -19.09012032 28.28050804
v 1.55197668 -19.01148224 28.28050804
v 1.20064616 -19.65658569 28.28050804
v 1.25355089 -19.59354401 28.28050804
v 1.60083175 -18.76968002 28.28050804
v 1.6090349 -18.68779182 28.28050804
v 0.29013059 -20.18226433 28.28050804
v 0.60423583 -20.08537865 28.28050804
v 1.55197668 -18.11741257 28.28050804
v 1.52770495 -18.03876877 28.28050804
v 1.43186402 -17.81145287 28.28050804
v 1.39250994 -17.7391758 28.28050804
v 1.14467835 -19.71691513 28.28050804
v -0.36393493 -16.94663048 28.28050804
v -0.4441745 -16.96494484 28.28050995
v 1.25355089 -17.5353508 28.28050804
v 1.20064616 -17.47230911 28.28050995
v 1.3495996 -19.45994568 28.28050804
v -0.52340162 -16.98723412 28.28050995
v -0.96667904 -17.20070648 28.28050804
v -1.03349793 -17.24874687 28.28050995
v 1.02404654 -17.30005836 28.28050804
v 0.95969391 -17.24874687 28.28050995
v 1.6090349 -18.44110298 28.28050804
v 1.60083175 -18.35921478 28.28050804
v 1.58857906 -18.85106277 28.28050804
v -1.4234035 -17.66894913 28.28050804
v -1.46628797 -17.7391758 28.28050804
v 0.7524882 -17.1149044 28.28050804
v 0.67923164 -17.07736206 28.28050995
v 0.44962332 -16.98723412 28.28050804
v 1.57227683 -18.19716644 28.28050804
v -1.66238296 -18.27783394 28.28050804
v -1.67460966 -18.35921478 28.28050804
v 1.46758366 -17.88559723 28.28050804
v 1.3032366 -17.60095596 28.28050804
v -1.68691444 -18.52329636 28.28050804
v -1.68691444 -18.60559273 28.28050804
v 0.82377213 -17.15605354 28.28050804
v -1.15955532 -17.35451317 28.28050804
v -1.21848238 -17.41197968 28.28050995
v 0.52760452 -17.01344299 28.28050804
v -1.50566792 -17.81145287 28.28050804
v -1.54136169 -17.88559723 28.28050804
v 0.20908627 -16.93234062 28.28050804
v 0.12741897 -16.92210579 28.28050995
v 0.04536223 -16.91595459 28.28050995
v -1.37704062 -17.60095596 28.28050804
v -1.21848238 -19.71691513 28.28050804
v -1.64605486 -18.19716644 28.28050804
v -1.68283868 -18.44110298 28.28050804
v -0.11916655 -20.2129364 28.28050804
v -1.57336926 -19.16745758 28.28050804
v -1.54136169 -19.24329185 28.28050804
v -1.4234035 -19.45994568 28.28050804
v -0.60140872 -20.11544609 28.28050804
v -0.52340162 -20.14165878 28.28050804
v 0.52760452 -20.11544609 28.28050804
v 1.0857513 -19.77438164 28.28050804
v -1.46628797 -19.38972092 28.28050804
v 1.3032366 -19.52793884 28.28050804
v 1.46758366 -19.24329185 28.28050804
v 1.49953938 -19.16745758 28.28050804
v 1.57227683 -18.93173027 28.28050804
v -0.67801398 -17.04351044 28.28050804
v -0.75306177 -17.07736206 28.28050995
v 1.61313641 -18.60559273 28.28050804
v 1.61313641 -18.52329636 28.28050804
v 1.58857906 -18.27783394 28.28050804
v -0.20122325 -16.92210579 28.28050995
v -1.2744242 -17.47230911 28.28050995
v 1.49953938 -17.96143723 28.28050804
v -0.28289062 -16.93234062 28.28050995
v -1.32732892 -17.5353508 28.28050995
v 0.20908627 -20.19655418 28.28050804
v -0.60140872 -17.01344299 28.28050995
v 1.3495996 -17.66894913 28.28050804
v 1.14467835 -17.41197968 28.28050804
v 1.0857513 -17.35451317 28.28050995
v -0.82629246 -17.1149044 28.28050804
v -0.89755011 -17.15605354 28.28050995
v 0.89287525 -17.20070648 28.28050804
v -1.09785044 -17.30005836 28.28050995
v 0.60423583 -17.04351044 28.28050804
v -1.60150898 -18.03876877 28.28050804
v -1.62575471 -18.11741257 28.28050804
v -1.66238296 -18.85106277 28.28050804
v -1.64605486 -18.93173027 28.28050804
v -0.89755011 -19.97283936 28.28050804
v -1.57336926 -17.96143723 28.28050804
v -1.03349793 -19.88014603 28.28050804
v -0.96667904 -19.92819023 28.28050804
v -0.28289062 -20.19655418 28.28050804
v -0.20122325 -20.20678902 28.28050804
v -0.36393493 -20.18226433 28.28050804
v -1.62575471 -19.01148224 28.28050804
v -1.60150898 -19.09012032 28.28050804
v -1.15955532 -19.77438164 28.28050804
v -0.4441745 -20.16394997 28.28050804
v -1.50566792 -19.31744385 28.28050804
v -1.09785044 -19.82883835 28.28050804
vn -1 0 0
vn 0 -1 0
vn 1 0 -0
vn -0 1 0
vn 0 0 1
vn -0 0 -1
vn -0 0 -1
vn -5E-05 -3E-05 -1
vn 0 0 -1
vn 0 -0 -1
vn -0 -0 -1
vn -0 -0 -1
vn 0 -0 -1
vn 0 -0 -1
vn -0 -0 -1
vn -0 -0 -1
vn 0 -0 -1
vn 0 -0 -1
vn -0 -0 -1
vn 6E-05 4E-05 -1
vn -6E-05 4E-05 -1
vn -3E-05 -2E-05 -1
vn 3E-05 -2E-05 -1
vn 0 0 -1
vn -0 0 -1
vn -0 0 -1
vn 0 0 -1
vn 0 0 -1
vn -0 0 -1
vn -0 0 -1
vn 0 0 -1
vn 0 0 -1
vn -0 0 -1
vn -0 0 -1
vn 0 0 -1
vn 0 0 -1
vn -0 0 -1
vn -0 0 -1
vn 0 0 -1
vn 0 0 -1
vn -0 0 -1
vn -0 0 -1
vn 0 0 -1
vn 0 0 -1
vn -0 0 -1
vn -0 0 -1
vn 0 0 -1
vn 0 0 -1
vn -0 0 -1
vn -0 0 -1
vn 0 0 -1
vn 0 0 -1
vn -0 0 -1
vn -0 0 -1
vn 0 0 -1
vn 0 0 -1
vn 0 0 -1
vn -1E-05 1E-05 -1
vn 0 0 -1
vn 0 0 -1
vn -0 0 -1
vn -0 0 -1
vn 0 0 -1
vn 0 0 -1
vn -0 0 -1
vn -0 0 -1
vn 0 0 -1
vn 0 0 -1
vn -0 0 -1
vn -0 0 -1
vn 0 0 -1
vn 0 0 -1
vn -0 0 -1
vn -0 0 -1
vn 0 0 -1
vn 0 0 -1
vn -0 0 -1
vn -0 0 -1
vn 0 0 -1
vn 0 0 -1
vn -0 0 -1
vn -0 0 -1
vn 0 0 -1
vn -0 0 -1
vn 0 1 0
vn -0 -0.44042 0.89779
vn 0 -0.44042 0.89779
vn 0 -0.44042 0.89779
vn -0 -0.44042 0.89779
vn 9E-05 -0.44046 0.89777
vn 0 -0.44042 0.89779
vn 8E-05 -0.44038 0.89781
vn -0.0001 -0.44037 0.89782
vn -3E-05 -0.4404 0.8978
vn 3E-05 -0.4404 0.8978
vn -2E-05 -0.44043 0.89779
vn 2E-05 -0.44043 0.89779
vn 1E-05 -0.44042 0.89779
vn -1E-05 -0.44042 0.89779
vn 1E-05 -0.44041 0.89779
vn -1E-05 -0.44041 0.89779
vn -0 -0.44042 0.89779
vn 0 -0.44042 0.89779
vn -1E-05 -0.44042 0.89779
vn 1E-05 -0.44042 0.89779
vn -1E-05 -0.44041 0.8978
vn 1E-05 -0.44041 0.8978
vn -0 -0.44042 0.89779
vn 0 -0.44042 0.89779
vn 1E-05 -0.44042 0.89779
vn -1E-05 -0.44042 0.89779
vn -0 -0.44042 0.89779
vn 1E-05 -0.44042 0.89779
vn 1E-05 -0.44042 0.89779
vn -1E-05 -0.44042 0.89779
vn 3E-05 -0.4404 0.8978
vn -3E-05 -0.4404 0.8978
vn 3E-05 -0.44043 0.89779
vn -3E-05 -0.44043 0.89779
vn 1E-05 -0.44041 0.8978
vn -1E-05 -0.44041 0.8978
vn -2E-05 -0.44041 0.8978
vn 1E-05 -0.44041 0.8978
vn -0 -0.44042 0.89779
vn 0 -0.44042 0.89779
vn 0 -0.44042 0.89779
vn -0 -0.44042 0.89779
vn -0 -0.44042 0.89779
vn 0 -0.44042 0.89779
vn 0 -0.44042 0.89779
vn -0 -0.44042 0.89779
vn 1E-05 -0.44041 0.8978
vn -1E-05 -0.44041 0.8978
vn 1E-05 -0.44042 0.89779
vn -1E-05 -0.44042 0.89779
vn -0 -0.44042 0.89779
vn 0 -0.44042 0.89779
vn -0 -0.44041 0.89779
vn 0 -0.44041 0.89779
vn 0 -0.44042 0.89779
vn -0 -0.44042 0.89779
vn -1E-05 -0.44041 0.8978
vn 1E-05 -0.44041 0.8978
vn -0 -0.44042 0.89779
vn 0 -0.44042 0.89779
vn -0 -0.44042 0.89779
vn 0 -0.44042 0.89779
vn -0 -0.44042 0.89779
vn 0 -0.44042 0.89779
vn 7E-05 -0.44034 0.89783
vn 1E-05 -0.44041 0.8978
vn -1E-05 -0.44043 0.89779
vn -7E-05 -0.44049 0.89776
vn 8E-05 -0.44033 0.89784
vn 1E-05 -0.44041 0.8978
vn -0 -0.44042 0.89779
vn -6E-05 -0.44048 0.89776
vn 1E-05 -0.44041 0.8978
vn 0 -0.44042 0.89779
vn 1E-05 -0.44041 0.8978
vn -1E-05 -0.44042 0.89779
vn -1E-05 -0.44043 0.89779
vn -0 -0.44042 0.89779
vn 0 -0.44041 0.89779
vn 1E-05 -0.44041 0.8978
vn -1E-05 -0.44042 0.89779
vn -1E-05 -0.44043 0.89779
vn 2E-05 -0.4404 0.8978
vn 2E-05 -0.44039 0.8978
vn -2E-05 -0.44044 0.89778
vn -0 -0.44042 0.89779
vn -2E-05 -0.44043 0.89779
vn 0 -0.44041 0.8978
vn 2E-05 -0.4404 0.8978
vn -0 -0.44041 0.8978
vn 0 -0.44041 0.8978
vn 0 -0.44041 0.89779
vn -0 -0.44041 0.89779
vn 0 -0.44042 0.89779
vn -0 -0.44042 0.89779
vn 0 -0.44041 0.8978
vn -0 -0.44041 0.8978
vn 0 -0.44043 0.89779
vn -0 -0.44043 0.89779
vn 0 -0.44041 0.8978
vn -0 -0.44041 0.8978
vn 0 -0.44042 0.89779
vn -0 -0.44042 0.89779
vn 0 -0.44041 0.8978
vn -0 -0.44041 0.8978
vn 0 -0.44042 0.89779
vn -0 -0.44042 0.89779
vn -0 -0.44043 0.89778
vn 0 -0.44043 0.89778
vn -0 -0.4404 0.8978
vn 0 -0.4404 0.8978
vn -0 -0.44042 0.89779
vn 0 -0.44042 0.89779
vn 0 -0.44044 0.89778
vn -0 -0.44044 0.89778
vn 1E-05 -0.44037 0.89781
vn -1E-05 -0.44037 0.89781
vn 0 -0.44043 0.89779
vn -0 -0.44043 0.89779
vn -1E-05 -0.44045 0.89778
vn 1E-05 -0.44045 0.89778
vn -0 -0.44041 0.8978
vn 0 -0.44041 0.8978
vn 0 -0.44041 0.8978
vn 0 -0.44041 0.89779
vn -0.00018 -0.44157 0.89723
vn 1E-05 -0.44036 0.89782
vn 0 -0.44041 0.8978
vn -3E-05 -0.44062 0.89769
vn -0 -0.44043 0.89779
vn 0 -0.99019 0.13973
vn 0 -0.98972 0.14302
vn 0.0752 0.99717 -0
vn 0.0752 0.99717 -0
vn 0.66418 0.74757 -0
vn -0.17478 0.98461 0
vn -0.17478 0.98461 0
vn 0.62597 0.77985 -0
vn 0.62597 0.77985 0
vn -0.90205 0.43162 0
vn 0.87946 0.47597 -0
vn 0.87946 0.47597 0
vn 0.90218 0.43137 -0
vn 0.90218 0.43137 0
vn -0.02508 -0.99969 0
vn -0.02508 -0.99969 0
vn 0.92224 -0.38662 -0
vn 0.92224 -0.38662 -0
vn -0.66418 -0.74757 0
vn -0.66418 -0.74757 0
vn 0.27254 0.96215 -0
vn 0.22395 0.9746 -0
vn 0.22395 0.9746 0
vn -0.66418 0.74757 0
vn -0.66418 0.74757 0
vn 0.70057 0.71358 -0
vn 0.70057 0.71358 -0
vn 0.96949 -0.24512 -0
vn 0.96949 -0.24512 -0
vn -0.50247 0.86459 0
vn -0.50247 0.86459 0
vn -0.4137 -0.91042 0
vn -0.4137 -0.91042 0
vn -0.58634 -0.81007 0
vn -0.58634 -0.81007 0
vn 0.54513 0.83835 -0
vn 0.54513 0.83835 0
vn -0.73538 -0.67766 0
vn -0.73538 -0.67766 0
vn 0.94046 0.3399 -0
vn 0.94046 0.3399 -0
vn -0.99877 -0.04951 0
vn -0.99877 -0.04951 0
vn -0.85486 -0.51885 0
vn -0.85486 -0.51885 0
vn 0.95616 0.29284 -0
vn 0.95616 0.29284 -0
vn 0.96949 0.24512 -0
vn 0.96949 0.24512 -0
vn 0.98905 0.1476 -0
vn 0.98905 0.1476 -0
vn -0.94035 -0.3402 0
vn -0.94035 -0.3402 0
vn -0.94036 0.34018 0
vn -0.94036 0.34018 0
vn 0.17478 0.98461 -0
vn 0.17478 0.98461 -0
vn -0.989 -0.14791 0
vn -0.989 -0.14791 0
vn 0.12517 0.99213 -0
vn 0.12517 0.99214 0
vn 0.58635 0.81006 -0
vn 0.58635 0.81006 0
vn -0.99877 0.0495 0
vn -0.99877 0.0495 0
vn 0.99506 -0.09932 -0
vn 0.99506 -0.09932 -0
vn 0.94045 -0.33993 -0
vn 0.94045 -0.33993 -0
vn 0.17478 -0.98461 -0
vn 0.17478 -0.98461 -0
vn 0.50261 0.86451 -0
vn 0.50261 0.86451 0
vn 0.45863 -0.88863 -0
vn 0.45864 -0.88862 -0
vn 0.98038 0.19712 -0
vn 0.98038 0.19712 -0
vn -0.96949 0.24512 0
vn -0.96949 0.24512 0
vn -0.17478 -0.98461 0
vn -0.17478 -0.98461 0
vn 0.87946 -0.47597 -0
vn 0.87946 -0.47597 -0
vn 0.95617 -0.29282 -0
vn 0.95617 -0.29282 -0
vn -0.79912 0.60117 0
vn -0.79912 0.60117 0
vn 0.66418 -0.74757 0
vn 0.66418 -0.74757 -0
vn 0.79897 -0.60137 -0
vn 0.79897 -0.60137 -0
vn -0.36738 -0.93007 0
vn -0.36738 -0.93007 0
vn 0.62598 -0.77984 -0
vn 0.62598 -0.77984 -0
vn 0.54515 -0.83834 0
vn 0.54515 -0.83834 -0
vn -0.54529 -0.83825 0
vn -0.54529 -0.83825 0
vn 0.5026 -0.86452 -0
vn 0.50258 -0.86453 0
vn -0.70057 -0.71358 0
vn -0.70057 -0.71358 0
vn 0.36748 -0.93003 -0
vn 0.36748 -0.93003 0
vn -0.32055 0.94723 0
vn -0.32055 0.94723 0
vn -0.82796 -0.56079 0
vn -0.82796 -0.56079 0
vn 0.32042 -0.94728 -0
vn 0.32042 -0.94728 -0
vn -0.12517 0.99214 0
vn -0.12517 0.99213 0
vn 0.76812 -0.6403 -0
vn 0.76812 -0.6403 -0
vn 0.12517 -0.99214 -0
vn 0.12517 -0.99214 -0
vn -0.92246 -0.38609 0
vn -0.92246 -0.38609 0
vn 0.73553 -0.67749 -0
vn 0.73553 -0.67749 -0
vn 0.07527 -0.99716 -0
vn 0.07527 -0.99716 -0
vn -0.98044 -0.19681 0
vn -0.98044 -0.19681 0
vn -1 0 0
vn -1 -0 0
vn 0.41346 -0.91052 0
vn 0.41346 -0.91052 -0
vn -0.98044 0.19682 0
vn -0.98044 0.19682 0
vn -0.92245 0.38612 0
vn -0.92245 0.38612 0
vn -0.82796 0.56079 0
vn -0.82796 0.56079 0
vn 0.855 0.51863 -0
vn 0.855 0.51863 0
vn -0.70057 0.71358 0
vn -0.36738 0.93007 0
vn -0.36738 0.93007 0
vn 0.36748 0.93003 -0
vn 0.32045 0.94726 -0
vn 0.32045 0.94726 0
vn 0.82796 0.56079 -0
vn 0.92222 0.38666 -0
vn 0.92223 0.38665 -0
vn 0.02508 0.99969 -0
vn 0.02508 0.99969 -0
vn 0.99879 -0.04919 -0
vn 0.99879 -0.04919 -0
vn 0.98038 -0.19711 -0
vn 0.98038 -0.19711 -0
vn 0.73553 0.6775 -0
vn 0.73553 0.6775 -0
vn 0.82796 -0.56079 0
vn 0.82796 -0.56079 -0
vn -0.07527 -0.99716 0
vn -0.07527 -0.99716 0
vn -0.12517 -0.99213 0
vn -0.12517 -0.99213 0
vn 0.90216 -0.4314 -0
vn 0.90216 -0.4314 -0
vn -0.32051 -0.94724 0
vn -0.32051 -0.94724 0
vn 0.70057 -0.71358 -0
vn 0.70057 -0.71358 0
vn 0.99879 0.04919 -0
vn 0.99879 0.04919 -0
vn -0.50246 -0.8646 0
vn -0.50245 -0.86461 -0
vn 1 0 -0
vn 1 0 -0
vn -0.79913 -0.60116 0
vn -0.79913 -0.60116 0
vn -0.90204 -0.43166 0
vn -0.90204 -0.43166 0
vn 0.98905 -0.1476 -0
vn 0.98905 -0.1476 -0
vn -0.96949 -0.24512 0
vn -0.96949 -0.24512 0
vn -0.2725 -0.96216 0
vn -0.2725 -0.96216 0
vn -0.4585 -0.88869 -0
vn -0.45851 -0.88869 0
vn 0.855 -0.51863 -0
vn 0.855 -0.51862 0
vn -0.989 0.1479 0
vn -0.989 0.14791 0
vn -0.99509 -0.09902 0
vn -0.99509 -0.09901 -0
vn -0.62598 -0.77984 0
vn -0.62598 -0.77984 0
vn 0.58633 -0.81007 -0
vn 0.58633 -0.81007 -0
vn 0.2725 -0.96216 -0
vn 0.2725 -0.96216 -0
vn -0.85486 0.51885 0
vn -0.85486 0.51885 0
vn -0.76812 -0.6403 0
vn -0.76812 -0.6403 0
vn 0.22395 -0.9746 -0
vn 0.22395 -0.9746 -0
vn -0.73537 0.67767 0
vn -0.73537 0.67767 0
vn -0.87959 -0.47573 0
vn -0.87959 -0.47573 0
vn -0.58635 0.81006 0
vn -0.58635 0.81006 0
vn -0.95608 -0.2931 0
vn -0.95608 -0.2931 0
vn -0.41363 0.91044 0
vn -0.41363 0.91044 0
vn -0.22388 0.97462 0
vn -0.22388 0.97462 0
vn -0.99509 0.09902 0
vn -0.99509 0.09902 0
vn -0.76813 0.64029 0
vn -0.76813 0.64029 0
vn -0.95607 0.29312 0
vn -0.95607 0.29312 0
vn -0.87959 0.47573 0
vn -0.87959 0.47573 0
vn -0.62597 0.77985 0
vn -0.62597 0.77985 0
vn -0.45851 0.88869 0
vn -0.45851 0.88869 0
vn -0.22388 -0.97462 0
vn -0.22388 -0.97462 0
vn -0.27254 0.96215 0
vn -0.27254 0.96215 0
vn -0.0752 0.99717 0
vn -0.0752 0.99717 0
vn -0.02508 0.99969 0
vn -0.02508 0.99969 0
vn 0.76813 0.64029 -0
vn 0.76813 0.64029 0
vn 0.79897 0.60137 -0
vn 0.45864 0.88862 -0
vn 0.45864 0.88862 0
vn 0.41339 0.91055 -0
vn 0.99505 0.09933 -0
vn 0.99505 0.09933 -0
vn -0.54528 0.83825 0
vn -0.54528 0.83825 0
vn 0.02508 -0.99969 -0
vn 0.02508 -0.99969 -0
vn 0.02494 -0.99969 -0
vn 0.02492 -0.99969 -0
vn -0.5427 0.83993 0
vn -0.54271 0.83992 0
vn 0.99499 0.09999 -0
vn 0.4111 0.91159 0
vn 0.4111 0.91159 0
vn 0.45622 0.88987 0
vn 0.4562 0.88988 -0
vn 0.79703 0.60394 -0
vn 0.76601 0.64283 -0
vn -0.02492 0.99969 0
vn -0.02492 0.99969 0
vn -0.07471 0.99721 0
vn -0.07468 0.99721 0
vn -0.27084 0.96262 0
vn -0.27086 0.96262 0
vn -0.22245 -0.97494 0
vn -0.22245 -0.97494 0
vn -0.45609 0.88993 0
vn -0.45607 0.88994 0
vn -0.6234 0.7819 0
vn -0.62342 0.78189 0
vn -0.87825 0.4782 0
vn -0.87825 0.4782 0
vn -0.95552 0.29492 0
vn -0.95552 0.29493 0
vn -0.76601 0.64283 0
vn -0.76601 0.64283 0
vn -0.99502 0.09968 0
vn -0.99502 0.09967 0
vn -0.22245 0.97494 0
vn -0.22245 0.97494 0
vn -0.41133 0.91148 0
vn -0.41133 0.91148 0
vn -0.95553 -0.2949 0
vn -0.95553 -0.2949 0
vn -0.58378 0.81191 0
vn -0.58377 0.81192 0
vn -0.87825 -0.4782 -0
vn -0.87825 -0.4782 -0
vn -0.73311 0.68011 0
vn -0.73311 0.68011 0
vn 0.22252 -0.97493 -0
vn 0.22252 -0.97493 -0
vn -0.76601 -0.64283 0
vn -0.76601 -0.64283 0
vn -0.85331 0.52141 0
vn -0.85331 0.5214 0
vn 0.27082 -0.96263 -0
vn 0.27082 -0.96263 -0
vn 0.58375 -0.81193 -0
vn 0.58375 -0.81193 -0
vn -0.62343 -0.78188 -0
vn -0.62343 -0.78188 -0
vn -0.99502 -0.09968 0
vn -0.99502 -0.09967 0
vn -0.98886 0.14888 0
vn -0.98885 0.14888 0
vn 0.85345 -0.52117 -0
vn 0.85345 -0.52118 -0
vn -0.45608 -0.88994 -0
vn -0.45609 -0.88993 0
vn -0.27082 -0.96263 0
vn -0.27082 -0.96263 0
vn -0.9691 -0.24667 0
vn -0.9691 -0.24667 0
vn 0.9889 -0.14857 -0
vn 0.9889 -0.14857 -0
vn -0.9009 -0.43402 -0
vn -0.90091 -0.43401 0
vn -0.79718 -0.60374 0
vn -0.79718 -0.60374 0
vn 1 0 -0
vn -0.49994 -0.86606 0
vn -0.49992 -0.86607 -0
vn 0.99877 0.04952 -0
vn 0.69818 -0.71592 -0
vn 0.69818 -0.71592 -0
vn -0.31858 -0.9479 0
vn -0.31858 -0.9479 0
vn 0.90103 -0.43376 -0
vn 0.90103 -0.43375 -0
vn -0.12435 -0.99224 0
vn -0.12435 -0.99224 0
vn -0.07475 -0.9972 -0
vn -0.07478 -0.9972 0
vn 0.82621 -0.56337 -0
vn 0.73327 0.67994 -0
vn 0.98012 -0.19839 -0
vn 0.99877 -0.04953 -0
vn 0.99877 -0.04953 -0
vn 0.02492 0.99969 0
vn 0.02492 0.99969 0
vn 0.9213 0.38886 -0
vn 0.9213 0.38886 0
vn 0.82621 0.56337 -0
vn 0.31853 0.94791 0
vn 0.31853 0.94791 0
vn 0.36536 0.93087 0
vn 0.36536 0.93087 0
vn -0.36526 0.93091 0
vn -0.36526 0.93091 0
vn -0.69818 0.71592 0
vn -0.69818 0.71592 0
vn 0.85345 0.52118 0
vn 0.85345 0.52117 -0
vn -0.8262 0.56337 0
vn -0.8262 0.56337 0
vn -0.92152 0.38832 0
vn -0.92152 0.38833 0
vn -0.98018 0.19809 0
vn -0.98018 0.19809 0
vn 0.41117 -0.91156 -0
vn 0.41115 -0.91157 -0
vn -1 0 0
vn -0.98018 -0.19809 0
vn -0.98018 -0.19809 0
vn 0.07475 -0.9972 -0
vn 0.07478 -0.9972 -0
vn 0.73327 -0.67994 -0
vn 0.73327 -0.67994 -0
vn -0.92154 -0.3883 0
vn -0.92154 -0.3883 0
vn 0.12435 -0.99224 -0
vn 0.12435 -0.99224 -0
vn 0.76601 -0.64283 -0
vn -0.12435 0.99224 0
vn -0.12435 0.99224 0
vn 0.31849 -0.94793 -0
vn 0.31849 -0.94793 -0
vn -0.8262 -0.56337 0
vn -0.8262 -0.56337 0
vn -0.31862 0.94788 0
vn -0.31862 0.94788 0
vn 0.36536 -0.93087 -0
vn 0.36536 -0.93087 -0
vn -0.69818 -0.71592 0
vn -0.69818 -0.71592 0
vn 0.50008 -0.86598 -0
vn 0.50006 -0.86599 -0
vn -0.54273 -0.83991 -0
vn -0.54273 -0.83991 -0
vn 0.54259 -0.84 -0
vn 0.54259 -0.84 -0
vn 0.62343 -0.78188 -0
vn 0.62343 -0.78188 -0
vn -0.36526 -0.93091 0
vn -0.36526 -0.93091 0
vn 0.79703 -0.60394 -0
vn 0.79703 -0.60394 -0
vn 0.66169 -0.74978 -0
vn 0.6617 -0.74977 -0
vn -0.79718 0.60374 0
vn -0.79718 0.60374 0
vn 0.95562 -0.29461 -0
vn 0.95562 -0.29462 -0
vn 0.87812 -0.47844 -0
vn -0.17364 -0.98481 0
vn -0.17364 -0.98481 0
vn -0.9691 0.24668 0
vn -0.9691 0.24667 0
vn 0.98012 0.19839 -0
vn 0.98012 0.19839 -0
vn 0.4562 -0.88988 -0
vn 0.45622 -0.88987 -0
vn 0.5001 0.86597 -0
vn 0.50009 0.86597 -0
vn 0.17364 -0.98481 -0
vn 0.17364 -0.98481 -0
vn 0.93972 -0.34195 -0
vn 0.99499 -0.09999 -0
vn -0.99876 0.04984 0
vn -0.99876 0.04984 0
vn 0.58378 0.81191 0
vn 0.58377 0.81192 -0
vn 0.12435 0.99224 -0
vn 0.12435 0.99224 -0
vn -0.98885 -0.14888 0
vn -0.98886 -0.14888 0
vn 0.17364 0.98481 -0
vn 0.17364 0.98481 -0
vn -0.93963 0.3422 0
vn -0.93963 0.3422 0
vn -0.93962 -0.34223 0
vn -0.93962 -0.34223 0
vn 0.9889 0.14857 -0
vn 0.9889 0.14857 -0
vn 0.9691 0.24668 -0
vn 0.9691 0.24667 -0
vn 0.95561 0.29463 -0
vn 0.95561 0.29464 -0
vn -0.85331 -0.5214 0
vn -0.85331 -0.52141 -0
vn -0.99876 -0.04984 0
vn -0.99876 -0.04984 0
vn 0.93973 0.34193 0
vn 0.93973 0.34192 -0
vn -0.73311 -0.68011 0
vn -0.73311 -0.68011 0
vn 0.54255 0.84002 -0
vn 0.54257 0.84001 0
vn -0.58375 -0.81193 -0
vn -0.58375 -0.81193 -0
vn -0.41141 -0.91145 0
vn -0.41139 -0.91146 -0
vn -0.49996 0.86605 0
vn -0.49996 0.86605 0
vn 0.9691 -0.24667 -0
vn 0.9691 -0.24667 -0
vn 0.69818 0.71592 -0
vn -0.6617 0.74977 0
vn -0.66169 0.74978 0
vn 0.22252 0.97493 -0
vn 0.22252 0.97493 -0
vn 0.27084 0.96262 -0
vn 0.27086 0.96262 0
vn -0.66169 -0.74978 -0
vn -0.6617 -0.74977 0
vn 0.92131 -0.38883 -0
vn -0.02494 -0.99969 0
vn -0.02492 -0.99969 -0
vn 0.90104 0.43373 0
vn 0.87812 0.47844 0
vn -0.90092 0.43398 0
vn -0.90092 0.43398 0
vn 0.6234 0.7819 -0
vn 0.62342 0.78189 0
vn -0.17364 0.98481 0
vn -0.17364 0.98481 0
vn 0.6617 0.74977 -0
vn 0.66169 0.74978 0
vn 0.07471 0.99721 0
vn 0.07468 0.99721 -0
vn 0.02324 -0.93184 0.36212
vn 0.02338 -0.93184 0.36211
vn -0.50655 0.78399 0.35884
vn -0.50902 0.78251 0.35857
vn 0.93186 0.09364 0.35053
vn 0.9319 0.09302 0.35058
vn 0.38567 0.84948 0.36006
vn 0.38349 0.85038 0.36027
vn 0.42796 0.82918 0.3596
vn 0.42566 0.83026 0.35983
vn 0.74524 0.5647 0.35458
vn 0.74698 0.56225 0.35482
vn 0.71607 0.60093 0.35514
vn 0.71799 0.5985 0.35539
vn -0.02323 0.93184 0.36212
vn -0.02338 0.93184 0.36211
vn -0.06964 0.92954 0.36208
vn -0.07009 0.92952 0.36204
vn -0.25254 0.89758 0.36135
vn -0.25414 0.89719 0.36121
vn -0.2074 -0.90902 0.36149
vn -0.20873 -0.90867 0.3616
vn -0.42554 0.83032 0.35982
vn -0.42784 0.82924 0.3596
vn -0.58214 0.73015 0.35774
vn -0.58461 0.72832 0.35747
vn -0.82289 0.44507 0.35321
vn -0.82171 0.44741 0.35301
vn -0.89505 0.27442 0.35153
vn -0.89459 0.27612 0.35139
vn -0.71799 0.5985 0.35539
vn -0.71607 0.60093 0.35515
vn -0.93187 0.09335 0.35059
vn -0.93195 0.09274 0.35054
vn -0.2074 0.90897 0.36161
vn -0.20874 0.90871 0.36149
vn -0.38371 0.85028 0.36027
vn -0.38589 0.84938 0.36006
vn -0.89459 -0.2761 0.35139
vn -0.89506 -0.2744 0.35153
vn -0.54502 0.75801 0.3583
vn -0.54748 0.75636 0.35803
vn -0.82171 -0.44741 0.35301
vn -0.82289 -0.44507 0.35321
vn -0.6872 0.63328 0.35597
vn -0.68516 0.63562 0.35572
vn 0.20747 -0.90895 0.36161
vn 0.2088 -0.90869 0.36149
vn -0.71607 -0.60093 0.35515
vn -0.71798 -0.5985 0.35539
vn -0.7996 0.48531 0.35373
vn -0.79821 0.48774 0.3535
vn 0.25252 -0.89759 0.36135
vn 0.2541 -0.8972 0.36121
vn 0.545 -0.75802 0.3583
vn 0.54747 -0.75637 0.35803
vn -0.58462 -0.72831 0.35747
vn -0.58216 -0.73014 0.35774
vn -0.93189 -0.09335 0.35053
vn -0.93193 -0.09273 0.35058
vn -0.92603 0.13942 0.35075
vn -0.9262 0.13851 0.35067
vn 0.79973 -0.4851 0.35372
vn 0.79835 -0.48752 0.3535
vn -0.42783 -0.82925 0.3596
vn -0.42552 -0.83034 0.35983
vn -0.2541 -0.8972 0.36121
vn -0.25252 -0.89759 0.36135
vn -0.90741 -0.23097 0.35109
vn -0.90773 -0.22951 0.35121
vn 0.92622 -0.13823 0.35074
vn 0.92611 -0.13914 0.35066
vn -0.84306 -0.40615 0.35254
vn -0.84406 -0.40391 0.35274
vn -0.74538 -0.56451 0.35458
vn -0.74713 -0.56205 0.35482
vn 0.93658 0 0.35044
vn 0.93658 -0 0.35044
vn -0.46895 -0.80693 0.3591
vn -0.46655 -0.80821 0.35935
vn 0.93543 0.04638 0.35046
vn 0.93543 0.04607 0.35048
vn 0.65453 -0.66668 0.35655
vn 0.65236 -0.66893 0.35631
vn -0.29892 -0.88342 0.36087
vn -0.29709 -0.88396 0.36103
vn 0.84417 -0.40368 0.35273
vn 0.84318 -0.40591 0.35254
vn -0.11591 -0.92498 0.36191
vn -0.11668 -0.92486 0.36197
vn -0.06968 -0.92956 0.36204
vn -0.07016 -0.9295 0.36208
vn 0.77426 -0.52442 0.35426
vn 0.77269 -0.52688 0.35403
vn 0.68531 0.63547 0.35572
vn 0.68735 0.63312 0.35596
vn 0.91802 -0.18458 0.35095
vn 0.91782 -0.18578 0.35085
vn 0.93543 -0.04607 0.35048
vn 0.93543 -0.04639 0.35046
vn 0.02338 0.93184 0.36211
vn 0.02323 0.93184 0.36212
vn 0.8623 0.36395 0.35211
vn 0.8631 0.36187 0.35229
vn 0.77269 0.52688 0.35403
vn 0.77426 0.52442 0.35426
vn 0.29886 0.88344 0.36087
vn 0.29704 0.88398 0.36103
vn 0.34278 0.8675 0.36048
vn 0.34077 0.86821 0.36067
vn -0.34067 0.86825 0.36067
vn -0.34268 0.86754 0.36048
vn -0.65453 0.66668 0.35655
vn -0.65236 0.66894 0.3563
vn 0.79834 0.48753 0.3535
vn 0.79973 0.4851 0.35372
vn -0.77426 0.52442 0.35426
vn -0.77269 0.52688 0.35403
vn -0.86331 0.36137 0.35229
vn -0.86251 0.36345 0.35211
vn -0.91783 0.18549 0.35096
vn -0.91811 0.18431 0.35086
vn 0.38357 -0.85034 0.36027
vn 0.38573 -0.84945 0.36006
vn -0.93658 0 0.35044
vn -0.93658 0 0.35044
vn -0.91788 -0.1855 0.35085
vn -0.91808 -0.18429 0.35095
vn 0.06969 -0.92954 0.36208
vn 0.07016 -0.92952 0.36204
vn 0.68736 -0.63311 0.35596
vn 0.68531 -0.63547 0.35572
vn -0.86252 -0.36343 0.35211
vn -0.86332 -0.36134 0.35229
vn 0.11592 -0.92495 0.36198
vn 0.11669 -0.92488 0.36191
vn 0.71798 -0.5985 0.35539
vn 0.71607 -0.60093 0.35514
vn -0.11592 0.92495 0.36198
vn -0.11669 0.92488 0.36191
vn 0.297 -0.88399 0.36103
vn 0.29883 -0.88345 0.36087
vn -0.77269 -0.52688 0.35403
vn -0.77426 -0.52442 0.35426
vn -0.29713 0.88395 0.36103
vn -0.29895 0.88341 0.36087
vn 0.34076 -0.86821 0.36067
vn 0.34278 -0.8675 0.36048
vn -0.65235 -0.66894 0.3563
vn -0.65453 -0.66668 0.35655
vn 0.46668 -0.80813 0.35935
vn 0.46907 -0.80686 0.3591
vn -0.50903 -0.7825 0.35858
vn -0.50658 -0.78397 0.35883
vn 0.50644 -0.78406 0.35884
vn 0.5089 -0.78259 0.35858
vn 0.58217 -0.73013 0.35775
vn 0.58462 -0.72831 0.35747
vn -0.34268 -0.86754 0.36048
vn -0.34067 -0.86825 0.36067
vn 0.74699 -0.56224 0.35482
vn 0.74524 -0.56471 0.35458
vn 0.62038 -0.69827 0.35713
vn 0.61811 -0.70041 0.35689
vn -0.74713 0.56206 0.35482
vn -0.74538 0.56451 0.35458
vn 0.89514 -0.27413 0.35153
vn 0.89468 -0.27583 0.35138
vn 0.82277 -0.44529 0.35321
vn 0.82159 -0.44764 0.35301
vn -0.16189 -0.91812 0.36172
vn -0.16294 -0.9179 0.36181
vn -0.90773 0.2295 0.35121
vn -0.90741 0.23097 0.35109
vn 0.91782 0.18578 0.35085
vn 0.91802 0.18458 0.35095
vn 0.42564 -0.83027 0.35983
vn 0.42795 -0.82919 0.3596
vn 0.46909 0.80685 0.3591
vn 0.46669 0.80813 0.35935
vn 0.16187 -0.91809 0.36182
vn 0.16294 -0.91793 0.36173
vn 0.8803 -0.31819 0.35189
vn 0.87967 -0.3201 0.35173
vn 0.9319 -0.09302 0.35058
vn 0.93186 -0.09364 0.35053
vn -0.9354 0.04667 0.35049
vn -0.93543 0.04636 0.35046
vn 0.54748 0.75636 0.35803
vn 0.54502 0.75801 0.3583
vn 0.11669 0.92488 0.36191
vn 0.11592 0.92495 0.36198
vn -0.92606 -0.13943 0.35066
vn -0.92617 -0.13851 0.35074
vn 0.16294 0.91793 0.36173
vn 0.16188 0.91808 0.36182
vn -0.88022 0.31842 0.35189
vn -0.87959 0.32034 0.35172
vn -0.87958 -0.32036 0.35172
vn -0.88021 -0.31845 0.35189
vn 0.92611 0.13914 0.35066
vn 0.92622 0.13822 0.35074
vn 0.90741 0.23097 0.35109
vn 0.90773 0.2295 0.35121
vn 0.89467 0.27585 0.35138
vn 0.89514 0.27415 0.35153
vn -0.79822 -0.48773 0.3535
vn -0.7996 -0.48531 0.35372
vn -0.93541 -0.04668 0.35046
vn -0.93542 -0.04637 0.35048
vn 0.87968 0.32008 0.35173
vn 0.88031 0.31816 0.35189
vn -0.68516 -0.63562 0.35572
vn -0.68721 -0.63327 0.35597
vn 0.50888 0.7826 0.35858
vn 0.50642 0.78408 0.35884
vn -0.54747 -0.75637 0.35803
vn -0.545 -0.75802 0.3583
vn -0.38595 -0.84935 0.36006
vn -0.38379 -0.85024 0.36027
vn -0.46656 0.8082 0.35935
vn -0.46896 0.80692 0.3591
vn 0.90773 -0.22951 0.35121
vn 0.90741 -0.23097 0.35109
vn 0.65236 0.66894 0.35631
vn 0.65453 0.66668 0.35655
vn -0.62039 0.69827 0.35713
vn -0.61813 0.7004 0.35689
vn 0.2088 0.90869 0.36149
vn 0.20747 0.90895 0.36161
vn 0.25414 0.89719 0.3612
vn 0.25254 0.89758 0.36135
vn -0.61812 -0.7004 0.35689
vn -0.62038 -0.69827 0.35713
vn 0.86311 -0.36183 0.35229
vn 0.86231 -0.36393 0.35211
vn -0.02325 -0.93184 0.36211
vn -0.02338 -0.93184 0.36212
vn 0.8432 0.40588 0.35254
vn 0.84419 0.40364 0.35273
vn 0.82159 0.44764 0.35301
vn 0.82277 0.44529 0.35321
vn -0.84407 0.40388 0.35274
vn -0.84308 0.40612 0.35254
vn 0.58461 0.72832 0.35747
vn 0.58215 0.73015 0.35775
vn -0.16188 0.91808 0.36182
vn -0.16294 0.91793 0.36173
vn 0.61812 0.7004 0.35689
vn 0.62039 0.69827 0.35713
vn 0.07009 0.92952 0.36204
vn 0.06964 0.92954 0.36208
f 1//1 2//1 3//1
f 1//1 3//1 4//1
f 4//2 3//2 5//2
f 4//2 5//2 6//2
f 6//3 5//3 7//3
f 6//3 7//3 8//3
f 8//4 7//4 2//4
f 8//4 2//4 1//4
f 9//5 10//5 11//5
f 9//5 11//5 12//5
f 13//6 14//6 5//6
f 5//6 3//6 15//6
f 5//6 15//6 16//6
f 17//6 13//6 5//6
f 18//6 17//6 5//6
f 5//6 16//6 19//6
f 5//6 19//6 20//6
f 21//6 18//6 5//6
f 22//6 21//6 5//6
f 5//6 20//6 23//6
f 5//6 23//6 24//6
f 25//6 22//6 5//6
f 26//6 25//6 5//6
f 5//6 24//6 27//6
f 5//6 27//6 28//6
f 29//6 26//6 5//6
f 30//6 29//6 5//6
f 5//6 28//6 31//6
f 5//6 31//6 32//6
f 33//6 30//6 5//6
f 34//6 33//6 5//6
f 5//6 32//6 35//6
f 5//6 35//6 34//6
f 36//6 15//6 3//6
f 5//6 14//6 37//6
f 5//6 37//6 38//6
f 39//6 36//6 3//6
f 40//6 39//6 3//6
f 5//6 38//6 41//6
f 5//6 41//6 42//6
f 43//6 40//6 3//6
f 44//6 43//6 3//6
f 5//6 42//6 45//6
f 5//6 45//6 46//6
f 47//6 44//6 3//6
f 48//6 47//6 3//6
f 5//6 46//6 49//6
f 5//6 49//6 50//6
f 51//6 48//6 3//6
f 52//6 51//6 3//6
f 5//6 50//6 53//6
f 5//6 53//6 54//6
f 52//7 3//7 2//7
f 55//8 52//8 2//8
f 7//9 5//9 54//9
f 7//10 54//10 56//10
f 57//11 55//11 2//11
f 58//12 57//12 2//12
f 7//13 56//13 59//13
f 7//14 59//14 60//14
f 61//15 58//15 2//15
f 62//16 61//16 2//16
f 7//17 60//17 63//17
f 7//18 63//18 64//18
f 65//19 62//19 2//19
f 66//20 65//20 2//20
f 7//21 64//21 67//21
f 7//6 67//6 68//6
f 69//6 66//6 2//6
f 70//6 69//6 2//6
f 7//6 68//6 71//6
f 7//6 71//6 72//6
f 73//6 70//6 2//6
f 74//6 73//6 2//6
f 7//6 72//6 75//6
f 7//6 75//6 76//6
f 77//6 74//6 2//6
f 78//22 77//22 2//22
f 7//23 76//23 79//23
f 7//24 79//24 80//24
f 81//25 78//25 2//25
f 82//26 81//26 2//26
f 7//27 80//27 83//27
f 7//28 83//28 84//28
f 85//29 82//29 2//29
f 86//30 85//30 2//30
f 7//31 84//31 87//31
f 7//32 87//32 88//32
f 89//33 86//33 2//33
f 90//34 89//34 2//34
f 7//35 88//35 91//35
f 7//36 91//36 92//36
f 93//37 90//37 2//37
f 94//38 93//38 2//38
f 7//39 92//39 95//39
f 7//40 95//40 96//40
f 97//41 94//41 2//41
f 98//42 97//42 2//42
f 7//43 96//43 99//43
f 7//44 99//44 100//44
f 101//45 98//45 2//45
f 102//46 101//46 2//46
f 7//47 100//47 103//47
f 7//48 103//48 104//48
f 105//49 102//49 2//49
f 106//50 105//50 2//50
f 7//51 104//51 107//51
f 7//52 107//52 108//52
f 109//53 106//53 2//53
f 110//54 109//54 2//54
f 7//55 108//55 111//55
f 7//56 111//56 112//56
f 110//57 2//57 7//57
f 113//58 110//58 7//58
f 7//59 112//59 114//59
f 7//60 114//60 115//60
f 116//61 113//61 7//61
f 117//62 116//62 7//62
f 7//63 115//63 118//63
f 7//64 118//64 119//64
f 120//65 117//65 7//65
f 121//66 120//66 7//66
f 7//67 119//67 122//67
f 7//68 122//68 123//68
f 124//69 121//69 7//69
f 125//70 124//70 7//70
f 7//71 123//71 126//71
f 7//72 126//72 127//72
f 128//73 125//73 7//73
f 129//74 128//74 7//74
f 7//75 127//75 130//75
f 7//76 130//76 131//76
f 132//77 129//77 7//77
f 133//78 132//78 7//78
f 7//79 131//79 134//79
f 7//80 134//80 135//80
f 136//81 133//81 7//81
f 137//82 136//82 7//82
f 7//83 135//83 138//83
f 7//84 138//84 137//84
f 139//85 8//85 1//85
f 139//85 1//85 140//85
f 141//3 6//3 8//3
f 141//3 8//3 139//3
f 142//86 143//86 144//86
f 141//87 145//87 146//87
f 141//88 146//88 147//88
f 142//89 144//89 4//89
f 148//90 142//90 4//90
f 6//91 141//91 147//91
f 6//92 147//92 149//92
f 150//93 148//93 4//93
f 151//94 150//94 4//94
f 6//95 149//95 152//95
f 6//96 152//96 153//96
f 154//97 151//97 4//97
f 155//98 154//98 4//98
f 6//99 153//99 156//99
f 6//100 156//100 157//100
f 158//101 155//101 4//101
f 159//102 158//102 4//102
f 6//103 157//103 160//103
f 6//104 160//104 161//104
f 162//105 159//105 4//105
f 163//106 162//106 4//106
f 6//107 161//107 164//107
f 6//108 164//108 165//108
f 166//109 163//109 4//109
f 167//110 166//110 4//110
f 6//111 165//111 168//111
f 6//112 168//112 169//112
f 170//113 167//113 4//113
f 171//114 170//114 4//114
f 6//115 169//115 172//115
f 6//116 172//116 173//116
f 174//117 171//117 4//117
f 175//118 174//118 4//118
f 6//119 173//119 176//119
f 6//120 176//120 177//120
f 178//121 175//121 4//121
f 179//122 178//122 4//122
f 6//123 177//123 180//123
f 6//124 180//124 181//124
f 182//125 179//125 4//125
f 183//126 182//126 4//126
f 6//127 181//127 184//127
f 6//128 184//128 185//128
f 186//129 183//129 4//129
f 187//130 186//130 4//130
f 6//131 185//131 188//131
f 6//132 188//132 189//132
f 190//133 187//133 4//133
f 191//134 190//134 4//134
f 6//135 189//135 192//135
f 6//136 192//136 193//136
f 194//137 191//137 4//137
f 195//138 194//138 4//138
f 6//139 193//139 196//139
f 6//140 196//140 197//140
f 198//141 195//141 4//141
f 199//142 198//142 4//142
f 6//143 197//143 200//143
f 6//144 200//144 201//144
f 202//145 199//145 4//145
f 203//146 202//146 4//146
f 6//147 201//147 204//147
f 6//148 204//148 205//148
f 203//149 4//149 6//149
f 206//150 203//150 6//150
f 6//151 205//151 207//151
f 6//152 207//152 208//152
f 209//153 206//153 6//153
f 210//154 209//154 6//154
f 6//155 208//155 211//155
f 6//156 211//156 212//156
f 213//157 210//157 6//157
f 214//158 213//158 6//158
f 6//159 212//159 215//159
f 6//160 215//160 216//160
f 217//161 214//161 6//161
f 218//162 217//162 6//162
f 6//163 216//163 219//163
f 6//164 219//164 220//164
f 221//165 218//165 6//165
f 222//166 221//166 6//166
f 6//167 220//167 223//167
f 6//168 223//168 224//168
f 225//169 222//169 6//169
f 226//170 225//170 6//170
f 6//171 224//171 227//171
f 6//172 227//172 228//172
f 229//173 226//173 6//173
f 6//174 228//174 229//174
f 230//175 145//175 141//175
f 144//176 143//176 231//176
f 144//177 231//177 232//177
f 233//178 230//178 141//178
f 234//179 233//179 141//179
f 144//180 232//180 235//180
f 144//181 235//181 236//181
f 237//182 234//182 141//182
f 238//183 237//183 141//183
f 144//184 236//184 239//184
f 144//185 239//185 240//185
f 241//186 238//186 141//186
f 242//187 241//187 141//187
f 144//188 240//188 243//188
f 144//189 243//189 244//189
f 245//190 242//190 141//190
f 246//191 245//191 141//191
f 144//192 244//192 247//192
f 144//193 247//193 248//193
f 249//194 246//194 141//194
f 250//195 249//195 141//195
f 144//196 248//196 251//196
f 144//197 251//197 252//197
f 253//198 250//198 141//198
f 254//199 253//199 141//199
f 144//200 252//200 255//200
f 144//201 255//201 256//201
f 257//202 254//202 141//202
f 258//203 257//203 141//203
f 144//204 256//204 259//204
f 144//205 259//205 260//205
f 261//206 258//206 141//206
f 262//207 261//207 141//207
f 144//208 260//208 263//208
f 144//209 263//209 264//209
f 262//210 141//210 144//210
f 265//211 262//211 144//211
f 144//212 264//212 266//212
f 144//213 266//213 267//213
f 268//214 265//214 144//214
f 144//215 267//215 268//215
f 140//1 1//1 4//1
f 140//1 4//1 144//1
f 269//1 140//1 144//1
f 269//1 144//1 270//1
f 270//216 144//216 141//216
f 270//216 141//216 271//216
f 271//3 141//3 139//3
f 271//3 139//3 272//3
f 272//85 139//85 140//85
f 272//85 140//85 269//85
f 11//85 272//85 269//85
f 11//85 269//85 12//85
f 10//3 271//3 272//3
f 10//3 272//3 11//3
f 9//217 270//217 271//217
f 9//217 271//217 10//217
f 12//1 269//1 270//1
f 12//1 270//1 9//1
f 229//218 273//218 274//218
f 229//219 274//219 226//219
f 202//220 275//220 276//220
f 202//220 276//220 199//220
f 220//221 277//221 278//221
f 220//222 278//222 223//222
f 203//223 279//223 275//223
f 203//224 275//224 202//224
f 184//225 280//225 281//225
f 184//225 281//225 185//225
f 187//226 282//226 283//226
f 187//227 283//227 186//227
f 186//228 283//228 284//228
f 186//229 284//229 183//229
f 285//230 286//230 268//230
f 285//231 268//231 267//231
f 151//232 287//232 288//232
f 151//233 288//233 150//233
f 241//234 289//234 290//234
f 241//235 290//235 238//235
f 221//236 291//236 292//236
f 221//236 292//236 218//236
f 222//237 293//237 291//237
f 222//238 291//238 221//238
f 200//239 294//239 295//239
f 200//240 295//240 201//240
f 199//241 276//241 296//241
f 199//242 296//242 198//242
f 158//243 297//243 298//243
f 158//244 298//244 155//244
f 207//245 299//245 300//245
f 207//246 300//246 208//246
f 301//247 302//247 250//247
f 301//248 250//248 253//248
f 303//249 304//249 242//249
f 303//250 242//250 245//250
f 209//251 305//251 306//251
f 209//252 306//252 206//252
f 237//253 307//253 308//253
f 237//254 308//254 234//254
f 182//255 309//255 310//255
f 182//256 310//256 179//256
f 164//257 311//257 312//257
f 164//258 312//258 165//258
f 145//259 313//259 314//259
f 145//260 314//260 146//260
f 179//261 310//261 315//261
f 179//262 315//262 178//262
f 178//263 315//263 316//263
f 178//264 316//264 175//264
f 174//265 317//265 318//265
f 174//266 318//266 171//266
f 152//267 319//267 320//267
f 152//268 320//268 153//268
f 180//269 321//269 322//269
f 180//270 322//270 181//270
f 225//271 323//271 293//271
f 225//272 293//272 222//272
f 160//273 324//273 325//273
f 160//274 325//274 161//274
f 226//275 274//275 323//275
f 226//276 323//276 225//276
f 206//277 306//277 279//277
f 206//278 279//278 203//278
f 168//279 326//279 327//279
f 168//280 327//280 169//280
f 163//281 328//281 329//281
f 163//282 329//282 162//282
f 154//283 330//283 287//283
f 154//284 287//284 151//284
f 331//285 332//285 263//285
f 331//286 263//286 260//286
f 210//287 333//287 305//287
f 210//288 305//288 209//288
f 334//289 335//289 251//289
f 334//290 251//290 248//290
f 175//291 316//291 317//291
f 175//292 317//292 174//292
f 176//293 336//293 337//293
f 176//294 337//294 177//294
f 338//295 339//295 261//295
f 338//296 261//296 262//296
f 148//297 340//297 341//297
f 148//298 341//298 142//298
f 155//299 298//299 330//299
f 155//300 330//300 154//300
f 192//301 342//301 343//301
f 192//302 343//302 193//302
f 239//303 344//303 345//303
f 239//304 345//304 240//304
f 231//305 346//305 347//305
f 231//306 347//306 232//306
f 348//307 301//307 253//307
f 348//308 253//308 254//308
f 240//309 345//309 349//309
f 240//310 349//310 243//310
f 350//311 351//311 247//311
f 350//312 247//312 244//312
f 352//313 303//313 245//313
f 352//314 245//314 246//314
f 351//315 334//315 248//315
f 351//316 248//316 247//316
f 238//317 290//317 307//317
f 238//318 307//318 237//318
f 353//319 354//319 255//319
f 353//320 255//320 252//320
f 215//321 355//321 356//321
f 215//322 356//322 216//322
f 230//323 357//323 313//323
f 230//324 313//324 145//324
f 354//325 358//325 256//325
f 354//326 256//326 255//326
f 223//327 278//327 359//327
f 223//328 359//328 224//328
f 232//329 347//329 360//329
f 232//330 360//330 235//330
f 332//331 361//331 264//331
f 332//332 264//332 263//332
f 149//333 362//333 319//333
f 149//334 319//334 152//334
f 235//335 360//335 363//335
f 235//336 363//336 236//336
f 361//337 364//337 266//337
f 361//338 266//338 264//338
f 157//339 365//339 324//339
f 157//340 324//340 160//340
f 165//341 312//341 326//341
f 165//342 326//342 168//342
f 335//343 353//343 252//343
f 335//344 252//344 251//344
f 173//345 366//345 336//345
f 173//346 336//346 176//346
f 181//347 322//347 280//347
f 181//348 280//348 184//348
f 189//349 367//349 342//349
f 189//350 342//350 192//350
f 190//351 368//351 282//351
f 190//352 282//352 187//352
f 197//353 369//353 294//353
f 197//353 294//353 200//353
f 212//354 370//354 355//354
f 212//355 355//355 215//355
f 217//356 371//356 372//356
f 217//356 372//356 214//356
f 218//357 292//357 371//357
f 218//358 371//358 217//358
f 191//359 373//359 368//359
f 191//359 368//359 190//359
f 183//360 284//360 309//360
f 183//361 309//361 182//361
f 228//362 374//362 273//362
f 228//363 273//363 229//363
f 166//364 375//364 328//364
f 166//365 328//365 163//365
f 159//366 376//366 297//366
f 159//367 297//367 158//367
f 198//368 296//368 377//368
f 198//369 377//369 195//369
f 143//370 378//370 346//370
f 143//371 346//371 231//371
f 286//372 379//372 265//372
f 286//373 265//373 268//373
f 379//374 338//374 262//374
f 379//375 262//375 265//375
f 150//376 288//376 340//376
f 150//377 340//377 148//377
f 380//378 348//378 254//378
f 380//379 254//379 257//379
f 236//380 363//380 344//380
f 236//381 344//381 239//381
f 170//382 381//382 382//382
f 170//383 382//383 167//383
f 383//384 352//384 246//384
f 383//385 246//385 249//385
f 167//386 382//386 375//386
f 167//387 375//387 166//387
f 233//388 384//388 357//388
f 233//389 357//389 230//389
f 147//390 385//390 362//390
f 147//391 362//391 149//391
f 162//392 329//392 376//392
f 162//393 376//393 159//393
f 156//394 386//394 365//394
f 156//395 365//395 157//395
f 387//396 380//396 257//396
f 387//397 257//397 258//397
f 302//398 383//398 249//398
f 302//399 249//399 250//399
f 142//400 341//400 378//400
f 142//401 378//401 143//401
f 172//402 388//402 366//402
f 172//403 366//403 173//403
f 161//404 325//404 311//404
f 161//405 311//405 164//405
f 242//406 304//406 289//406
f 242//407 289//407 241//407
f 349//408 350//408 244//408
f 349//409 244//409 243//409
f 358//410 389//410 259//410
f 358//411 259//411 256//411
f 188//412 390//412 367//412
f 188//413 367//413 189//413
f 234//414 308//414 384//414
f 234//415 384//415 233//415
f 389//416 331//416 260//416
f 389//417 260//417 259//417
f 196//418 391//418 369//418
f 196//419 369//419 197//419
f 146//420 314//420 385//420
f 146//421 385//421 147//421
f 204//422 392//422 393//422
f 204//423 393//423 205//423
f 153//424 320//424 386//424
f 153//425 386//425 156//425
f 211//426 394//426 370//426
f 211//427 370//427 212//427
f 219//428 395//428 277//428
f 219//429 277//429 220//429
f 169//430 327//430 388//430
f 169//431 388//431 172//431
f 193//432 343//432 391//432
f 193//433 391//433 196//433
f 177//434 337//434 321//434
f 177//435 321//435 180//435
f 185//436 281//436 390//436
f 185//437 390//437 188//437
f 201//438 295//438 392//438
f 201//439 392//439 204//439
f 208//440 300//440 394//440
f 208//441 394//441 211//441
f 339//442 387//442 258//442
f 339//443 258//443 261//443
f 216//444 356//444 395//444
f 216//445 395//445 219//445
f 224//446 359//446 396//446
f 224//447 396//447 227//447
f 227//448 396//448 374//448
f 227//449 374//449 228//449
f 195//450 377//450 397//450
f 195//451 397//451 194//451
f 194//452 397//452 373//452
f 194//452 373//452 191//452
f 213//453 398//453 333//453
f 213//454 333//454 210//454
f 214//455 372//455 398//455
f 214//455 398//455 213//455
f 171//456 318//456 381//456
f 171//457 381//457 170//457
f 205//458 393//458 299//458
f 205//459 299//459 207//459
f 364//460 285//460 267//460
f 364//461 267//461 266//461
f 399//462 400//462 137//462
f 399//463 137//463 138//463
f 401//464 402//464 37//464
f 401//465 37//465 14//465
f 73//466 403//466 404//466
f 73//466 404//466 70//466
f 405//467 406//467 20//467
f 405//468 20//468 19//468
f 407//469 405//469 19//469
f 407//470 19//470 16//470
f 51//471 408//471 409//471
f 51//471 409//471 48//471
f 48//472 409//472 410//472
f 48//472 410//472 47//472
f 411//473 412//473 33//473
f 411//474 33//474 34//474
f 412//475 413//475 30//475
f 412//476 30//476 33//476
f 414//477 415//477 22//477
f 414//478 22//478 25//478
f 416//479 417//479 130//479
f 416//480 130//480 127//480
f 418//481 419//481 13//481
f 418//482 13//482 17//482
f 420//483 421//483 41//483
f 420//484 41//484 38//484
f 422//485 423//485 56//485
f 422//486 56//486 54//486
f 424//487 425//487 64//487
f 424//488 64//488 63//488
f 426//489 427//489 49//489
f 426//490 49//490 46//490
f 428//491 429//491 72//491
f 428//492 72//492 71//492
f 430//493 414//493 25//493
f 430//494 25//494 26//494
f 431//495 418//495 17//495
f 431//496 17//496 18//496
f 432//497 433//497 88//497
f 432//498 88//498 87//498
f 402//499 420//499 38//499
f 402//500 38//500 37//500
f 434//501 435//501 96//501
f 434//502 96//502 95//502
f 436//503 426//503 46//503
f 436//504 46//504 45//504
f 437//505 438//505 129//505
f 437//506 129//506 132//506
f 439//507 440//507 104//507
f 439//508 104//508 103//508
f 441//509 422//509 54//509
f 441//510 54//510 53//510
f 438//511 442//511 128//511
f 438//512 128//512 129//512
f 443//513 444//513 113//513
f 443//514 113//514 116//514
f 445//515 446//515 112//515
f 445//516 112//516 111//516
f 447//517 448//517 80//517
f 447//518 80//518 79//518
f 449//519 428//519 71//519
f 449//520 71//520 68//520
f 98//521 450//521 451//521
f 98//522 451//522 97//522
f 452//523 453//523 119//523
f 452//524 119//524 118//524
f 454//525 416//525 127//525
f 454//526 127//526 126//526
f 455//527 432//527 87//527
f 455//528 87//528 84//528
f 82//529 456//529 457//529
f 82//530 457//530 81//530
f 458//531 434//531 95//531
f 458//532 95//532 92//532
f 459//533 439//533 103//533
f 459//534 103//534 100//534
f 77//535 460//535 461//535
f 77//535 461//535 74//535
f 462//536 452//536 118//536
f 462//537 118//537 115//537
f 74//538 461//538 403//538
f 74//538 403//538 73//538
f 109//539 463//539 464//539
f 109//540 464//540 106//540
f 465//541 454//541 126//541
f 465//542 126//542 123//542
f 94//543 466//543 467//543
f 94//544 467//544 93//544
f 468//545 469//545 134//545
f 468//546 134//546 131//546
f 469//547 470//547 135//547
f 469//548 135//548 134//548
f 101//549 471//549 450//549
f 101//549 450//549 98//549
f 47//550 410//550 472//550
f 47//550 472//550 44//550
f 85//551 473//551 456//551
f 85//551 456//551 82//551
f 78//552 474//552 460//552
f 78//553 460//553 77//553
f 475//554 411//554 34//554
f 475//555 34//555 35//555
f 61//556 476//556 477//556
f 61//557 477//557 58//557
f 52//558 478//558 408//558
f 52//558 408//558 51//558
f 479//559 480//559 24//559
f 479//560 24//560 23//560
f 406//561 479//561 23//561
f 406//562 23//562 20//562
f 481//563 431//563 18//563
f 481//564 18//564 21//564
f 482//565 436//565 45//565
f 482//566 45//566 42//566
f 55//567 483//567 478//567
f 55//568 478//568 52//568
f 484//569 441//569 53//569
f 484//570 53//570 50//570
f 485//571 486//571 60//571
f 485//572 60//572 59//572
f 487//573 449//573 68//573
f 487//574 68//574 67//574
f 488//575 489//575 121//575
f 488//576 121//576 124//576
f 490//577 491//577 76//577
f 490//577 76//577 75//577
f 492//578 455//578 84//578
f 492//579 84//579 83//579
f 400//580 493//580 136//580
f 400//581 136//581 137//581
f 106//582 464//582 494//582
f 106//583 494//583 105//583
f 495//584 458//584 92//584
f 495//585 92//585 91//585
f 493//586 496//586 133//586
f 493//587 133//587 136//587
f 105//588 494//588 497//588
f 105//588 497//588 102//588
f 413//589 498//589 29//589
f 413//590 29//590 30//590
f 442//591 499//591 125//591
f 442//592 125//592 128//592
f 500//593 459//593 100//593
f 500//594 100//594 99//594
f 415//595 481//595 21//595
f 415//596 21//596 22//596
f 499//597 488//597 124//597
f 499//598 124//598 125//598
f 501//599 502//599 108//599
f 501//600 108//600 107//600
f 503//601 504//601 117//601
f 503//602 117//602 120//602
f 505//603 462//603 115//603
f 505//604 115//604 114//604
f 504//605 443//605 116//605
f 504//606 116//606 117//606
f 444//607 506//607 110//607
f 444//608 110//608 113//608
f 507//609 465//609 123//609
f 507//610 123//610 122//610
f 102//611 497//611 471//611
f 102//612 471//612 101//612
f 110//613 506//613 463//613
f 110//614 463//614 109//614
f 427//615 484//615 50//615
f 427//616 50//616 49//616
f 89//617 508//617 509//617
f 89//618 509//618 86//618
f 97//619 451//619 466//619
f 97//619 466//619 94//619
f 417//620 468//620 131//620
f 417//621 131//621 130//621
f 425//622 487//622 67//622
f 425//623 67//623 64//623
f 69//624 510//624 511//624
f 69//625 511//625 66//625
f 489//626 503//626 120//626
f 489//627 120//627 121//627
f 512//628 407//628 16//628
f 512//629 16//629 15//629
f 496//630 437//630 132//630
f 496//631 132//631 133//631
f 90//632 513//632 508//632
f 90//632 508//632 89//632
f 81//633 457//633 474//633
f 81//633 474//633 78//633
f 429//634 490//634 75//634
f 429//635 75//635 72//635
f 514//636 515//636 36//636
f 514//637 36//637 39//637
f 516//638 517//638 32//638
f 516//639 32//639 31//639
f 448//640 492//640 83//640
f 448//641 83//641 80//641
f 518//642 516//642 31//642
f 518//643 31//643 28//643
f 486//644 424//644 63//644
f 486//645 63//645 60//645
f 433//646 495//646 91//646
f 433//647 91//647 88//647
f 70//648 404//648 510//648
f 70//649 510//649 69//649
f 66//650 511//650 519//650
f 66//651 519//651 65//651
f 65//652 519//652 520//652
f 65//653 520//653 62//653
f 435//654 500//654 99//654
f 435//655 99//655 96//655
f 491//656 447//656 79//656
f 491//657 79//657 76//657
f 62//658 520//658 476//658
f 62//659 476//659 61//659
f 440//660 501//660 107//660
f 440//661 107//661 104//661
f 515//662 512//662 15//662
f 515//663 15//663 36//663
f 446//664 505//664 114//664
f 446//665 114//665 112//665
f 453//666 507//666 122//666
f 453//667 122//667 119//667
f 419//668 401//668 14//668
f 419//669 14//669 13//669
f 86//670 509//670 473//670
f 86//671 473//671 85//671
f 44//672 472//672 521//672
f 44//672 521//672 43//672
f 421//673 482//673 42//673
f 421//674 42//674 41//674
f 522//675 518//675 28//675
f 522//676 28//676 27//676
f 480//677 522//677 27//677
f 480//678 27//678 24//678
f 502//679 445//679 111//679
f 502//680 111//680 108//680
f 93//681 467//681 513//681
f 93//681 513//681 90//681
f 470//682 399//682 138//682
f 470//683 138//683 135//683
f 58//684 477//684 523//684
f 58//684 523//684 57//684
f 57//685 523//685 483//685
f 57//685 483//685 55//685
f 423//686 485//686 59//686
f 423//687 59//687 56//687
f 524//688 514//688 39//688
f 524//689 39//689 40//689
f 498//690 430//690 26//690
f 498//691 26//691 29//691
f 43//692 521//692 524//692
f 43//693 524//693 40//693
f 517//694 475//694 35//694
f 517//695 35//695 32//695
f 400//696 399//696 285//696
f 400//697 285//697 364//697
f 402//698 401//698 299//698
f 402//699 299//699 393//699
f 404//700 403//700 381//700
f 404//701 381//701 318//701
f 405//702 398//702 372//702
f 405//703 372//703 406//703
f 407//704 333//704 398//704
f 407//705 398//705 405//705
f 409//706 408//706 373//706
f 409//707 373//707 397//707
f 410//708 409//708 397//708
f 410//709 397//709 377//709
f 412//710 411//710 374//710
f 412//711 374//711 396//711
f 413//712 412//712 396//712
f 413//713 396//713 359//713
f 415//714 414//714 395//714
f 415//715 395//715 356//715
f 417//716 416//716 387//716
f 417//717 387//717 339//717
f 419//718 418//718 394//718
f 419//719 394//719 300//719
f 421//720 420//720 392//720
f 421//721 392//721 295//721
f 422//722 390//722 281//722
f 422//723 281//723 423//723
f 424//724 321//724 337//724
f 424//725 337//725 425//725
f 426//726 391//726 343//726
f 426//727 343//727 427//727
f 429//728 428//728 388//728
f 429//729 388//729 327//729
f 414//730 430//730 277//730
f 414//731 277//731 395//731
f 418//732 431//732 370//732
f 418//733 370//733 394//733
f 433//734 432//734 386//734
f 433//735 386//735 320//735
f 420//736 402//736 393//736
f 420//737 393//737 392//737
f 435//738 434//738 385//738
f 435//739 385//739 314//739
f 436//740 369//740 391//740
f 436//741 391//741 426//741
f 438//742 437//742 331//742
f 438//743 331//743 389//743
f 440//744 439//744 384//744
f 440//745 384//745 308//745
f 441//746 367//746 390//746
f 441//747 390//747 422//747
f 442//748 438//748 389//748
f 442//749 389//749 358//749
f 444//750 443//750 350//750
f 444//751 350//751 349//751
f 445//752 289//752 304//752
f 445//753 304//753 446//753
f 448//754 447//754 311//754
f 448//755 311//755 325//755
f 428//756 449//756 366//756
f 428//757 366//757 388//757
f 450//758 378//758 341//758
f 450//759 341//759 451//759
f 452//760 383//760 302//760
f 452//761 302//761 453//761
f 454//762 380//762 387//762
f 454//763 387//763 416//763
f 432//764 455//764 365//764
f 432//765 365//765 386//765
f 456//766 376//766 329//766
f 456//767 329//767 457//767
f 434//768 458//768 362//768
f 434//769 362//769 385//769
f 439//770 459//770 357//770
f 439//771 357//771 384//771
f 461//772 460//772 375//772
f 461//773 375//773 382//773
f 462//774 352//774 383//774
f 462//775 383//775 452//775
f 403//776 461//776 382//776
f 403//777 382//777 381//777
f 463//778 344//778 363//778
f 463//779 363//779 464//779
f 465//780 348//780 380//780
f 465//781 380//781 454//781
f 466//782 340//782 288//782
f 466//783 288//783 467//783
f 469//784 468//784 338//784
f 469//785 338//785 379//785
f 470//786 469//786 379//786
f 470//787 379//787 286//787
f 471//788 346//788 378//788
f 471//789 378//789 450//789
f 472//790 410//790 377//790
f 472//791 377//791 296//791
f 473//792 297//792 376//792
f 473//793 376//793 456//793
f 474//794 328//794 375//794
f 474//795 375//795 460//795
f 475//796 273//796 374//796
f 475//797 374//797 411//797
f 477//798 476//798 309//798
f 477//799 309//799 284//799
f 408//800 478//800 368//800
f 408//801 368//801 373//801
f 479//802 371//802 292//802
f 479//803 292//803 480//803
f 406//804 372//804 371//804
f 406//805 371//805 479//805
f 431//806 481//806 355//806
f 431//807 355//807 370//807
f 482//808 294//808 369//808
f 482//809 369//809 436//809
f 478//810 483//810 282//810
f 478//811 282//811 368//811
f 484//812 342//812 367//812
f 484//813 367//813 441//813
f 485//814 280//814 322//814
f 485//815 322//815 486//815
f 449//816 487//816 336//816
f 449//817 336//817 366//817
f 489//818 488//818 353//818
f 489//819 353//819 335//819
f 491//820 490//820 326//820
f 491//821 326//821 312//821
f 455//822 492//822 324//822
f 455//823 324//823 365//823
f 493//824 400//824 364//824
f 493//825 364//825 361//825
f 464//826 363//826 360//826
f 464//827 360//827 494//827
f 458//828 495//828 319//828
f 458//829 319//829 362//829
f 496//830 493//830 361//830
f 496//831 361//831 332//831
f 494//832 360//832 347//832
f 494//833 347//833 497//833
f 498//834 413//834 359//834
f 498//835 359//835 278//835
f 499//836 442//836 358//836
f 499//837 358//837 354//837
f 459//838 500//838 313//838
f 459//839 313//839 357//839
f 481//840 415//840 356//840
f 481//841 356//841 355//841
f 488//842 499//842 354//842
f 488//843 354//843 353//843
f 502//844 501//844 307//844
f 502//845 307//845 290//845
f 504//846 503//846 334//846
f 504//847 334//847 351//847
f 505//848 303//848 352//848
f 505//849 352//849 462//849
f 443//850 504//850 351//850
f 443//851 351//851 350//851
f 506//852 444//852 349//852
f 506//853 349//853 345//853
f 507//854 301//854 348//854
f 507//855 348//855 465//855
f 497//856 347//856 346//856
f 497//857 346//857 471//857
f 506//858 345//858 344//858
f 506//859 344//859 463//859
f 427//860 343//860 342//860
f 427//861 342//861 484//861
f 508//862 330//862 298//862
f 508//863 298//863 509//863
f 451//864 341//864 340//864
f 451//865 340//865 466//865
f 468//866 417//866 339//866
f 468//867 339//867 338//867
f 425//868 337//868 336//868
f 425//869 336//869 487//869
f 511//870 510//870 317//870
f 511//871 317//871 316//871
f 503//872 489//872 335//872
f 503//873 335//873 334//873
f 512//874 305//874 333//874
f 512//875 333//875 407//875
f 437//876 496//876 332//876
f 437//877 332//877 331//877
f 513//878 287//878 330//878
f 513//879 330//879 508//879
f 457//880 329//880 328//880
f 457//881 328//881 474//881
f 490//882 429//882 327//882
f 490//883 327//883 326//883
f 514//884 279//884 306//884
f 514//885 306//885 515//885
f 516//886 323//886 274//886
f 516//887 274//887 517//887
f 492//888 448//888 325//888
f 492//889 325//889 324//889
f 518//890 293//890 323//890
f 518//891 323//891 516//891
f 486//892 322//892 321//892
f 486//893 321//893 424//893
f 495//894 433//894 320//894
f 495//895 320//895 319//895
f 510//896 404//896 318//896
f 510//897 318//897 317//897
f 519//898 511//898 316//898
f 519//899 316//899 315//899
f 520//900 519//900 315//900
f 520//901 315//901 310//901
f 500//902 435//902 314//902
f 500//903 314//903 313//903
f 447//904 491//904 312//904
f 447//905 312//905 311//905
f 476//906 520//906 310//906
f 476//907 310//907 309//907
f 501//908 440//908 308//908
f 501//909 308//909 307//909
f 515//910 306//910 305//910
f 515//911 305//911 512//911
f 446//912 304//912 303//912
f 446//913 303//913 505//913
f 453//914 302//914 301//914
f 453//915 301//915 507//915
f 401//916 419//916 300//916
f 401//917 300//917 299//917
f 509//918 298//918 297//918
f 509//919 297//919 473//919
f 521//920 472//920 296//920
f 521//921 296//921 276//921
f 421//922 295//922 294//922
f 421//923 294//923 482//923
f 522//924 291//924 293//924
f 522//925 293//925 518//925
f 480//926 292//926 291//926
f 480//927 291//927 522//927
f 445//928 502//928 290//928
f 445//929 290//929 289//929
f 467//930 288//930 287//930
f 467//931 287//931 513//931
f 399//932 470//932 286//932
f 399//933 286//933 285//933
f 523//934 477//934 284//934
f 523//935 284//935 283//935
f 483//936 523//936 283//936
f 483//937 283//937 282//937
f 423//938 281//938 280//938
f 423//939 280//939 485//939
f 524//940 275//940 279//940
f 524//941 279//941 514//941
f 430//942 498//942 278//942
f 430//943 278//943 277//943
f 524//944 521//944 276//944
f 524//945 276//945 275//945
f 517//946 274//946 273//946
f 517//947 273//947 475//947
# Vertices: 524, normals: 947, texture coordinates: 0, faces: 1048

