# Blender 5.2.0 LTS
# www.blender.org
mtllib bridge.mtl
o obj1.001
v -27.850378 4.842134 -33.820637
v -27.850378 5.842134 -33.820637
v -27.850378 5.842134 -35.820637
v -27.850378 4.842134 -35.820637
v -8.530071 4.842134 -35.820637
v -9.530071 5.842134 -35.820637
v -7.594791 5.842134 -35.820637
v -7.594791 4.842134 -35.820637
v -7.594791 5.842134 -33.820637
v -7.594791 4.842134 -33.820637
v -26.915100 4.842134 -33.820637
v -25.915098 5.842134 -33.820637
v -8.530071 4.842134 -33.820637
v -9.530071 7.155634 -35.820637
v -7.594791 7.155634 -35.820637
v -15.094791 5.842134 -35.820637
v -17.850378 5.842134 -35.820637
v -17.850378 5.842134 -33.820637
v -15.094791 5.842134 -33.820637
v -20.350378 4.842134 -35.820637
v -17.850378 4.842134 -35.820637
v -17.850378 4.842134 -33.820637
v -20.350378 4.842134 -33.820637
v -15.094791 4.842134 -33.820637
v -20.350378 5.842134 -35.820637
v -10.094791 4.842134 -33.820637
v -10.094791 5.842134 -33.820637
v -12.594791 5.842134 -33.820637
v -12.594791 4.842134 -33.820637
v -10.094791 5.842134 -35.820637
v -12.594791 5.842134 -35.820637
v -15.094791 4.842134 -35.820637
v -12.594791 4.842134 -35.820637
v -9.530071 5.842134 -33.820637
v -10.094791 4.842134 -35.820637
v -25.915098 5.842134 -35.820637
v -27.850378 7.155634 -35.820637
v -25.915098 7.155634 -35.820637
v -10.094791 0.651086 -35.820637
v -10.094791 0.651086 -33.820637
v -25.350378 4.842134 -35.820637
v -25.350378 5.842134 -35.820637
v -22.850378 5.842134 -35.820637
v -22.850378 4.842134 -35.820637
v -22.850378 4.842134 -33.820637
v -25.350378 4.842134 -33.820637
v -22.850378 5.842134 -33.820637
v -20.350378 5.842134 -33.820637
v -12.594791 4.842134 -17.653015
v -15.094791 4.842134 -17.653015
v -25.350378 0.651086 -33.820637
v -25.350378 0.651086 -35.820637
v -26.915100 4.842134 -35.820637
v -25.350378 5.842134 -33.820637
v -27.850378 7.155634 -33.820637
v -25.915098 7.155634 -33.820637
v -9.530071 7.155634 -33.820637
v -7.594791 7.155634 -33.820637
v -25.350378 -6.210376 -33.820637
v -25.350378 -6.210376 -35.820637
v -26.915100 0.651086 -33.820637
v -26.915100 0.651086 -35.820637
v -26.915100 -6.210376 -35.820637
v -26.915100 -6.210376 -33.820637
v -8.530071 0.651086 -35.820637
v -8.530071 0.651086 -33.820637
v -10.094791 -6.210376 -35.820637
v -8.530071 -6.210376 -35.820637
v -7.530070 -8.050859 -35.820637
v -11.094791 -8.050859 -35.820637
v -8.530071 -6.210376 -33.820637
v -10.094791 -6.210376 -33.820637
v -11.094791 -8.050859 -33.820637
v -7.530070 -8.050859 -33.820637
v -27.915100 -8.050859 -35.820637
v -24.350378 -8.050859 -35.820637
v -24.350378 -8.050859 -33.820637
v -27.915100 -8.050859 -33.820637
v -27.850378 4.842134 -15.653015
v -27.850378 5.842134 -15.653015
v -27.850378 5.842134 -17.653015
v -27.850378 4.842134 -17.653015
v -8.530071 4.842134 -17.653015
v -9.530071 5.842134 -17.653015
v -7.594791 5.842134 -17.653015
v -7.594791 4.842134 -17.653015
v -7.594791 5.842134 -15.653015
v -7.594791 4.842134 -15.653015
v -26.915100 4.842134 -15.653015
v -25.915098 5.842134 -15.653015
v -8.530071 4.842134 -15.653015
v -9.530071 7.155634 -17.653015
v -7.594791 7.155634 -17.653015
v -15.094791 5.842134 -17.653015
v -17.850378 5.842134 -17.653015
v -17.850378 5.842134 -15.653015
v -15.094791 5.842134 -15.653015
v -20.350378 4.842134 -17.653015
v -17.850378 4.842134 -17.653015
v -17.850378 4.842134 -15.653015
v -20.350378 4.842134 -15.653015
v -15.094791 4.842134 -15.653015
v -20.350378 5.842134 -17.653015
v -10.094791 4.842134 -15.653015
v -10.094791 5.842134 -15.653015
v -12.594791 5.842134 -15.653015
v -12.594791 4.842134 -15.653015
v -10.094791 5.842134 -17.653015
v -12.594791 5.842134 -17.653015
v -9.530071 5.842134 -15.653015
v -10.094791 4.842134 -17.653015
v -25.915098 5.842134 -17.653015
v -27.850378 7.155634 -17.653015
v -25.915098 7.155634 -17.653015
v -10.094791 0.651086 -17.653015
v -10.094791 0.651086 -15.653015
v -25.350378 4.842134 -17.653015
v -25.350378 5.842134 -17.653015
v -22.850378 5.842134 -17.653015
v -22.850378 4.842134 -17.653015
v -22.850378 4.842134 -15.653015
v -25.350378 4.842134 -15.653015
v -22.850378 5.842134 -15.653015
v -20.350378 5.842134 -15.653015
v -25.350378 0.651086 -15.653015
v -25.350378 0.651086 -17.653015
v -26.915100 4.842134 -17.653015
v -25.350378 5.842134 -15.653015
v -27.850378 7.155634 -15.653015
v -25.915098 7.155634 -15.653015
v -9.530071 7.155634 -15.653015
v -7.594791 7.155634 -15.653015
v -25.350378 -6.210376 -15.653015
v -25.350378 -6.210376 -17.653015
v -26.915100 0.651086 -15.653015
v -26.915100 0.651086 -17.653015
v -26.915100 -6.210376 -17.653015
v -26.915100 -6.210376 -15.653015
v -8.530071 0.651086 -17.653015
v -8.530071 0.651086 -15.653015
v -10.094791 -6.210376 -17.653015
v -8.530071 -6.210376 -17.653015
v -7.530070 -8.050859 -17.653015
v -11.094791 -8.050859 -17.653015
v -8.530071 -6.210376 -15.653015
v -10.094791 -6.210376 -15.653015
v -11.094791 -8.050859 -15.653015
v -7.530070 -8.050859 -15.653015
v -27.915100 -8.050859 -17.653015
v -24.350378 -8.050859 -17.653015
v -24.350378 -8.050859 -15.653015
v -27.915100 -8.050859 -15.653015
vn -1.0000 -0.0000 -0.0000
vn -0.0000 -0.0000 -1.0000
vn 1.0000 -0.0000 -0.0000
vn -0.0000 -0.0000 1.0000
vn -0.0000 -1.0000 -0.0000
vn -0.0000 1.0000 -0.0000
vn -0.8787 0.4774 -0.0000
vn 0.8787 0.4774 -0.0000
s 1
f 1//1 2//1 3//1
f 1//1 3//1 4//1
f 5//2 6//2 7//2
f 5//2 7//2 8//2
f 8//3 7//3 9//3
f 8//3 9//3 10//3
f 11//4 12//4 2//4
f 11//4 2//4 1//4
f 5//5 8//5 10//5
f 5//5 10//5 13//5
f 7//2 6//2 14//2
f 7//2 14//2 15//2
f 16//6 17//6 18//6
f 16//6 18//6 19//6
f 20//5 21//5 22//5
f 20//5 22//5 23//5
f 24//4 19//4 18//4
f 24//4 18//4 22//4
f 20//2 25//2 17//2
f 20//2 17//2 21//2
f 26//4 27//4 28//4
f 26//4 28//4 29//4
f 30//6 31//6 28//6
f 30//6 28//6 27//6
f 32//5 33//5 29//5
f 32//5 29//5 24//5
f 32//2 16//2 31//2
f 32//2 31//2 33//2
f 6//6 30//6 27//6
f 6//6 27//6 34//6
f 13//4 34//4 27//4
f 13//4 27//4 26//4
f 33//5 35//5 26//5
f 33//5 26//5 29//5
f 33//2 31//2 30//2
f 33//2 30//2 35//2
f 10//4 9//4 34//4
f 10//4 34//4 13//4
f 36//2 3//2 37//2
f 36//2 37//2 38//2
f 26//1 35//1 39//1
f 26//1 39//1 40//1
f 35//2 30//2 6//2
f 35//2 6//2 5//2
f 41//2 42//2 43//2
f 41//2 43//2 44//2
f 41//5 44//5 45//5
f 41//5 45//5 46//5
f 25//6 43//6 47//6
f 25//6 47//6 48//6
f 24//5 29//5 49//5
f 24//5 49//5 50//5
f 41//3 46//3 51//3
f 41//3 51//3 52//3
f 53//2 36//2 42//2
f 53//2 42//2 41//2
f 43//6 42//6 54//6
f 43//6 54//6 47//6
f 45//4 47//4 54//4
f 45//4 54//4 46//4
f 4//2 3//2 36//2
f 4//2 36//2 53//2
f 4//5 53//5 11//5
f 4//5 11//5 1//5
f 42//6 36//6 12//6
f 42//6 12//6 54//6
f 46//4 54//4 12//4
f 46//4 12//4 11//4
f 38//6 37//6 55//6
f 38//6 55//6 56//6
f 15//6 14//6 57//6
f 15//6 57//6 58//6
f 6//1 34//1 57//1
f 6//1 57//1 14//1
f 9//3 7//3 15//3
f 9//3 15//3 58//3
f 34//4 9//4 58//4
f 34//4 58//4 57//4
f 3//1 2//1 55//1
f 3//1 55//1 37//1
f 12//3 36//3 38//3
f 12//3 38//3 56//3
f 2//4 12//4 56//4
f 2//4 56//4 55//4
f 52//3 51//3 59//3
f 52//3 59//3 60//3
f 61//1 62//1 63//1
f 61//1 63//1 64//1
f 11//1 53//1 62//1
f 11//1 62//1 61//1
f 35//2 5//2 65//2
f 35//2 65//2 39//2
f 13//4 26//4 40//4
f 13//4 40//4 66//4
f 46//4 11//4 61//4
f 46//4 61//4 51//4
f 5//3 13//3 66//3
f 5//3 66//3 65//3
f 53//2 41//2 52//2
f 53//2 52//2 62//2
f 67//2 68//2 69//2
f 67//2 69//2 70//2
f 71//4 72//4 73//4
f 71//4 73//4 74//4
f 65//3 66//3 71//3
f 65//3 71//3 68//3
f 40//1 39//1 67//1
f 40//1 67//1 72//1
f 62//2 52//2 60//2
f 62//2 60//2 63//2
f 51//4 61//4 64//4
f 51//4 64//4 59//4
f 66//4 40//4 72//4
f 66//4 72//4 71//4
f 39//2 65//2 68//2
f 39//2 68//2 67//2
f 70//5 69//5 74//5
f 70//5 74//5 73//5
f 75//5 76//5 77//5
f 75//5 77//5 78//5
f 64//7 63//7 75//7
f 64//7 75//7 78//7
f 60//8 59//8 77//8
f 60//8 77//8 76//8
f 68//8 71//8 74//8
f 68//8 74//8 69//8
f 72//7 67//7 70//7
f 72//7 70//7 73//7
f 63//2 60//2 76//2
f 63//2 76//2 75//2
f 59//4 64//4 78//4
f 59//4 78//4 77//4
f 79//1 80//1 81//1
f 79//1 81//1 82//1
f 83//2 84//2 85//2
f 83//2 85//2 86//2
f 86//3 85//3 87//3
f 86//3 87//3 88//3
f 89//4 90//4 80//4
f 89//4 80//4 79//4
f 83//5 86//5 88//5
f 83//5 88//5 91//5
f 85//2 84//2 92//2
f 85//2 92//2 93//2
f 94//6 95//6 96//6
f 94//6 96//6 97//6
f 98//5 99//5 100//5
f 98//5 100//5 101//5
f 102//4 97//4 96//4
f 102//4 96//4 100//4
f 98//2 103//2 95//2
f 98//2 95//2 99//2
f 104//4 105//4 106//4
f 104//4 106//4 107//4
f 108//6 109//6 106//6
f 108//6 106//6 105//6
f 50//5 49//5 107//5
f 50//5 107//5 102//5
f 94//6 109//6 28//6
f 94//6 28//6 19//6
f 84//6 108//6 105//6
f 84//6 105//6 110//6
f 91//4 110//4 105//4
f 91//4 105//4 104//4
f 49//5 111//5 104//5
f 49//5 104//5 107//5
f 49//2 109//2 108//2
f 49//2 108//2 111//2
f 88//4 87//4 110//4
f 88//4 110//4 91//4
f 112//2 81//2 113//2
f 112//2 113//2 114//2
f 104//1 111//1 115//1
f 104//1 115//1 116//1
f 111//2 108//2 84//2
f 111//2 84//2 83//2
f 117//2 118//2 119//2
f 117//2 119//2 120//2
f 117//5 120//5 121//5
f 117//5 121//5 122//5
f 103//6 119//6 123//6
f 103//6 123//6 124//6
f 101//4 124//4 123//4
f 101//4 123//4 121//4
f 117//3 122//3 125//3
f 117//3 125//3 126//3
f 127//2 112//2 118//2
f 127//2 118//2 117//2
f 119//6 118//6 128//6
f 119//6 128//6 123//6
f 121//4 123//4 128//4
f 121//4 128//4 122//4
f 82//2 81//2 112//2
f 82//2 112//2 127//2
f 82//5 127//5 89//5
f 82//5 89//5 79//5
f 118//6 112//6 90//6
f 118//6 90//6 128//6
f 122//4 128//4 90//4
f 122//4 90//4 89//4
f 114//6 113//6 129//6
f 114//6 129//6 130//6
f 93//6 92//6 131//6
f 93//6 131//6 132//6
f 84//1 110//1 131//1
f 84//1 131//1 92//1
f 87//3 85//3 93//3
f 87//3 93//3 132//3
f 110//4 87//4 132//4
f 110//4 132//4 131//4
f 81//1 80//1 129//1
f 81//1 129//1 113//1
f 90//3 112//3 114//3
f 90//3 114//3 130//3
f 80//4 90//4 130//4
f 80//4 130//4 129//4
f 126//3 125//3 133//3
f 126//3 133//3 134//3
f 135//1 136//1 137//1
f 135//1 137//1 138//1
f 89//1 127//1 136//1
f 89//1 136//1 135//1
f 111//2 83//2 139//2
f 111//2 139//2 115//2
f 91//4 104//4 116//4
f 91//4 116//4 140//4
f 122//4 89//4 135//4
f 122//4 135//4 125//4
f 83//3 91//3 140//3
f 83//3 140//3 139//3
f 127//2 117//2 126//2
f 127//2 126//2 136//2
f 141//2 142//2 143//2
f 141//2 143//2 144//2
f 145//4 146//4 147//4
f 145//4 147//4 148//4
f 139//3 140//3 145//3
f 139//3 145//3 142//3
f 116//1 115//1 141//1
f 116//1 141//1 146//1
f 136//2 126//2 134//2
f 136//2 134//2 137//2
f 125//4 135//4 138//4
f 125//4 138//4 133//4
f 140//4 116//4 146//4
f 140//4 146//4 145//4
f 115//2 139//2 142//2
f 115//2 142//2 141//2
f 144//5 143//5 148//5
f 144//5 148//5 147//5
f 149//5 150//5 151//5
f 149//5 151//5 152//5
f 138//7 137//7 149//7
f 138//7 149//7 152//7
f 134//8 133//8 151//8
f 134//8 151//8 150//8
f 142//8 145//8 148//8
f 142//8 148//8 143//8
f 146//7 141//7 144//7
f 146//7 144//7 147//7
f 137//2 134//2 150//2
f 137//2 150//2 149//2
f 133//4 138//4 152//4
f 133//4 152//4 151//4
f 99//2 95//2 94//2
f 99//2 94//2 50//2
f 99//5 50//5 102//5
f 99//5 102//5 100//5
f 107//4 106//4 97//4
f 107//4 97//4 102//4
f 109//6 94//6 97//6
f 109//6 97//6 106//6
f 100//4 96//4 124//4
f 100//4 124//4 101//4
f 95//6 103//6 124//6
f 95//6 124//6 96//6
f 50//1 94//1 19//1
f 50//1 19//1 24//1
f 120//5 98//5 101//5
f 120//5 101//5 121//5
f 21//2 17//2 16//2
f 21//2 16//2 32//2
f 21//5 32//5 24//5
f 21//5 24//5 22//5
f 29//3 28//3 109//3
f 29//3 109//3 49//3
f 31//6 16//6 19//6
f 31//6 19//6 28//6
f 22//4 18//4 48//4
f 22//4 48//4 23//4
f 17//6 25//6 48//6
f 17//6 48//6 18//6
f 44//2 43//2 25//2
f 44//2 25//2 20//2
f 44//5 20//5 23//5
f 44//5 23//5 45//5
f 48//6 47//6 119//6
f 48//6 119//6 103//6
f 98//3 23//3 48//3
f 98//3 48//3 103//3
f 45//1 120//1 119//1
f 45//1 119//1 47//1
f 98//5 120//5 45//5
f 98//5 45//5 23//5
