# Blender 5.2.0 LTS
# www.blender.org
mtllib Desk.mtl
o CasterFork_L_Front
v -0.351000 0.032000 -0.217500
v -0.309000 0.032000 -0.217500
v -0.309000 0.102000 -0.217500
v -0.351000 0.102000 -0.217500
v -0.351000 0.032000 -0.162500
v -0.309000 0.032000 -0.162500
v -0.309000 0.102000 -0.162500
v -0.351000 0.102000 -0.162500
vn -0.0000 -0.0000 -1.0000
vn -0.0000 -0.0000 1.0000
vn -0.0000 -1.0000 -0.0000
vn -0.0000 1.0000 -0.0000
vn -1.0000 -0.0000 -0.0000
vn 1.0000 -0.0000 -0.0000
s 0
usemtl Metal.002
f 1//1 4//1 3//1 2//1
f 5//2 6//2 7//2 8//2
f 1//3 2//3 6//3 5//3
f 4//4 8//4 7//4 3//4
f 1//5 5//5 8//5 4//5
f 2//6 3//6 7//6 6//6
o CasterFork_L_Rear
v -0.351000 0.032000 0.162500
v -0.309000 0.032000 0.162500
v -0.309000 0.102000 0.162500
v -0.351000 0.102000 0.162500
v -0.351000 0.032000 0.217500
v -0.309000 0.032000 0.217500
v -0.309000 0.102000 0.217500
v -0.351000 0.102000 0.217500
vn -0.0000 -0.0000 -1.0000
vn -0.0000 -0.0000 1.0000
vn -0.0000 -1.0000 -0.0000
vn -0.0000 1.0000 -0.0000
vn -1.0000 -0.0000 -0.0000
vn 1.0000 -0.0000 -0.0000
s 0
usemtl Metal.002
f 9//7 12//7 11//7 10//7
f 13//8 14//8 15//8 16//8
f 9//9 10//9 14//9 13//9
f 12//10 16//10 15//10 11//10
f 9//11 13//11 16//11 12//11
f 10//12 11//12 15//12 14//12
o CasterFork_R_Front
v 0.309000 0.032000 -0.217500
v 0.351000 0.032000 -0.217500
v 0.351000 0.102000 -0.217500
v 0.309000 0.102000 -0.217500
v 0.309000 0.032000 -0.162500
v 0.351000 0.032000 -0.162500
v 0.351000 0.102000 -0.162500
v 0.309000 0.102000 -0.162500
vn -0.0000 -0.0000 -1.0000
vn -0.0000 -0.0000 1.0000
vn -0.0000 -1.0000 -0.0000
vn -0.0000 1.0000 -0.0000
vn -1.0000 -0.0000 -0.0000
vn 1.0000 -0.0000 -0.0000
s 0
usemtl Metal.002
f 17//13 20//13 19//13 18//13
f 21//14 22//14 23//14 24//14
f 17//15 18//15 22//15 21//15
f 20//16 24//16 23//16 19//16
f 17//17 21//17 24//17 20//17
f 18//18 19//18 23//18 22//18
o CasterFork_R_Rear
v 0.309000 0.032000 0.162500
v 0.351000 0.032000 0.162500
v 0.351000 0.102000 0.162500
v 0.309000 0.102000 0.162500
v 0.309000 0.032000 0.217500
v 0.351000 0.032000 0.217500
v 0.351000 0.102000 0.217500
v 0.309000 0.102000 0.217500
vn -0.0000 -0.0000 -1.0000
vn -0.0000 -0.0000 1.0000
vn -0.0000 -1.0000 -0.0000
vn -0.0000 1.0000 -0.0000
vn -1.0000 -0.0000 -0.0000
vn 1.0000 -0.0000 -0.0000
s 0
usemtl Metal.002
f 25//19 28//19 27//19 26//19
f 29//20 30//20 31//20 32//20
f 25//21 26//21 30//21 29//21
f 28//22 32//22 31//22 27//22
f 25//23 29//23 32//23 28//23
f 26//24 27//24 31//24 30//24
o DiagonalBrace_L
v -0.300000 0.185000 0.164000
v -0.060000 0.350000 0.164000
v -0.297003 0.180641 0.162281
v -0.057003 0.345641 0.162281
v -0.295151 0.177947 0.157781
v -0.055151 0.342947 0.157781
v -0.295151 0.177947 0.152219
v -0.055151 0.342947 0.152219
v -0.297003 0.180641 0.147719
v -0.057003 0.345641 0.147719
v -0.300000 0.185000 0.146000
v -0.060000 0.350000 0.146000
v -0.302997 0.189359 0.147719
v -0.062997 0.354359 0.147719
v -0.304849 0.192053 0.152219
v -0.064849 0.357053 0.152219
v -0.304849 0.192053 0.157781
v -0.064849 0.357053 0.157781
v -0.302997 0.189359 0.162281
v -0.062997 0.354359 0.162281
vn -0.8240 -0.5665 -0.0000
vn 0.8240 0.5665 -0.0000
vn 0.1751 -0.2547 0.9510
vn 0.4583 -0.6667 0.5878
vn 0.5665 -0.8240 -0.0000
vn 0.4583 -0.6667 -0.5878
vn 0.1751 -0.2547 -0.9510
vn -0.1751 0.2547 -0.9510
vn -0.4583 0.6667 -0.5878
vn -0.5665 0.8240 -0.0000
vn -0.4583 0.6667 0.5878
vn -0.1751 0.2547 0.9510
s 0
usemtl FrameWhite.002
f 51//25 49//25 47//25 45//25 43//25 41//25 39//25 37//25 35//25 33//25
f 34//26 36//26 38//26 40//26 42//26 44//26 46//26 48//26 50//26 52//26
f 33//27 35//27 36//27 34//27
f 35//28 37//28 38//28 36//28
f 37//29 39//29 40//29 38//29
f 39//30 41//30 42//30 40//30
f 41//31 43//31 44//31 42//31
f 43//32 45//32 46//32 44//32
f 45//33 47//33 48//33 46//33
f 47//34 49//34 50//34 48//34
f 49//35 51//35 52//35 50//35
f 51//36 33//36 34//36 52//36
o DiagonalBrace_R
v 0.300000 0.185000 0.146000
v 0.060000 0.350000 0.146000
v 0.297003 0.180641 0.147719
v 0.057003 0.345641 0.147719
v 0.295151 0.177947 0.152219
v 0.055151 0.342947 0.152219
v 0.295151 0.177947 0.157781
v 0.055151 0.342947 0.157781
v 0.297003 0.180641 0.162281
v 0.057003 0.345641 0.162281
v 0.300000 0.185000 0.164000
v 0.060000 0.350000 0.164000
v 0.302997 0.189359 0.162281
v 0.062997 0.354359 0.162281
v 0.304849 0.192053 0.157781
v 0.064849 0.357053 0.157781
v 0.304849 0.192053 0.152219
v 0.064849 0.357053 0.152219
v 0.302997 0.189359 0.147719
v 0.062997 0.354359 0.147719
vn 0.8240 -0.5665 -0.0000
vn -0.8240 0.5665 -0.0000
vn -0.1751 -0.2547 -0.9510
vn -0.4583 -0.6667 -0.5878
vn -0.5665 -0.8240 -0.0000
vn -0.4583 -0.6667 0.5878
vn -0.1751 -0.2547 0.9510
vn 0.1751 0.2547 0.9510
vn 0.4583 0.6667 0.5878
vn 0.5665 0.8240 -0.0000
vn 0.4583 0.6667 -0.5878
vn 0.1751 0.2547 -0.9510
s 0
usemtl FrameWhite.002
f 71//37 69//37 67//37 65//37 63//37 61//37 59//37 57//37 55//37 53//37
f 54//38 56//38 58//38 60//38 62//38 64//38 66//38 68//38 70//38 72//38
f 53//39 55//39 56//39 54//39
f 55//40 57//40 58//40 56//40
f 57//41 59//41 60//41 58//41
f 59//42 61//42 62//42 60//42
f 61//43 63//43 64//43 62//43
f 63//44 65//44 66//44 64//44
f 65//45 67//45 68//45 66//45
f 67//46 69//46 70//46 68//46
f 69//47 71//47 72//47 70//47
f 71//48 53//48 54//48 72//48
o FootRail_L
v -0.357500 0.077500 -0.230000
v -0.302500 0.077500 -0.230000
v -0.302500 0.132500 -0.230000
v -0.357500 0.132500 -0.230000
v -0.357500 0.077500 0.230000
v -0.302500 0.077500 0.230000
v -0.302500 0.132500 0.230000
v -0.357500 0.132500 0.230000
vn -0.0000 -0.0000 -1.0000
vn -0.0000 -0.0000 1.0000
vn -0.0000 -1.0000 -0.0000
vn -0.0000 1.0000 -0.0000
vn -1.0000 -0.0000 -0.0000
vn 1.0000 -0.0000 -0.0000
s 0
usemtl FrameWhite.002
f 73//49 76//49 75//49 74//49
f 77//50 78//50 79//50 80//50
f 73//51 74//51 78//51 77//51
f 76//52 80//52 79//52 75//52
f 73//53 77//53 80//53 76//53
f 74//54 75//54 79//54 78//54
o FootRail_R
v 0.302500 0.077500 -0.230000
v 0.357500 0.077500 -0.230000
v 0.357500 0.132500 -0.230000
v 0.302500 0.132500 -0.230000
v 0.302500 0.077500 0.230000
v 0.357500 0.077500 0.230000
v 0.357500 0.132500 0.230000
v 0.302500 0.132500 0.230000
vn -0.0000 -0.0000 -1.0000
vn -0.0000 -0.0000 1.0000
vn -0.0000 -1.0000 -0.0000
vn -0.0000 1.0000 -0.0000
vn -1.0000 -0.0000 -0.0000
vn 1.0000 -0.0000 -0.0000
s 0
usemtl FrameWhite.002
f 81//55 84//55 83//55 82//55
f 85//56 86//56 87//56 88//56
f 81//57 82//57 86//57 85//57
f 84//58 88//58 87//58 83//58
f 81//59 85//59 88//59 84//59
f 82//60 83//60 87//60 86//60
o HeightKnob_L
v -0.365000 0.420000 0.131000
v -0.415000 0.420000 0.131000
v -0.365000 0.409587 0.133377
v -0.415000 0.409587 0.133377
v -0.365000 0.401236 0.140036
v -0.415000 0.401236 0.140036
v -0.365000 0.396602 0.149659
v -0.415000 0.396602 0.149659
v -0.365000 0.396602 0.160341
v -0.415000 0.396602 0.160341
v -0.365000 0.401236 0.169964
v -0.415000 0.401236 0.169964
v -0.365000 0.409587 0.176623
v -0.415000 0.409587 0.176623
v -0.365000 0.420000 0.179000
v -0.415000 0.420000 0.179000
v -0.365000 0.430413 0.176623
v -0.415000 0.430413 0.176623
v -0.365000 0.438764 0.169964
v -0.415000 0.438764 0.169964
v -0.365000 0.443398 0.160341
v -0.415000 0.443398 0.160341
v -0.365000 0.443398 0.149659
v -0.415000 0.443398 0.149659
v -0.365000 0.438764 0.140036
v -0.415000 0.438764 0.140036
v -0.365000 0.430413 0.133377
v -0.415000 0.430413 0.133377
vn 1.0000 -0.0000 -0.0000
vn -1.0000 -0.0000 -0.0000
vn -0.0000 -0.2225 -0.9749
vn -0.0000 -0.6235 -0.7819
vn -0.0000 -0.9010 -0.4339
vn -0.0000 -1.0000 -0.0000
vn -0.0000 -0.9010 0.4339
vn -0.0000 -0.6235 0.7819
vn -0.0000 -0.2225 0.9749
vn -0.0000 0.2225 0.9749
vn -0.0000 0.6235 0.7819
vn -0.0000 0.9010 0.4339
vn -0.0000 1.0000 -0.0000
vn -0.0000 0.9010 -0.4339
vn -0.0000 0.6235 -0.7819
vn -0.0000 0.2225 -0.9749
s 0
usemtl PlasticWhite.002
f 115//61 113//61 111//61 109//61 107//61 105//61 103//61 101//61 99//61 97//61 95//61 93//61 91//61 89//61
f 90//62 92//62 94//62 96//62 98//62 100//62 102//62 104//62 106//62 108//62 110//62 112//62 114//62 116//62
f 89//63 91//63 92//63 90//63
f 91//64 93//64 94//64 92//64
f 93//65 95//65 96//65 94//65
f 95//66 97//66 98//66 96//66
f 97//67 99//67 100//67 98//67
f 99//68 101//68 102//68 100//68
f 101//69 103//69 104//69 102//69
f 103//70 105//70 106//70 104//70
f 105//71 107//71 108//71 106//71
f 107//72 109//72 110//72 108//72
f 109//73 111//73 112//73 110//73
f 111//74 113//74 114//74 112//74
f 113//75 115//75 116//75 114//75
f 115//76 89//76 90//76 116//76
o HeightKnob_R
v 0.365000 0.420000 0.179000
v 0.415000 0.420000 0.179000
v 0.365000 0.409587 0.176623
v 0.415000 0.409587 0.176623
v 0.365000 0.401236 0.169964
v 0.415000 0.401236 0.169964
v 0.365000 0.396602 0.160341
v 0.415000 0.396602 0.160341
v 0.365000 0.396602 0.149659
v 0.415000 0.396602 0.149659
v 0.365000 0.401236 0.140036
v 0.415000 0.401236 0.140036
v 0.365000 0.409587 0.133377
v 0.415000 0.409587 0.133377
v 0.365000 0.420000 0.131000
v 0.415000 0.420000 0.131000
v 0.365000 0.430413 0.133377
v 0.415000 0.430413 0.133377
v 0.365000 0.438764 0.140036
v 0.415000 0.438764 0.140036
v 0.365000 0.443398 0.149659
v 0.415000 0.443398 0.149659
v 0.365000 0.443398 0.160341
v 0.415000 0.443398 0.160341
v 0.365000 0.438764 0.169964
v 0.415000 0.438764 0.169964
v 0.365000 0.430413 0.176623
v 0.415000 0.430413 0.176623
vn -1.0000 -0.0000 -0.0000
vn 1.0000 -0.0000 -0.0000
vn -0.0000 -0.2225 0.9749
vn -0.0000 -0.6235 0.7819
vn -0.0000 -0.9010 0.4339
vn -0.0000 -1.0000 -0.0000
vn -0.0000 -0.9010 -0.4339
vn -0.0000 -0.6235 -0.7819
vn -0.0000 -0.2225 -0.9749
vn -0.0000 0.2225 -0.9749
vn -0.0000 0.6235 -0.7819
vn -0.0000 0.9010 -0.4339
vn -0.0000 1.0000 -0.0000
vn -0.0000 0.9010 0.4339
vn -0.0000 0.6235 0.7819
vn -0.0000 0.2225 0.9749
s 0
usemtl PlasticWhite.002
f 143//77 141//77 139//77 137//77 135//77 133//77 131//77 129//77 127//77 125//77 123//77 121//77 119//77 117//77
f 118//78 120//78 122//78 124//78 126//78 128//78 130//78 132//78 134//78 136//78 138//78 140//78 142//78 144//78
f 117//79 119//79 120//79 118//79
f 119//80 121//80 122//80 120//80
f 121//81 123//81 124//81 122//81
f 123//82 125//82 126//82 124//82
f 125//83 127//83 128//83 126//83
f 127//84 129//84 130//84 128//84
f 129//85 131//85 132//85 130//85
f 131//86 133//86 134//86 132//86
f 133//87 135//87 136//87 134//87
f 135//88 137//88 138//88 136//88
f 137//89 139//89 140//89 138//89
f 139//90 141//90 142//90 140//90
f 141//91 143//91 144//91 142//91
f 143//92 117//92 118//92 144//92
o LowerBaseCrossbar
v -0.340000 0.130000 0.140000
v 0.340000 0.130000 0.140000
v 0.340000 0.160000 0.140000
v -0.340000 0.160000 0.140000
v -0.340000 0.130000 0.170000
v 0.340000 0.130000 0.170000
v 0.340000 0.160000 0.170000
v -0.340000 0.160000 0.170000
vn -0.0000 -0.0000 -1.0000
vn -0.0000 -0.0000 1.0000
vn -0.0000 -1.0000 -0.0000
vn -0.0000 1.0000 -0.0000
vn -1.0000 -0.0000 -0.0000
vn 1.0000 -0.0000 -0.0000
s 0
usemtl FrameWhite.002
f 145//93 148//93 147//93 146//93
f 149//94 150//94 151//94 152//94
f 145//95 146//95 150//95 149//95
f 148//96 152//96 151//96 147//96
f 145//97 149//97 152//97 148//97
f 146//98 147//98 151//98 150//98
o LowerCrossbar
v -0.340000 0.341000 0.141000
v 0.340000 0.341000 0.141000
v 0.340000 0.369000 0.141000
v -0.340000 0.369000 0.141000
v -0.340000 0.341000 0.169000
v 0.340000 0.341000 0.169000
v 0.340000 0.369000 0.169000
v -0.340000 0.369000 0.169000
vn -0.0000 -0.0000 -1.0000
vn -0.0000 -0.0000 1.0000
vn -0.0000 -1.0000 -0.0000
vn -0.0000 1.0000 -0.0000
vn -1.0000 -0.0000 -0.0000
vn 1.0000 -0.0000 -0.0000
s 0
usemtl FrameWhite.002
f 153//99 156//99 155//99 154//99
f 157//100 158//100 159//100 160//100
f 153//101 154//101 158//101 157//101
f 156//102 160//102 159//102 155//102
f 153//103 157//103 160//103 156//103
f 154//104 155//104 159//104 158//104
o LowerSleeve_L
v -0.356000 0.107310 0.129000
v -0.304000 0.107310 0.129000
v -0.304000 0.570956 0.129000
v -0.356000 0.570956 0.129000
v -0.356000 0.107310 0.181000
v -0.304000 0.107310 0.181000
v -0.304000 0.570956 0.181000
v -0.356000 0.570956 0.181000
vn -0.0000 -0.0000 -1.0000
vn -0.0000 -0.0000 1.0000
vn -0.0000 -1.0000 -0.0000
vn -0.0000 1.0000 -0.0000
vn -1.0000 -0.0000 -0.0000
vn 1.0000 -0.0000 -0.0000
s 0
usemtl FrameWhite.002
f 161//105 164//105 163//105 162//105
f 165//106 166//106 167//106 168//106
f 161//107 162//107 166//107 165//107
f 164//108 168//108 167//108 163//108
f 161//109 165//109 168//109 164//109
f 162//110 163//110 167//110 166//110
o LowerSleeve_R
v 0.304000 0.107310 0.129000
v 0.356000 0.107310 0.129000
v 0.356000 0.570956 0.129000
v 0.304000 0.570956 0.129000
v 0.304000 0.107310 0.181000
v 0.356000 0.107310 0.181000
v 0.356000 0.570956 0.181000
v 0.304000 0.570956 0.181000
vn -0.0000 -0.0000 -1.0000
vn -0.0000 -0.0000 1.0000
vn -0.0000 -1.0000 -0.0000
vn -0.0000 1.0000 -0.0000
vn -1.0000 -0.0000 -0.0000
vn 1.0000 -0.0000 -0.0000
s 0
usemtl FrameWhite.002
f 169//111 172//111 171//111 170//111
f 173//112 174//112 175//112 176//112
f 169//113 170//113 174//113 173//113
f 172//114 176//114 175//114 171//114
f 169//115 173//115 176//115 172//115
f 170//116 171//116 175//116 174//116
o Tabletop
v 0.400000 0.965000 0.215000
v 0.398287 0.965000 0.225816
v 0.393316 0.965000 0.235572
v 0.385572 0.965000 0.243316
v 0.375816 0.965000 0.248287
v 0.365000 0.965000 0.250000
v -0.365000 0.965000 0.250000
v -0.375816 0.965000 0.248287
v -0.385572 0.965000 0.243316
v -0.393316 0.965000 0.235572
v -0.398287 0.965000 0.225816
v -0.400000 0.965000 0.215000
v -0.400000 0.965000 -0.215000
v -0.398287 0.965000 -0.225816
v -0.393316 0.965000 -0.235572
v -0.385572 0.965000 -0.243316
v -0.375816 0.965000 -0.248287
v -0.365000 0.965000 -0.250000
v 0.365000 0.965000 -0.250000
v 0.375816 0.965000 -0.248287
v 0.385572 0.965000 -0.243316
v 0.393316 0.965000 -0.235572
v 0.398287 0.965000 -0.225816
v 0.400000 0.965000 -0.215000
v 0.400000 1.000000 0.215000
v 0.398287 1.000000 0.225816
v 0.393316 1.000000 0.235572
v 0.385572 1.000000 0.243316
v 0.375816 1.000000 0.248287
v 0.365000 1.000000 0.250000
v -0.365000 1.000000 0.250000
v -0.375816 1.000000 0.248287
v -0.385572 1.000000 0.243316
v -0.393316 1.000000 0.235572
v -0.398287 1.000000 0.225816
v -0.400000 1.000000 0.215000
v -0.400000 1.000000 -0.215000
v -0.398287 1.000000 -0.225816
v -0.393316 1.000000 -0.235572
v -0.385572 1.000000 -0.243316
v -0.375816 1.000000 -0.248287
v -0.365000 1.000000 -0.250000
v 0.365000 1.000000 -0.250000
v 0.375816 1.000000 -0.248287
v 0.385572 1.000000 -0.243316
v 0.393316 1.000000 -0.235572
v 0.398287 1.000000 -0.225816
v 0.400000 1.000000 -0.215000
v 0.000000 0.965000 -0.000000
v 0.000000 1.000000 -0.000000
vn -0.0000 -1.0000 -0.0000
vn -0.0000 1.0000 -0.0000
vn 0.9877 -0.0000 0.1564
vn 0.8910 -0.0000 0.4540
vn 0.7071 -0.0000 0.7071
vn 0.4540 -0.0000 0.8910
vn 0.1564 -0.0000 0.9877
vn -0.0000 -0.0000 1.0000
vn -0.1564 -0.0000 0.9877
vn -0.4540 -0.0000 0.8910
vn -0.7071 -0.0000 0.7071
vn -0.8910 -0.0000 0.4540
vn -0.9877 -0.0000 0.1564
vn -1.0000 -0.0000 -0.0000
vn -0.9877 -0.0000 -0.1564
vn -0.8910 -0.0000 -0.4540
vn -0.7071 -0.0000 -0.7071
vn -0.4540 -0.0000 -0.8910
vn -0.1564 -0.0000 -0.9877
vn -0.0000 -0.0000 -1.0000
vn 0.1564 -0.0000 -0.9877
vn 0.4540 -0.0000 -0.8910
vn 0.7071 -0.0000 -0.7071
vn 0.8910 -0.0000 -0.4540
vn 0.9877 -0.0000 -0.1564
vn 1.0000 -0.0000 -0.0000
s 0
usemtl TopWhite.002
f 225//117 177//117 178//117
f 226//118 202//118 201//118
f 178//119 177//119 201//119 202//119
f 225//117 178//117 179//117
f 226//118 203//118 202//118
f 179//120 178//120 202//120 203//120
f 225//117 179//117 180//117
f 226//118 204//118 203//118
f 180//121 179//121 203//121 204//121
f 225//117 180//117 181//117
f 226//118 205//118 204//118
f 181//122 180//122 204//122 205//122
f 225//117 181//117 182//117
f 226//118 206//118 205//118
f 182//123 181//123 205//123 206//123
f 225//117 182//117 183//117
f 226//118 207//118 206//118
f 183//124 182//124 206//124 207//124
f 225//117 183//117 184//117
f 226//118 208//118 207//118
f 184//125 183//125 207//125 208//125
f 225//117 184//117 185//117
f 226//118 209//118 208//118
f 185//126 184//126 208//126 209//126
f 225//117 185//117 186//117
f 226//118 210//118 209//118
f 186//127 185//127 209//127 210//127
f 225//117 186//117 187//117
f 226//118 211//118 210//118
f 187//128 186//128 210//128 211//128
f 225//117 187//117 188//117
f 226//118 212//118 211//118
f 188//129 187//129 211//129 212//129
f 225//117 188//117 189//117
f 226//118 213//118 212//118
f 189//130 188//130 212//130 213//130
f 225//117 189//117 190//117
f 226//118 214//118 213//118
f 190//131 189//131 213//131 214//131
f 225//117 190//117 191//117
f 226//118 215//118 214//118
f 191//132 190//132 214//132 215//132
f 225//117 191//117 192//117
f 226//118 216//118 215//118
f 192//133 191//133 215//133 216//133
f 225//117 192//117 193//117
f 226//118 217//118 216//118
f 193//134 192//134 216//134 217//134
f 225//117 193//117 194//117
f 226//118 218//118 217//118
f 194//135 193//135 217//135 218//135
f 225//117 194//117 195//117
f 226//118 219//118 218//118
f 195//136 194//136 218//136 219//136
f 225//117 195//117 196//117
f 226//118 220//118 219//118
f 196//137 195//137 219//137 220//137
f 225//117 196//117 197//117
f 226//118 221//118 220//118
f 197//138 196//138 220//138 221//138
f 225//117 197//117 198//117
f 226//118 222//118 221//118
f 198//139 197//139 221//139 222//139
f 225//117 198//117 199//117
f 226//118 223//118 222//118
f 199//140 198//140 222//140 223//140
f 225//117 199//117 200//117
f 226//118 224//118 223//118
f 200//141 199//141 223//141 224//141
f 225//117 200//117 177//117
f 226//118 201//118 224//118
f 177//142 200//142 224//142 201//142
o TopBracket_L
v -0.357500 0.925000 -0.050000
v -0.302500 0.925000 -0.050000
v -0.302500 0.965000 -0.050000
v -0.357500 0.965000 -0.050000
v -0.357500 0.925000 0.170000
v -0.302500 0.925000 0.170000
v -0.302500 0.965000 0.170000
v -0.357500 0.965000 0.170000
vn -0.0000 -0.0000 -1.0000
vn -0.0000 -0.0000 1.0000
vn -0.0000 -1.0000 -0.0000
vn -0.0000 1.0000 -0.0000
vn -1.0000 -0.0000 -0.0000
vn 1.0000 -0.0000 -0.0000
s 0
usemtl FrameWhite.002
f 227//143 230//143 229//143 228//143
f 231//144 232//144 233//144 234//144
f 227//145 228//145 232//145 231//145
f 230//146 234//146 233//146 229//146
f 227//147 231//147 234//147 230//147
f 228//148 229//148 233//148 232//148
o TopBracket_R
v 0.302500 0.925000 -0.050000
v 0.357500 0.925000 -0.050000
v 0.357500 0.965000 -0.050000
v 0.302500 0.965000 -0.050000
v 0.302500 0.925000 0.170000
v 0.357500 0.925000 0.170000
v 0.357500 0.965000 0.170000
v 0.302500 0.965000 0.170000
vn -0.0000 -0.0000 -1.0000
vn -0.0000 -0.0000 1.0000
vn -0.0000 -1.0000 -0.0000
vn -0.0000 1.0000 -0.0000
vn -1.0000 -0.0000 -0.0000
vn 1.0000 -0.0000 -0.0000
s 0
usemtl FrameWhite.002
f 235//149 238//149 237//149 236//149
f 239//150 240//150 241//150 242//150
f 235//151 236//151 240//151 239//151
f 238//152 242//152 241//152 237//152
f 235//153 239//153 242//153 238//153
f 236//154 237//154 241//154 240//154
o Upright_L
v -0.347500 0.320000 0.137500
v -0.312500 0.320000 0.137500
v -0.312500 0.960000 0.137500
v -0.347500 0.960000 0.137500
v -0.347500 0.320000 0.172500
v -0.312500 0.320000 0.172500
v -0.312500 0.960000 0.172500
v -0.347500 0.960000 0.172500
vn -0.0000 -0.0000 -1.0000
vn -0.0000 -0.0000 1.0000
vn -0.0000 -1.0000 -0.0000
vn -0.0000 1.0000 -0.0000
vn -1.0000 -0.0000 -0.0000
vn 1.0000 -0.0000 -0.0000
s 0
usemtl FrameWhite.002
f 243//155 246//155 245//155 244//155
f 247//156 248//156 249//156 250//156
f 243//157 244//157 248//157 247//157
f 246//158 250//158 249//158 245//158
f 243//159 247//159 250//159 246//159
f 244//160 245//160 249//160 248//160
o Upright_R
v 0.312500 0.320000 0.137500
v 0.347500 0.320000 0.137500
v 0.347500 0.960000 0.137500
v 0.312500 0.960000 0.137500
v 0.312500 0.320000 0.172500
v 0.347500 0.320000 0.172500
v 0.347500 0.960000 0.172500
v 0.312500 0.960000 0.172500
vn -0.0000 -0.0000 -1.0000
vn -0.0000 -0.0000 1.0000
vn -0.0000 -1.0000 -0.0000
vn -0.0000 1.0000 -0.0000
vn -1.0000 -0.0000 -0.0000
vn 1.0000 -0.0000 -0.0000
s 0
usemtl FrameWhite.002
f 251//161 254//161 253//161 252//161
f 255//162 256//162 257//162 258//162
f 251//163 252//163 256//163 255//163
f 254//164 258//164 257//164 253//164
f 251//165 255//165 258//165 254//165
f 252//166 253//166 257//166 256//166
o Wheel_L_Front
v -0.365000 0.038000 -0.155000
v -0.295000 0.038000 -0.155000
v -0.365000 0.024606 -0.157664
v -0.295000 0.024606 -0.157664
v -0.365000 0.013251 -0.165251
v -0.295000 0.013251 -0.165251
v -0.365000 0.005664 -0.176606
v -0.295000 0.005664 -0.176606
v -0.365000 0.003000 -0.190000
v -0.295000 0.003000 -0.190000
v -0.365000 0.005664 -0.203394
v -0.295000 0.005664 -0.203394
v -0.365000 0.013251 -0.214749
v -0.295000 0.013251 -0.214749
v -0.365000 0.024606 -0.222336
v -0.295000 0.024606 -0.222336
v -0.365000 0.038000 -0.225000
v -0.295000 0.038000 -0.225000
v -0.365000 0.051394 -0.222336
v -0.295000 0.051394 -0.222336
v -0.365000 0.062749 -0.214749
v -0.295000 0.062749 -0.214749
v -0.365000 0.070336 -0.203394
v -0.295000 0.070336 -0.203394
v -0.365000 0.073000 -0.190000
v -0.295000 0.073000 -0.190000
v -0.365000 0.070336 -0.176606
v -0.295000 0.070336 -0.176606
v -0.365000 0.062749 -0.165251
v -0.295000 0.062749 -0.165251
v -0.365000 0.051394 -0.157664
v -0.295000 0.051394 -0.157664
vn -1.0000 -0.0000 -0.0000
vn 1.0000 -0.0000 -0.0000
vn -0.0000 -0.1951 0.9808
vn -0.0000 -0.5556 0.8315
vn -0.0000 -0.8315 0.5556
vn -0.0000 -0.9808 0.1951
vn -0.0000 -0.9808 -0.1951
vn -0.0000 -0.8315 -0.5556
vn -0.0000 -0.5556 -0.8315
vn -0.0000 -0.1951 -0.9808
vn -0.0000 0.1951 -0.9808
vn -0.0000 0.5556 -0.8315
vn -0.0000 0.8315 -0.5556
vn -0.0000 0.9808 -0.1951
vn -0.0000 0.9808 0.1951
vn -0.0000 0.8315 0.5556
vn -0.0000 0.5556 0.8315
vn -0.0000 0.1951 0.9808
s 0
usemtl WheelDark.002
f 289//167 287//167 285//167 283//167 281//167 279//167 277//167 275//167 273//167 271//167 269//167 267//167 265//167 263//167 261//167 259//167
f 260//168 262//168 264//168 266//168 268//168 270//168 272//168 274//168 276//168 278//168 280//168 282//168 284//168 286//168 288//168 290//168
f 259//169 261//169 262//169 260//169
f 261//170 263//170 264//170 262//170
f 263//171 265//171 266//171 264//171
f 265//172 267//172 268//172 266//172
f 267//173 269//173 270//173 268//173
f 269//174 271//174 272//174 270//174
f 271//175 273//175 274//175 272//175
f 273//176 275//176 276//176 274//176
f 275//177 277//177 278//177 276//177
f 277//178 279//178 280//178 278//178
f 279//179 281//179 282//179 280//179
f 281//180 283//180 284//180 282//180
f 283//181 285//181 286//181 284//181
f 285//182 287//182 288//182 286//182
f 287//183 289//183 290//183 288//183
f 289//184 259//184 260//184 290//184
o Wheel_L_Rear
v -0.365000 0.038000 0.225000
v -0.295000 0.038000 0.225000
v -0.365000 0.024606 0.222336
v -0.295000 0.024606 0.222336
v -0.365000 0.013251 0.214749
v -0.295000 0.013251 0.214749
v -0.365000 0.005664 0.203394
v -0.295000 0.005664 0.203394
v -0.365000 0.003000 0.190000
v -0.295000 0.003000 0.190000
v -0.365000 0.005664 0.176606
v -0.295000 0.005664 0.176606
v -0.365000 0.013251 0.165251
v -0.295000 0.013251 0.165251
v -0.365000 0.024606 0.157664
v -0.295000 0.024606 0.157664
v -0.365000 0.038000 0.155000
v -0.295000 0.038000 0.155000
v -0.365000 0.051394 0.157664
v -0.295000 0.051394 0.157664
v -0.365000 0.062749 0.165251
v -0.295000 0.062749 0.165251
v -0.365000 0.070336 0.176606
v -0.295000 0.070336 0.176606
v -0.365000 0.073000 0.190000
v -0.295000 0.073000 0.190000
v -0.365000 0.070336 0.203394
v -0.295000 0.070336 0.203394
v -0.365000 0.062749 0.214749
v -0.295000 0.062749 0.214749
v -0.365000 0.051394 0.222336
v -0.295000 0.051394 0.222336
vn -1.0000 -0.0000 -0.0000
vn 1.0000 -0.0000 -0.0000
vn -0.0000 -0.1951 0.9808
vn -0.0000 -0.5556 0.8315
vn -0.0000 -0.8315 0.5556
vn -0.0000 -0.9808 0.1951
vn -0.0000 -0.9808 -0.1951
vn -0.0000 -0.8315 -0.5556
vn -0.0000 -0.5556 -0.8315
vn -0.0000 -0.1951 -0.9808
vn -0.0000 0.1951 -0.9808
vn -0.0000 0.5556 -0.8315
vn -0.0000 0.8315 -0.5556
vn -0.0000 0.9808 -0.1951
vn -0.0000 0.9808 0.1951
vn -0.0000 0.8315 0.5556
vn -0.0000 0.5556 0.8315
vn -0.0000 0.1951 0.9808
s 0
usemtl WheelDark.002
f 321//185 319//185 317//185 315//185 313//185 311//185 309//185 307//185 305//185 303//185 301//185 299//185 297//185 295//185 293//185 291//185
f 292//186 294//186 296//186 298//186 300//186 302//186 304//186 306//186 308//186 310//186 312//186 314//186 316//186 318//186 320//186 322//186
f 291//187 293//187 294//187 292//187
f 293//188 295//188 296//188 294//188
f 295//189 297//189 298//189 296//189
f 297//190 299//190 300//190 298//190
f 299//191 301//191 302//191 300//191
f 301//192 303//192 304//192 302//192
f 303//193 305//193 306//193 304//193
f 305//194 307//194 308//194 306//194
f 307//195 309//195 310//195 308//195
f 309//196 311//196 312//196 310//196
f 311//197 313//197 314//197 312//197
f 313//198 315//198 316//198 314//198
f 315//199 317//199 318//199 316//199
f 317//200 319//200 320//200 318//200
f 319//201 321//201 322//201 320//201
f 321//202 291//202 292//202 322//202
o Wheel_R_Front
v 0.295000 0.038000 -0.155000
v 0.365000 0.038000 -0.155000
v 0.295000 0.024606 -0.157664
v 0.365000 0.024606 -0.157664
v 0.295000 0.013251 -0.165251
v 0.365000 0.013251 -0.165251
v 0.295000 0.005664 -0.176606
v 0.365000 0.005664 -0.176606
v 0.295000 0.003000 -0.190000
v 0.365000 0.003000 -0.190000
v 0.295000 0.005664 -0.203394
v 0.365000 0.005664 -0.203394
v 0.295000 0.013251 -0.214749
v 0.365000 0.013251 -0.214749
v 0.295000 0.024606 -0.222336
v 0.365000 0.024606 -0.222336
v 0.295000 0.038000 -0.225000
v 0.365000 0.038000 -0.225000
v 0.295000 0.051394 -0.222336
v 0.365000 0.051394 -0.222336
v 0.295000 0.062749 -0.214749
v 0.365000 0.062749 -0.214749
v 0.295000 0.070336 -0.203394
v 0.365000 0.070336 -0.203394
v 0.295000 0.073000 -0.190000
v 0.365000 0.073000 -0.190000
v 0.295000 0.070336 -0.176606
v 0.365000 0.070336 -0.176606
v 0.295000 0.062749 -0.165251
v 0.365000 0.062749 -0.165251
v 0.295000 0.051394 -0.157664
v 0.365000 0.051394 -0.157664
vn -1.0000 -0.0000 -0.0000
vn 1.0000 -0.0000 -0.0000
vn -0.0000 -0.1951 0.9808
vn -0.0000 -0.5556 0.8315
vn -0.0000 -0.8315 0.5556
vn -0.0000 -0.9808 0.1951
vn -0.0000 -0.9808 -0.1951
vn -0.0000 -0.8315 -0.5556
vn -0.0000 -0.5556 -0.8315
vn -0.0000 -0.1951 -0.9808
vn -0.0000 0.1951 -0.9808
vn -0.0000 0.5556 -0.8315
vn -0.0000 0.8315 -0.5556
vn -0.0000 0.9808 -0.1951
vn -0.0000 0.9808 0.1951
vn -0.0000 0.8315 0.5556
vn -0.0000 0.5556 0.8315
vn -0.0000 0.1951 0.9808
s 0
usemtl WheelDark.002
f 353//203 351//203 349//203 347//203 345//203 343//203 341//203 339//203 337//203 335//203 333//203 331//203 329//203 327//203 325//203 323//203
f 324//204 326//204 328//204 330//204 332//204 334//204 336//204 338//204 340//204 342//204 344//204 346//204 348//204 350//204 352//204 354//204
f 323//205 325//205 326//205 324//205
f 325//206 327//206 328//206 326//206
f 327//207 329//207 330//207 328//207
f 329//208 331//208 332//208 330//208
f 331//209 333//209 334//209 332//209
f 333//210 335//210 336//210 334//210
f 335//211 337//211 338//211 336//211
f 337//212 339//212 340//212 338//212
f 339//213 341//213 342//213 340//213
f 341//214 343//214 344//214 342//214
f 343//215 345//215 346//215 344//215
f 345//216 347//216 348//216 346//216
f 347//217 349//217 350//217 348//217
f 349//218 351//218 352//218 350//218
f 351//219 353//219 354//219 352//219
f 353//220 323//220 324//220 354//220
o Wheel_R_Rear
v 0.295000 0.038000 0.225000
v 0.365000 0.038000 0.225000
v 0.295000 0.024606 0.222336
v 0.365000 0.024606 0.222336
v 0.295000 0.013251 0.214749
v 0.365000 0.013251 0.214749
v 0.295000 0.005664 0.203394
v 0.365000 0.005664 0.203394
v 0.295000 0.003000 0.190000
v 0.365000 0.003000 0.190000
v 0.295000 0.005664 0.176606
v 0.365000 0.005664 0.176606
v 0.295000 0.013251 0.165251
v 0.365000 0.013251 0.165251
v 0.295000 0.024606 0.157664
v 0.365000 0.024606 0.157664
v 0.295000 0.038000 0.155000
v 0.365000 0.038000 0.155000
v 0.295000 0.051394 0.157664
v 0.365000 0.051394 0.157664
v 0.295000 0.062749 0.165251
v 0.365000 0.062749 0.165251
v 0.295000 0.070336 0.176606
v 0.365000 0.070336 0.176606
v 0.295000 0.073000 0.190000
v 0.365000 0.073000 0.190000
v 0.295000 0.070336 0.203394
v 0.365000 0.070336 0.203394
v 0.295000 0.062749 0.214749
v 0.365000 0.062749 0.214749
v 0.295000 0.051394 0.222336
v 0.365000 0.051394 0.222336
vn -1.0000 -0.0000 -0.0000
vn 1.0000 -0.0000 -0.0000
vn -0.0000 -0.1951 0.9808
vn -0.0000 -0.5556 0.8315
vn -0.0000 -0.8315 0.5556
vn -0.0000 -0.9808 0.1951
vn -0.0000 -0.9808 -0.1951
vn -0.0000 -0.8315 -0.5556
vn -0.0000 -0.5556 -0.8315
vn -0.0000 -0.1951 -0.9808
vn -0.0000 0.1951 -0.9808
vn -0.0000 0.5556 -0.8315
vn -0.0000 0.8315 -0.5556
vn -0.0000 0.9808 -0.1951
vn -0.0000 0.9808 0.1951
vn -0.0000 0.8315 0.5556
vn -0.0000 0.5556 0.8315
vn -0.0000 0.1951 0.9808
s 0
usemtl WheelDark.002
f 385//221 383//221 381//221 379//221 377//221 375//221 373//221 371//221 369//221 367//221 365//221 363//221 361//221 359//221 357//221 355//221
f 356//222 358//222 360//222 362//222 364//222 366//222 368//222 370//222 372//222 374//222 376//222 378//222 380//222 382//222 384//222 386//222
f 355//223 357//223 358//223 356//223
f 357//224 359//224 360//224 358//224
f 359//225 361//225 362//225 360//225
f 361//226 363//226 364//226 362//226
f 363//227 365//227 366//227 364//227
f 365//228 367//228 368//228 366//228
f 367//229 369//229 370//229 368//229
f 369//230 371//230 372//230 370//230
f 371//231 373//231 374//231 372//231
f 373//232 375//232 376//232 374//232
f 375//233 377//233 378//233 376//233
f 377//234 379//234 380//234 378//234
f 379//235 381//235 382//235 380//235
f 381//236 383//236 384//236 382//236
f 383//237 385//237 386//237 384//237
f 385//238 355//238 356//238 386//238
