# Blender 5.2.0 LTS
# www.blender.org
mtllib Chip.mtl
o obj1
v -3.199646 -6.399956 -0.848572
v 3.200348 -6.399956 0.911428
v -3.199646 -6.399956 0.911428
v 3.200348 -6.399956 -0.848572
v -3.199646 -6.179955 0.911428
v -3.199646 -6.394463 0.960383
v -3.199646 -6.378166 1.006883
v -3.199646 -6.351982 1.048596
v -3.199646 -6.317131 1.083431
v -3.199646 -6.275414 1.109642
v -3.199646 -6.228935 1.125913
v -3.199646 -6.179955 1.131428
v -3.199646 -5.019981 1.131428
v -3.199646 -4.805473 0.960383
v -3.199646 -4.847954 1.048596
v -3.199646 -4.821739 1.006883
v -3.199646 -4.799980 0.911428
v -3.199646 -4.882805 1.083431
v -3.199646 -4.924522 1.109642
v -3.199646 -4.971001 1.125913
v -3.199646 -6.179955 -0.848572
v -3.199646 -6.394463 -0.897526
v -3.199646 -6.378166 -0.944026
v -3.199646 -6.351982 -0.985739
v -3.199646 -6.317131 -1.020574
v -3.199646 -6.275414 -1.046785
v -3.199646 -6.228935 -1.063056
v -3.199646 -6.179955 -1.068572
v -3.199646 -5.019981 -1.068572
v -3.199646 -4.799980 -0.848572
v -3.199646 -4.821739 -0.944026
v -3.199646 -4.805473 -0.897526
v -3.199646 -4.882805 -1.020574
v -3.199646 -4.924522 -1.046785
v -3.199646 -4.971001 -1.063056
v -3.199646 -4.847954 -0.985739
v 3.200348 -6.228935 1.125913
v 3.200348 -6.179955 1.131428
v 3.200348 -6.275414 1.109642
v 3.200348 -6.317131 1.083431
v 3.200348 -6.351982 1.048596
v 3.200348 -6.378166 1.006883
v 3.200348 -6.394463 0.960383
v 3.200348 -6.394463 -0.897526
v 3.200348 -6.378166 -0.944026
v 3.200348 -6.351982 -0.985739
v 3.200348 -6.317131 -1.020574
v 3.200348 -6.275414 -1.046785
v 3.200348 -6.228935 -1.063056
v 3.200348 -6.179955 -1.068572
v 3.200348 -6.179955 0.911428
v 3.200348 -5.019981 1.131428
v 3.200348 -4.805473 0.960383
v 3.200348 -4.821739 1.006883
v 3.200348 -4.847954 1.048596
v 3.200348 -4.799980 0.911428
v 3.200348 -4.882805 1.083431
v 3.200348 -4.924522 1.109642
v 3.200348 -4.971001 1.125913
v 3.200348 -6.179955 -0.848572
v 3.200348 -5.019981 -1.068572
v 3.200348 -4.799980 -0.848572
v 3.200348 -4.821739 -0.944026
v 3.200348 -4.805473 -0.897526
v 3.200348 -4.882805 -1.020574
v 3.200348 -4.971001 -1.063056
v 3.200348 -4.924522 -1.046785
v 3.200348 -4.847954 -0.985739
v -3.199646 4.800026 -0.848571
v -3.199646 4.800026 0.911429
v -3.199646 6.180031 -0.848571
v -3.199646 6.180031 0.911429
v 3.200348 4.800026 -0.848571
v 3.200348 4.800026 0.911429
v 3.200348 6.180031 -0.848571
v 3.200348 6.180031 0.911429
v -3.199646 4.805550 0.960383
v -3.199646 4.821815 1.006883
v -3.199646 4.848030 1.048597
v -3.199646 4.882881 1.083432
v -3.199646 4.924568 1.109642
v -3.199646 4.971077 1.125913
v -3.199646 5.020027 1.131429
v -3.199646 6.180031 1.131429
v -3.199646 6.275490 1.109642
v -3.199646 6.317207 1.083432
v -3.199646 6.228981 1.125913
v -3.199646 6.352028 1.048597
v -3.199646 6.378242 1.006883
v -3.199646 6.394508 0.960383
v -3.199646 6.400032 0.911429
v -3.199646 4.848030 -0.985739
v -3.199646 4.821815 -0.944026
v -3.199646 4.805550 -0.897526
v -3.199646 4.882881 -1.020574
v -3.199646 5.020027 -1.068571
v -3.199646 4.924568 -1.046784
v -3.199646 4.971077 -1.063055
v -3.199646 6.400032 -0.848571
v -3.199646 6.180031 -1.068571
v -3.199646 6.228981 -1.063055
v -3.199646 6.394508 -0.897526
v -3.199646 6.275490 -1.046784
v -3.199646 6.378242 -0.944026
v -3.199646 6.317207 -1.020574
v -3.199646 6.352028 -0.985739
v -3.199646 4.800026 -1.068571
v -3.199646 -4.799980 -1.068572
v 3.200348 -4.799980 -1.068572
v 3.200348 4.821815 1.006883
v 3.200348 4.805550 0.960383
v 3.200348 4.848030 1.048597
v 3.200348 4.882881 1.083432
v 3.200348 4.924568 1.109642
v 3.200348 4.971077 1.125913
v 3.200348 5.020027 1.131429
v 3.200348 6.180031 1.131429
v 3.200348 6.317207 1.083432
v 3.200348 6.275490 1.109642
v 3.200348 6.228981 1.125913
v 3.200348 6.352028 1.048597
v 3.200348 6.378242 1.006883
v 3.200348 6.394508 0.960383
v 3.200348 6.400032 0.911429
v 3.200348 4.848030 -0.985739
v 3.200348 4.805550 -0.897526
v 3.200348 4.821815 -0.944026
v 3.200348 4.882881 -1.020574
v 3.200348 5.020027 -1.068571
v 3.200348 4.924568 -1.046784
v 3.200348 4.971077 -1.063055
v 3.200348 6.400032 -0.848571
v 3.200348 6.180031 -1.068571
v 3.200348 6.228981 -1.063055
v 3.200348 6.394508 -0.897526
v 3.200348 6.275490 -1.046784
v 3.200348 6.378242 -0.944026
v 3.200348 6.317207 -1.020574
v 3.200348 6.352028 -0.985739
v 3.200348 4.800026 -1.068571
vn -0.0000 -1.0000 -0.0000
vn -1.0000 -0.0000 -0.0000
vn -1.0000 -0.0003 -0.0000
vn -1.0000 0.0003 -0.0000
vn -1.0000 0.0006 -0.0000
vn -1.0000 0.0017 -0.0000
vn -1.0000 0.0008 -0.0000
vn -1.0000 -0.0009 -0.0000
vn -1.0000 0.0007 -0.0000
vn -1.0000 -0.0006 -0.0000
vn -1.0000 0.0009 -0.0000
vn -0.0000 -0.1119 0.9937
vn -0.0000 -0.3304 0.9438
vn -0.0000 -0.7069 0.7073
vn -0.0000 -0.5320 0.8467
vn -0.0000 -0.8470 0.5317
vn -0.0000 -0.9938 0.1115
vn -0.0000 -0.9437 0.3307
vn -0.0000 -0.9437 0.3308
vn -0.0000 -0.9938 -0.1115
vn -0.0000 -0.9437 -0.3308
vn -0.0000 -0.9437 -0.3307
vn -0.0000 -0.8470 -0.5317
vn -0.0000 -0.7069 -0.7073
vn -0.0000 -0.5320 -0.8467
vn -0.0000 -0.3304 -0.9438
vn -0.0000 -0.1119 -0.9937
vn 1.0000 -0.0000 -0.0000
vn 1.0000 -0.0003 -0.0000
vn 1.0000 0.0003 -0.0000
vn 1.0000 0.0001 -0.0000
vn 1.0000 0.0017 -0.0000
vn 1.0000 -0.0009 -0.0000
vn 1.0000 -0.0001 -0.0000
vn 1.0000 -0.0017 -0.0000
vn -0.0000 -0.0000 1.0000
vn -0.0000 0.9938 0.1115
vn -0.0000 0.9439 0.3302
vn -0.0000 0.8467 0.5321
vn -0.0000 0.8469 0.5317
vn -0.0000 0.7069 0.7073
vn -0.0000 0.5320 0.8467
vn -0.0000 0.3304 0.9438
vn -0.0000 0.1119 0.9937
vn -0.0000 -0.0000 -1.0000
vn -0.0000 0.1119 -0.9937
vn -0.0000 0.3304 -0.9438
vn -0.0000 0.7069 -0.7073
vn -0.0000 0.5320 -0.8467
vn -0.0000 0.8467 -0.5321
vn -0.0000 0.9938 -0.1115
vn -0.0000 0.9439 -0.3302
vn -1.0000 0.0023 -0.0000
vn -1.0000 -0.0010 -0.0000
vn -1.0000 -0.0004 -0.0000
vn -1.0000 -0.0070 -0.0000
vn -1.0000 -0.0012 -0.0000
vn -1.0000 -0.0007 -0.0000
vn 1.0000 0.0007 -0.0000
vn 1.0000 0.0046 -0.0000
vn 1.0000 0.0012 -0.0000
vn 1.0000 0.0018 -0.0000
vn -0.0000 -0.1120 0.9937
vn -0.0000 -0.3302 0.9439
vn -0.0000 -0.5323 0.8466
vn -0.0000 -0.8467 0.5321
vn -0.0000 -0.8469 0.5317
vn -0.0000 -0.9937 0.1121
vn -0.0000 -0.9439 0.3302
vn -0.0000 0.9937 0.1121
vn -0.0000 0.8465 0.5324
vn -0.0000 0.7072 0.7070
vn -0.0000 0.7073 0.7070
vn -0.0000 0.3302 0.9439
vn -0.0000 0.1120 0.9937
vn -0.0000 1.0000 -0.0000
vn -0.0000 0.1120 -0.9937
vn -0.0000 0.3302 -0.9439
vn -0.0000 0.7073 -0.7070
vn -0.0000 0.7072 -0.7070
vn -0.0000 0.9937 -0.1121
vn -0.0000 -0.9937 -0.1121
vn -0.0000 -0.9439 -0.3302
vn -0.0000 -0.8467 -0.5321
vn -0.0000 -0.5323 -0.8466
vn -0.0000 -0.3302 -0.9439
vn -0.0000 -0.1120 -0.9937
vt 0.232627 0.558140
vt 0.130301 0.930233
vt 0.130301 0.558140
vt 0.232627 0.930233
vt 0.756976 0.731395
vt 0.756976 0.744186
vt 0.754130 0.743866
vt 0.751427 0.742919
vt 0.749002 0.741397
vt 0.746976 0.739370
vt 0.745452 0.736945
vt 0.744506 0.734243
vt 0.744186 0.731395
vt 0.744186 0.663955
vt 0.754130 0.651483
vt 0.749002 0.653953
vt 0.751427 0.652429
vt 0.756976 0.651164
vt 0.746976 0.655979
vt 0.745452 0.658405
vt 0.744506 0.661107
vt 0.859302 0.731395
vt 0.859302 0.744186
vt 0.862148 0.743866
vt 0.864852 0.742919
vt 0.867277 0.741397
vt 0.869302 0.739370
vt 0.870826 0.736945
vt 0.871772 0.734243
vt 0.872093 0.731395
vt 0.872093 0.663955
vt 0.859302 0.651164
vt 0.864852 0.652429
vt 0.862148 0.651483
vt 0.869302 0.655979
vt 0.870826 0.658405
vt 0.871772 0.661107
vt 0.867277 0.653953
vt 0.247755 0.558140
vt 0.250603 0.558140
vt 0.250603 0.930233
vt 0.247755 0.930233
vt 0.245053 0.558140
vt 0.245053 0.930233
vt 0.242628 0.558140
vt 0.242628 0.930233
vt 0.240601 0.930233
vt 0.240601 0.558140
vt 0.124751 0.930233
vt 0.122326 0.558140
vt 0.124751 0.558140
vt 0.122326 0.930233
vt 0.127455 0.930233
vt 0.127455 0.558140
vt 0.235473 0.930233
vt 0.235473 0.558140
vt 0.238176 0.930233
vt 0.238176 0.558140
vt 0.240601 0.930233
vt 0.328045 0.930233
vt 0.328045 0.558140
vt 0.330071 0.558140
vt 0.330071 0.930233
vt 0.332497 0.930233
vt 0.332497 0.558140
vt 0.335199 0.930233
vt 0.335199 0.558140
vt 0.338047 0.558140
vt 0.338047 0.930233
vt 0.884884 0.012791
vt 0.882037 0.000319
vt 0.884884 -0.000000
vt 0.879334 0.001267
vt 0.876909 0.002789
vt 0.874883 0.004815
vt 0.873360 0.007241
vt 0.872414 0.009943
vt 0.872093 0.012791
vt 0.872093 0.080231
vt 0.882037 0.092703
vt 0.879334 0.091757
vt 0.876909 0.090233
vt 0.884884 0.093022
vt 0.874883 0.088206
vt 0.873360 0.085781
vt 0.872414 0.083079
vt 0.987209 0.012791
vt 0.987209 -0.000000
vt 0.990056 0.000319
vt 0.992759 0.001267
vt 0.995184 0.002789
vt 0.997209 0.004815
vt 0.998733 0.007241
vt 0.999679 0.009943
vt 1.000000 0.012791
vt 1.000000 0.080231
vt 0.987209 0.093022
vt 0.992759 0.091757
vt 0.990056 0.092703
vt 0.997209 0.088206
vt 0.999679 0.083079
vt 0.998733 0.085781
vt 0.995184 0.090233
vt 0.318043 0.558140
vt 0.318043 0.930233
vt 0.617034 0.558140
vt 0.619880 0.930233
vt 0.617034 0.930233
vt 0.619880 0.558140
vt 0.614330 0.558140
vt 0.614330 0.930233
vt 0.611905 0.558140
vt 0.611905 0.930233
vt 0.328045 0.558140
vt 0.328045 0.930233
vt 0.326019 0.930233
vt 0.326019 0.558140
vt 0.323593 0.558140
vt 0.323593 0.930233
vt 0.320891 0.558140
vt 0.320891 0.930233
vt 0.859302 0.093024
vt 0.756977 0.093024
vt 0.859302 0.012791
vt 0.756977 0.012791
vt 0.405487 0.930233
vt 0.405487 0.558140
vt 0.408335 0.930233
vt 0.408335 0.558140
vt 0.411037 0.930233
vt 0.411037 0.558140
vt 0.413462 0.930233
vt 0.413462 0.558140
vt 0.415489 0.558140
vt 0.415489 0.930233
vt 0.633404 0.558140
vt 0.635830 0.930233
vt 0.633404 0.930233
vt 0.635830 0.558140
vt 0.630701 0.558140
vt 0.630701 0.930233
vt 0.627855 0.930233
vt 0.627855 0.558140
vt 0.987209 0.651162
vt 0.884884 0.651162
vt 0.987209 0.731395
vt 0.884884 0.731395
vt 0.372093 0.558140
vt 0.000000 0.000000
vt 0.372093 0.000000
vt 0.000000 0.558140
vt 0.754130 0.092703
vt 0.751427 0.091757
vt 0.749002 0.090233
vt 0.746976 0.088206
vt 0.745453 0.085783
vt 0.744507 0.083079
vt 0.744186 0.080233
vt 0.744186 0.012791
vt 0.745453 0.007241
vt 0.746976 0.004815
vt 0.744507 0.009945
vt 0.749002 0.002791
vt 0.751427 0.001267
vt 0.754130 0.000321
vt 0.756977 0.000000
vt 0.867277 0.090233
vt 0.864852 0.091757
vt 0.862148 0.092703
vt 0.869302 0.088207
vt 0.872093 0.080233
vt 0.870826 0.085783
vt 0.871772 0.083079
vt 0.859302 0.000000
vt 0.872093 0.012791
vt 0.871772 0.009945
vt 0.862148 0.000321
vt 0.870826 0.007241
vt 0.864852 0.001267
vt 0.869302 0.004815
vt 0.867277 0.002791
vt 0.872093 0.093024
vt 0.872093 0.651164
vt 0.599114 0.558140
vt 0.586323 0.930233
vt 0.586323 0.558140
vt 0.599114 0.930233
vt 0.879334 0.652429
vt 0.882037 0.651483
vt 0.876909 0.653953
vt 0.874883 0.655979
vt 0.873360 0.658403
vt 0.872414 0.661107
vt 0.872093 0.663953
vt 0.872093 0.731395
vt 0.874883 0.739370
vt 0.873360 0.736945
vt 0.872414 0.734241
vt 0.876909 0.741395
vt 0.879334 0.742919
vt 0.882037 0.743865
vt 0.884884 0.744186
vt 0.995184 0.653953
vt 0.990055 0.651483
vt 0.992759 0.652429
vt 0.997209 0.655979
vt 1.000000 0.663953
vt 0.998733 0.658403
vt 0.999679 0.661107
vt 0.987209 0.744186
vt 1.000000 0.731395
vt 0.999679 0.734241
vt 0.990055 0.743865
vt 0.998733 0.736945
vt 0.992759 0.742919
vt 0.997209 0.739370
vt 0.995184 0.741395
vt 1.000000 0.651162
vt 1.000000 0.093022
vt 0.422643 0.558140
vt 0.425489 0.558140
vt 0.425489 0.930233
vt 0.422643 0.930233
vt 0.419939 0.558140
vt 0.419939 0.930233
vt 0.417515 0.558140
vt 0.417515 0.930233
vt 0.415489 0.930233
vt 0.415489 0.558140
vt 0.622305 0.930233
vt 0.619880 0.558140
vt 0.622305 0.558140
vt 0.619880 0.930233
vt 0.625008 0.930233
vt 0.625009 0.558140
vt 0.627855 0.558140
vt 0.627855 0.930233
vt 0.492931 0.558140
vt 0.492931 0.930233
vt 0.007154 0.558140
vt 0.010000 0.930233
vt 0.007154 0.930233
vt 0.010000 0.558140
vt 0.004451 0.558140
vt 0.004450 0.930233
vt 0.002025 0.558140
vt 0.002025 0.930233
vt -0.000000 0.930233
vt 0.000000 0.558140
vt 0.498481 0.558140
vt 0.500906 0.930233
vt 0.498481 0.930233
vt 0.500906 0.558140
vt 0.495777 0.558140
vt 0.495777 0.930233
vt 0.112326 0.930233
vt 0.112326 0.558140
vt 0.581194 0.930233
vt 0.578348 0.930233
vt 0.578348 0.558140
vt 0.581194 0.558140
vt 0.583898 0.930233
vt 0.583898 0.558140
vt 0.122326 0.558140
vt 0.122326 0.930233
vt 0.120301 0.930233
vt 0.586323 0.930233
vt 0.586323 0.558140
vt 0.120301 0.558140
vt 0.117876 0.558140
vt 0.117875 0.930233
vt 0.115172 0.558140
vt 0.115172 0.930233
vt 0.510906 0.930233
vt 0.510906 0.558140
vt 0.638676 0.930233
vt 0.638676 0.558140
vt 0.635830 0.930233
vt 0.641379 0.930233
vt 0.641379 0.558140
vt 0.643805 0.930233
vt 0.643805 0.558140
vt 0.500906 0.930233
vt 0.500906 0.558140
vt 0.502932 0.558140
vt 0.502932 0.930233
vt 0.505356 0.930233
vt 0.505356 0.558140
vt 0.508060 0.930233
vt 0.508060 0.558140
vt 0.599114 0.930233
vt 0.744186 0.000000
vt 0.744186 0.558140
s 1
usemtl Material.001
f 69/122/2 17/18/2 70/123/2
f 69/122/2 30/32/2 17/18/2
f 73/144/28 74/145/28 56/83/28
f 73/144/28 56/83/28 62/97/28
f 74/148/36 17/149/36 56/150/36
f 74/148/36 70/151/36 17/149/36
f 107/182/2 30/32/2 69/122/2
f 107/182/2 108/183/2 30/32/2
f 140/218/28 73/144/28 62/97/28
f 140/218/28 62/97/28 109/219/28
f 140/148/45 109/150/45 108/292/45
f 140/148/45 108/292/45 107/293/45
usemtl Material
f 1/1/1 2/2/1 3/3/1
f 1/1/1 4/4/1 2/2/1
f 5/5/2 3/6/2 6/7/2
f 5/5/2 6/7/2 7/8/2
f 5/5/2 7/8/2 8/9/2
f 5/5/2 8/9/2 9/10/2
f 5/5/2 9/10/2 10/11/3
f 5/5/2 10/11/3 11/12/4
f 5/5/2 11/12/4 12/13/5
f 13/14/3 5/5/2 12/13/5
f 14/15/2 15/16/6 16/17/2
f 17/18/2 18/19/2 15/16/6
f 17/18/2 19/20/7 18/19/2
f 17/18/2 20/21/8 19/20/7
f 17/18/2 13/14/3 20/21/8
f 17/18/2 5/5/2 13/14/3
f 17/18/2 15/16/6 14/15/2
f 21/22/2 1/23/2 3/6/2
f 21/22/2 22/24/2 1/23/2
f 21/22/2 23/25/2 22/24/2
f 21/22/2 24/26/2 23/25/2
f 21/22/2 3/6/2 5/5/2
f 25/27/2 24/26/2 21/22/2
f 26/28/2 25/27/2 21/22/2
f 27/29/9 26/28/2 21/22/2
f 28/30/9 27/29/9 21/22/2
f 29/31/2 21/22/2 30/32/2
f 29/31/2 28/30/9 21/22/2
f 31/33/2 30/32/2 32/34/2
f 33/35/10 34/36/2 35/37/11
f 33/35/10 35/37/11 29/31/2
f 33/35/10 29/31/2 30/32/2
f 36/38/2 33/35/10 30/32/2
f 36/38/2 30/32/2 31/33/2
f 37/39/12 38/40/12 12/41/12
f 37/39/12 12/41/12 11/42/12
f 39/43/13 11/42/13 10/44/13
f 39/43/13 37/39/13 11/42/13
f 40/45/14 9/46/14 8/47/14
f 40/45/15 10/44/15 9/46/15
f 40/45/15 39/43/15 10/44/15
f 41/48/14 40/45/14 8/47/14
f 42/49/16 8/50/16 7/51/16
f 42/49/16 41/52/16 8/50/16
f 43/53/17 6/54/17 3/3/17
f 43/53/18 7/51/19 6/54/19
f 43/53/18 42/49/18 7/51/19
f 2/2/17 43/53/17 3/3/17
f 44/55/20 1/1/20 22/56/20
f 44/55/20 4/4/20 1/1/20
f 45/57/21 22/56/22 23/58/22
f 45/57/21 44/55/21 22/56/22
f 46/59/23 23/58/23 24/48/23
f 46/60/24 24/61/24 25/62/24
f 46/59/23 45/57/23 23/58/23
f 47/63/24 46/60/24 25/62/24
f 48/64/25 25/62/25 26/65/25
f 48/64/25 47/63/25 25/62/25
f 49/66/26 26/65/26 27/67/26
f 49/66/27 27/67/27 28/68/27
f 49/66/26 48/64/26 26/65/26
f 50/69/27 49/66/27 28/68/27
f 51/70/28 43/71/28 2/72/28
f 51/70/28 42/73/28 43/71/28
f 51/70/28 41/74/29 42/73/28
f 51/70/28 40/75/29 41/74/29
f 51/70/28 39/76/30 40/75/29
f 51/70/28 37/77/30 39/76/30
f 51/70/28 38/78/28 37/77/30
f 52/79/28 38/78/28 51/70/28
f 53/80/28 54/81/31 55/82/32
f 56/83/28 55/82/32 57/84/28
f 56/83/28 57/84/28 58/85/33
f 56/83/28 58/85/33 59/86/29
f 56/83/28 59/86/29 52/79/28
f 56/83/28 52/79/28 51/70/28
f 56/83/28 53/80/28 55/82/32
f 60/87/28 2/72/28 4/88/28
f 60/87/28 4/88/28 44/89/28
f 60/87/28 44/89/28 45/90/28
f 60/87/28 45/90/28 46/91/28
f 60/87/28 51/70/28 2/72/28
f 47/92/28 60/87/28 46/91/28
f 48/93/28 60/87/28 47/92/28
f 49/94/28 60/87/28 48/93/28
f 50/95/28 60/87/28 49/94/28
f 61/96/28 62/97/28 60/87/28
f 61/96/28 60/87/28 50/95/28
f 63/98/28 64/99/34 62/97/28
f 65/100/28 66/101/33 67/102/35
f 65/100/28 61/96/28 66/101/33
f 65/100/28 62/97/28 61/96/28
f 68/103/28 62/97/28 65/100/28
f 68/103/28 63/98/28 62/97/28
f 52/104/36 12/41/36 38/40/36
f 52/104/36 13/105/36 12/41/36
f 53/106/37 17/107/37 14/108/37
f 53/106/37 56/109/37 17/107/37
f 54/110/38 14/108/38 16/111/38
f 54/110/38 53/106/38 14/108/38
f 55/112/39 16/111/39 15/113/40
f 55/114/41 15/115/41 18/116/41
f 55/112/39 54/110/39 16/111/39
f 57/117/41 55/114/41 18/116/41
f 58/118/42 18/116/42 19/119/42
f 58/118/42 57/117/42 18/116/42
f 59/120/43 19/119/43 20/121/43
f 59/120/44 20/121/44 13/105/44
f 59/120/43 58/118/43 19/119/43
f 52/104/44 59/120/44 13/105/44
f 30/32/2 5/5/2 17/18/2
f 30/32/2 21/22/2 5/5/2
f 71/124/2 70/123/2 72/125/2
f 71/124/2 69/122/2 70/123/2
f 61/126/45 50/69/45 28/68/45
f 61/126/45 28/68/45 29/127/45
f 66/128/46 61/126/46 29/127/46
f 66/128/46 29/127/46 35/129/46
f 67/130/47 35/129/47 34/131/47
f 67/130/47 66/128/47 35/129/47
f 65/132/48 33/133/48 36/134/48
f 65/132/49 34/131/49 33/133/49
f 65/132/49 67/130/49 34/131/49
f 68/135/48 65/132/48 36/134/48
f 63/136/50 36/137/50 31/138/50
f 63/136/50 68/139/50 36/137/50
f 64/140/51 32/141/51 30/142/51
f 64/140/52 31/138/52 32/141/52
f 64/140/52 63/136/52 31/138/52
f 62/143/51 64/140/51 30/142/51
f 62/97/28 56/83/28 51/70/28
f 62/97/28 51/70/28 60/87/28
f 75/146/28 76/147/28 74/145/28
f 75/146/28 74/145/28 73/144/28
f 70/123/2 77/152/2 78/153/53
f 70/123/2 78/153/53 79/154/54
f 70/123/2 79/154/54 80/155/2
f 70/123/2 80/155/2 81/156/54
f 70/123/2 81/156/54 82/157/11
f 70/123/2 82/157/11 83/158/4
f 72/125/2 83/158/4 84/159/10
f 72/125/2 85/160/4 86/161/2
f 72/125/2 87/162/2 85/160/4
f 72/125/2 84/159/10 87/162/2
f 72/125/2 70/123/2 83/158/4
f 88/163/3 72/125/2 86/161/2
f 89/164/3 72/125/2 88/163/3
f 90/165/2 72/125/2 89/164/3
f 91/166/2 72/125/2 90/165/2
f 92/167/55 93/168/56 94/169/2
f 95/170/11 92/167/55 94/169/2
f 96/171/2 94/169/2 69/122/2
f 96/171/2 97/172/57 95/170/11
f 96/171/2 98/173/2 97/172/57
f 96/171/2 95/170/11 94/169/2
f 71/124/2 96/171/2 69/122/2
f 99/174/2 71/124/2 72/125/2
f 99/174/2 72/125/2 91/166/2
f 100/175/10 96/171/2 71/124/2
f 101/176/58 100/175/10 71/124/2
f 102/177/2 71/124/2 99/174/2
f 103/178/2 101/176/58 71/124/2
f 104/179/2 71/124/2 102/177/2
f 105/180/2 103/178/2 71/124/2
f 106/181/2 105/180/2 71/124/2
f 106/181/2 71/124/2 104/179/2
f 108/184/1 62/185/1 30/186/1
f 108/184/1 109/187/1 62/185/1
f 74/145/28 110/188/28 111/189/31
f 74/145/28 112/190/35 110/188/28
f 74/145/28 113/191/28 112/190/35
f 74/145/28 114/192/59 113/191/28
f 74/145/28 115/193/30 114/192/59
f 74/145/28 116/194/28 115/193/30
f 76/147/28 117/195/28 116/194/28
f 76/147/28 118/196/28 119/197/29
f 76/147/28 119/197/29 120/198/29
f 76/147/28 120/198/29 117/195/28
f 76/147/28 116/194/28 74/145/28
f 121/199/28 118/196/28 76/147/28
f 122/200/28 121/199/28 76/147/28
f 123/201/28 122/200/28 76/147/28
f 124/202/28 123/201/28 76/147/28
f 125/203/60 126/204/28 127/205/34
f 128/206/28 126/204/28 125/203/60
f 129/207/28 73/144/28 126/204/28
f 129/207/28 128/206/28 130/208/61
f 129/207/28 130/208/61 131/209/62
f 129/207/28 126/204/28 128/206/28
f 75/146/28 73/144/28 129/207/28
f 132/210/28 76/147/28 75/146/28
f 132/210/28 124/202/28 76/147/28
f 133/211/28 75/146/28 129/207/28
f 134/212/28 75/146/28 133/211/28
f 135/213/28 132/210/28 75/146/28
f 136/214/28 75/146/28 134/212/28
f 137/215/28 135/213/28 75/146/28
f 138/216/28 75/146/28 136/214/28
f 139/217/28 75/146/28 138/216/28
f 139/217/28 137/215/28 75/146/28
f 115/220/63 116/221/63 83/222/63
f 115/220/63 83/222/63 82/223/63
f 114/224/64 82/223/64 81/225/64
f 114/224/64 115/220/64 82/223/64
f 113/226/14 80/227/14 79/228/14
f 113/226/65 81/225/65 80/227/65
f 113/226/65 114/224/65 81/225/65
f 112/229/14 113/226/14 79/228/14
f 110/230/66 79/231/66 78/232/67
f 110/230/66 112/233/66 79/231/66
f 111/234/68 77/235/68 70/236/68
f 111/234/69 78/232/69 77/235/69
f 111/234/69 110/230/69 78/232/69
f 74/237/68 111/234/68 70/236/68
f 117/238/36 83/222/36 116/221/36
f 117/238/36 84/239/36 83/222/36
f 123/240/70 91/241/70 90/242/70
f 123/240/70 124/243/70 91/241/70
f 122/244/38 90/242/38 89/245/38
f 122/244/38 123/240/38 90/242/38
f 121/246/39 89/245/39 88/247/71
f 121/246/72 88/247/73 86/248/73
f 121/246/39 122/244/39 89/245/39
f 118/249/72 121/246/72 86/248/73
f 119/250/42 86/251/42 85/252/42
f 119/250/42 118/253/42 86/251/42
f 120/254/74 85/252/74 87/255/74
f 120/254/75 87/255/75 84/239/75
f 120/254/74 119/250/74 85/252/74
f 117/238/75 120/254/75 84/239/75
f 99/256/76 91/241/76 124/243/76
f 99/256/76 124/243/76 132/257/76
f 134/258/77 133/259/77 100/260/77
f 134/258/77 100/260/77 101/261/77
f 136/262/78 101/261/78 103/263/78
f 136/262/78 134/258/78 101/261/78
f 138/264/79 105/265/80 106/266/80
f 138/267/49 103/263/49 105/268/49
f 138/267/49 136/262/49 103/263/49
f 139/269/79 138/264/79 106/266/80
f 137/270/50 106/266/50 104/271/50
f 137/270/50 139/269/50 106/266/50
f 135/272/81 102/273/81 99/256/81
f 135/272/52 104/271/52 102/273/52
f 135/272/52 137/270/52 104/271/52
f 132/257/81 135/272/81 99/256/81
f 133/259/45 129/274/45 96/275/45
f 133/259/45 96/275/45 100/260/45
f 126/276/82 69/139/82 94/277/82
f 126/276/82 73/278/82 69/139/82
f 127/279/83 94/277/83 93/280/83
f 127/279/83 126/276/83 94/277/83
f 125/281/84 93/280/84 92/282/84
f 125/283/24 92/284/24 95/285/24
f 125/281/84 127/279/84 93/280/84
f 128/286/24 125/283/24 95/285/24
f 130/287/85 95/285/85 97/288/85
f 130/287/85 128/286/85 95/285/85
f 131/289/86 97/288/86 98/290/86
f 131/289/87 98/290/87 96/275/87
f 131/289/86 130/287/86 97/288/86
f 129/274/87 131/289/87 96/275/87
f 107/113/76 69/291/76 73/184/76
f 107/113/76 73/184/76 140/112/76
