# Blender 5.2.0 LTS
# www.blender.org
mtllib LED.mtl
o obj1
v 2.499969 2.321060 3.335879
v 2.499969 -2.358933 3.335879
v 2.499969 -2.618912 0.795879
v 2.499969 2.581070 0.795879
v 1.874969 -2.618912 0.795879
v -2.500031 -2.358933 3.335879
v -2.500031 -2.618912 0.795879
v -1.875031 -2.618912 0.795879
v 2.499969 -3.668930 0.795879
v 2.499969 -3.878922 -0.924121
v 2.499969 -3.668930 -0.924121
v 2.499969 -3.878922 0.795879
v 2.499969 3.631088 -0.924121
v 2.499969 3.631088 0.795879
v 2.499969 3.841080 0.795879
v 2.499969 3.841080 -0.924121
v -2.500031 2.321060 3.335879
v 1.874969 2.581070 0.795879
v -1.875031 2.581070 0.795879
v -2.500031 2.581070 0.795879
v -2.500031 -3.668930 0.795879
v -1.875031 -3.668930 0.795879
v -1.875031 -2.727768 0.932369
v -1.875031 -2.758926 0.935879
v 1.874969 -2.758926 0.935879
v 1.874969 -2.727768 0.932369
v -1.875031 -2.698196 0.922014
v 1.874969 -2.698196 0.922014
v -1.875031 -2.671646 0.905335
v 1.874969 -2.671646 0.905335
v -1.875031 -2.649460 0.883167
v 1.874969 -2.649460 0.883167
v -1.875031 -2.632797 0.856622
v 1.874969 -2.632797 0.856622
v -1.875031 -2.622421 0.827032
v 1.874969 -2.622421 0.827032
v 1.874969 -3.668930 0.795879
v 2.499969 -4.018936 -0.924121
v 2.499969 -4.015427 -0.955274
v 2.499969 -4.005051 -0.984865
v 2.499969 -3.988388 -1.011410
v 2.499969 -3.966202 -1.033578
v 2.499969 -3.939682 -1.050257
v 2.499969 -3.910080 -1.060611
v 2.499969 -3.878922 -1.064121
v 2.499969 -3.668930 -1.064121
v 2.499969 -4.018936 0.795879
v 2.499969 -4.015427 0.827032
v 2.499969 -4.005051 0.856622
v 2.499969 -3.988388 0.883167
v 2.499969 -3.966202 0.905335
v 2.499969 -3.939682 0.922014
v 2.499969 -3.910080 0.932368
v 2.499969 -3.878922 0.935879
v 2.499969 -3.668930 0.935879
v 1.874969 -2.618912 -0.924121
v 1.874969 -3.668930 -0.924121
v -1.875031 -2.618912 -0.924121
v -1.875031 -3.668930 -0.924121
v -2.500031 -3.668930 -0.924121
v 1.999969 1.713120 -0.924121
v -0.000031 -1.750992 -0.924121
v 1.874969 2.581070 -0.924121
v 1.874969 3.631088 -0.924121
v -2.000031 1.713120 -0.924121
v -1.875031 2.581070 -0.924121
v -2.500031 3.631088 -0.924121
v -1.875031 3.631088 -0.924121
v 2.499969 3.841080 -1.064121
v 2.499969 3.631088 -1.064121
v 2.499969 3.901810 -1.050257
v 2.499969 3.928360 -1.033578
v 2.499969 3.872238 -1.060611
v 2.499969 3.950516 -1.011410
v 2.499969 3.967209 -0.984865
v 2.499969 3.977554 -0.955274
v 2.499969 3.981064 -0.924121
v 2.499969 3.631088 0.935879
v 2.499969 3.981064 0.795879
v 2.499969 3.841080 0.935879
v 2.499969 3.977554 0.827032
v 2.499969 3.872238 0.932369
v 2.499969 3.967209 0.856623
v 2.499969 3.901810 0.922015
v 2.499969 3.950516 0.883167
v 2.499969 3.928360 0.905335
v 1.874969 3.631088 0.795879
v -1.875031 3.631088 0.795879
v -2.500031 3.631088 0.795879
v -1.875031 2.584579 0.827032
v 1.874969 2.584579 0.827032
v -1.875031 2.594925 0.856623
v 1.874969 2.594925 0.856623
v -1.875031 2.611618 0.883167
v 1.874969 2.611618 0.883167
v -1.875031 2.633774 0.905335
v 1.874969 2.633774 0.905335
v -1.875031 2.660324 0.922014
v 1.874969 2.660324 0.922014
v -1.875031 2.689926 0.932369
v 1.874969 2.689926 0.932369
v 1.874969 2.721085 0.935879
v -1.875031 2.721085 0.935879
v -2.500031 -3.878922 -0.924121
v -2.500031 -3.878922 0.795879
v -2.500031 3.841080 0.795879
v -2.500031 3.841080 -0.924121
v -1.875031 -3.668930 0.935879
v -2.500031 -3.668930 0.935879
v 1.874969 -3.668930 0.935879
v -2.500031 -3.878922 0.935879
v 1.874969 -3.668930 -1.064121
v -1.875031 -3.668930 -1.064121
v 1.874969 -2.758926 -1.064121
v -2.500031 -3.668930 -1.064121
v -2.500031 -3.878922 -1.064121
v -1.875031 -2.758926 -1.064121
v -2.500031 -3.910080 -1.060611
v -2.500031 -3.939682 -1.050257
v -2.500031 -3.966202 -1.033578
v -2.500031 -3.988388 -1.011410
v -2.500031 -4.005051 -0.984865
v -2.500031 -4.015427 -0.955274
v -2.500031 -4.018936 -0.924121
v -2.500031 -4.018936 0.795879
v -2.500031 -4.015427 0.827032
v -2.500031 -4.005051 0.856622
v -2.500031 -3.988388 0.883167
v -2.500031 -3.966202 0.905335
v -2.500031 -3.939682 0.922014
v -2.500031 -3.910080 0.932368
v 1.874969 -2.632797 -0.984865
v 1.874969 -2.622421 -0.955274
v 1.874969 -2.649460 -1.011410
v 1.874969 -2.671646 -1.033578
v 1.874969 -2.698196 -1.050257
v 1.874969 -2.727768 -1.060611
v -1.875031 -2.622421 -0.955274
v -1.875031 -2.632797 -0.984865
v -1.875031 -2.649460 -1.011410
v -1.875031 -2.671646 -1.033578
v -1.875031 -2.698196 -1.050257
v -1.875031 -2.727768 -1.060611
v -1.875031 3.631088 -1.064121
v -2.500031 3.631088 -1.064121
v -1.875031 2.689926 -1.060611
v -1.875031 2.660324 -1.050257
v -1.875031 2.633774 -1.033578
v -1.875031 2.611618 -1.011410
v -1.875031 2.594925 -0.984865
v -1.875031 2.721085 -1.064121
v -1.875031 2.584579 -0.955274
v 1.874969 2.721085 -1.064121
v 1.874969 2.689926 -1.060611
v 1.874969 2.660324 -1.050257
v 1.874969 2.633774 -1.033578
v 1.874969 2.611618 -1.011410
v 1.874969 2.594925 -0.984865
v 1.874969 2.584579 -0.955274
v 1.874969 3.631088 -1.064121
v 1.999969 1.713120 -0.994121
v -2.000031 1.713120 -0.994121
v -0.000031 -1.750992 -0.994121
v -2.500031 3.841080 -1.064121
v -2.500031 3.977554 -0.955274
v -2.500031 3.981064 -0.924121
v -2.500031 3.967209 -0.984865
v -2.500031 3.950516 -1.011410
v -2.500031 3.928360 -1.033578
v -2.500031 3.901810 -1.050257
v -2.500031 3.872238 -1.060611
v -2.500031 3.981064 0.795879
v -2.500031 3.872238 0.932369
v -2.500031 3.841080 0.935879
v -2.500031 3.901810 0.922015
v -2.500031 3.928360 0.905335
v -2.500031 3.950516 0.883167
v -2.500031 3.967209 0.856623
v -2.500031 3.977554 0.827032
v 1.874969 3.631088 0.935879
v -1.875031 3.631088 0.935879
v -2.500031 3.631088 0.935879
vn 1.0000 -0.0000 -0.0000
vn -0.0000 -0.9948 0.1018
vn -0.0000 -0.0000 1.0000
vn -0.0000 0.9948 0.1018
vn -1.0000 -0.0000 -0.0000
vn -0.0000 0.1119 0.9937
vn -0.0000 0.3305 0.9438
vn -0.0000 0.5320 0.8468
vn -0.0000 0.7068 0.7074
vn -0.0000 0.7066 0.7076
vn -0.0000 0.7065 0.7077
vn -0.0000 0.8470 0.5317
vn -0.0000 0.9437 0.3309
vn -0.0000 0.9938 0.1116
vn -0.0000 0.9936 0.1129
vn -0.0000 0.9936 0.1127
vn -0.0000 0.9938 0.1115
vn 1.0000 0.0006 -0.0000
vn 1.0000 -0.0003 -0.0000
vn 1.0000 -0.0006 -0.0000
vn 1.0000 0.0003 -0.0000
vn 1.0000 0.0009 -0.0000
vn 1.0000 0.0008 -0.0000
vn -0.0000 -0.0000 -1.0000
vn 1.0000 0.0007 -0.0000
vn -0.0000 -0.9938 0.1116
vn -0.0000 -0.9938 0.1115
vn -0.0000 -0.9441 0.3297
vn -0.0000 -0.9437 0.3308
vn -0.0000 -0.9437 0.3309
vn -0.0000 -0.9441 0.3296
vn -0.0000 -0.8467 0.5321
vn -0.0000 -0.8465 0.5323
vn -0.0000 -0.7073 0.7069
vn -0.0000 -0.5320 0.8468
vn -0.0000 -0.3302 0.9439
vn -0.0000 -0.1119 0.9937
vn -1.0000 0.0021 -0.0000
vn -1.0000 -0.0006 -0.0000
vn -0.0000 1.0000 -0.0000
vn 1.0000 0.0014 -0.0000
vn 1.0000 -0.0007 -0.0000
vn -0.0000 -0.1119 -0.9937
vn -0.0000 -0.3302 -0.9439
vn -0.0000 -0.5327 -0.8463
vn -0.0000 -0.5324 -0.8465
vn -0.0000 -0.7068 -0.7074
vn -0.0000 -0.7064 -0.7078
vn -0.0000 -0.9439 -0.3303
vn -0.0000 -0.9434 -0.3317
vn -0.0000 -0.9434 -0.3315
vn -0.0000 -0.8472 -0.5312
vn -0.0000 -0.8471 -0.5314
vn -0.0000 -0.9936 -0.1125
vn -0.0000 -0.9938 -0.1116
vn -0.0000 -0.9937 -0.1119
vn -0.0000 -0.9936 -0.1126
vn -0.0000 -1.0000 -0.0000
vn -0.0000 -0.9936 0.1125
vn -0.0000 -0.9936 0.1126
vn -0.0000 -0.9937 0.1119
vn -0.0000 -0.9439 0.3302
vn -0.0000 -0.9434 0.3315
vn -0.0000 -0.9434 0.3317
vn -0.0000 -0.9439 0.3304
vn -0.0000 -0.8472 0.5312
vn -0.0000 -0.8471 0.5314
vn -0.0000 -0.7068 0.7074
vn -0.0000 -0.7064 0.7078
vn -0.0000 -0.5324 0.8465
vn -0.0000 -0.5328 0.8462
vn 1.0000 -0.0082 -0.0000
vn 1.0000 0.0087 -0.0000
vn 1.0000 -0.0021 -0.0000
vn 1.0000 0.0032 -0.0000
vn -0.0000 0.9938 -0.1116
vn -0.0000 0.9938 -0.1115
vn -0.0000 0.9936 -0.1127
vn -0.0000 0.9936 -0.1129
vn -0.0000 0.9437 -0.3309
vn -0.0000 0.8470 -0.5317
vn -0.0000 0.7066 -0.7076
vn -0.0000 0.7068 -0.7074
vn -0.0000 0.7065 -0.7077
vn -0.0000 0.5320 -0.8468
vn -0.0000 0.3305 -0.9438
vn -0.0000 0.1119 -0.9937
vn -1.0000 0.0057 -0.0000
vn -1.0000 -0.0023 -0.0000
vn -1.0000 -0.0007 -0.0000
vn -1.0000 -0.0086 -0.0000
vn -1.0000 0.0014 -0.0000
vn -1.0000 -0.0057 -0.0000
vn -1.0000 0.0009 -0.0000
vn -1.0000 -0.0009 -0.0000
vn -1.0000 0.0003 -0.0000
vn -1.0000 0.0087 -0.0000
vn -0.0000 -0.5320 -0.8468
vn -0.0000 -0.7073 -0.7069
vn -0.0000 -0.8467 -0.5321
vn -0.0000 -0.8465 -0.5324
vn -0.0000 -0.9437 -0.3308
vn -0.0000 -0.9441 -0.3297
vn -0.0000 -0.9441 -0.3296
vn -0.0000 -0.9938 -0.1115
vn -0.0000 -0.9437 -0.3309
vn 1.0000 -0.0088 -0.0000
vn 1.0000 -0.0013 -0.0000
vn 1.0000 0.0021 -0.0000
vn 1.0000 0.0082 -0.0000
vn 1.0000 -0.0087 -0.0000
vn -0.8660 -0.5000 -0.0000
vn 0.8660 -0.5000 -0.0000
vn -0.0000 0.9936 -0.1125
vn -0.0000 0.9936 -0.1126
vn -0.0000 0.9937 -0.1119
vn -0.0000 0.9440 -0.3300
vn -0.0000 0.9441 -0.3297
vn -0.0000 0.9441 -0.3296
vn -0.0000 0.8465 -0.5323
vn -0.0000 0.8468 -0.5319
vn -0.0000 0.7073 -0.7069
vn -0.0000 0.7073 0.7069
vn -0.0000 0.9441 0.3296
vn -0.0000 0.8465 0.5323
vn -0.0000 0.8465 0.5324
vn -0.0000 0.9936 0.1125
vn -0.0000 0.9937 0.1119
vn -0.0000 0.9936 0.1126
vn 1.0000 0.0027 -0.0000
vn 1.0000 -0.0023 -0.0000
vn 1.0000 -0.0044 -0.0000
vn 1.0000 0.0029 -0.0000
vn -1.0000 0.0006 -0.0000
vn -1.0000 0.0013 -0.0000
vn -1.0000 -0.0016 -0.0000
vn -1.0000 -0.0044 -0.0000
vn -1.0000 -0.0003 -0.0000
vt 0.293920 0.372664
vt 0.293920 0.097575
vt 0.443231 0.082293
vt 0.443231 0.387947
vt 0.497554 0.764158
vt 0.647028 0.727419
vt 0.647028 0.764159
vt 0.497554 0.470238
vt 0.647028 0.470239
vt 0.647028 0.506979
vt 0.443231 0.020573
vt 0.544340 0.008230
vt 0.544340 0.020573
vt 0.443231 0.008230
vt 0.544340 0.449667
vt 0.443231 0.449667
vt 0.443231 0.462010
vt 0.544340 0.462010
vt 0.000000 0.723044
vt 0.000000 0.429124
vt 0.275109 0.429124
vt 0.275109 0.723044
vt 0.796493 0.506979
vt 0.796493 0.470239
vt 0.796493 0.727419
vt 0.647028 0.764159
vt 0.796493 0.764159
vt 0.485467 0.767099
vt 0.448727 0.705375
vt 0.485467 0.705375
vt 0.448727 0.767099
vt 0.552570 0.097575
vt 0.701881 0.387945
vt 0.552570 0.372664
vt 0.701881 0.082291
vt 0.996701 0.257180
vt 0.994869 0.257180
vt 0.994869 0.036740
vt 0.996701 0.036740
vt 0.998439 0.257180
vt 0.998439 0.036740
vt 1.000000 0.257180
vt 1.000000 0.036740
vt 0.282894 0.649564
vt 0.281577 0.429124
vt 0.282894 0.429124
vt 0.281577 0.649564
vt 0.284465 0.649564
vt 0.284465 0.429124
vt 0.286211 0.649564
vt 0.286211 0.429124
vt 0.288044 0.429124
vt 0.288044 0.649564
vt 0.000000 0.784769
vt 0.000000 0.723044
vt 0.036740 0.723044
vt 0.036740 0.784769
vt 0.544340 -0.000000
vt 0.546171 0.000206
vt 0.547911 0.000816
vt 0.549471 0.001796
vt 0.550774 0.003100
vt 0.551755 0.004659
vt 0.552363 0.006399
vt 0.552570 0.008230
vt 0.552570 0.020573
vt 0.443231 -0.000000
vt 0.441400 0.000206
vt 0.439661 0.000816
vt 0.438100 0.001796
vt 0.436797 0.003100
vt 0.435817 0.004659
vt 0.435208 0.006399
vt 0.435002 0.008230
vt 0.435002 0.020573
vt 0.036740 0.061724
vt 0.000000 0.000000
vt 0.036740 0.000000
vt 0.257180 0.061724
vt 0.257180 0.000000
vt 0.293920 0.000000
vt 0.029392 0.316378
vt 0.146960 0.112744
vt 0.000000 0.429124
vt 0.036740 0.367400
vt 0.036740 0.429124
vt 0.264528 0.316378
vt 0.257180 0.367400
vt 0.293920 0.429124
vt 0.257180 0.429124
vt 0.552570 0.462010
vt 0.552570 0.449667
vt 0.551755 0.465580
vt 0.550774 0.467141
vt 0.552363 0.463842
vt 0.549471 0.468443
vt 0.547911 0.469424
vt 0.546171 0.470032
vt 0.544340 0.470239
vt 0.435002 0.449667
vt 0.443231 0.470239
vt 0.435002 0.462010
vt 0.441400 0.470032
vt 0.435208 0.463842
vt 0.439661 0.469424
vt 0.435817 0.465580
vt 0.438100 0.468443
vt 0.436797 0.467141
vt 0.073480 0.784769
vt 0.073480 0.723044
vt 0.110220 0.784769
vt 0.110220 0.723044
vt 0.279744 0.429124
vt 0.281577 0.429124
vt 0.281577 0.649564
vt 0.279744 0.649564
vt 0.277998 0.429124
vt 0.277998 0.649564
vt 0.276426 0.429124
vt 0.276426 0.649564
vt 0.275109 0.649564
vt 0.374187 0.962555
vt 0.372626 0.742115
vt 0.374187 0.742115
vt 0.372626 0.962555
vt 0.375927 0.962555
vt 0.375927 0.742115
vt 0.377758 0.742115
vt 0.377758 0.962555
vt 0.701881 0.449665
vt 0.802989 0.449665
vt 0.802989 0.462008
vt 0.701881 0.462008
vt 0.802989 0.020572
vt 0.701881 0.020572
vt 0.701881 0.008228
vt 0.802989 0.008228
vt 0.134909 0.731274
vt 0.143139 0.784764
vt 0.134909 0.784764
vt 0.143139 0.723044
vt 0.139568 0.723861
vt 0.141308 0.723251
vt 0.136705 0.726144
vt 0.135116 0.729443
vt 0.135724 0.727705
vt 0.138008 0.724840
vt 0.184287 0.723044
vt 0.192516 0.759784
vt 0.184287 0.759784
vt 0.192516 0.723044
vt 0.143139 0.776534
vt 0.143954 0.780104
vt 0.143345 0.778366
vt 0.144935 0.781665
vt 0.146238 0.782969
vt 0.147798 0.783948
vt 0.149538 0.784558
vt 0.151369 0.784764
vt 0.151369 0.723044
vt 0.143139 0.723044
vt 0.941376 0.036740
vt 0.929032 0.000000
vt 0.941376 0.000000
vt 0.941376 0.257180
vt 0.941376 0.293920
vt 0.929031 0.293920
vt 0.192516 0.723044
vt 0.200746 0.759784
vt 0.192516 0.759784
vt 0.200746 0.723044
vt 0.927954 0.727418
vt 0.927954 0.764158
vt 0.915610 0.764158
vt 0.927954 0.506978
vt 0.981447 0.727418
vt 0.927954 0.470238
vt 0.915610 0.470238
vt 0.981447 0.506978
vt 0.913778 0.470238
vt 0.913778 0.764158
vt 0.912038 0.470238
vt 0.912038 0.764158
vt 0.910479 0.470238
vt 0.910479 0.764158
vt 0.909175 0.470238
vt 0.909175 0.764158
vt 0.907625 0.470239
vt 0.907625 0.764159
vt 0.905893 0.764159
vt 0.909175 0.764159
vt 0.909175 0.470239
vt 0.905893 0.470239
vt 0.904064 0.470239
vt 0.904064 0.764159
vt 0.167828 0.723044
vt 0.176058 0.759784
vt 0.167828 0.759784
vt 0.176058 0.723044
vt 0.802962 0.764159
vt 0.802962 0.470239
vt 0.801129 0.470239
vt 0.801129 0.764159
vt 0.799382 0.470239
vt 0.799382 0.764159
vt 0.797811 0.470239
vt 0.797811 0.764159
vt 0.796493 0.470239
vt 0.796493 0.764159
vt 0.925460 0.293920
vt 0.923901 -0.000000
vt 0.925460 -0.000000
vt 0.927200 -0.000000
vt 0.923901 0.293920
vt 0.927200 0.293920
vt 0.485467 0.767095
vt 0.489038 0.766279
vt 0.487298 0.766889
vt 0.490598 0.765299
vt 0.491901 0.763995
vt 0.492882 0.762435
vt 0.493490 0.760696
vt 0.493697 0.758865
vt 0.485467 0.705375
vt 0.493697 0.705375
vt 0.290637 0.649564
vt 0.288808 0.649564
vt 0.288808 0.429124
vt 0.290637 0.429124
vt 0.292370 0.649564
vt 0.292370 0.429124
vt 0.293920 0.649564
vt 0.293920 0.429124
vt 0.986578 0.506978
vt 0.987882 0.727418
vt 0.986578 0.727418
vt 0.987882 0.506978
vt 0.985017 0.506978
vt 0.985017 0.727418
vt 0.983279 0.506978
vt 0.983279 0.727418
vt 0.118450 0.731274
vt 0.118450 0.784764
vt 0.110220 0.784764
vt 0.116654 0.726144
vt 0.117635 0.727705
vt 0.118243 0.729443
vt 0.115351 0.724840
vt 0.113791 0.723861
vt 0.112051 0.723251
vt 0.184287 0.759784
vt 0.176058 0.759784
vt 0.184287 0.723044
vt 0.208975 0.759784
vt 0.200746 0.759784
vt 0.208975 0.723044
vt 0.126473 0.778366
vt 0.125865 0.780106
vt 0.124884 0.781666
vt 0.123581 0.782969
vt 0.122021 0.783950
vt 0.118450 0.784764
vt 0.126680 0.776534
vt 0.120281 0.784558
vt 0.118450 0.723044
vt 0.126680 0.723044
vt 0.298523 0.742115
vt 0.300355 0.742115
vt 0.300355 0.962555
vt 0.298523 0.962555
vt 0.296783 0.742115
vt 0.296783 0.962555
vt 0.295222 0.742115
vt 0.295222 0.962555
vt 0.293920 0.742115
vt 0.293920 0.962555
vt 0.278670 0.649564
vt 0.280219 0.870004
vt 0.278670 0.870004
vt 0.280219 0.649564
vt 0.276938 0.649564
vt 0.276938 0.870004
vt 0.275109 0.870004
vt 0.275109 0.649564
vt 0.134909 0.731274
vt 0.134909 0.784764
vt 0.126680 0.784764
vt 0.133114 0.726142
vt 0.134094 0.727703
vt 0.134703 0.729443
vt 0.126680 0.723044
vt 0.131811 0.724840
vt 0.130250 0.723859
vt 0.128511 0.723251
vt 0.217204 0.759784
vt 0.208975 0.759784
vt 0.217204 0.723044
vt 0.284334 0.649564
vt 0.284334 0.884700
vt 0.280219 0.884700
vt 0.280219 0.649564
vt 0.284334 0.649564
vt 0.288449 0.854588
vt 0.284334 0.854588
vt 0.288449 0.649564
vt 0.288808 0.649564
vt 0.292923 0.854588
vt 0.288808 0.854588
vt 0.292923 0.649564
vt 0.353849 0.962555
vt 0.366193 0.999295
vt 0.353849 0.999295
vt 0.353849 0.742115
vt 0.366193 0.705375
vt 0.353849 0.705375
vt 0.920618 0.293920
vt 0.918789 -0.000000
vt 0.920618 -0.000000
vt 0.918789 0.293920
vt 0.922351 0.293920
vt 0.922351 -0.000000
vt 0.923901 0.293920
vt 0.923901 -0.000000
vt 0.371323 0.705375
vt 0.372626 0.999295
vt 0.371323 0.999295
vt 0.372626 0.705375
vt 0.369763 0.705375
vt 0.369763 0.999295
vt 0.368024 0.999295
vt 0.368024 0.705375
vt 0.817686 -0.000000
vt 0.817686 0.293920
vt 0.445428 0.999295
vt 0.443596 0.999295
vt 0.443596 0.705375
vt 0.445428 0.705375
vt 0.447166 0.999295
vt 0.447166 0.705375
vt 0.448727 0.999295
vt 0.448727 0.705375
vt 0.812536 0.293920
vt 0.811219 -0.000000
vt 0.812536 -0.000000
vt 0.811219 0.293920
vt 0.814107 0.293920
vt 0.814107 -0.000000
vt 0.815853 -0.000000
vt 0.815853 0.293920
vt 0.431252 0.742115
vt 0.431252 0.705375
vt 0.431252 0.962555
vt 0.431252 0.999295
vt 0.217204 0.723044
vt 0.225433 0.759784
vt 0.217204 0.759784
vt 0.225433 0.723044
vt 0.151369 0.731274
vt 0.159599 0.784764
vt 0.151369 0.784764
vt 0.159599 0.723044
vt 0.153164 0.726142
vt 0.151575 0.729443
vt 0.152184 0.727703
vt 0.154467 0.724840
vt 0.157767 0.723251
vt 0.156028 0.723859
vt 0.225433 0.723044
vt 0.233663 0.759784
vt 0.225433 0.759784
vt 0.233663 0.723044
vt 0.159599 0.776534
vt 0.167828 0.784764
vt 0.165997 0.784558
vt 0.164258 0.783950
vt 0.162697 0.782969
vt 0.161394 0.781666
vt 0.160414 0.780106
vt 0.159805 0.778366
vt 0.167828 0.723044
vt 0.159599 0.723044
vt 0.804821 0.470032
vt 0.802989 0.470239
vt 0.806560 0.469422
vt 0.808121 0.468443
vt 0.809424 0.467139
vt 0.810404 0.465580
vt 0.811013 0.463840
vt 0.811219 0.462008
vt 0.811219 0.449665
vt 0.701881 0.470239
vt 0.700050 0.470032
vt 0.698310 0.469422
vt 0.696750 0.468443
vt 0.695447 0.467139
vt 0.694466 0.465580
vt 0.693858 0.463840
vt 0.693651 0.462008
vt 0.693651 0.449665
vt 0.811219 0.008228
vt 0.811219 0.020572
vt 0.809424 0.003098
vt 0.810404 0.004659
vt 0.811013 0.006397
vt 0.808121 0.001796
vt 0.806560 0.000814
vt 0.804821 0.000206
vt 0.802989 0.000000
vt 0.693651 0.020572
vt 0.701881 -0.000000
vt 0.693651 0.008228
vt 0.700050 0.000206
vt 0.693858 0.006397
vt 0.698310 0.000814
vt 0.694466 0.004659
vt 0.696750 0.001796
vt 0.695447 0.003098
vt 0.497554 0.470238
vt 0.497554 0.705375
vt 0.293920 0.587807
s 1
usemtl Material.001
f 1/1/1 2/2/1 3/3/1
f 1/1/1 3/3/1 4/4/1
f 2/5/2 5/6/2 3/7/2
f 6/8/2 7/9/2 8/10/2
f 6/8/2 8/10/2 5/6/2
f 6/8/2 5/6/2 2/5/2
f 9/11/1 10/12/1 11/13/1
f 9/11/1 12/14/1 10/12/1
f 3/3/1 9/11/1 11/13/1
f 13/15/1 3/3/1 11/13/1
f 4/4/1 3/3/1 13/15/1
f 14/16/1 4/4/1 13/15/1
f 15/17/1 13/15/1 16/18/1
f 15/17/1 14/16/1 13/15/1
f 6/19/3 2/20/3 1/21/3
f 17/22/3 6/19/3 1/21/3
f 18/23/4 1/9/4 4/24/4
f 19/25/4 17/26/4 1/9/4
f 19/25/4 1/9/4 18/23/4
f 20/27/4 17/26/4 19/25/4
f 8/28/3 21/29/3 22/30/3
f 7/31/3 21/29/3 8/28/3
f 17/32/5 7/33/5 6/34/5
f 17/32/5 20/35/5 7/33/5
f 33/48/12 31/44/12 32/46/12
f 35/50/13 34/49/13 36/51/13
f 35/50/14 36/51/15 5/52/16
f 35/50/13 33/48/13 34/49/13
f 8/53/17 35/50/14 5/52/16
f 5/54/3 37/55/3 9/56/3
f 5/54/3 9/56/3 3/57/3
f 10/12/1 38/58/1 39/59/1
f 10/12/1 39/59/1 40/60/1
f 10/12/1 40/60/1 41/61/18
f 10/12/1 41/61/18 42/62/19
f 10/12/1 42/62/19 43/63/20
f 10/12/1 43/63/20 44/64/21
f 10/12/1 44/64/21 45/65/21
f 11/13/1 45/65/21 46/66/1
f 11/13/1 10/12/1 45/65/21
f 12/14/1 47/67/1 38/58/1
f 12/14/1 48/68/1 47/67/1
f 12/14/1 49/69/1 48/68/1
f 12/14/1 50/70/20 49/69/1
f 12/14/1 38/58/1 10/12/1
f 51/71/1 50/70/20 12/14/1
f 52/72/1 51/71/1 12/14/1
f 53/73/22 52/72/1 12/14/1
f 54/74/23 53/73/22 12/14/1
f 9/11/1 54/74/23 12/14/1
f 55/75/1 54/74/23 9/11/1
f 56/76/24 11/77/24 57/78/24
f 58/79/24 59/80/24 60/81/24
f 61/82/24 11/77/24 56/76/24
f 61/82/24 56/76/24 62/83/24
f 13/84/24 11/77/24 61/82/24
f 13/84/24 61/82/24 63/85/24
f 64/86/24 13/84/24 63/85/24
f 65/87/24 62/83/24 58/79/24
f 66/88/24 61/82/24 65/87/24
f 66/88/24 63/85/24 61/82/24
f 67/89/24 68/90/24 66/88/24
f 67/89/24 66/88/24 65/87/24
f 67/89/24 65/87/24 60/81/24
f 65/87/24 58/79/24 60/81/24
f 58/79/24 62/83/24 56/76/24
f 69/91/19 13/15/1 70/92/1
f 16/18/1 71/93/18 72/94/25
f 16/18/1 73/95/19 71/93/18
f 16/18/1 69/91/19 73/95/19
f 16/18/1 13/15/1 69/91/19
f 74/96/1 16/18/1 72/94/25
f 75/97/1 16/18/1 74/96/1
f 76/98/1 16/18/1 75/97/1
f 77/99/1 16/18/1 76/98/1
f 15/17/1 78/100/1 14/16/1
f 79/101/1 15/17/1 16/18/1
f 79/101/1 16/18/1 77/99/1
f 80/102/1 78/100/1 15/17/1
f 81/103/1 15/17/1 79/101/1
f 82/104/1 80/102/1 15/17/1
f 83/105/1 15/17/1 81/103/1
f 84/106/1 82/104/1 15/17/1
f 85/107/18 15/17/1 83/105/1
f 86/108/1 84/106/1 15/17/1
f 86/108/1 15/17/1 85/107/18
f 14/109/3 18/56/3 4/110/3
f 87/57/3 18/56/3 14/109/3
f 88/111/3 20/110/3 19/112/3
f 89/109/3 20/110/3 88/111/3
f 90/113/26 19/114/27 18/115/26
f 90/113/26 18/115/26 91/116/27
f 92/117/28 91/116/29 93/118/30
f 92/117/28 90/113/31 91/116/29
f 94/119/32 93/118/32 95/120/33
f 94/119/32 92/117/33 93/118/32
f 96/21/34 95/120/34 97/121/34
f 96/21/34 94/119/34 95/120/34
f 98/122/35 96/125/35 97/123/35
f 21/130/5 60/131/5 104/132/5
f 21/130/5 104/132/5 105/133/5
f 7/33/5 60/131/5 21/130/5
f 67/134/5 60/131/5 7/33/5
f 20/35/5 67/134/5 7/33/5
f 89/135/5 67/134/5 20/35/5
f 106/136/5 107/137/5 67/134/5
f 106/136/5 67/134/5 89/135/5
f 24/138/5 22/139/5 108/140/5
f 24/138/5 8/141/5 22/139/5
f 33/142/38 35/143/5 8/141/5
f 29/144/39 24/138/5 23/145/38
f 29/144/39 23/145/38 27/146/5
f 29/144/39 31/147/5 33/142/38
f 29/144/39 8/141/5 24/138/5
f 29/144/39 33/142/38 8/141/5
f 108/148/40 21/149/40 109/150/40
f 108/148/40 22/151/40 21/149/40
f 25/152/1 28/153/1 26/154/1
f 25/152/1 30/155/41 28/153/1
f 25/152/1 32/156/42 30/155/41
f 25/152/1 34/157/21 32/156/42
f 25/152/1 36/158/19 34/157/21
f 25/152/1 5/159/1 36/158/19
f 37/160/1 5/159/1 25/152/1
f 110/161/1 37/160/1 25/152/1
f 55/168/40 37/169/40 110/170/40
f 55/168/40 9/171/40 37/169/40
f 11/196/40 112/197/40 57/198/40
f 11/196/40 46/199/40 112/197/40
f 56/216/1 132/217/72 133/218/73
f 56/216/1 134/219/74 132/217/72
f 56/216/1 135/220/75 134/219/74
f 56/216/1 136/221/20 135/220/75
f 56/216/1 137/222/18 136/221/20
f 56/216/1 114/223/1 137/222/18
f 57/224/1 112/225/1 114/223/1
f 57/224/1 114/223/1 56/216/1
f 138/226/76 58/227/77 56/228/78
f 138/226/76 56/228/78 133/229/79
f 117/242/5 113/243/5 59/244/5
f 141/245/88 142/246/5 143/247/5
f 140/248/89 141/245/88 143/247/5
f 139/249/90 143/247/5 117/242/5
f 139/249/90 140/248/89 143/247/5
f 58/112/90 138/250/91 139/249/90
f 58/112/90 117/242/5 59/244/5
f 58/112/90 139/249/90 117/242/5
f 59/199/40 115/251/40 60/252/40
f 59/199/40 113/253/40 115/251/40
f 67/171/58 144/254/58 68/255/58
f 67/171/58 145/256/58 144/254/58
f 146/257/92 147/258/5 148/259/93
f 146/257/92 148/259/93 149/260/94
f 146/257/92 149/260/94 150/261/95
f 66/262/96 151/263/96 146/257/92
f 66/262/96 150/261/95 152/264/97
f 66/262/96 146/257/92 150/261/95
f 68/265/5 144/266/5 151/263/96
f 68/265/5 151/263/96 66/262/96
f 146/267/43 151/268/43 153/269/43
f 146/267/43 153/269/43 154/270/43
f 147/271/44 154/270/44 155/272/44
f 147/271/44 146/267/44 154/270/44
f 148/273/98 155/272/98 156/274/98
f 148/273/98 147/271/98 155/272/98
f 149/275/99 156/274/99 157/276/99
f 149/275/99 148/273/99 156/274/99
f 150/277/100 157/278/100 158/279/101
f 150/277/100 149/280/101 157/278/100
f 152/281/102 158/279/103 159/282/104
f 152/281/55 159/282/105 63/283/55
f 152/281/102 150/277/106 158/279/103
f 66/284/105 152/281/55 63/283/55
f 153/285/1 160/286/1 64/287/1
f 156/288/19 155/289/107 154/290/108
f 63/291/1 154/290/108 153/285/1
f 63/291/1 157/292/109 156/288/19
f 63/291/1 158/293/110 157/292/109
f 63/291/1 159/294/111 158/293/110
f 63/291/1 153/285/1 64/287/1
f 63/291/1 156/288/19 154/290/108
f 64/256/58 70/295/58 13/296/58
f 64/256/58 160/297/58 70/295/58
f 161/298/40 162/299/40 65/300/40
f 161/298/40 65/300/40 61/301/40
f 65/302/112 163/303/112 62/304/112
f 162/305/112 163/303/112 65/302/112
f 62/306/113 161/307/113 61/308/113
f 163/309/113 161/307/113 62/306/113
f 165/316/76 166/319/116 77/317/114
f 172/333/127 81/348/14 79/332/128
f 180/354/58 14/355/58 78/356/58
f 180/354/58 87/357/58 14/355/58
f 102/358/19 87/359/1 180/360/1
f 18/361/21 87/359/1 102/358/19
f 97/362/130 101/363/131 99/364/132
f 95/365/1 91/366/133 18/361/21
f 95/365/1 93/367/1 91/366/133
f 95/365/1 102/358/19 101/363/131
f 95/365/1 18/361/21 102/358/19
f 95/365/1 101/363/131 97/362/130
f 182/368/58 88/369/58 181/370/58
f 182/368/58 89/371/58 88/369/58
f 103/372/5 19/373/5 90/374/134
f 103/372/5 90/374/134 92/375/96
f 103/372/5 92/375/96 94/376/90
f 103/372/5 94/376/90 96/377/135
f 103/372/5 96/377/135 98/378/136
f 103/372/5 98/378/136 100/379/137
f 88/380/5 19/373/5 103/372/5
f 181/381/5 88/380/5 103/372/5
f 104/132/5 123/382/5 124/383/5
f 104/132/5 122/384/5 123/382/5
f 104/132/5 121/385/5 122/384/5
f 104/132/5 120/386/138 121/385/5
f 104/132/5 119/387/5 120/386/138
f 104/132/5 118/388/5 119/387/5
f 104/132/5 116/389/5 118/388/5
f 60/131/5 115/390/5 116/389/5
f 60/131/5 116/389/5 104/132/5
f 105/133/5 124/383/5 125/391/5
f 105/133/5 125/391/5 126/392/5
f 105/133/5 126/392/5 127/393/5
f 105/133/5 127/393/5 128/394/134
f 105/133/5 104/132/5 124/383/5
f 129/395/5 105/133/5 128/394/134
f 130/396/5 105/133/5 129/395/5
f 131/397/5 105/133/5 130/396/5
f 111/398/5 105/133/5 131/397/5
f 21/130/5 105/133/5 111/398/5
f 109/399/5 21/130/5 111/398/5
f 164/400/5 145/401/5 67/134/5
f 107/137/5 169/402/5 170/403/5
f 107/137/5 170/403/5 171/404/138
f 107/137/5 171/404/138 164/400/5
f 107/137/5 164/400/5 67/134/5
f 168/405/5 169/402/5 107/137/5
f 167/406/134 168/405/5 107/137/5
f 165/407/96 167/406/134 107/137/5
f 166/408/5 165/407/96 107/137/5
f 106/136/5 89/135/5 182/409/5
f 172/410/5 107/137/5 106/136/5
f 172/410/5 166/408/5 107/137/5
f 174/411/5 106/136/5 182/409/5
f 179/412/5 172/410/5 106/136/5
f 173/413/95 106/136/5 174/411/5
f 178/414/5 179/412/5 106/136/5
f 175/415/95 106/136/5 173/413/95
f 177/416/39 178/414/5 106/136/5
f 176/417/5 106/136/5 175/415/95
f 176/417/5 177/416/39 106/136/5
f 163/418/24 162/419/24 161/420/24
usemtl Material.002
f 23/36/6 24/37/6 25/38/6
f 23/36/6 25/38/6 26/39/6
f 27/40/7 26/39/7 28/41/7
f 27/40/7 23/36/7 26/39/7
f 29/42/8 28/41/8 30/43/8
f 29/42/8 27/40/8 28/41/8
f 31/44/9 30/45/10 32/46/11
f 31/44/9 29/47/9 30/45/10
f 33/48/12 32/46/12 34/49/12
f 98/122/35 97/123/35 99/124/35
f 100/126/36 99/124/36 101/127/36
f 100/126/37 101/127/37 102/128/37
f 100/126/36 98/122/36 99/124/36
f 103/129/37 100/126/37 102/128/37
f 110/162/3 54/163/3 55/164/3
f 108/165/3 110/162/3 25/38/3
f 109/166/3 111/167/3 108/165/3
f 24/37/3 108/165/3 25/38/3
f 111/167/3 54/163/3 110/162/3
f 111/167/3 110/162/3 108/165/3
f 112/172/24 46/173/24 45/174/24
f 113/175/24 114/176/24 112/172/24
f 115/177/24 113/175/24 116/178/24
f 117/179/24 114/176/24 113/175/24
f 116/178/24 112/172/24 45/174/24
f 116/178/24 113/175/24 112/172/24
f 118/180/43 116/178/43 45/174/43
f 118/180/43 45/174/43 44/181/43
f 119/182/44 44/181/44 43/183/44
f 119/182/44 118/180/44 44/181/44
f 120/184/45 43/183/46 42/185/46
f 120/184/45 119/182/46 43/183/46
f 121/186/47 42/185/47 41/187/48
f 121/186/47 120/184/47 42/185/47
f 122/188/49 40/189/50 39/190/51
f 122/188/52 41/191/52 40/189/52
f 122/188/52 121/192/53 41/191/52
f 123/193/49 122/188/49 39/190/51
f 124/194/54 39/190/55 38/195/56
f 124/194/54 123/193/57 39/190/55
f 47/200/58 124/194/58 38/195/58
f 47/200/58 125/201/58 124/194/58
f 126/202/26 47/200/59 48/203/60
f 126/202/26 125/201/61 47/200/59
f 127/204/62 48/203/63 49/205/64
f 127/204/62 126/202/65 48/203/63
f 128/206/66 49/205/66 50/207/67
f 128/206/66 127/204/67 49/205/66
f 129/208/68 50/207/68 51/209/68
f 129/208/68 128/206/69 50/207/68
f 130/210/70 51/211/71 52/212/70
f 130/210/36 52/212/36 53/213/36
f 130/210/70 129/214/70 51/211/71
f 131/215/36 130/210/36 53/213/36
f 111/167/37 53/213/37 54/163/37
f 111/167/37 131/215/37 53/213/37
f 139/230/80 133/229/80 132/231/80
f 139/230/80 138/226/80 133/229/80
f 140/232/81 132/231/81 134/233/81
f 140/232/81 139/230/81 132/231/81
f 141/234/82 134/235/83 135/236/83
f 141/234/82 140/237/84 134/235/83
f 142/238/85 135/236/85 136/239/85
f 142/238/85 141/234/85 135/236/85
f 143/240/86 136/239/86 137/241/86
f 143/240/87 137/241/87 114/176/87
f 143/240/86 142/238/86 136/239/86
f 117/179/87 143/240/87 114/176/87
f 160/310/24 69/311/24 70/312/24
f 151/268/24 160/310/24 153/269/24
f 144/313/24 160/310/24 151/268/24
f 164/314/24 144/313/24 145/315/24
f 69/311/24 144/313/24 164/314/24
f 69/311/24 160/310/24 144/313/24
f 165/316/76 77/317/114 76/318/115
f 167/320/117 76/318/118 75/321/119
f 167/320/117 165/316/119 76/318/118
f 168/322/120 75/321/120 74/323/121
f 168/322/120 167/320/120 75/321/120
f 169/324/122 74/325/122 72/326/122
f 169/324/122 168/327/122 74/325/122
f 170/328/85 72/326/85 71/329/85
f 170/328/86 71/329/86 73/330/86
f 170/328/85 169/324/85 72/326/85
f 171/331/86 170/328/86 73/330/86
f 164/314/87 73/330/87 69/311/87
f 164/314/87 171/331/87 73/330/87
f 79/332/40 77/317/40 166/319/40
f 79/332/40 166/319/40 172/333/40
f 173/334/6 174/335/6 80/336/6
f 173/334/6 80/336/6 82/337/6
f 175/338/7 82/337/7 84/339/7
f 175/338/7 173/334/7 82/337/7
f 176/340/8 84/339/8 86/341/8
f 176/340/8 175/338/8 84/339/8
f 177/342/123 86/343/123 85/344/123
f 177/342/123 176/345/123 86/343/123
f 178/346/124 83/347/124 81/348/124
f 178/346/125 85/344/125 83/347/126
f 178/346/125 177/342/126 85/344/125
f 179/349/124 178/346/124 81/348/124
f 172/333/127 179/349/129 81/348/14
f 180/350/3 78/351/3 80/336/3
f 103/129/3 102/128/3 180/350/3
f 181/352/3 103/129/3 180/350/3
f 174/335/3 182/353/3 181/352/3
f 80/336/3 174/335/3 181/352/3
f 80/336/3 181/352/3 180/350/3
