# Blender 5.2.0 LTS
# www.blender.org
mtllib PinHeader.mtl
o obj1
v -9.652039 -4.199890 -1.746951
v -10.160034 -3.691895 0.253049
v -10.160034 -3.691895 -1.746951
v -9.652039 -4.199890 0.253049
v -10.160034 3.692108 0.253049
v -10.160034 3.692108 -1.746951
v -8.420044 -4.199890 -1.746951
v -5.588043 -4.199890 0.253049
v -6.820038 -4.199890 -1.746951
v -5.588043 -4.199890 -1.746951
v 8.419983 4.200104 -1.746951
v 9.651978 4.200104 -1.746951
v 10.159973 3.692108 -1.746951
v 8.419983 0.800110 -1.746951
v 5.079956 3.692108 -1.746951
v 5.587982 4.200104 -1.746951
v 6.819977 4.200104 -1.746951
v 6.819977 0.800110 -1.746951
v 10.159973 -3.691895 -1.746951
v 8.419983 -0.799896 -1.746951
v 9.651978 -4.199890 -1.746951
v 3.339966 0.800110 -1.746951
v 6.819977 -0.799896 -1.746951
v 4.571960 4.200104 -1.746951
v 1.739960 0.800110 -1.746951
v 0.507965 4.200104 -1.746951
v -0.000031 3.692108 -1.746951
v 3.339966 -0.799896 -1.746951
v -1.740021 4.200104 -1.746951
v -0.508026 4.200104 -1.746951
v 5.587982 -4.199890 -1.746951
v 5.079956 -3.691895 -1.746951
v 3.339966 -4.199890 -1.746951
v 4.571960 -4.199890 -1.746951
v -1.740021 0.800110 -1.746951
v -5.080017 3.692108 -1.746951
v -4.572021 4.200104 -1.746951
v -3.340027 4.200104 -1.746951
v -3.340027 0.800110 -1.746951
v -1.740021 -0.799896 -1.746951
v 1.739960 -0.799896 -1.746951
v -0.000031 -3.691895 -1.746951
v 1.739960 -4.199890 -1.746951
v 0.507965 -4.199890 -1.746951
v -0.508026 -4.199890 -1.746951
v -6.820038 0.800110 -1.746951
v -3.340027 -0.799896 -1.746951
v -5.588043 4.200104 -1.746951
v -6.820038 -0.799896 -1.746951
v -8.420044 0.800110 -1.746951
v -9.652039 4.200104 -1.746951
v -4.572021 -4.199890 -1.746951
v -5.080017 -3.691895 -1.746951
v -8.420044 -0.799896 -1.746951
v 8.419983 0.800110 0.253049
v 10.159973 3.692108 0.253049
v 9.651978 4.200104 0.253049
v 6.819977 0.800110 0.253049
v 5.587982 4.200104 0.253049
v 5.079956 3.692108 0.253049
v 8.419983 -0.799896 0.253049
v 10.159973 -3.691895 0.253049
v 9.651978 -4.199890 0.253049
v 3.339966 0.800110 0.253049
v 4.571960 4.200104 0.253049
v 6.819977 -0.799896 0.253049
v 1.739960 0.800110 0.253049
v 0.507965 4.200104 0.253049
v -0.000031 3.692108 0.253049
v 3.339966 -0.799896 0.253049
v 5.587982 -4.199890 0.253049
v 5.079956 -3.691895 0.253049
v 4.571960 -4.199890 0.253049
v -1.740021 0.800110 0.253049
v -0.508026 4.200104 0.253049
v 1.739960 -0.799896 0.253049
v -3.340027 0.800110 0.253049
v -4.572021 4.200104 0.253049
v -5.080017 3.692108 0.253049
v -1.740021 -0.799896 0.253049
v 0.507965 -4.199890 0.253049
v -0.000031 -3.691895 0.253049
v -0.508026 -4.199890 0.253049
v -6.820038 0.800110 0.253049
v -5.588043 4.200104 0.253049
v -8.420044 0.800110 0.253049
v -9.652039 4.200104 0.253049
v -6.820038 -0.799896 0.253049
v -3.340027 -0.799896 0.253049
v -5.080017 -3.691895 0.253049
v -4.572021 -4.199890 0.253049
v -8.420044 -0.799896 0.253049
v -8.420044 -9.399872 -1.746951
v -6.820038 -9.399872 -1.746951
v -3.340027 -0.331268 -2.878321
v -3.340027 -0.494324 -2.687407
v -3.340027 -0.625488 -2.473336
v -3.340027 -0.721588 -2.241378
v -3.340027 -0.780182 -1.997246
v -3.340027 -0.140350 -3.041378
v -3.340027 0.073731 -3.172561
v -3.340027 0.305695 -3.268641
v -3.340027 0.549805 -3.327252
v -3.340027 0.800110 -3.346951
v -3.340027 9.400116 -3.346950
v -3.340027 9.400116 -1.746951
v -1.740021 -0.780182 -1.997246
v -1.740021 -0.721588 -2.241378
v -1.740021 -0.625488 -2.473336
v -1.740021 -0.494324 -2.687407
v -1.740021 -0.331268 -2.878321
v -1.740021 -0.140350 -3.041378
v -1.740021 0.073731 -3.172561
v -1.740021 0.305695 -3.268641
v -1.740021 0.549805 -3.327252
v -1.740021 0.800110 -3.346951
v -1.740021 9.400116 -3.346950
v -1.740021 9.400116 -1.746951
v 6.819977 -0.331268 -2.878321
v 6.819977 -0.494324 -2.687407
v 6.819977 -0.625488 -2.473336
v 6.819977 -0.721588 -2.241378
v 6.819977 -0.780182 -1.997246
v 6.819977 -0.140350 -3.041378
v 6.819977 0.073731 -3.172561
v 6.819977 0.305695 -3.268641
v 6.819977 0.549805 -3.327252
v 6.819977 0.800110 -3.346951
v 6.819977 9.400116 -3.346950
v 6.819977 9.400116 -1.746951
v 8.419983 -0.780182 -1.997246
v 8.419983 -0.721588 -2.241378
v 8.419983 -0.625488 -2.473336
v 8.419983 -0.494324 -2.687407
v 8.419983 -0.331268 -2.878321
v 8.419983 -0.140350 -3.041378
v 8.419983 0.073731 -3.172561
v 8.419983 0.305695 -3.268641
v 8.419983 0.549805 -3.327252
v 8.419983 0.800110 -3.346951
v 8.419983 9.400116 -3.346950
v 8.419983 9.400116 -1.746951
v 3.339966 0.331482 -2.878321
v 3.339966 0.494537 -2.687407
v 3.339966 0.625733 -2.473336
v 3.339966 0.721802 -2.241378
v 3.339966 0.780426 -1.997246
v 3.339966 0.140564 -3.041378
v 3.339966 -0.073486 -3.172561
v 3.339966 -0.305450 -3.268641
v 3.339966 -0.549591 -3.327252
v 3.339966 -0.799896 -3.346951
v 3.339966 -9.399872 -3.346951
v 3.339966 -9.399872 -1.746951
v 1.739960 -0.799896 -3.346951
v 1.739960 -0.549591 -3.327252
v 1.739960 -0.305450 -3.268641
v 1.739960 -0.073486 -3.172561
v 1.739960 0.140564 -3.041378
v 1.739960 0.331482 -2.878321
v 1.739960 0.494537 -2.687407
v 1.739960 0.625733 -2.473336
v 1.739960 0.721802 -2.241378
v 1.739960 0.780426 -1.997246
v 1.739960 -9.399872 -3.346951
v 1.739960 -9.399872 -1.746951
v -6.820038 0.331482 -2.878321
v -6.820038 0.494537 -2.687407
v -6.820038 0.625733 -2.473336
v -6.820038 0.721802 -2.241378
v -6.820038 0.780426 -1.997246
v -6.820038 0.140564 -3.041378
v -6.820038 -0.073486 -3.172561
v -6.820038 -0.305450 -3.268641
v -6.820038 -0.549591 -3.327252
v -6.820038 -0.799896 -3.346951
v -6.820038 -9.399872 -3.346951
v -8.420044 -0.799896 -3.346951
v -8.420044 -0.549591 -3.327252
v -8.420044 -0.305450 -3.268641
v -8.420044 -0.073486 -3.172561
v -8.420044 0.140564 -3.041378
v -8.420044 0.331482 -2.878321
v -8.420044 0.494537 -2.687407
v -8.420044 0.625733 -2.473336
v -8.420044 0.721802 -2.241378
v -8.420044 0.780426 -1.997246
v -8.420044 -9.399872 -3.346951
v 3.339966 -0.799897 11.853049
v 1.739960 -0.799897 11.853049
v 3.339966 0.800109 11.853049
v 1.739960 0.800109 11.853049
v -6.820038 -0.799897 11.853049
v -8.420044 -0.799897 11.853049
v -6.820038 0.800109 11.853049
v -8.420044 0.800109 11.853049
v -3.340027 0.800109 11.853049
v -1.740021 0.800109 11.853049
v -3.340027 -0.799897 11.853049
v -1.740021 -0.799897 11.853049
v 8.419983 -0.799897 11.853049
v 6.819977 -0.799897 11.853049
v 8.419983 0.800109 11.853049
v 6.819977 0.800109 11.853049
v -8.020020 -9.799896 -2.146951
v -7.220032 -9.799896 -2.146951
v -2.940033 9.800110 -2.146950
v -2.940033 9.800110 -2.946950
v -2.140015 9.800110 -2.146950
v -2.140015 9.800110 -2.946950
v 7.219971 9.800110 -2.146950
v 7.219971 9.800110 -2.946950
v 8.019958 9.800110 -2.946950
v 8.019958 9.800110 -2.146950
v 2.939972 -9.799896 -2.946951
v 2.939972 -9.799896 -2.146951
v 2.139984 -9.799896 -2.946951
v 2.139984 -9.799896 -2.146951
v -7.220032 -9.799896 -2.946951
v -8.020020 -9.799896 -2.946951
v 2.139984 -0.399872 12.253050
v 2.939972 -0.399872 12.253050
v 2.939972 0.400115 12.253050
v 2.139984 0.400115 12.253050
v -8.020020 -0.399872 12.253050
v -7.220032 -0.399872 12.253050
v -7.220032 0.400115 12.253050
v -8.020020 0.400115 12.253050
v -2.140015 0.400115 12.253050
v -2.940033 0.400115 12.253050
v -2.940033 -0.399872 12.253050
v -2.140015 -0.399872 12.253050
v 8.019958 -0.399872 12.253050
v 7.219971 -0.399872 12.253050
v 8.019958 0.400115 12.253050
v 7.219971 0.400115 12.253050
vn -0.7071 -0.7071 -0.0000
vn -1.0000 -0.0000 -0.0000
vn -0.0000 -1.0000 -0.0000
vn -0.0000 -0.0000 -1.0000
vn -0.0000 -0.0000 1.0000
vn -0.7071 0.7071 -0.0000
vn 0.7071 -0.7071 -0.0000
vn -0.0000 1.0000 -0.0000
vn 0.7071 0.7071 -0.0000
vn -0.0000 -0.9969 -0.0785
vn -0.0000 -0.9724 -0.2334
vn -0.0000 -0.9239 -0.3828
vn -0.0000 -0.8527 -0.5224
vn -0.0000 -0.7604 -0.6494
vn -0.0000 -0.6494 -0.7604
vn -0.0000 -0.5225 -0.8526
vn -0.0000 -0.3827 -0.9239
vn -0.0000 -0.2335 -0.9724
vn -0.0000 -0.0785 -0.9969
vn 1.0000 -0.0000 -0.0000
vn -0.0000 0.0785 -0.9969
vn -0.0000 0.2334 -0.9724
vn -0.0000 0.3827 -0.9239
vn -0.0000 0.5225 -0.8526
vn -0.0000 0.6494 -0.7604
vn -0.0000 0.7604 -0.6494
vn -0.0000 0.8526 -0.5225
vn -0.0000 0.9239 -0.3826
vn -0.0000 0.9724 -0.2335
vn -0.0000 0.9969 -0.0784
vn -0.0000 -0.7071 0.7071
vn 0.7071 -0.0000 0.7071
vn -0.0000 0.7071 0.7071
vn -0.7071 -0.0000 0.7071
vn -0.0000 0.7071 -0.7071
vn -0.0000 -0.7071 -0.7071
vt 0.445990 0.865461
vt 0.385721 0.850153
vt 0.445990 0.850153
vt 0.385721 0.865461
vt 0.385721 0.627640
vt 0.445990 0.627640
vt 1.000000 0.037125
vt 0.940196 -0.000000
vt 1.000000 -0.000000
vt 0.940196 0.122466
vt 1.000000 0.085341
vt 1.000000 0.122466
vt 0.253129 0.559898
vt 0.253129 0.597024
vt 0.237821 0.612332
vt 0.150672 0.559898
vt 0.237821 0.459248
vt 0.253129 0.474558
vt 0.253129 0.511683
vt 0.150672 0.511683
vt 0.015308 0.612332
vt 0.102457 0.559898
vt 0.000000 0.597024
vt 0.150672 0.406815
vt 0.102457 0.511683
vt 0.253129 0.443940
vt 0.150672 0.358600
vt 0.253129 0.321474
vt 0.237821 0.306166
vt 0.102457 0.406815
vt 0.253129 0.253732
vt 0.253129 0.290858
vt 0.000000 0.474558
vt 0.015308 0.459248
vt 0.000000 0.406815
vt 0.000000 0.443940
vt 0.150672 0.253732
vt 0.237821 0.153083
vt 0.253129 0.168392
vt 0.253129 0.205517
vt 0.150672 0.205517
vt 0.102457 0.253732
vt 0.102457 0.358600
vt 0.015308 0.306166
vt 0.000000 0.358600
vt 0.000000 0.321474
vt 0.000000 0.290858
vt 0.150672 0.100649
vt 0.102457 0.205517
vt 0.253129 0.137774
vt 0.102457 0.100649
vt 0.150672 0.052434
vt 0.253129 0.015308
vt 0.237821 0.000000
vt 0.000000 0.168392
vt 0.015308 0.153083
vt 0.000000 0.100649
vt 0.000000 0.137774
vt 0.015308 0.000000
vt 0.000000 0.052434
vt 0.000000 0.015308
vt 0.102457 0.052434
vt 0.403801 0.052434
vt 0.490950 0.000000
vt 0.506258 0.015308
vt 0.403801 0.100649
vt 0.506258 0.137774
vt 0.490950 0.153083
vt 0.355586 0.052434
vt 0.268437 -0.000000
vt 0.253129 0.015308
vt 0.403801 0.205517
vt 0.506258 0.168392
vt 0.355586 0.100649
vt 0.403801 0.253732
vt 0.506258 0.290858
vt 0.490950 0.306166
vt 0.355586 0.205517
vt 0.253129 0.137774
vt 0.268437 0.153083
vt 0.253129 0.168392
vt 0.403801 0.358600
vt 0.506258 0.321474
vt 0.355586 0.253732
vt 0.403801 0.406815
vt 0.506258 0.443940
vt 0.490950 0.459248
vt 0.355586 0.358600
vt 0.253129 0.290858
vt 0.268437 0.306166
vt 0.253129 0.321474
vt 0.403801 0.511683
vt 0.506258 0.474558
vt 0.403801 0.559898
vt 0.506258 0.597024
vt 0.490950 0.612332
vt 0.355586 0.511683
vt 0.355586 0.406815
vt 0.268437 0.459248
vt 0.253129 0.443940
vt 0.355586 0.559898
vt 0.253129 0.474558
vt 0.253129 0.597024
vt 0.268437 0.612332
vt 0.385721 0.612332
vt 0.445990 0.612332
vt 0.759388 0.705785
vt 0.807603 0.862483
vt 0.759388 0.862483
vt 0.807603 0.705785
vt 0.629226 0.940195
vt 0.644534 0.879926
vt 0.644534 0.940195
vt 0.629226 0.879926
vt 0.494669 0.845693
vt 0.494669 0.723226
vt 0.554473 0.723226
vt 0.554473 0.845693
vt 0.929357 0.940016
vt 0.944665 0.879747
vt 0.944665 0.940016
vt 0.929357 0.879747
vt 0.955504 0.427667
vt 0.940196 0.367399
vt 0.955504 0.367399
vt 0.940196 0.427667
vt 0.554473 0.882818
vt 0.554473 0.931033
vt 0.494669 0.968159
vt 0.554473 0.968159
vt 0.000000 0.883542
vt 0.034093 0.917635
vt 0.028340 0.922549
vt 0.021889 0.926501
vt 0.014899 0.929397
vt 0.007543 0.931163
vt 0.000000 0.931757
vt 0.039007 0.911882
vt 0.042960 0.905431
vt 0.045855 0.898441
vt 0.047621 0.891085
vt 0.048215 0.883542
vt 0.000000 0.781085
vt 0.048215 0.624385
vt 0.000000 0.624385
vt 0.863377 0.741946
vt 0.855819 0.741946
vt 0.855819 0.693730
vt 0.863377 0.693730
vt 0.870896 0.741946
vt 0.870896 0.693730
vt 0.878190 0.741946
vt 0.878190 0.693730
vt 0.885081 0.741946
vt 0.885081 0.693730
vt 0.891399 0.741946
vt 0.891399 0.693730
vt 0.445990 0.618085
vt 0.494205 0.612332
vt 0.494205 0.618085
vt 0.445990 0.624536
vt 0.494205 0.624536
vt 0.445990 0.631526
vt 0.494205 0.631526
vt 0.445990 0.638883
vt 0.494205 0.638883
vt 0.445990 0.646425
vt 0.494205 0.646425
vt 0.192860 0.660547
vt 0.221201 0.621540
vt 0.226954 0.626454
vt 0.214750 0.617588
vt 0.207760 0.614692
vt 0.200403 0.612926
vt 0.192860 0.612332
vt 0.231867 0.632207
vt 0.235820 0.638658
vt 0.238716 0.645648
vt 0.240482 0.653004
vt 0.241076 0.660547
vt 0.192860 0.763004
vt 0.241076 0.919703
vt 0.192860 0.919703
vt 0.955504 0.487936
vt 0.940196 0.487936
vt 0.955504 0.548205
vt 0.940196 0.487936
vt 0.955504 0.487936
vt 0.940196 0.548205
vt 0.819192 0.984949
vt 0.759388 0.862483
vt 0.819192 0.862483
vt 0.759388 0.984949
vt 0.955504 0.608474
vt 0.940196 0.608474
vt 0.940196 0.668743
vt 0.955504 0.668743
vt 0.878997 0.899609
vt 0.819193 0.862483
vt 0.878997 0.862483
vt 0.819193 0.984949
vt 0.878997 0.947824
vt 0.878997 0.984949
vt 0.048215 0.883542
vt 0.082308 0.917635
vt 0.076555 0.922549
vt 0.070104 0.926501
vt 0.063114 0.929397
vt 0.055758 0.931163
vt 0.048215 0.931757
vt 0.087222 0.911882
vt 0.091175 0.905431
vt 0.094070 0.898441
vt 0.095837 0.891085
vt 0.096430 0.883542
vt 0.048215 0.781085
vt 0.096430 0.624385
vt 0.048215 0.624385
vt 0.863377 0.790161
vt 0.855819 0.790161
vt 0.855819 0.741946
vt 0.863377 0.741946
vt 0.870896 0.790161
vt 0.870896 0.741946
vt 0.878191 0.790161
vt 0.878191 0.741946
vt 0.885082 0.790161
vt 0.885082 0.741946
vt 0.891399 0.790161
vt 0.891399 0.741946
vt 0.891980 0.005753
vt 0.940196 0.005753
vt 0.940196 0.012204
vt 0.940196 0.000000
vt 0.891980 0.000000
vt 0.891980 0.012204
vt 0.891980 0.019195
vt 0.940196 0.019195
vt 0.891980 0.026551
vt 0.940196 0.026551
vt 0.891980 0.034093
vt 0.940196 0.034093
vt 0.241076 0.660547
vt 0.269416 0.621540
vt 0.275169 0.626454
vt 0.262965 0.617588
vt 0.255975 0.614692
vt 0.248618 0.612926
vt 0.241076 0.612332
vt 0.280082 0.632207
vt 0.284036 0.638658
vt 0.286931 0.645648
vt 0.288697 0.653004
vt 0.289291 0.660547
vt 0.241076 0.763004
vt 0.289291 0.919703
vt 0.241076 0.919703
vt 0.759388 0.946859
vt 0.699119 0.931551
vt 0.759388 0.931551
vt 0.699119 0.946859
vt 0.699119 0.709038
vt 0.759388 0.709038
vt 0.699119 0.693730
vt 0.759388 0.693730
vt 0.940196 0.244932
vt 0.940196 0.122466
vt 1.000000 0.122466
vt 1.000000 0.244932
vt 0.940196 0.729012
vt 0.955504 0.729012
vt 0.955504 0.789281
vt 0.940196 0.789281
vt 0.445525 0.902586
vt 0.385721 0.865461
vt 0.445525 0.865461
vt 0.445525 0.950802
vt 0.385721 0.987927
vt 0.445525 0.987927
vt 0.096430 0.883542
vt 0.130523 0.917635
vt 0.124770 0.922549
vt 0.118319 0.926502
vt 0.111330 0.929397
vt 0.103973 0.931164
vt 0.096430 0.931757
vt 0.135437 0.911882
vt 0.139390 0.905432
vt 0.142286 0.898442
vt 0.144052 0.891085
vt 0.144645 0.883542
vt 0.096430 0.781085
vt 0.144645 0.624386
vt 0.096430 0.624386
vt 0.891980 0.559948
vt 0.940196 0.552405
vt 0.940196 0.559948
vt 0.891980 0.552405
vt 0.891980 0.567305
vt 0.940196 0.567305
vt 0.891980 0.574295
vt 0.940196 0.574295
vt 0.891980 0.580745
vt 0.940196 0.580745
vt 0.891980 0.586499
vt 0.940196 0.586499
vt 0.885081 0.790161
vt 0.891399 0.838376
vt 0.885081 0.838376
vt 0.891399 0.790161
vt 0.878190 0.790161
vt 0.878190 0.838376
vt 0.870896 0.790161
vt 0.870896 0.838376
vt 0.863377 0.790161
vt 0.863377 0.838376
vt 0.855819 0.790161
vt 0.855819 0.838376
vt 0.289291 0.660547
vt 0.317631 0.621540
vt 0.323384 0.626454
vt 0.311180 0.617587
vt 0.304190 0.614692
vt 0.296833 0.612925
vt 0.289291 0.612332
vt 0.328297 0.632207
vt 0.332251 0.638657
vt 0.335146 0.645647
vt 0.336912 0.653004
vt 0.337506 0.660547
vt 0.289291 0.763004
vt 0.337506 0.919703
vt 0.289291 0.919703
vt 0.955504 0.849549
vt 0.940196 0.849549
vt 0.959973 0.940016
vt 0.959973 0.879747
vt 1.000000 0.367399
vt 0.940196 0.367399
vt 0.970812 0.427667
vt 0.970812 0.367399
vt 0.144645 0.883542
vt 0.178739 0.917635
vt 0.172985 0.922549
vt 0.166535 0.926502
vt 0.159545 0.929397
vt 0.152188 0.931164
vt 0.144645 0.931757
vt 0.183652 0.911882
vt 0.187605 0.905432
vt 0.190501 0.898442
vt 0.192267 0.891085
vt 0.192860 0.883542
vt 0.144645 0.781085
vt 0.192860 0.624386
vt 0.144645 0.624386
vt 0.891980 0.853197
vt 0.940196 0.845654
vt 0.940196 0.853197
vt 0.891980 0.845654
vt 0.891980 0.860554
vt 0.940196 0.860554
vt 0.891980 0.867544
vt 0.940196 0.867544
vt 0.891980 0.873994
vt 0.940196 0.873994
vt 0.891980 0.879747
vt 0.940196 0.879747
vt 0.475253 0.905582
vt 0.481570 0.953797
vt 0.475253 0.953797
vt 0.468361 0.953797
vt 0.481570 0.905582
vt 0.468361 0.905582
vt 0.461067 0.905582
vt 0.461067 0.953797
vt 0.453548 0.905582
vt 0.453548 0.953797
vt 0.445990 0.905582
vt 0.445990 0.953797
vt 0.337506 0.660547
vt 0.365846 0.621540
vt 0.371599 0.626454
vt 0.359395 0.617587
vt 0.352405 0.614692
vt 0.345048 0.612925
vt 0.337506 0.612332
vt 0.376513 0.632207
vt 0.380466 0.638657
vt 0.383361 0.645647
vt 0.385127 0.653004
vt 0.385721 0.660547
vt 0.337506 0.763004
vt 0.385721 0.919703
vt 0.337506 0.919703
vt 0.843765 0.346865
vt 0.795550 0.000000
vt 0.843765 0.000000
vt 0.795550 0.346865
vt 0.554473 0.361613
vt 0.506258 0.361613
vt 0.506258 0.012054
vt 0.554473 0.012054
vt 0.699119 0.000000
vt 0.747335 0.346865
vt 0.699119 0.346865
vt 0.747335 0.000000
vt 0.554473 0.711173
vt 0.602689 0.361613
vt 0.602689 0.711173
vt 0.891980 0.346865
vt 0.891980 0.000000
vt 0.602689 0.012054
vt 0.747335 0.693730
vt 0.650904 0.361613
vt 0.650904 0.711173
vt 0.795550 0.346865
vt 0.650904 0.012054
vt 0.843765 0.346865
vt 0.843765 0.693730
vt 0.795550 0.693730
vt 0.795550 0.346865
vt 0.699119 0.012054
vt 0.699119 0.361613
vt 0.891980 0.693730
vt 0.891980 0.346865
vt 0.699119 0.711173
vt 0.795550 0.693730
vt 0.506258 0.723226
vt 0.506258 0.373667
vt 0.554473 0.373667
vt 0.771443 0.693730
vt 0.795550 0.693730
vt 0.807603 0.850430
vt 0.807603 0.693730
vt 0.855819 0.693730
vt 0.855819 0.850430
vt 0.012054 0.612332
vt 0.036161 0.612332
vt 0.494205 0.905582
vt 0.445990 0.905582
vt 0.204914 0.931757
vt 0.229022 0.931757
vt 0.554473 0.867872
vt 0.602689 0.867872
vt 0.060269 0.612332
vt 0.084376 0.612332
vt 0.940196 0.293250
vt 0.891980 0.293250
vt 0.277237 0.931757
vt 0.253129 0.931757
vt 0.602689 0.723227
vt 0.650904 0.879926
vt 0.602689 0.879926
vt 0.650904 0.723227
vt 0.132592 0.612332
vt 0.108484 0.612332
vt 0.325452 0.931757
vt 0.301344 0.931757
vt 0.156699 0.612332
vt 0.180807 0.612332
vt 0.373667 0.931757
vt 0.349560 0.931757
vt 0.662959 0.747333
vt 0.662959 0.723226
vt 0.650904 0.759388
vt 0.542419 0.000000
vt 0.518312 0.000000
vt 0.687066 0.747333
vt 0.687066 0.723226
vt 0.699119 0.759388
vt 0.662959 0.843764
vt 0.650904 0.807603
vt 0.662959 0.819657
vt 0.650904 0.855819
vt 0.590634 0.000000
vt 0.566527 0.000000
vt 0.687066 0.843764
vt 0.687066 0.819657
vt 0.699119 0.807603
vt 0.699119 0.855819
vt 0.687066 0.771442
vt 0.687066 0.795550
vt 0.614743 0.000000
vt 0.638850 0.000000
vt 0.662959 0.795550
vt 0.662959 0.771442
vt 0.687065 0.000000
vt 0.662958 0.000000
vt 0.662959 0.867873
vt 0.662959 0.891980
vt 0.650904 0.904034
vt 0.699119 0.855819
vt 0.687066 0.867873
vt 0.699119 0.904034
vt 0.687066 0.891980
vt 0.518313 0.361613
vt 0.542420 0.361613
vt 0.615772 0.891980
vt 0.591850 0.916087
vt 0.591850 0.891980
vt 0.615772 0.916087
vt 0.819657 0.862483
vt 0.843765 0.862483
vt 0.674826 0.940195
vt 0.650904 0.940195
vt 0.650904 0.916087
vt 0.674826 0.916087
vt 0.688280 0.904034
vt 0.688280 0.952249
vt 0.590634 0.879926
vt 0.566527 0.879926
vt 0.915902 0.915909
vt 0.891980 0.915909
vt 0.891980 0.891802
vt 0.915902 0.891802
vt 0.929357 0.879747
vt 0.929357 0.927963
vt 0.614743 0.711173
vt 0.638850 0.711173
vt 0.578395 0.891980
vt 0.554473 0.916087
vt 0.554473 0.891980
vt 0.578395 0.916087
vt 0.591850 0.928141
vt 0.591850 0.879926
vt 0.629226 0.879926
vt 0.629226 0.928141
s 1
usemtl Material.001
f 1/1/1 2/2/1 3/3/1
f 1/1/1 4/4/1 2/2/1
f 3/3/2 5/5/2 6/6/2
f 3/3/2 2/2/2 5/5/2
f 7/7/3 4/8/3 1/9/3
f 8/10/3 4/8/3 7/7/3
f 9/11/3 8/10/3 7/7/3
f 10/12/3 8/10/3 9/11/3
f 11/13/4 12/14/4 13/15/4
f 14/16/4 11/13/4 13/15/4
f 15/17/4 16/18/4 17/19/4
f 18/20/4 15/17/4 17/19/4
f 19/21/4 20/22/4 14/16/4
f 19/21/4 14/16/4 13/15/4
f 21/23/4 20/22/4 19/21/4
f 22/24/4 18/20/4 23/25/4
f 22/24/4 24/26/4 15/17/4
f 22/24/4 15/17/4 18/20/4
f 25/27/4 26/28/4 24/26/4
f 25/27/4 27/29/4 26/28/4
f 25/27/4 24/26/4 22/24/4
f 28/30/4 22/24/4 23/25/4
f 29/31/4 30/32/4 27/29/4
f 31/33/4 23/25/4 20/22/4
f 31/33/4 20/22/4 21/23/4
f 32/34/4 28/30/4 23/25/4
f 32/34/4 23/25/4 31/33/4
f 33/35/4 32/34/4 34/36/4
f 33/35/4 28/30/4 32/34/4
f 35/37/4 27/29/4 25/27/4
f 35/37/4 29/31/4 27/29/4
f 36/38/4 37/39/4 38/40/4
f 39/41/4 36/38/4 38/40/4
f 40/42/4 35/37/4 25/27/4
f 40/42/4 25/27/4 41/43/4
f 42/44/4 43/45/4 44/46/4
f 42/44/4 41/43/4 43/45/4
f 42/44/4 40/42/4 41/43/4
f 45/47/4 40/42/4 42/44/4
f 46/48/4 36/38/4 39/41/4
f 46/48/4 39/41/4 47/49/4
f 46/48/4 48/50/4 36/38/4
f 49/51/4 46/48/4 47/49/4
f 50/52/4 48/50/4 46/48/4
f 50/52/4 51/53/4 48/50/4
f 50/52/4 6/54/4 51/53/4
f 52/55/4 40/42/4 45/47/4
f 52/55/4 47/49/4 40/42/4
f 53/56/4 47/49/4 52/55/4
f 53/56/4 49/51/4 47/49/4
f 9/57/4 53/56/4 10/58/4
f 9/57/4 49/51/4 53/56/4
f 3/59/4 7/60/4 1/61/4
f 3/59/4 54/62/4 7/60/4
f 3/59/4 50/52/4 54/62/4
f 3/59/4 6/54/4 50/52/4
f 55/63/5 56/64/5 57/65/5
f 58/66/5 57/65/5 59/67/5
f 58/66/5 59/67/5 60/68/5
f 58/66/5 55/63/5 57/65/5
f 61/69/5 56/64/5 55/63/5
f 62/70/5 56/64/5 61/69/5
f 63/71/5 62/70/5 61/69/5
f 64/72/5 60/68/5 65/73/5
f 64/72/5 66/74/5 58/66/5
f 64/72/5 58/66/5 60/68/5
f 67/75/5 65/73/5 68/76/5
f 67/75/5 68/76/5 69/77/5
f 67/75/5 64/72/5 65/73/5
f 70/78/5 66/74/5 64/72/5
f 71/79/5 61/69/5 66/74/5
f 71/79/5 63/71/5 61/69/5
f 72/80/5 66/74/5 70/78/5
f 72/80/5 71/79/5 66/74/5
f 73/81/5 72/80/5 70/78/5
f 74/82/5 69/77/5 75/83/5
f 74/82/5 76/84/5 67/75/5
f 74/82/5 67/75/5 69/77/5
f 77/85/5 75/83/5 78/86/5
f 77/85/5 78/86/5 79/87/5
f 77/85/5 74/82/5 75/83/5
f 80/88/5 76/84/5 74/82/5
f 81/89/5 70/78/5 76/84/5
f 81/89/5 73/81/5 70/78/5
f 82/90/5 81/89/5 76/84/5
f 82/90/5 76/84/5 80/88/5
f 83/91/5 82/90/5 80/88/5
f 84/92/5 79/87/5 85/93/5
f 84/92/5 77/85/5 79/87/5
f 86/94/5 84/92/5 85/93/5
f 86/94/5 85/93/5 87/95/5
f 86/94/5 87/95/5 5/96/5
f 88/97/5 77/85/5 84/92/5
f 88/97/5 89/98/5 77/85/5
f 90/99/5 89/98/5 88/97/5
f 91/100/5 83/91/5 80/88/5
f 91/100/5 89/98/5 90/99/5
f 91/100/5 80/88/5 89/98/5
f 92/101/5 86/94/5 5/96/5
f 8/102/5 90/99/5 88/97/5
f 4/103/5 8/102/5 88/97/5
f 4/103/5 88/97/5 92/101/5
f 2/104/5 92/101/5 5/96/5
f 2/104/5 4/103/5 92/101/5
f 6/6/6 87/105/6 51/106/6
f 6/6/6 5/5/6 87/105/6
f 53/111/7 8/112/7 10/113/7
f 53/111/7 90/114/7 8/112/7
f 87/115/8 85/116/8 48/117/8
f 51/118/8 87/115/8 48/117/8
f 48/119/9 79/120/9 36/121/9
f 48/119/9 85/122/9 79/120/9
f 37/123/6 79/124/6 78/125/6
f 36/126/6 79/124/6 37/123/6
f 29/127/8 75/115/8 30/118/8
f 38/128/8 78/129/8 75/115/8
f 38/128/8 75/115/8 29/127/8
f 37/130/8 78/129/8 38/128/8
f 27/184/9 75/126/9 69/123/9
f 30/185/9 75/126/9 27/184/9
f 26/186/6 69/187/6 68/188/6
f 27/189/6 69/187/6 26/186/6
f 26/190/8 65/191/8 24/192/8
f 26/190/8 68/193/8 65/191/8
f 15/194/9 65/189/9 60/186/9
f 24/195/9 65/189/9 15/194/9
f 15/196/6 59/194/6 16/197/6
f 15/196/6 60/195/6 59/194/6
f 11/198/8 57/199/8 12/200/8
f 59/201/8 57/199/8 11/198/8
f 17/202/8 59/201/8 11/198/8
f 16/203/8 59/201/8 17/202/8
f 12/258/9 56/259/9 13/260/9
f 12/258/9 57/261/9 56/259/9
f 13/260/20 62/262/20 19/263/20
f 13/260/20 56/259/20 62/262/20
f 19/263/7 63/264/7 21/265/7
f 19/263/7 62/262/7 63/264/7
f 63/266/3 71/267/3 31/268/3
f 21/269/3 63/266/3 31/268/3
f 31/270/1 72/197/1 32/271/1
f 31/270/1 71/196/1 72/197/1
f 34/272/7 72/270/7 73/271/7
f 32/273/7 72/270/7 34/272/7
f 43/274/3 81/275/3 44/276/3
f 33/277/3 73/278/3 81/275/3
f 33/277/3 81/275/3 43/274/3
f 34/279/3 73/278/3 33/277/3
f 42/334/1 81/273/1 82/272/1
f 44/335/1 81/273/1 42/334/1
f 45/336/7 82/120/7 83/337/7
f 42/121/7 82/120/7 45/336/7
f 45/338/3 91/266/3 52/269/3
f 45/338/3 83/339/3 91/266/3
f 53/340/1 91/125/1 90/341/1
f 52/123/1 91/125/1 53/340/1
usemtl Material.002
f 93/107/5 9/108/5 7/109/5
f 93/107/5 94/110/5 9/108/5
f 39/131/2 95/132/2 96/133/2
f 39/131/2 96/133/2 97/134/2
f 39/131/2 97/134/2 98/135/2
f 39/131/2 98/135/2 99/136/2
f 39/131/2 99/136/2 47/137/2
f 100/138/2 95/132/2 39/131/2
f 101/139/2 100/138/2 39/131/2
f 102/140/2 101/139/2 39/131/2
f 103/141/2 102/140/2 39/131/2
f 104/142/2 103/141/2 39/131/2
f 38/143/2 104/142/2 39/131/2
f 105/144/2 38/143/2 106/145/2
f 105/144/2 104/142/2 38/143/2
f 107/146/10 40/147/10 47/148/10
f 107/146/10 47/148/10 99/149/10
f 108/150/11 99/149/11 98/151/11
f 108/150/11 107/146/11 99/149/11
f 109/152/12 98/151/12 97/153/12
f 109/152/12 108/150/12 98/151/12
f 110/154/13 97/153/13 96/155/13
f 110/154/13 109/152/13 97/153/13
f 111/156/14 96/155/14 95/157/14
f 111/156/14 110/154/14 96/155/14
f 112/158/15 95/159/15 100/160/15
f 112/158/15 111/106/15 95/159/15
f 113/161/16 100/160/16 101/162/16
f 113/161/16 112/158/16 100/160/16
f 114/163/17 101/162/17 102/164/17
f 114/163/17 113/161/17 101/162/17
f 115/165/18 102/164/18 103/166/18
f 115/165/18 114/163/18 102/164/18
f 116/167/19 103/166/19 104/168/19
f 116/167/19 115/165/19 103/166/19
f 35/169/20 110/170/20 111/171/20
f 35/169/20 109/172/20 110/170/20
f 35/169/20 108/173/20 109/172/20
f 35/169/20 107/174/20 108/173/20
f 35/169/20 40/175/20 107/174/20
f 112/176/20 35/169/20 111/171/20
f 113/177/20 35/169/20 112/176/20
f 114/178/20 35/169/20 113/177/20
f 115/179/20 35/169/20 114/178/20
f 116/180/20 35/169/20 115/179/20
f 29/181/20 35/169/20 116/180/20
f 117/182/20 118/183/20 29/181/20
f 117/182/20 29/181/20 116/180/20
f 18/204/2 119/205/2 120/206/2
f 18/204/2 120/206/2 121/207/2
f 18/204/2 121/207/2 122/208/2
f 18/204/2 122/208/2 123/209/2
f 18/204/2 123/209/2 23/210/2
f 124/211/2 119/205/2 18/204/2
f 125/212/2 124/211/2 18/204/2
f 126/213/2 125/212/2 18/204/2
f 127/214/2 126/213/2 18/204/2
f 128/215/2 127/214/2 18/204/2
f 17/216/2 128/215/2 18/204/2
f 129/217/2 17/216/2 130/218/2
f 129/217/2 128/215/2 17/216/2
f 131/219/10 20/220/10 23/221/10
f 131/219/10 23/221/10 123/222/10
f 132/223/11 123/222/11 122/224/11
f 132/223/11 131/219/11 123/222/11
f 133/225/12 122/224/12 121/226/12
f 133/225/12 132/223/12 122/224/12
f 134/227/13 121/226/13 120/228/13
f 134/227/13 133/225/13 121/226/13
f 135/229/14 120/228/14 119/230/14
f 135/229/14 134/227/14 120/228/14
f 136/231/16 124/232/16 125/233/16
f 136/231/15 119/234/15 124/232/15
f 136/231/15 135/235/15 119/234/15
f 137/236/16 136/231/16 125/233/16
f 138/237/17 125/233/17 126/238/17
f 138/237/17 137/236/17 125/233/17
f 139/239/18 126/238/18 127/240/18
f 139/239/18 138/237/18 126/238/18
f 140/241/19 127/240/19 128/242/19
f 140/241/19 139/239/19 127/240/19
f 14/243/20 134/244/20 135/245/20
f 14/243/20 133/246/20 134/244/20
f 14/243/20 132/247/20 133/246/20
f 14/243/20 131/248/20 132/247/20
f 14/243/20 20/249/20 131/248/20
f 136/250/20 14/243/20 135/245/20
f 137/251/20 14/243/20 136/250/20
f 138/252/20 14/243/20 137/251/20
f 139/253/20 14/243/20 138/252/20
f 140/254/20 14/243/20 139/253/20
f 11/255/20 14/243/20 140/254/20
f 141/256/20 142/257/20 11/255/20
f 141/256/20 11/255/20 140/254/20
f 28/280/20 143/281/20 144/282/20
f 28/280/20 144/282/20 145/283/20
f 28/280/20 145/283/20 146/284/20
f 28/280/20 146/284/20 147/285/20
f 28/280/20 147/285/20 22/286/20
f 148/287/20 143/281/20 28/280/20
f 149/288/20 148/287/20 28/280/20
f 150/289/20 149/288/20 28/280/20
f 151/290/20 150/289/20 28/280/20
f 152/291/20 151/290/20 28/280/20
f 33/292/20 152/291/20 28/280/20
f 153/293/20 33/292/20 154/294/20
f 153/293/20 152/291/20 33/292/20
f 151/295/21 155/296/21 156/297/21
f 151/295/21 152/298/21 155/296/21
f 150/299/22 156/297/22 157/300/22
f 150/299/22 151/295/22 156/297/22
f 149/301/23 157/300/23 158/302/23
f 149/301/23 150/299/23 157/300/23
f 148/303/24 158/302/24 159/304/24
f 148/303/24 149/301/24 158/302/24
f 143/305/25 159/304/25 160/306/25
f 143/305/25 148/303/25 159/304/25
f 144/307/26 160/308/26 161/309/26
f 144/307/26 143/310/26 160/308/26
f 145/311/27 161/309/27 162/312/27
f 145/311/27 144/307/27 161/309/27
f 146/313/28 162/312/28 163/314/28
f 146/313/28 145/311/28 162/312/28
f 147/315/29 163/314/29 164/316/29
f 147/315/29 146/313/29 163/314/29
f 22/317/30 164/316/30 25/318/30
f 22/317/30 147/315/30 164/316/30
f 41/319/2 161/320/2 160/321/2
f 41/319/2 162/322/2 161/320/2
f 41/319/2 163/323/2 162/322/2
f 41/319/2 164/324/2 163/323/2
f 41/319/2 25/325/2 164/324/2
f 159/326/2 41/319/2 160/321/2
f 158/327/2 41/319/2 159/326/2
f 157/328/2 41/319/2 158/327/2
f 156/329/2 41/319/2 157/328/2
f 155/330/2 41/319/2 156/329/2
f 43/331/2 41/319/2 155/330/2
f 165/332/2 166/333/2 43/331/2
f 165/332/2 43/331/2 155/330/2
f 49/342/20 167/343/20 168/344/20
f 49/342/20 168/344/20 169/345/20
f 49/342/20 169/345/20 170/346/20
f 49/342/20 170/346/20 171/347/20
f 49/342/20 171/347/20 46/348/20
f 172/349/20 167/343/20 49/342/20
f 173/350/20 172/349/20 49/342/20
f 174/351/20 173/350/20 49/342/20
f 175/352/20 174/351/20 49/342/20
f 176/353/20 175/352/20 49/342/20
f 9/354/20 176/353/20 49/342/20
f 177/355/20 9/354/20 94/356/20
f 177/355/20 176/353/20 9/354/20
f 175/357/21 178/358/21 179/359/21
f 175/357/21 176/360/21 178/358/21
f 174/361/22 179/359/22 180/362/22
f 174/361/22 175/357/22 179/359/22
f 173/363/23 180/362/23 181/364/23
f 173/363/23 174/361/23 180/362/23
f 172/365/24 181/364/24 182/366/24
f 172/365/24 173/363/24 181/364/24
f 167/367/25 182/366/25 183/368/25
f 167/367/25 172/365/25 182/366/25
f 168/369/26 183/370/26 184/371/26
f 168/369/27 184/371/27 185/372/27
f 168/369/26 167/373/26 183/370/26
f 169/374/27 168/369/27 185/372/27
f 170/375/28 185/372/28 186/376/28
f 170/375/28 169/374/28 185/372/28
f 171/377/29 186/376/29 187/378/29
f 171/377/29 170/375/29 186/376/29
f 46/379/30 187/378/30 50/380/30
f 46/379/30 171/377/30 187/378/30
f 54/381/2 184/382/2 183/383/2
f 54/381/2 185/384/2 184/382/2
f 54/381/2 186/385/2 185/384/2
f 54/381/2 187/386/2 186/385/2
f 54/381/2 50/387/2 187/386/2
f 182/388/2 54/381/2 183/383/2
f 181/389/2 54/381/2 182/388/2
f 180/390/2 54/381/2 181/389/2
f 179/391/2 54/381/2 180/390/2
f 178/392/2 54/381/2 179/391/2
f 7/393/2 54/381/2 178/392/2
f 188/394/2 93/395/2 7/393/2
f 188/394/2 7/393/2 178/392/2
f 76/396/3 189/397/3 190/398/3
f 76/396/3 70/399/3 189/397/3
f 70/400/20 64/401/20 191/402/20
f 70/400/20 191/402/20 189/403/20
f 192/404/8 64/405/8 67/406/8
f 192/404/8 191/407/8 64/405/8
f 76/408/2 192/409/2 67/410/2
f 76/408/2 190/400/2 192/409/2
f 92/411/3 193/398/3 194/412/3
f 92/411/3 88/396/3 193/398/3
f 88/409/20 84/400/20 195/403/20
f 88/409/20 195/403/20 193/413/20
f 195/405/8 84/414/8 86/264/8
f 196/406/8 195/405/8 86/264/8
f 92/410/2 196/415/2 86/416/2
f 92/410/2 194/409/2 196/415/2
f 74/417/8 197/407/8 198/397/8
f 77/405/8 197/407/8 74/417/8
f 77/415/2 89/409/2 199/413/2
f 77/415/2 199/413/2 197/418/2
f 199/419/3 89/420/3 80/421/3
f 199/419/3 80/421/3 200/422/3
f 74/415/20 200/423/20 80/424/20
f 74/415/20 198/418/20 200/423/20
f 201/419/3 66/425/3 61/420/3
f 202/426/3 66/425/3 201/419/3
f 55/416/20 201/424/20 61/427/20
f 55/416/20 203/415/20 201/424/20
f 58/414/8 204/405/8 203/417/8
f 58/414/8 203/417/8 55/428/8
f 58/117/2 66/429/2 202/430/2
f 58/117/2 202/430/2 204/431/2
f 205/432/31 206/433/31 94/110/31
f 205/432/31 94/110/31 93/107/31
f 106/434/5 38/435/5 29/436/5
f 106/434/5 29/436/5 118/437/5
f 207/438/6 208/439/6 105/144/6
f 207/438/6 105/144/6 106/145/6
f 116/167/4 105/440/4 117/441/4
f 104/168/4 105/440/4 116/167/4
f 117/182/9 209/442/9 118/183/9
f 117/182/9 210/443/9 209/442/9
f 130/444/5 17/408/5 11/410/5
f 130/444/5 11/410/5 142/445/5
f 211/446/6 212/447/6 129/217/6
f 211/446/6 129/217/6 130/218/6
f 140/241/4 129/448/4 141/449/4
f 128/242/4 129/448/4 140/241/4
f 213/450/9 214/451/9 142/257/9
f 141/256/9 213/450/9 142/257/9
f 166/452/5 33/453/5 43/454/5
f 166/452/5 154/455/5 33/453/5
f 154/294/7 215/456/7 153/293/7
f 154/294/7 216/457/7 215/456/7
f 152/298/4 153/449/4 165/448/4
f 155/296/4 152/298/4 165/448/4
f 217/458/1 218/459/1 166/333/1
f 217/458/1 166/333/1 165/332/1
f 206/460/7 219/461/7 177/355/7
f 94/356/7 206/460/7 177/355/7
f 176/360/4 177/305/4 188/306/4
f 178/358/4 176/360/4 188/306/4
f 220/462/1 205/463/1 93/395/1
f 220/462/1 93/395/1 188/394/1
f 221/464/31 189/416/31 222/465/31
f 190/466/31 189/416/31 221/464/31
f 222/467/32 191/402/32 223/468/32
f 222/467/32 189/403/32 191/402/32
f 224/469/33 223/470/33 191/427/33
f 224/469/33 191/427/33 192/471/33
f 190/466/34 224/469/34 192/471/34
f 221/464/34 224/469/34 190/466/34
f 225/472/31 193/473/31 226/474/31
f 194/475/31 193/473/31 225/472/31
f 226/476/32 195/403/32 227/477/32
f 226/476/32 193/413/32 195/403/32
f 228/478/33 227/479/33 195/480/33
f 228/478/33 195/480/33 196/481/33
f 194/475/34 228/478/34 196/481/34
f 225/472/34 228/478/34 194/475/34
f 229/482/33 197/480/33 230/483/33
f 198/471/33 197/480/33 229/482/33
f 231/484/34 230/485/34 197/418/34
f 231/484/34 197/418/34 199/413/34
f 200/466/31 231/486/31 199/473/31
f 232/487/31 231/486/31 200/466/31
f 232/488/32 198/418/32 229/489/32
f 232/488/32 200/423/32 198/418/32
f 233/490/31 234/491/31 202/492/31
f 233/490/31 202/492/31 201/475/31
f 233/490/32 203/493/32 235/494/32
f 233/490/32 201/475/32 203/493/32
f 235/494/33 204/495/33 236/496/33
f 203/493/33 204/495/33 235/494/33
f 234/497/34 236/498/34 204/431/34
f 234/497/34 204/431/34 202/430/34
f 220/499/3 206/500/3 205/501/3
f 220/499/3 219/502/3 206/500/3
f 118/437/33 207/503/33 106/434/33
f 209/504/33 207/503/33 118/437/33
f 208/505/8 207/506/8 209/507/8
f 208/505/8 209/507/8 210/508/8
f 208/505/35 210/508/35 117/509/35
f 208/505/35 117/509/35 105/510/35
f 214/511/33 211/512/33 130/444/33
f 214/511/33 130/444/33 142/445/33
f 212/513/8 211/514/8 214/515/8
f 212/513/8 214/515/8 213/516/8
f 212/513/35 213/516/35 141/517/35
f 212/513/35 141/517/35 129/518/35
f 218/519/31 216/520/31 154/455/31
f 218/519/31 154/455/31 166/452/31
f 217/521/3 216/522/3 218/523/3
f 217/521/3 215/524/3 216/522/3
f 153/525/36 217/521/36 165/526/36
f 215/524/36 217/521/36 153/525/36
f 219/502/36 220/499/36 188/527/36
f 219/502/36 188/527/36 177/528/36
f 224/469/5 222/465/5 223/470/5
f 221/464/5 222/465/5 224/469/5
f 225/472/5 226/474/5 227/479/5
f 225/472/5 227/479/5 228/478/5
f 230/483/5 231/486/5 232/487/5
f 230/483/5 232/487/5 229/482/5
f 236/496/5 234/491/5 233/490/5
f 236/496/5 233/490/5 235/494/5
