# Blender 5.2.0 LTS
# www.blender.org
mtllib sot.mtl
o obj1
v 0.961151 5.866440 -0.308394
v 3.247650 5.732925 -1.258394
v -1.325317 5.732925 -1.258394
v 3.381165 5.999954 0.641606
v -1.458832 5.999954 0.641606
v 3.494141 5.486435 -1.258394
v -1.571808 5.486435 -1.258394
v 3.494141 -5.486526 -1.258394
v -1.571808 -5.486526 -1.258394
v 3.247650 -5.733017 -1.258394
v -1.325317 -5.733017 -1.258394
v 3.471039 5.709824 -0.308394
v 3.761169 5.619949 0.641606
v 3.381165 5.999954 1.241606
v -1.458832 5.999954 1.241606
v -1.548706 5.709824 -0.308394
v -1.838837 5.619949 0.641606
v 3.761169 0.799942 0.641606
v 3.761169 -0.800034 0.641606
v 3.761169 -5.620041 0.641606
v 3.471039 -5.709915 -0.308394
v 3.381165 -6.000046 0.641606
v 0.961151 -5.866531 -0.308394
v -1.458832 -6.000046 0.641606
v -1.548706 -5.709915 -0.308394
v -1.838837 -5.620041 0.641606
v -1.838837 -4.600052 0.641606
v -1.838837 -3.000046 0.641606
v -1.838837 2.999954 0.641606
v -1.838837 4.599960 0.641606
v 3.761169 5.619949 1.241606
v 3.331177 5.899948 1.241606
v -1.408844 5.899948 1.241606
v -1.838837 5.619949 1.241606
v 3.761169 0.799942 1.241606
v 3.761169 -5.620041 1.241606
v 3.761169 -0.800034 1.241606
v 3.850189 0.799942 0.631577
v 3.850189 -0.800034 0.631577
v 3.934723 0.799942 0.601994
v 3.934723 -0.800034 0.601994
v 4.010559 0.799942 0.554339
v 4.010559 -0.800034 0.554338
v 4.073914 0.799942 0.491002
v 4.073914 -0.800034 0.491002
v 4.121552 0.799942 0.415159
v 4.121552 -0.800034 0.415159
v 4.151123 0.799942 0.330614
v 4.151123 -0.800034 0.330614
v 4.161163 0.799942 0.241606
v 4.161163 -0.800034 0.241606
v 3.381165 -6.000046 1.241606
v -1.458832 -6.000046 1.241606
v -1.838837 -5.620041 1.241606
v -1.838837 -4.600052 1.241606
v -1.838837 4.599960 1.241606
v -1.927856 -4.600052 0.631577
v -1.927856 -3.000046 0.631577
v -2.012390 -4.600052 0.601993
v -2.012390 -3.000046 0.601993
v -2.088226 -4.600052 0.554338
v -2.088226 -3.000046 0.554338
v -2.151581 -4.600052 0.491002
v -2.151581 -3.000046 0.491002
v -2.199219 -4.600052 0.415159
v -2.199219 -3.000046 0.415159
v -2.228790 -4.600052 0.330614
v -2.228790 -3.000046 0.330614
v -2.238831 -4.600052 0.241606
v -2.238831 -3.000046 0.241606
v -1.927856 2.999954 0.631577
v -1.927856 4.599960 0.631577
v -2.012390 2.999954 0.601994
v -2.012390 4.599960 0.601994
v -2.088226 2.999954 0.554339
v -2.088226 4.599960 0.554339
v -2.151581 2.999954 0.491002
v -2.151581 4.599960 0.491002
v -2.199219 2.999954 0.415160
v -2.199219 4.599960 0.415160
v -2.228790 2.999954 0.330614
v -2.228790 4.599960 0.330615
v -2.238831 2.999954 0.241606
v -2.238831 4.599960 0.241606
v -1.838837 2.999954 1.241606
v -1.838837 -3.000046 1.241606
v 3.661163 5.569962 1.241606
v 0.961151 5.766434 2.191606
v 3.197662 5.632919 3.141606
v -1.275330 5.632919 3.141606
v -1.738831 5.569962 1.241606
v 3.661163 0.799942 1.241606
v 5.161163 0.799942 -1.058394
v 5.161163 0.799942 -1.658394
v 4.966064 0.799942 -1.639179
v 5.961151 0.799942 -1.658394
v 5.961151 0.799942 -1.058394
v 5.072144 0.799942 -1.048365
v 4.778473 0.799942 -1.582274
v 4.987610 0.799942 -1.018782
v 4.605591 0.799942 -1.489864
v 4.911774 0.799942 -0.971127
v 4.454071 0.799942 -1.365501
v 4.848419 0.799942 -0.907790
v 4.329681 0.799942 -1.213964
v 4.800781 0.799942 -0.831948
v 4.237274 0.799942 -1.041078
v 4.771210 0.799942 -0.747402
v 4.180389 0.799942 -0.853484
v 4.761169 0.799942 -0.658394
v 4.161163 0.799942 -0.658394
v 4.761169 0.799942 0.241606
v 4.741943 0.799942 0.436696
v 4.685059 0.799942 0.624289
v 4.592621 0.799942 0.797176
v 4.468262 0.799942 0.948713
v 4.316742 0.799942 1.073076
v 4.143860 0.799942 1.165485
v 3.956268 0.799942 1.222391
v 5.161163 -0.800034 -1.058394
v 4.966064 -0.800034 -1.639179
v 5.161163 -0.800034 -1.658394
v 5.961151 -0.800034 -1.658394
v 5.961151 -0.800034 -1.058394
v 5.072144 -0.800034 -1.048365
v 4.778473 -0.800034 -1.582274
v 4.987610 -0.800034 -1.018782
v 4.605591 -0.800034 -1.489864
v 4.911774 -0.800034 -0.971127
v 4.454071 -0.800034 -1.365501
v 4.848419 -0.800034 -0.907790
v 4.329681 -0.800034 -1.213964
v 4.800781 -0.800034 -0.831948
v 4.237274 -0.800034 -1.041078
v 4.771210 -0.800034 -0.747402
v 4.180389 -0.800034 -0.853484
v 4.761169 -0.800034 -0.658394
v 4.161163 -0.800034 -0.658394
v 4.761169 -0.800034 0.241606
v 4.741943 -0.800034 0.436696
v 4.685059 -0.800034 0.624289
v 4.592621 -0.800034 0.797176
v 4.468262 -0.800034 0.948713
v 4.316742 -0.800034 1.073076
v 4.143860 -0.800034 1.165485
v 3.956268 -0.800034 1.222391
v 3.661163 -0.800034 1.241606
v 3.661163 -5.570053 1.241606
v 3.331177 -5.900040 1.241606
v -1.408844 -5.900040 1.241606
v -1.738831 -5.570053 1.241606
v -1.738831 -4.600052 1.241606
v -3.238831 -4.600052 -1.058394
v -3.238831 -4.600052 -1.658394
v -3.043732 -4.600052 -1.639180
v -4.038849 -4.600052 -1.658394
v -4.038849 -4.600052 -1.058394
v -3.149811 -4.600052 -1.048365
v -2.856140 -4.600052 -1.582274
v -3.065277 -4.600052 -1.018782
v -2.683258 -4.600052 -1.489864
v -2.989441 -4.600052 -0.971127
v -2.531738 -4.600052 -1.365501
v -2.926086 -4.600052 -0.907790
v -2.407379 -4.600052 -1.213965
v -2.878448 -4.600052 -0.831948
v -2.314941 -4.600052 -1.041078
v -2.848877 -4.600052 -0.747403
v -2.258057 -4.600052 -0.853485
v -2.838837 -4.600052 -0.658394
v -2.238831 -4.600052 -0.658394
v -2.838837 -4.600052 0.241606
v -2.819611 -4.600052 0.436696
v -2.762726 -4.600052 0.624289
v -2.670319 -4.600052 0.797176
v -2.545929 -4.600052 0.948712
v -2.394409 -4.600052 1.073075
v -2.221527 -4.600052 1.165485
v -2.033936 -4.600052 1.222391
v -3.238831 4.599960 -1.058394
v -3.043732 4.599960 -1.639179
v -3.238831 4.599960 -1.658394
v -4.038849 4.599960 -1.658394
v -4.038849 4.599960 -1.058394
v -3.149811 4.599960 -1.048365
v -2.856140 4.599960 -1.582273
v -3.065277 4.599960 -1.018781
v -2.683258 4.599960 -1.489863
v -2.989441 4.599960 -0.971126
v -2.531738 4.599960 -1.365501
v -2.926086 4.599960 -0.907790
v -2.407379 4.599960 -1.213964
v -2.878448 4.599960 -0.831947
v -2.314941 4.599960 -1.041077
v -2.848877 4.599960 -0.747402
v -2.258057 4.599960 -0.853484
v -2.838837 4.599960 -0.658394
v -2.238831 4.599960 -0.658394
v -2.838837 4.599960 0.241606
v -2.819611 4.599960 0.436696
v -2.762726 4.599960 0.624289
v -2.670319 4.599960 0.797176
v -2.545929 4.599960 0.948713
v -2.394409 4.599960 1.073076
v -2.221527 4.599960 1.165486
v -2.033936 4.599960 1.222391
v -1.738831 4.599960 1.241606
v -3.238831 -3.000046 -1.058394
v -3.043732 -3.000046 -1.639180
v -3.238831 -3.000046 -1.658394
v -4.038849 -3.000046 -1.658394
v -4.038849 -3.000046 -1.058394
v -3.149811 -3.000046 -1.048365
v -2.856140 -3.000046 -1.582274
v -3.065277 -3.000046 -1.018782
v -2.683258 -3.000046 -1.489864
v -2.989441 -3.000046 -0.971127
v -2.531738 -3.000046 -1.365501
v -2.926086 -3.000046 -0.907790
v -2.407379 -3.000046 -1.213964
v -2.878448 -3.000046 -0.831948
v -2.314941 -3.000046 -1.041078
v -2.848877 -3.000046 -0.747403
v -2.258057 -3.000046 -0.853485
v -2.838837 -3.000046 -0.658394
v -2.238831 -3.000046 -0.658394
v -2.838837 -3.000046 0.241606
v -2.819611 -3.000046 0.436696
v -2.762726 -3.000046 0.624289
v -2.670319 -3.000046 0.797176
v -2.545929 -3.000046 0.948712
v -2.394409 -3.000046 1.073075
v -2.221527 -3.000046 1.165485
v -2.033936 -3.000046 1.222391
v -3.238831 2.999954 -1.058394
v -3.238831 2.999954 -1.658394
v -3.043732 2.999954 -1.639179
v -4.038849 2.999954 -1.658394
v -4.038849 2.999954 -1.058394
v -3.149811 2.999954 -1.048365
v -2.856140 2.999954 -1.582274
v -3.065277 2.999954 -1.018782
v -2.683258 2.999954 -1.489864
v -2.989441 2.999954 -0.971127
v -2.531738 2.999954 -1.365501
v -2.926086 2.999954 -0.907790
v -2.407379 2.999954 -1.213964
v -2.878448 2.999954 -0.831947
v -2.314941 2.999954 -1.041077
v -2.848877 2.999954 -0.747402
v -2.258057 2.999954 -0.853484
v -2.838837 2.999954 -0.658394
v -2.238831 2.999954 -0.658394
v -2.838837 2.999954 0.241606
v -2.819611 2.999954 0.436696
v -2.762726 2.999954 0.624289
v -2.670319 2.999954 0.797176
v -2.545929 2.999954 0.948713
v -2.394409 2.999954 1.073076
v -2.221527 2.999954 1.165486
v -2.033936 2.999954 1.222391
v -1.738831 2.999954 1.241606
v -1.738831 -3.000046 1.241606
v 3.396027 5.634811 2.191606
v 3.394135 5.436447 3.141606
v -1.471802 5.436447 3.141606
v -1.471802 -5.436539 3.141606
v 3.197662 -5.633011 3.141606
v -1.275330 -5.633011 3.141606
v 3.394135 -5.436539 3.141606
v -1.473694 5.634811 2.191606
v 3.396027 -5.634903 2.191606
v 0.961151 -5.766525 2.191606
v -1.473694 -5.634903 2.191606
vn -0.0000 0.9903 -0.1392
vn -0.0000 -0.0000 -1.0000
vn 0.6994 0.6994 -0.1474
vn -0.0000 1.0000 -0.0000
vn -0.6994 0.6994 -0.1474
vn 0.9903 -0.0000 -0.1392
vn 0.6994 -0.6994 -0.1474
vn 0.6996 -0.6991 -0.1474
vn -0.0000 -0.9903 -0.1392
vn -0.6994 -0.6994 -0.1474
vn -0.9903 -0.0000 -0.1392
vn 0.7071 0.7071 -0.0000
vn -0.0000 -0.0000 1.0000
vn -0.7071 0.7071 -0.0000
vn 1.0000 -0.0000 -0.0000
vn -0.1120 -0.0000 -0.9937
vn -0.1119 -0.0000 -0.9937
vn -0.3303 -0.0000 -0.9439
vn -0.5321 -0.0000 -0.8467
vn -0.7070 -0.0000 -0.7072
vn -0.8468 -0.0000 -0.5319
vn -0.9439 -0.0000 -0.3302
vn -0.9937 -0.0000 -0.1121
vn 0.7071 -0.7071 -0.0000
vn -0.0000 -1.0000 -0.0000
vn -0.7071 -0.7071 -0.0000
vn -1.0000 -0.0000 -0.0000
vn 0.1120 -0.0000 -0.9937
vn 0.1119 -0.0000 -0.9937
vn 0.3303 -0.0000 -0.9439
vn 0.5321 -0.0000 -0.8467
vn 0.7070 -0.0000 -0.7072
vn 0.8468 -0.0000 -0.5319
vn 0.9439 -0.0000 -0.3302
vn 0.9937 -0.0000 -0.1121
vn -0.0000 0.9903 0.1392
vn 0.6994 0.6994 0.1474
vn -0.6994 0.6994 0.1474
vn 0.9903 -0.0000 0.1392
vn 0.0980 -0.0000 0.9952
vn 0.2903 -0.0000 0.9569
vn 0.4714 -0.0000 0.8819
vn 0.6344 -0.0000 0.7730
vn 0.7730 -0.0000 0.6344
vn 0.8819 -0.0000 0.4715
vn 0.9570 -0.0000 0.2902
vn 0.9952 -0.0000 0.0981
vn 0.1119 -0.0000 0.9937
vn 0.1120 -0.0000 0.9937
vn 0.3303 -0.0000 0.9439
vn 0.5321 -0.0000 0.8467
vn 0.7070 -0.0000 0.7072
vn 0.8468 -0.0000 0.5319
vn 0.9439 -0.0000 0.3302
vn 0.9937 -0.0000 0.1121
vn -0.0980 -0.0000 -0.9952
vn -0.2903 -0.0000 -0.9569
vn -0.4714 -0.0000 -0.8819
vn -0.6344 -0.0000 -0.7730
vn -0.7729 -0.0000 -0.6345
vn -0.8819 -0.0000 -0.4714
vn -0.9570 -0.0000 -0.2902
vn -0.9952 -0.0000 -0.0981
vn 0.6994 -0.6994 0.1474
vn -0.0000 -0.9903 0.1392
vn -0.6994 -0.6994 0.1474
vn -0.9903 -0.0000 0.1392
vn -0.0980 -0.0000 0.9952
vn -0.2903 -0.0000 0.9569
vn -0.4714 -0.0000 0.8819
vn -0.6344 -0.0000 0.7730
vn -0.7729 -0.0000 0.6345
vn -0.8819 -0.0000 0.4714
vn -0.9570 -0.0000 0.2902
vn -0.9952 -0.0000 0.0981
vn -0.1120 -0.0000 0.9937
vn -0.1119 -0.0000 0.9937
vn -0.3303 -0.0000 0.9439
vn -0.5321 -0.0000 0.8467
vn -0.7070 -0.0000 0.7072
vn -0.8468 -0.0000 0.5319
vn -0.9439 -0.0000 0.3302
vn -0.9937 -0.0000 0.1121
vn 0.0980 -0.0000 -0.9952
vn 0.2903 -0.0000 -0.9569
vn 0.4714 -0.0000 -0.8819
vn 0.6344 -0.0000 -0.7730
vn 0.7730 -0.0000 -0.6344
vn 0.8819 -0.0000 -0.4715
vn 0.9570 -0.0000 -0.2902
vn 0.9952 -0.0000 -0.0981
vt 0.672284 0.610502
vt 0.713517 0.511261
vt 0.713517 0.709741
vt 0.631051 0.505466
vt 0.631051 0.715536
vt 0.511955 0.497654
vt 0.314111 0.497654
vt 0.303447 0.486956
vt 0.522619 0.486956
vt 0.303447 0.010698
vt 0.522619 0.010698
vt 0.314111 -0.000000
vt 0.511955 -0.000000
vt 0.672284 0.501566
vt 0.713517 0.500563
vt 0.631051 0.488973
vt 0.605010 0.505466
vt 0.605010 0.715536
vt 0.800481 0.012592
vt 0.841775 0.011590
vt 0.841707 0.022288
vt 0.759274 -0.000000
vt 0.759170 0.016493
vt 0.867816 0.278645
vt 0.950193 0.482052
vt 0.867816 0.487847
vt 0.950193 0.005795
vt 0.867816 0.209202
vt 0.867816 0.000000
vt 0.370722 0.728118
vt 0.411954 0.718422
vt 0.411954 0.729120
vt 0.329489 0.724217
vt 0.329489 0.740710
vt 0.370722 0.619182
vt 0.411954 0.519942
vt 0.329489 0.514148
vt 0.800481 0.508241
vt 0.841707 0.498546
vt 0.841775 0.509244
vt 0.759170 0.504341
vt 0.759274 0.520834
vt 0.759170 0.460070
vt 0.759170 0.390625
vt 0.759170 0.130208
vt 0.759170 0.060764
vt 0.605010 0.488973
vt 0.048169 0.004341
vt 0.046006 -0.000000
vt 0.255394 -0.000000
vt 0.253231 0.004341
vt 0.631051 0.732029
vt 0.605010 0.732029
vt 0.841775 0.487847
vt 0.841775 0.278645
vt 0.841775 0.000000
vt 0.841775 0.209202
vt 0.298163 0.590277
vt 0.301980 0.520834
vt 0.301980 0.590277
vt 0.298163 0.520834
vt 0.294609 0.590277
vt 0.294609 0.520834
vt 0.291493 0.590277
vt 0.291493 0.520834
vt 0.481398 0.720473
vt 0.411954 0.720473
vt 0.411954 0.717707
vt 0.481398 0.717707
vt 0.481398 0.723778
vt 0.411954 0.723778
vt 0.481398 0.727455
vt 0.411954 0.727455
vt 0.481398 0.731321
vt 0.411954 0.731321
vt 0.303447 0.724217
vt 0.303447 0.740710
vt 0.303447 0.514148
vt 0.303447 0.497654
vt 0.329489 0.497654
vt 0.733129 0.504341
vt 0.733129 0.460070
vt 0.733129 0.016493
vt 0.733129 0.060764
vt 0.269338 0.590279
vt 0.265452 0.659723
vt 0.265452 0.590279
vt 0.269338 0.659723
vt 0.273098 0.590279
vt 0.273098 0.659723
vt 0.276544 0.590279
vt 0.276544 0.659723
vt 0.279505 0.590279
vt 0.279505 0.659723
vt 0.372892 0.743987
vt 0.303447 0.743987
vt 0.303447 0.740710
vt 0.372892 0.740710
vt 0.372892 0.747647
vt 0.303447 0.747647
vt 0.372892 0.751506
vt 0.303447 0.751506
vt 0.283391 0.590279
vt 0.283391 0.659723
vt 0.287151 0.590279
vt 0.287151 0.659723
vt 0.290598 0.590279
vt 0.290598 0.659723
vt 0.293559 0.590279
vt 0.293559 0.659723
vt 0.069445 0.744163
vt 0.000000 0.744163
vt 0.000000 0.740886
vt 0.069445 0.740886
vt 0.069445 0.747823
vt 0.000000 0.747823
vt 0.069445 0.751683
vt 0.000000 0.751683
vt 0.733129 0.130208
vt 0.733129 0.390625
vt 0.033893 0.018663
vt 0.029567 0.016493
vt 0.041233 0.623700
vt 0.082465 0.520834
vt 0.082465 0.726564
vt 0.000000 0.526629
vt 0.000000 0.720769
vt 0.271834 0.016493
vt 0.267507 0.018663
vt 0.033893 0.225695
vt 0.029567 0.225695
vt 0.115517 0.795215
vt 0.100060 0.816173
vt 0.093740 0.810476
vt 0.128004 0.836782
vt 0.143461 0.815824
vt 0.112666 0.792571
vt 0.088653 0.803655
vt 0.110475 0.789360
vt 0.084995 0.795973
vt 0.109054 0.785742
vt 0.082906 0.787726
vt 0.108473 0.781897
vt 0.082465 0.779228
vt 0.108763 0.778021
vt 0.083691 0.770809
vt 0.109908 0.774306
vt 0.086537 0.762790
vt 0.111850 0.770938
vt 0.090892 0.755481
vt 0.114077 0.724043
vt 0.135036 0.739501
vt 0.139390 0.732191
vt 0.116020 0.720676
vt 0.142236 0.724173
vt 0.117165 0.716961
vt 0.143461 0.715752
vt 0.117455 0.713084
vt 0.143021 0.707255
vt 0.116873 0.709240
vt 0.140932 0.699008
vt 0.115452 0.705621
vt 0.137274 0.691326
vt 0.113261 0.702410
vt 0.132187 0.684506
vt 0.110410 0.699767
vt 0.125867 0.678808
vt 0.171405 0.795215
vt 0.193182 0.810476
vt 0.186862 0.816173
vt 0.158918 0.836782
vt 0.143461 0.815824
vt 0.174256 0.792571
vt 0.198268 0.803655
vt 0.176447 0.789360
vt 0.201927 0.795973
vt 0.177868 0.785742
vt 0.204015 0.787726
vt 0.178449 0.781897
vt 0.204456 0.779228
vt 0.178159 0.778021
vt 0.203230 0.770809
vt 0.177014 0.774306
vt 0.200385 0.762790
vt 0.175072 0.770938
vt 0.196030 0.755481
vt 0.172844 0.724043
vt 0.151886 0.739501
vt 0.147532 0.732191
vt 0.170902 0.720676
vt 0.144686 0.724173
vt 0.169757 0.716961
vt 0.143461 0.715752
vt 0.169467 0.713084
vt 0.143901 0.707255
vt 0.170048 0.709240
vt 0.145990 0.699008
vt 0.171470 0.705621
vt 0.149648 0.691326
vt 0.173660 0.702410
vt 0.154735 0.684506
vt 0.176512 0.699767
vt 0.161054 0.678808
vt 0.029567 0.504341
vt 0.029567 0.295139
vt 0.033893 0.295139
vt 0.033893 0.502171
vt 0.411954 0.770383
vt 0.481398 0.770383
vt 0.048169 0.516493
vt 0.046006 0.520834
vt 0.253231 0.516493
vt 0.255394 0.520834
vt 0.267507 0.502171
vt 0.271833 0.504341
vt 0.267507 0.460070
vt 0.271833 0.460070
vt 0.237507 0.637240
vt 0.222050 0.658198
vt 0.215730 0.652501
vt 0.249995 0.678808
vt 0.265452 0.657850
vt 0.234656 0.634597
vt 0.210643 0.645681
vt 0.232465 0.631385
vt 0.206985 0.637999
vt 0.231044 0.627767
vt 0.204896 0.629751
vt 0.230463 0.623923
vt 0.204456 0.621254
vt 0.230753 0.620046
vt 0.205681 0.612834
vt 0.231898 0.616331
vt 0.208527 0.604816
vt 0.233840 0.612963
vt 0.212882 0.597506
vt 0.236067 0.566069
vt 0.257026 0.581526
vt 0.261380 0.574216
vt 0.238010 0.562701
vt 0.264226 0.566198
vt 0.239155 0.558986
vt 0.265452 0.557779
vt 0.239445 0.555110
vt 0.265011 0.549281
vt 0.238863 0.551265
vt 0.262922 0.541033
vt 0.237442 0.547647
vt 0.259264 0.533352
vt 0.235251 0.544436
vt 0.254177 0.526531
vt 0.232400 0.541792
vt 0.247857 0.520834
vt 0.110410 0.637240
vt 0.132187 0.652501
vt 0.125867 0.658198
vt 0.097923 0.678808
vt 0.082465 0.657850
vt 0.113261 0.634596
vt 0.137274 0.645680
vt 0.115452 0.631385
vt 0.140932 0.637999
vt 0.116873 0.627767
vt 0.143021 0.629751
vt 0.117455 0.623923
vt 0.143461 0.621254
vt 0.117165 0.620046
vt 0.142236 0.612834
vt 0.116020 0.616331
vt 0.139390 0.604816
vt 0.114077 0.612963
vt 0.135036 0.597506
vt 0.111850 0.566069
vt 0.090892 0.581526
vt 0.086537 0.574216
vt 0.109908 0.562701
vt 0.083691 0.566198
vt 0.108763 0.558986
vt 0.082465 0.557778
vt 0.108473 0.555110
vt 0.082906 0.549281
vt 0.109054 0.551265
vt 0.084995 0.541033
vt 0.110475 0.547647
vt 0.088653 0.533352
vt 0.112666 0.544436
vt 0.093740 0.526531
vt 0.115517 0.541792
vt 0.100060 0.520834
vt 0.271834 0.060764
vt 0.267507 0.060764
vt 0.171406 0.637240
vt 0.193183 0.652501
vt 0.186863 0.658198
vt 0.158918 0.678808
vt 0.143461 0.657850
vt 0.174257 0.634596
vt 0.198269 0.645680
vt 0.176448 0.631385
vt 0.201928 0.637999
vt 0.177869 0.627767
vt 0.204016 0.629751
vt 0.178450 0.623923
vt 0.204456 0.621254
vt 0.178160 0.620046
vt 0.203231 0.612834
vt 0.177015 0.616331
vt 0.200386 0.604816
vt 0.175073 0.612963
vt 0.196031 0.597506
vt 0.172845 0.566069
vt 0.151887 0.581526
vt 0.147533 0.574216
vt 0.170903 0.562701
vt 0.144687 0.566198
vt 0.169758 0.558986
vt 0.143461 0.557779
vt 0.169468 0.555110
vt 0.143902 0.549281
vt 0.170050 0.551265
vt 0.145991 0.541033
vt 0.171471 0.547647
vt 0.149649 0.533352
vt 0.173661 0.544436
vt 0.154736 0.526531
vt 0.176513 0.541792
vt 0.161055 0.520834
vt 0.303447 0.790568
vt 0.372892 0.790568
vt 0.766180 0.637240
vt 0.750722 0.658198
vt 0.744402 0.652501
vt 0.778667 0.678808
vt 0.794124 0.657850
vt 0.763328 0.634597
vt 0.739316 0.645681
vt 0.761138 0.631385
vt 0.735658 0.637999
vt 0.759716 0.627767
vt 0.733569 0.629751
vt 0.759135 0.623923
vt 0.733129 0.621254
vt 0.759425 0.620046
vt 0.734354 0.612834
vt 0.760570 0.616331
vt 0.737200 0.604816
vt 0.762512 0.612963
vt 0.741554 0.597506
vt 0.764740 0.566069
vt 0.785698 0.581526
vt 0.790053 0.574216
vt 0.766682 0.562701
vt 0.792898 0.566198
vt 0.767827 0.558986
vt 0.794124 0.557779
vt 0.768117 0.555110
vt 0.793683 0.549281
vt 0.767536 0.551265
vt 0.791595 0.541033
vt 0.766114 0.547647
vt 0.787936 0.533352
vt 0.763924 0.544436
vt 0.782850 0.526531
vt 0.761073 0.541792
vt 0.776530 0.520834
vt 0.000000 0.790744
vt 0.069445 0.790744
vt 0.267507 0.130208
vt 0.271833 0.390625
vt 0.267507 0.390625
vt 0.271833 0.130208
vt 0.883070 0.988492
vt 0.924387 0.985678
vt 0.924281 1.000000
vt 0.841838 0.979883
vt 0.841775 0.988410
vt 0.522619 0.008527
vt 0.724629 0.000000
vt 0.733129 0.008527
vt 0.733129 0.480446
vt 0.531119 -0.000000
vt 0.531119 0.488973
vt 0.724629 0.488973
vt 0.522619 0.480446
vt 0.041233 0.729379
vt 0.082465 0.740886
vt 0.000000 0.729297
vt 0.924387 0.778645
vt 0.841838 0.507964
vt 0.924387 0.502170
vt 0.924387 0.709202
vt 0.021193 0.225695
vt 0.021193 0.295139
vt 0.013277 0.225695
vt 0.013277 0.295139
vt 0.006120 0.225695
vt 0.006120 0.295139
vt 0.000000 0.225695
vt -0.000000 0.295139
vt 0.204456 0.685425
vt 0.273900 0.678808
vt 0.273900 0.685425
vt 0.204456 0.678808
vt 0.204456 0.692959
vt 0.273900 0.692959
vt 0.204456 0.701119
vt 0.273900 0.701119
vt 0.204456 0.709592
vt 0.273900 0.709592
vt 0.204456 0.748654
vt 0.273900 0.748654
vt 0.832549 0.520834
vt 0.828733 0.590277
vt 0.828733 0.520834
vt 0.832549 0.590277
vt 0.836103 0.520834
vt 0.836103 0.590277
vt 0.839217 0.520834
vt 0.839217 0.590277
vt 0.204456 0.759506
vt 0.273900 0.759506
vt 0.273900 0.762275
vt 0.204456 0.762275
vt 0.204456 0.756199
vt 0.273900 0.756199
vt 0.204456 0.752520
vt 0.273900 0.752520
vt 0.794124 0.520834
vt 0.794124 0.590277
vt 0.520461 0.636542
vt 0.494420 0.567099
vt 0.520461 0.567099
vt 0.494420 0.636542
vt 0.446565 0.870597
vt 0.411954 0.801153
vt 0.446565 0.801153
vt 0.411954 0.870597
vt 0.454939 0.801153
vt 0.454939 0.870597
vt 0.462857 0.870597
vt 0.462857 0.801153
vt 0.470016 0.870597
vt 0.470016 0.801153
vt 0.476139 0.870597
vt 0.476139 0.801153
vt 0.481398 0.794542
vt 0.411954 0.801153
vt 0.411954 0.794542
vt 0.481398 0.801153
vt 0.481398 0.787013
vt 0.411954 0.787013
vt 0.481398 0.778856
vt 0.411954 0.778856
vt 0.883070 0.499355
vt 0.924281 0.487847
vt 0.841775 0.499437
vt 0.453187 0.614841
vt 0.494420 0.511977
vt 0.494420 0.717707
vt 0.411954 0.517771
vt 0.411954 0.711912
vt 0.453187 0.509162
vt 0.494420 0.497654
vt 0.411954 0.509244
vt 0.522619 0.966686
vt 0.605010 0.930380
vt 0.605010 0.972481
vt 0.605010 0.860936
vt 0.522619 0.494768
vt 0.605010 0.531074
vt 0.605010 0.600519
vt 0.605010 0.488973
vt 0.280341 0.460070
vt 0.280341 0.390625
vt 0.288655 0.460070
vt 0.288655 0.390625
vt 0.296458 0.460070
vt 0.296458 0.390625
vt 0.303447 0.460070
vt 0.303447 0.390625
vt 0.733129 0.685351
vt 0.802574 0.678808
vt 0.802574 0.685351
vt 0.733129 0.678808
vt 0.733129 0.692829
vt 0.802574 0.692829
vt 0.733129 0.700956
vt 0.802574 0.700956
vt 0.733129 0.709418
vt 0.802574 0.709418
vt 0.733129 0.748480
vt 0.802574 0.748480
vt 0.684624 0.801474
vt 0.688511 0.732029
vt 0.688511 0.801474
vt 0.684624 0.732029
vt 0.680864 0.801474
vt 0.680864 0.732029
vt 0.677417 0.801474
vt 0.677417 0.732029
vt 0.674454 0.801474
vt 0.674454 0.732029
vt 0.733129 0.756001
vt 0.802574 0.756001
vt 0.802574 0.759280
vt 0.733129 0.759280
vt 0.733129 0.752340
vt 0.802574 0.752340
vt 0.723121 0.801474
vt 0.723121 0.732029
vt 0.291493 0.590279
vt 0.265452 0.520834
vt 0.291493 0.520834
vt 0.764737 0.759280
vt 0.799349 0.828725
vt 0.764737 0.828725
vt 0.799349 0.759280
vt 0.756230 0.828725
vt 0.756230 0.759280
vt 0.747916 0.759280
vt 0.747916 0.828725
vt 0.740116 0.759280
vt 0.740116 0.828725
vt 0.733129 0.759280
vt 0.733129 0.828725
vt 0.372892 0.814626
vt 0.303447 0.821163
vt 0.303447 0.814626
vt 0.372892 0.821163
vt 0.372892 0.807153
vt 0.303447 0.807153
vt 0.372892 0.799029
vt 0.303447 0.799029
vt 0.280341 0.130208
vt 0.280341 0.060764
vt 0.288655 0.130208
vt 0.288655 0.060764
vt 0.296458 0.130208
vt 0.296458 0.060764
vt 0.303447 0.130208
vt 0.303447 0.060764
vt 0.605010 0.738572
vt 0.674454 0.732029
vt 0.674454 0.738572
vt 0.605010 0.732029
vt 0.605010 0.746050
vt 0.674454 0.746050
vt 0.605010 0.754177
vt 0.674454 0.754177
vt 0.605010 0.762639
vt 0.674454 0.762639
vt 0.605010 0.801700
vt 0.674454 0.801700
vt 0.684624 0.870919
vt 0.688511 0.801474
vt 0.688511 0.870919
vt 0.684624 0.801474
vt 0.680864 0.870919
vt 0.680864 0.801474
vt 0.677417 0.870919
vt 0.677417 0.801474
vt 0.674454 0.870919
vt 0.674454 0.801474
vt 0.605010 0.809222
vt 0.674454 0.809222
vt 0.674454 0.812501
vt 0.605010 0.812501
vt 0.605010 0.805561
vt 0.674454 0.805561
vt 0.723121 0.870919
vt 0.723121 0.801474
vt 0.520461 0.567099
vt 0.494420 0.497654
vt 0.520461 0.497654
vt 0.236065 0.762275
vt 0.270677 0.831720
vt 0.236065 0.831720
vt 0.270677 0.762275
vt 0.227557 0.831720
vt 0.227557 0.762275
vt 0.219244 0.762275
vt 0.219244 0.831720
vt 0.211444 0.762275
vt 0.211443 0.831720
vt 0.204456 0.762275
vt 0.204456 0.831720
vt 0.069445 0.814803
vt 0.000000 0.821340
vt 0.000000 0.814803
vt 0.069445 0.821340
vt 0.069445 0.807329
vt 0.000000 0.807329
vt 0.069445 0.799205
vt 0.000000 0.799205
s 1
usemtl Material.001
f 38/58/16 39/61/17 19/59/17
f 40/62/18 41/63/18 39/61/18
f 40/62/18 39/61/18 38/58/18
f 42/64/19 43/65/19 41/63/19
f 42/64/19 41/63/19 40/62/19
f 44/66/20 45/67/20 43/68/20
f 44/66/20 43/68/20 42/69/20
f 46/70/21 47/71/21 45/67/21
f 46/70/21 45/67/21 44/66/21
f 48/72/22 49/73/22 47/71/22
f 48/72/22 47/71/22 46/70/22
f 50/74/23 51/75/23 49/73/23
f 50/74/23 49/73/23 48/72/23
f 57/85/28 28/86/29 27/87/28
f 57/85/28 58/88/29 28/86/29
f 59/89/30 60/90/30 58/88/30
f 59/89/30 58/88/30 57/85/30
f 61/91/31 62/92/31 60/90/31
f 61/91/31 60/90/31 59/89/31
f 63/93/32 64/94/32 62/92/32
f 63/93/32 62/92/32 61/91/32
f 65/95/33 66/96/33 64/97/33
f 65/95/33 64/97/33 63/98/33
f 67/99/34 68/100/34 66/96/34
f 67/99/34 66/96/34 65/95/34
f 69/101/35 70/102/35 68/100/35
f 69/101/35 68/100/35 67/99/35
f 71/103/28 30/94/29 29/93/28
f 71/103/28 72/104/29 30/94/29
f 73/105/30 74/106/30 72/104/30
f 73/105/30 72/104/30 71/103/30
f 75/107/31 76/108/31 74/106/31
f 75/107/31 74/106/31 73/105/31
f 77/109/32 78/110/32 76/108/32
f 77/109/32 76/108/32 75/107/32
f 79/111/33 80/112/33 78/113/33
f 79/111/33 78/113/33 77/114/33
f 81/115/34 82/116/34 80/112/34
f 81/115/34 80/112/34 79/111/34
f 83/117/35 84/118/35 82/116/35
f 83/117/35 82/116/35 81/115/35
f 93/132/4 94/133/4 95/134/4
f 93/132/4 96/135/4 94/133/4
f 93/132/4 97/136/4 96/135/4
f 98/137/4 95/134/4 99/138/4
f 98/137/4 93/132/4 95/134/4
f 100/139/4 99/138/4 101/140/4
f 100/139/4 98/137/4 99/138/4
f 102/141/4 100/139/4 101/140/4
f 103/142/4 102/141/4 101/140/4
f 104/143/4 102/141/4 103/142/4
f 105/144/4 106/145/4 104/143/4
f 105/144/4 104/143/4 103/142/4
f 107/146/4 108/147/4 106/145/4
f 107/146/4 106/145/4 105/144/4
f 109/148/4 110/149/4 108/147/4
f 109/148/4 108/147/4 107/146/4
f 111/150/4 110/149/4 109/148/4
f 50/151/4 112/152/4 110/149/4
f 50/151/4 113/153/4 112/152/4
f 50/151/4 110/149/4 111/150/4
f 48/154/4 114/155/4 113/153/4
f 48/154/4 113/153/4 50/151/4
f 46/156/4 115/157/4 114/155/4
f 46/156/4 114/155/4 48/154/4
f 44/158/4 115/157/4 46/156/4
f 116/159/4 115/157/4 44/158/4
f 42/160/4 116/159/4 44/158/4
f 117/161/4 42/160/4 40/162/4
f 117/161/4 116/159/4 42/160/4
f 118/163/4 40/162/4 38/164/4
f 118/163/4 117/161/4 40/162/4
f 119/165/4 38/164/4 18/166/4
f 119/165/4 118/163/4 38/164/4
f 35/167/4 119/165/4 18/166/4
f 120/168/25 121/169/25 122/170/25
f 120/168/25 122/170/25 123/171/25
f 120/168/25 123/171/25 124/172/25
f 125/173/25 126/174/25 121/169/25
f 125/173/25 121/169/25 120/168/25
f 127/175/25 128/176/25 126/174/25
f 127/175/25 126/174/25 125/173/25
f 129/177/25 128/176/25 127/175/25
f 130/178/25 128/176/25 129/177/25
f 131/179/25 130/178/25 129/177/25
f 132/180/25 131/179/25 133/181/25
f 132/180/25 130/178/25 131/179/25
f 134/182/25 133/181/25 135/183/25
f 134/182/25 132/180/25 133/181/25
f 136/184/25 135/183/25 137/185/25
f 136/184/25 134/182/25 135/183/25
f 138/186/25 136/184/25 137/185/25
f 51/187/25 137/185/25 139/188/25
f 51/187/25 139/188/25 140/189/25
f 51/187/25 138/186/25 137/185/25
f 49/190/25 140/189/25 141/191/25
f 49/190/25 51/187/25 140/189/25
f 47/192/25 141/191/25 142/193/25
f 47/192/25 49/190/25 141/191/25
f 45/194/25 47/192/25 142/193/25
f 143/195/25 45/194/25 142/193/25
f 43/196/25 45/194/25 143/195/25
f 144/197/25 41/198/25 43/196/25
f 144/197/25 43/196/25 143/195/25
f 145/199/25 39/200/25 41/198/25
f 145/199/25 41/198/25 144/197/25
f 146/201/25 19/202/25 39/200/25
f 146/201/25 39/200/25 145/199/25
f 37/203/25 19/202/25 146/201/25
f 50/74/27 138/208/27 51/75/27
f 111/209/27 138/208/27 50/74/27
f 153/218/25 154/219/25 155/220/25
f 153/218/25 156/221/25 154/219/25
f 153/218/25 157/222/25 156/221/25
f 158/223/25 155/220/25 159/224/25
f 158/223/25 153/218/25 155/220/25
f 160/225/25 159/224/25 161/226/25
f 160/225/25 158/223/25 159/224/25
f 162/227/25 160/225/25 161/226/25
f 163/228/25 162/227/25 161/226/25
f 164/229/25 162/227/25 163/228/25
f 165/230/25 166/231/25 164/229/25
f 165/230/25 164/229/25 163/228/25
f 167/232/25 168/233/25 166/231/25
f 167/232/25 166/231/25 165/230/25
f 169/234/25 170/235/25 168/233/25
f 169/234/25 168/233/25 167/232/25
f 171/236/25 170/235/25 169/234/25
f 69/237/25 172/238/25 170/235/25
f 69/237/25 173/239/25 172/238/25
f 69/237/25 170/235/25 171/236/25
f 67/240/25 174/241/25 173/239/25
f 67/240/25 173/239/25 69/237/25
f 65/242/25 175/243/25 174/241/25
f 65/242/25 174/241/25 67/240/25
f 63/244/25 175/243/25 65/242/25
f 176/245/25 175/243/25 63/244/25
f 61/246/25 176/245/25 63/244/25
f 177/247/25 61/246/25 59/248/25
f 177/247/25 176/245/25 61/246/25
f 178/249/25 59/248/25 57/250/25
f 178/249/25 177/247/25 59/248/25
f 179/251/25 57/250/25 27/252/25
f 179/251/25 178/249/25 57/250/25
f 55/253/25 179/251/25 27/252/25
f 180/254/4 181/255/4 182/256/4
f 180/254/4 182/256/4 183/257/4
f 180/254/4 183/257/4 184/258/4
f 185/259/4 186/260/4 181/255/4
f 185/259/4 181/255/4 180/254/4
f 187/261/4 188/262/4 186/260/4
f 187/261/4 186/260/4 185/259/4
f 189/263/4 188/262/4 187/261/4
f 190/264/4 188/262/4 189/263/4
f 191/265/4 190/264/4 189/263/4
f 192/266/4 191/265/4 193/267/4
f 192/266/4 190/264/4 191/265/4
f 194/268/4 193/267/4 195/269/4
f 194/268/4 192/266/4 193/267/4
f 196/270/4 195/269/4 197/271/4
f 196/270/4 194/268/4 195/269/4
f 198/272/4 196/270/4 197/271/4
f 84/273/4 197/271/4 199/274/4
f 84/273/4 199/274/4 200/275/4
f 84/273/4 198/272/4 197/271/4
f 82/276/4 200/275/4 201/277/4
f 82/276/4 84/273/4 200/275/4
f 80/278/4 201/277/4 202/279/4
f 80/278/4 82/276/4 201/277/4
f 78/280/4 80/278/4 202/279/4
f 203/281/4 78/280/4 202/279/4
f 76/282/4 78/280/4 203/281/4
f 204/283/4 74/284/4 76/282/4
f 204/283/4 76/282/4 203/281/4
f 205/285/4 72/286/4 74/284/4
f 205/285/4 74/284/4 204/283/4
f 206/287/4 30/288/4 72/286/4
f 206/287/4 72/286/4 205/285/4
f 56/289/4 30/288/4 206/287/4
f 208/292/4 209/293/4 210/294/4
f 208/292/4 210/294/4 211/295/4
f 208/292/4 211/295/4 212/296/4
f 213/297/4 214/298/4 209/293/4
f 213/297/4 209/293/4 208/292/4
f 215/299/4 216/300/4 214/298/4
f 215/299/4 214/298/4 213/297/4
f 217/301/4 216/300/4 215/299/4
f 218/302/4 216/300/4 217/301/4
f 219/303/4 218/302/4 217/301/4
f 220/304/4 219/303/4 221/305/4
f 220/304/4 218/302/4 219/303/4
f 222/306/4 221/305/4 223/307/4
f 222/306/4 220/304/4 221/305/4
f 224/308/4 223/307/4 225/309/4
f 224/308/4 222/306/4 223/307/4
f 226/310/4 224/308/4 225/309/4
f 70/311/4 225/309/4 227/312/4
f 70/311/4 227/312/4 228/313/4
f 70/311/4 226/310/4 225/309/4
f 68/314/4 228/313/4 229/315/4
f 68/314/4 70/311/4 228/313/4
f 66/316/4 229/315/4 230/317/4
f 66/316/4 68/314/4 229/315/4
f 64/318/4 66/316/4 230/317/4
f 231/319/4 64/318/4 230/317/4
f 62/320/4 64/318/4 231/319/4
f 232/321/4 60/322/4 62/320/4
f 232/321/4 62/320/4 231/319/4
f 233/323/4 58/324/4 60/322/4
f 233/323/4 60/322/4 232/321/4
f 234/325/4 28/326/4 58/324/4
f 234/325/4 58/324/4 233/323/4
f 86/327/4 28/326/4 234/325/4
f 69/101/15 226/328/15 70/102/15
f 171/329/15 226/328/15 69/101/15
f 235/330/25 236/331/25 237/332/25
f 235/330/25 238/333/25 236/331/25
f 235/330/25 239/334/25 238/333/25
f 240/335/25 237/332/25 241/336/25
f 240/335/25 235/330/25 237/332/25
f 242/337/25 241/336/25 243/338/25
f 242/337/25 240/335/25 241/336/25
f 244/339/25 242/337/25 243/338/25
f 245/340/25 244/339/25 243/338/25
f 246/341/25 244/339/25 245/340/25
f 247/342/25 248/343/25 246/341/25
f 247/342/25 246/341/25 245/340/25
f 249/344/25 250/345/25 248/343/25
f 249/344/25 248/343/25 247/342/25
f 251/346/25 252/347/25 250/345/25
f 251/346/25 250/345/25 249/344/25
f 253/348/25 252/347/25 251/346/25
f 83/349/25 254/350/25 252/347/25
f 83/349/25 255/351/25 254/350/25
f 83/349/25 252/347/25 253/348/25
f 81/352/25 256/353/25 255/351/25
f 81/352/25 255/351/25 83/349/25
f 79/354/25 257/355/25 256/353/25
f 79/354/25 256/353/25 81/352/25
f 77/356/25 257/355/25 79/354/25
f 258/357/25 257/355/25 77/356/25
f 75/358/25 258/357/25 77/356/25
f 259/359/25 75/358/25 73/360/25
f 259/359/25 258/357/25 75/358/25
f 260/361/25 73/360/25 71/362/25
f 260/361/25 259/359/25 73/360/25
f 261/363/25 71/362/25 29/364/25
f 261/363/25 260/361/25 71/362/25
f 85/365/25 261/363/25 29/364/25
f 83/117/15 198/366/15 84/118/15
f 253/367/15 198/366/15 83/117/15
f 119/392/40 35/131/40 37/205/40
f 119/392/40 37/205/40 146/393/40
f 118/394/41 146/393/41 145/395/41
f 118/394/41 119/392/41 146/393/41
f 117/396/42 145/395/42 144/397/42
f 117/396/42 118/394/42 145/395/42
f 116/398/43 144/397/43 143/399/43
f 116/398/43 117/396/43 144/397/43
f 115/400/44 143/401/44 142/402/44
f 115/400/44 116/403/44 143/401/44
f 114/404/45 142/402/45 141/405/45
f 114/404/45 115/400/45 142/402/45
f 113/406/46 141/405/46 140/407/46
f 113/406/46 114/404/46 141/405/46
f 112/408/47 140/407/47 139/409/47
f 112/408/47 113/406/47 140/407/47
f 110/410/15 139/409/15 137/411/15
f 112/408/15 139/409/15 110/410/15
f 98/412/48 120/413/49 93/414/48
f 98/412/48 125/415/49 120/413/49
f 100/416/50 127/417/50 125/415/50
f 100/416/50 125/415/50 98/412/50
f 102/418/51 129/419/51 127/417/51
f 102/418/51 127/417/51 100/416/51
f 104/420/52 131/421/52 129/422/52
f 104/420/52 129/422/52 102/423/52
f 106/424/53 133/425/53 131/421/53
f 106/424/53 131/421/53 104/420/53
f 108/426/54 135/427/54 133/425/54
f 108/426/54 133/425/54 106/424/54
f 110/410/55 137/411/55 135/427/55
f 110/410/55 135/427/55 108/426/55
f 97/428/13 120/413/13 124/429/13
f 93/414/13 120/413/13 97/428/13
f 96/430/15 124/431/15 123/432/15
f 97/433/15 124/431/15 96/430/15
f 94/434/2 123/435/2 122/436/2
f 96/437/2 123/435/2 94/434/2
f 94/434/56 122/436/56 121/438/56
f 95/439/56 94/434/56 121/438/56
f 99/440/57 121/438/57 126/441/57
f 99/440/57 95/439/57 121/438/57
f 101/442/58 126/441/58 128/443/58
f 101/442/58 99/440/58 126/441/58
f 103/444/59 128/443/59 130/445/59
f 103/444/59 101/442/59 128/443/59
f 105/446/60 130/447/60 132/448/60
f 105/446/60 103/449/60 130/447/60
f 107/450/61 132/448/61 134/451/61
f 107/450/61 105/446/61 132/448/61
f 109/452/62 134/451/62 136/453/62
f 109/452/62 107/450/62 134/451/62
f 111/209/63 136/453/63 138/208/63
f 111/209/63 109/452/63 136/453/63
f 179/473/68 55/217/68 86/369/68
f 179/473/68 86/369/68 234/474/68
f 178/475/69 234/474/69 233/476/69
f 178/475/69 179/473/69 234/474/69
f 177/477/70 233/476/70 232/478/70
f 177/477/70 178/475/70 233/476/70
f 176/479/71 232/478/71 231/480/71
f 176/479/71 177/477/71 232/478/71
f 175/481/72 231/482/72 230/483/72
f 175/481/72 176/484/72 231/482/72
f 174/485/73 230/483/73 229/486/73
f 174/485/73 175/481/73 230/483/73
f 173/487/74 229/486/74 228/488/74
f 173/487/74 174/485/74 229/486/74
f 172/489/75 228/488/75 227/490/75
f 172/489/75 173/487/75 228/488/75
f 170/491/27 227/490/27 225/492/27
f 172/489/27 227/490/27 170/491/27
f 158/493/76 208/494/77 153/495/76
f 158/493/76 213/496/77 208/494/77
f 160/497/78 215/498/78 213/496/78
f 160/497/78 213/496/78 158/493/78
f 162/499/79 217/500/79 215/498/79
f 162/499/79 215/498/79 160/497/79
f 164/501/80 219/502/80 217/500/80
f 164/501/80 217/500/80 162/499/80
f 166/503/81 221/504/81 219/505/81
f 166/503/81 219/505/81 164/506/81
f 168/507/82 223/508/82 221/504/82
f 168/507/82 221/504/82 166/503/82
f 170/491/83 225/492/83 223/508/83
f 170/491/83 223/508/83 168/507/83
f 157/509/13 208/494/13 212/510/13
f 153/495/13 208/494/13 157/509/13
f 156/511/27 212/512/27 211/513/27
f 157/87/27 212/512/27 156/511/27
f 154/514/2 211/515/2 210/516/2
f 156/517/2 211/515/2 154/514/2
f 154/514/84 210/516/84 209/518/84
f 155/519/84 154/514/84 209/518/84
f 159/520/85 209/518/85 214/521/85
f 159/520/85 155/519/85 209/518/85
f 161/522/86 214/521/86 216/523/86
f 161/522/86 159/520/86 214/521/86
f 163/524/87 216/523/87 218/525/87
f 163/524/87 161/522/87 216/523/87
f 165/526/88 218/527/88 220/528/88
f 165/526/88 163/529/88 218/527/88
f 167/530/89 220/528/89 222/531/89
f 167/530/89 165/526/89 220/528/89
f 169/532/90 222/531/90 224/533/90
f 169/532/90 167/530/90 222/531/90
f 171/329/91 224/533/91 226/328/91
f 171/329/91 169/532/91 224/533/91
f 261/534/68 85/371/68 56/290/68
f 261/534/68 56/290/68 206/535/68
f 260/536/69 206/535/69 205/537/69
f 260/536/69 261/534/69 206/535/69
f 259/538/70 205/537/70 204/539/70
f 259/538/70 260/536/70 205/537/70
f 258/540/71 204/539/71 203/541/71
f 258/540/71 259/538/71 204/539/71
f 257/542/72 203/543/72 202/544/72
f 257/542/72 258/545/72 203/543/72
f 256/546/73 202/544/73 201/547/73
f 256/546/73 257/542/73 202/544/73
f 255/548/74 201/547/74 200/549/74
f 255/548/74 256/546/74 201/547/74
f 254/550/75 200/549/75 199/551/75
f 254/550/75 255/548/75 200/549/75
f 252/552/27 199/551/27 197/553/27
f 254/550/27 199/551/27 252/552/27
f 240/554/76 180/555/77 235/556/76
f 240/554/76 185/557/77 180/555/77
f 242/558/78 187/559/78 185/557/78
f 242/558/78 185/557/78 240/554/78
f 244/560/79 189/561/79 187/559/79
f 244/560/79 187/559/79 242/558/79
f 246/562/80 191/563/80 189/561/80
f 246/562/80 189/561/80 244/560/80
f 248/564/81 193/565/81 191/566/81
f 248/564/81 191/566/81 246/567/81
f 250/568/82 195/569/82 193/565/82
f 250/568/82 193/565/82 248/564/82
f 252/552/83 197/553/83 195/569/83
f 252/552/83 195/569/83 250/568/83
f 239/570/13 180/555/13 184/571/13
f 235/556/13 180/555/13 239/570/13
f 238/572/27 184/573/27 183/574/27
f 239/431/27 184/573/27 238/572/27
f 236/575/2 183/576/2 182/577/2
f 238/578/2 183/576/2 236/575/2
f 236/575/84 182/577/84 181/579/84
f 237/580/84 236/575/84 181/579/84
f 241/581/85 181/579/85 186/582/85
f 241/581/85 237/580/85 181/579/85
f 243/583/86 186/582/86 188/584/86
f 243/583/86 241/581/86 186/582/86
f 245/585/87 188/584/87 190/586/87
f 245/585/87 243/583/87 188/584/87
f 247/587/88 190/588/88 192/589/88
f 247/587/88 245/590/88 190/588/88
f 249/591/89 192/589/89 194/592/89
f 249/591/89 247/587/89 192/589/89
f 251/593/90 194/592/90 196/594/90
f 251/593/90 249/591/90 194/592/90
f 253/367/91 196/594/91 198/366/91
f 253/367/91 251/593/91 196/594/91
usemtl Material.002
f 1/1/1 2/2/1 3/3/1
f 1/1/1 4/4/1 2/2/1
f 1/1/1 5/5/1 4/4/1
f 1/1/1 3/3/1 5/5/1
f 3/6/2 2/7/2 6/8/2
f 7/9/2 3/6/2 6/8/2
f 8/10/2 7/9/2 6/8/2
f 9/11/2 8/10/2 10/12/2
f 9/11/2 7/9/2 8/10/2
f 11/13/2 9/11/2 10/12/2
f 12/14/3 6/15/3 2/2/3
f 12/14/3 13/16/3 6/15/3
f 12/14/3 4/4/3 13/16/3
f 12/14/3 2/2/3 4/4/3
f 14/17/4 4/4/4 5/5/4
f 14/17/4 5/5/4 15/18/4
f 16/19/5 3/20/5 7/21/5
f 16/19/5 5/22/5 3/20/5
f 16/19/5 17/23/5 5/22/5
f 16/19/5 7/21/5 17/23/5
f 18/24/6 6/25/6 13/26/6
f 8/27/6 18/24/6 19/28/6
f 8/27/6 6/25/6 18/24/6
f 20/29/6 8/27/6 19/28/6
f 21/30/7 10/31/8 8/32/7
f 21/30/7 22/33/7 10/31/8
f 21/30/7 20/34/7 22/33/7
f 21/30/7 8/32/7 20/34/7
f 23/35/9 11/36/9 10/31/9
f 23/35/9 24/37/9 11/36/9
f 23/35/9 22/33/9 24/37/9
f 23/35/9 10/31/9 22/33/9
f 25/38/10 9/39/10 11/40/10
f 25/38/10 26/41/10 9/39/10
f 25/38/10 24/42/10 26/41/10
f 25/38/10 11/40/10 24/42/10
f 27/43/11 9/39/11 26/41/11
f 28/44/11 9/39/11 27/43/11
f 7/21/11 28/44/11 29/45/11
f 7/21/11 9/39/11 28/44/11
f 30/46/11 7/21/11 29/45/11
f 17/23/11 7/21/11 30/46/11
f 31/47/12 13/16/12 4/4/12
f 31/47/12 4/4/12 14/17/12
f 32/48/13 14/49/13 15/50/13
f 32/48/13 15/50/13 33/51/13
f 15/18/14 5/5/14 17/52/14
f 15/18/14 17/52/14 34/53/14
f 18/24/15 13/26/15 31/54/15
f 35/55/15 18/24/15 31/54/15
f 36/56/15 19/28/15 37/57/15
f 36/56/15 20/29/15 19/28/15
f 38/58/16 19/59/17 18/60/16
f 52/76/24 22/33/24 20/34/24
f 52/76/24 20/34/24 36/77/24
f 53/78/25 24/37/25 22/33/25
f 53/78/25 22/33/25 52/76/25
f 54/79/26 26/80/26 24/37/26
f 54/79/26 24/37/26 53/78/26
f 27/43/27 26/41/27 54/81/27
f 55/82/27 27/43/27 54/81/27
f 34/83/27 30/46/27 56/84/27
f 34/83/27 17/23/27 30/46/27
f 85/119/27 28/44/27 86/120/27
f 85/119/27 29/45/27 28/44/27
f 87/121/13 31/122/13 14/49/13
f 87/121/13 14/49/13 32/48/13
f 88/123/36 32/124/36 33/125/36
f 88/123/36 89/126/36 32/124/36
f 88/123/36 90/127/36 89/126/36
f 88/123/36 33/125/36 90/127/36
f 33/51/13 15/50/13 34/128/13
f 33/51/13 34/128/13 91/129/13
f 92/130/13 31/122/13 87/121/13
f 92/130/13 35/131/13 31/122/13
f 36/204/13 37/205/13 147/206/13
f 148/207/13 36/204/13 147/206/13
f 149/210/13 52/211/13 36/204/13
f 149/210/13 36/204/13 148/207/13
f 150/212/13 53/213/13 52/211/13
f 150/212/13 52/211/13 149/210/13
f 151/214/13 54/215/13 53/213/13
f 151/214/13 53/213/13 150/212/13
f 152/216/13 54/215/13 151/214/13
f 152/216/13 55/217/13 54/215/13
f 34/128/13 56/290/13 207/291/13
f 91/129/13 34/128/13 207/291/13
f 262/368/13 86/369/13 263/370/13
f 262/368/13 85/371/13 86/369/13
f 264/372/37 87/373/37 32/374/37
f 264/372/37 265/375/37 87/373/37
f 264/372/37 89/376/37 265/375/37
f 264/372/37 32/374/37 89/376/37
f 265/377/13 90/378/13 266/379/13
f 265/377/13 266/379/13 267/380/13
f 265/377/13 89/381/13 90/378/13
f 268/382/13 267/380/13 269/383/13
f 270/384/13 265/377/13 267/380/13
f 270/384/13 267/380/13 268/382/13
f 271/385/38 33/125/38 91/386/38
f 271/385/38 90/127/38 33/125/38
f 271/385/38 266/387/38 90/127/38
f 271/385/38 91/386/38 266/387/38
f 92/388/39 87/373/39 265/375/39
f 270/389/39 148/390/39 147/391/39
f 270/389/39 92/388/39 265/375/39
f 270/389/39 147/391/39 92/388/39
f 92/130/13 37/205/13 35/131/13
f 92/130/13 147/206/13 37/205/13
f 272/454/64 149/455/64 148/390/64
f 272/454/64 268/456/64 149/455/64
f 272/454/64 270/389/64 268/456/64
f 272/454/64 148/390/64 270/389/64
f 273/457/65 150/458/65 149/459/65
f 273/457/65 269/460/65 150/458/65
f 273/457/65 268/461/65 269/460/65
f 273/457/65 149/459/65 268/461/65
f 274/462/66 151/463/66 150/458/66
f 274/462/66 267/464/66 151/463/66
f 274/462/66 269/460/66 267/464/66
f 274/462/66 150/458/66 269/460/66
f 267/465/67 152/466/67 151/467/67
f 263/468/67 152/466/67 267/465/67
f 266/469/67 207/470/67 262/471/67
f 266/469/67 91/472/67 207/470/67
f 266/469/67 262/471/67 267/465/67
f 262/471/67 263/468/67 267/465/67
f 152/216/13 86/369/13 55/217/13
f 152/216/13 263/370/13 86/369/13
f 85/371/13 207/291/13 56/290/13
f 262/368/13 207/291/13 85/371/13
