# Blender 5.2.0 LTS
# www.blender.org
mtllib Tantal.mtl
o obj1
v -7.522430 4.403107 -3.083262
v -7.522430 -4.396889 -3.083263
v -7.599579 -4.396889 -3.074571
v -7.599579 4.403107 -3.074571
v -7.672852 4.403107 -3.048932
v -7.672852 -4.396889 -3.048932
v -7.738556 4.403107 -3.007631
v -7.738556 -4.396889 -3.007631
v -7.793457 4.403107 -2.952739
v -7.793457 -4.396889 -2.952739
v -7.834747 -4.396889 -2.887009
v -7.834747 4.403107 -2.887009
v -7.860413 4.403107 -2.813736
v -7.860413 -4.396889 -2.813737
v -7.869080 4.403107 -2.736596
v -7.869080 -4.396889 -2.736596
v -7.349091 -4.396889 -2.558063
v -7.119995 -4.396889 -2.563263
v -7.120361 -4.396889 -2.558063
v -7.869080 -4.396889 0.312270
v -4.469086 -4.396889 -3.083263
v -7.834747 -4.396889 0.462683
v -7.860413 -4.396889 0.389411
v -7.672852 -4.396889 0.624606
v -7.738556 -4.396889 0.583305
v -7.793457 -4.396889 0.528414
v -4.469086 -4.396889 -2.563263
v -7.599579 -4.396889 0.650245
v -7.522430 -4.396889 0.658937
v -7.349091 -4.396889 0.658937
v -7.869080 4.403107 0.312271
v -4.469086 4.403107 -3.083262
v -7.119995 4.403107 -2.563262
v -4.469086 4.403107 -2.563262
v -7.349091 4.403107 -2.558063
v -7.120361 4.403107 -2.558063
v -7.522430 4.403107 0.658937
v -7.349091 4.403107 0.658937
v -7.599579 4.403107 0.650246
v -7.860413 4.403107 0.389411
v -7.738556 4.403107 0.583306
v -7.834747 4.403107 0.462684
v -7.793457 4.403107 0.528414
v -7.672852 4.403107 0.624607
v -7.119995 5.374031 -2.563262
v -7.349091 5.603111 0.696738
v -7.119995 -5.367805 -2.563263
v -7.349091 -5.596893 0.696737
v -7.234741 -0.492874 -0.930663
v -4.149078 -4.396889 -2.563263
v 5.381836 -5.367805 -2.563263
v 2.410919 -4.396889 -2.563263
v 2.730896 -4.396889 -2.563263
v 5.381836 -4.396889 -2.563263
v -4.149078 -4.396889 -3.083263
v -4.149078 4.403107 -3.083262
v -4.149078 4.403107 -2.563262
v 2.730896 4.403107 -2.563262
v 2.410919 4.403107 -2.563262
v 5.381836 5.374031 -2.563262
v 5.381836 4.403107 -2.563262
v -0.869080 5.488571 -0.933262
v 5.610901 5.603111 0.696738
v -7.105591 2.681366 4.161737
v -7.267914 2.762527 1.851737
v -7.186768 0.003113 3.006737
v -7.267914 -2.756310 1.851737
v -7.105591 -2.675148 4.161737
v -7.024445 -5.272240 5.316737
v -7.024445 5.278458 5.316737
v -7.227356 4.111801 2.429237
v -7.227356 -4.105583 2.429237
v -0.869080 -5.482353 -0.933263
v 5.610901 -5.596893 0.696737
v 5.382202 -4.396889 -2.558063
v 5.382202 4.403107 -2.558063
v 5.496552 0.499092 -0.930663
v 2.730896 -4.396889 -3.083263
v 5.784241 -4.396889 -3.083263
v 5.610901 -4.396889 -2.558063
v 5.934662 -4.396889 -3.048932
v 6.000397 -4.396889 -3.007631
v 5.861389 -4.396889 -3.074571
v 6.055267 -4.396889 -2.952739
v 6.096588 -4.396889 -2.887009
v 6.122223 -4.396889 -2.813737
v 6.130920 -4.396889 -2.736596
v 6.130920 -4.396889 0.312270
v 5.784241 -4.396889 0.658937
v 5.610901 -4.396889 0.658937
v 5.861389 -4.396889 0.650245
v 6.122223 -4.396889 0.389411
v 6.000397 -4.396889 0.583305
v 6.096588 -4.396889 0.462683
v 6.055267 -4.396889 0.528414
v 5.934662 -4.396889 0.624606
v 2.410919 -4.396889 -3.083263
v 2.410919 4.403107 -3.083262
v 2.730896 4.403107 -3.083262
v 5.610901 4.403107 -2.558063
v 6.130920 4.403107 -2.736596
v 6.122223 4.403107 -2.813736
v 6.096588 4.403107 -2.887009
v 6.055267 4.403107 -2.952739
v 6.000397 4.403107 -3.007631
v 5.934662 4.403107 -3.048932
v 5.861389 4.403107 -3.074571
v 5.784241 4.403107 -3.083262
v 6.130920 4.403107 0.312271
v 6.096588 4.403107 0.462684
v 6.122223 4.403107 0.389411
v 5.934662 4.403107 0.624607
v 6.000397 4.403107 0.583306
v 6.055267 4.403107 0.528414
v 5.861389 4.403107 0.650246
v 5.784241 4.403107 0.658937
v 5.610901 4.403107 0.658937
v 4.627502 5.440788 3.006738
v 3.686249 5.278458 5.316737
v 5.398407 5.390617 3.720674
v 1.914520 5.521950 1.851737
v 1.033356 5.359619 4.161737
v -1.690186 5.440788 3.006738
v -4.484344 5.521950 1.851737
v -4.392609 5.359619 4.161737
v -5.844391 5.481369 2.429237
v 4.627502 -5.434563 3.006737
v 5.398407 -5.384399 3.720673
v 3.686249 -5.272240 5.316737
v -4.392609 -5.353401 4.161737
v -4.484344 -5.515732 1.851737
v -1.690186 -5.434563 3.006737
v 1.914520 -5.515732 1.851737
v 1.033356 -5.353401 4.161737
v -5.844391 -5.475151 2.429237
v 3.361603 4.953812 5.316737
v 0.961609 4.953812 5.316737
v 0.961609 -4.947594 5.316737
v 3.361603 -4.947594 5.316737
v 5.504669 0.003113 2.208705
v 5.610901 -1.996887 -1.083263
v 5.610901 -1.996887 0.658937
v 5.610901 2.003113 -1.083263
v 5.610901 2.003113 0.658937
v 5.784241 -1.996887 0.658937
v 6.130920 -1.996887 0.312271
v 6.122223 -1.996887 0.389411
v 6.096588 -1.996887 0.462684
v 6.055267 -1.996887 0.528414
v 6.000397 -1.996887 0.583306
v 5.934662 -1.996887 0.624607
v 5.861389 -1.996887 0.650246
v 6.130920 2.003113 -1.083263
v 6.130920 2.003113 0.312271
v 6.130920 -1.996887 -1.083263
v 6.122223 2.003113 0.389411
v 6.096588 2.003113 0.462684
v 6.055267 2.003113 0.528414
v 6.000397 2.003113 0.583306
v 5.934662 2.003113 0.624607
v 5.861389 2.003113 0.650246
v 5.784241 2.003113 0.658937
v 3.361603 -4.947594 5.311538
v 0.961609 -4.947594 5.311538
v 0.961609 4.953812 5.311538
v 3.361603 4.953812 5.311538
v 6.730896 -4.396889 -3.083263
v 5.930908 -4.396889 0.516737
v 5.930908 -4.396889 -3.083263
v 6.730896 -4.396889 0.516737
v 6.730896 4.403107 -3.083262
v 5.930908 4.403107 -3.083262
v 5.930908 4.403107 0.516737
v 6.730896 4.403107 0.516737
v -7.669098 -4.396889 -3.083263
v -8.469086 -4.396889 0.516737
v -8.469086 -4.396889 -3.083263
v -7.669098 -4.396889 0.516737
v -7.669098 4.403107 -3.083262
v -8.469086 4.403107 -3.083262
v -8.469086 4.403107 0.516737
v -7.669098 4.403107 0.516737
v 1.411804 -4.366272 5.311550
v 3.146179 -4.366272 5.311550
v 3.146179 -4.366272 5.411551
v 1.411804 -4.366272 5.411551
v 1.411804 4.223572 5.311550
v 1.411804 4.223572 5.411551
v 3.146179 4.223572 5.311550
v 3.146179 4.223572 5.411551
vn -0.1120 -0.0000 -0.9937
vn -0.3303 -0.0000 -0.9439
vn -0.5322 -0.0000 -0.8466
vn -0.8468 -0.0000 -0.5319
vn -0.7070 -0.0000 -0.7072
vn -0.9438 -0.0000 -0.3306
vn -0.9937 -0.0000 -0.1117
vn -0.0000 -1.0000 -0.0000
vn -0.0000 -1.0000 0.0001
vn -0.0000 -1.0000 0.0002
vn -0.0000 -1.0000 -0.0004
vn -1.0000 -0.0000 -0.0000
vn -0.0000 -0.0000 -1.0000
vn -0.0000 1.0000 -0.0000
vn -0.0000 1.0000 -0.0008
vn -0.0000 1.0000 0.0015
vn -0.9937 -0.0000 0.1117
vn -0.9438 -0.0000 0.3306
vn -0.8468 -0.0000 0.5319
vn -0.7070 -0.0000 0.7072
vn -0.5322 -0.0000 0.8466
vn -0.3303 -0.0000 0.9439
vn -0.1120 -0.0000 0.9937
vn -0.0000 -0.0000 1.0000
vn 1.0000 -0.0000 -0.0000
vn -0.9975 -0.0000 -0.0702
vn -0.9975 -0.0000 -0.0701
vn -0.9975 -0.0000 -0.0703
vn -0.0000 0.9975 -0.0701
vn -0.9975 -0.0000 0.0701
vn -0.0000 -0.9975 -0.0701
vn 0.9975 -0.0000 -0.0701
vn 0.9975 -0.0000 -0.0703
vn -0.0000 -1.0000 0.0009
vn -0.0000 -1.0000 0.0027
vn -0.0000 -1.0000 -0.0008
vn -0.0000 1.0000 -0.0003
vn -0.0000 1.0000 0.0003
vn -0.0000 0.9975 0.0701
vn -0.0000 -0.9975 0.0701
vn 0.9975 -0.0000 0.0701
vn 0.1120 -0.0000 -0.9937
vn 0.3303 -0.0000 -0.9439
vn 0.5320 -0.0000 -0.8467
vn 0.8466 -0.0000 -0.5322
vn 0.7072 -0.0000 -0.7070
vn 0.9439 -0.0000 -0.3302
vn 0.9937 -0.0000 -0.1120
vn 0.9937 -0.0000 0.1120
vn 0.9439 -0.0000 0.3302
vn 0.8466 -0.0000 0.5322
vn 0.7072 -0.0000 0.7070
vn 0.5320 -0.0000 0.8467
vn 0.3303 -0.0000 0.9439
vn 0.1120 -0.0000 0.9937
vn 0.6819 -0.0000 0.7315
vt 0.547418 0.007579
vt 0.301325 0.007579
vt 0.301325 0.005422
vt 0.547418 0.005422
vt 0.547418 0.003373
vt 0.301325 0.003373
vt 0.547418 0.001535
vt 0.301325 0.001535
vt 0.098897 0.711448
vt 0.098897 0.957541
vt 0.097071 0.957541
vt 0.547418 0.000000
vt 0.301325 0.000000
vt 0.097071 0.711448
vt 0.095030 0.711448
vt 0.095030 0.957541
vt 0.092876 0.711448
vt 0.092876 0.957541
vt 0.832046 0.401823
vt 0.837038 0.387281
vt 0.839196 0.387524
vt 0.841245 0.388242
vt 0.843083 0.389396
vt 0.844617 0.390932
vt 0.845772 0.392769
vt 0.846489 0.394818
vt 0.846732 0.396976
vt 0.832191 0.408230
vt 0.832046 0.408219
vt 0.751781 0.387281
vt 0.846732 0.482363
vt 0.747575 0.388242
vt 0.749624 0.387524
vt 0.743047 0.392769
vt 0.744202 0.390932
vt 0.745737 0.389396
vt 0.832191 0.482363
vt 0.742331 0.394818
vt 0.742087 0.396976
vt 0.742087 0.401823
vt 0.007619 0.957541
vt 0.007619 0.711448
vt 0.547418 0.092967
vt 0.301325 0.092966
vt 0.936836 0.757845
vt 0.936836 0.683712
vt 0.951377 0.683712
vt 0.951377 0.769099
vt 0.936691 0.764252
vt 0.950417 0.773306
vt 0.949262 0.775143
vt 0.951134 0.771257
vt 0.936691 0.757855
vt 0.947727 0.776679
vt 0.945889 0.777833
vt 0.943841 0.778551
vt 0.941683 0.778793
vt 0.856426 0.778793
vt 0.846732 0.769099
vt 0.846732 0.764252
vt 0.846975 0.771257
vt 0.854269 0.778551
vt 0.848847 0.775143
vt 0.852220 0.777833
vt 0.850382 0.776679
vt 0.847692 0.773306
vt 0.005459 0.711448
vt 0.005459 0.957541
vt 0.003403 0.711448
vt 0.003403 0.957541
vt 0.001552 0.711448
vt 0.001552 0.957541
vt 0.000000 0.711448
vt -0.000000 0.957541
vt 0.287434 0.595114
vt 0.287434 0.349020
vt 0.289219 0.349020
vt 0.289219 0.595114
vt 0.291235 0.595114
vt 0.291235 0.349020
vt 0.293380 0.595114
vt 0.293380 0.349020
vt 0.298223 0.595114
vt 0.298223 0.349020
vt 0.391226 0.749709
vt 0.391226 0.995802
vt 0.301325 0.995802
vt 0.301325 0.749709
vt 0.287434 0.595114
vt 0.293824 0.595114
vt 0.293824 0.841207
vt 0.287434 0.841207
vt 0.741942 0.420840
vt 0.742087 0.393688
vt 0.742087 0.420840
vt 0.650997 0.387281
vt 0.742087 0.694085
vt 0.741942 0.666933
vt 0.742087 0.666933
vt 0.650997 0.700491
vt 0.696469 0.557756
vt 0.972848 0.000000
vt 1.000000 0.000000
vt 1.000000 0.074133
vt 1.000000 0.083082
vt 0.972848 0.349615
vt 1.000000 0.266533
vt 1.000000 0.275481
vt 1.000000 0.349615
vt 0.832191 0.491312
vt 0.846732 0.491312
vt 0.547418 0.101916
vt 0.301325 0.101916
vt 0.951377 0.674763
vt 0.936836 0.674763
vt 0.951377 0.461414
vt 0.951377 0.387281
vt 0.978529 0.387281
vt 0.951377 0.470364
vt 0.951377 0.662763
vt 0.951377 0.653815
vt 0.978529 0.736897
vt 0.951377 0.736897
vt 0.174836 0.530234
vt 0.220381 0.355426
vt 0.220381 0.705042
vt 0.129290 0.711448
vt 0.129290 0.349021
vt 0.554029 0.468988
vt 0.618674 0.466719
vt 0.586352 0.543886
vt 0.618674 0.621054
vt 0.554029 0.618784
vt 0.521706 0.691412
vt 0.521706 0.396360
vt 0.602513 0.428986
vt 0.602513 0.658786
vt 0.476160 0.568496
vt 0.521706 0.393688
vt 0.521706 0.743303
vt 0.430615 0.749709
vt 0.430615 0.387281
vt 0.722864 0.033558
vt 0.723009 0.006406
vt 0.723009 0.033558
vt 0.632145 -0.000000
vt 0.723009 0.306803
vt 0.722864 0.279651
vt 0.723009 0.279651
vt 0.632145 0.313210
vt 0.677505 0.170475
vt 0.832191 0.757845
vt 0.832191 0.683711
vt 0.846732 0.683711
vt 0.846732 0.769098
vt 0.832046 0.764251
vt 0.845772 0.773305
vt 0.844617 0.775143
vt 0.846489 0.771256
vt 0.832046 0.757855
vt 0.843082 0.776678
vt 0.841244 0.777833
vt 0.839196 0.778550
vt 0.837038 0.778793
vt 0.751781 0.778793
vt 0.742087 0.769098
vt 0.742087 0.764251
vt 0.742330 0.771256
vt 0.749624 0.778550
vt 0.744202 0.775143
vt 0.747575 0.777833
vt 0.745737 0.776678
vt 0.743047 0.773305
vt 0.846732 0.674763
vt 0.832191 0.674763
vt 0.547418 0.285367
vt 0.301325 0.285367
vt 0.936836 0.491312
vt 0.951377 0.491312
vt 0.936836 0.482364
vt 0.951377 0.482364
vt 0.936691 0.401824
vt 0.941683 0.387281
vt 0.943841 0.387525
vt 0.945889 0.388242
vt 0.947728 0.389397
vt 0.949262 0.390932
vt 0.950417 0.392770
vt 0.951134 0.394819
vt 0.951377 0.396976
vt 0.936836 0.408230
vt 0.936691 0.408219
vt 0.856426 0.387281
vt 0.852220 0.388242
vt 0.854269 0.387525
vt 0.847692 0.392770
vt 0.848847 0.390932
vt 0.850382 0.389397
vt 0.846975 0.394819
vt 0.846732 0.396976
vt 0.846732 0.401824
vt 0.064645 0.376521
vt 0.000000 0.402844
vt 0.044666 0.354963
vt 0.096967 0.452390
vt 0.032322 0.477032
vt 0.064645 0.553196
vt 0.096967 0.631335
vt 0.032322 0.628770
vt 0.000000 0.702370
vt 0.080806 0.669369
vt 0.365970 0.722208
vt 0.345990 0.743767
vt 0.301325 0.695886
vt 0.333647 0.469960
vt 0.398292 0.467394
vt 0.365970 0.545533
vt 0.398292 0.646340
vt 0.333647 0.621698
vt 0.301325 0.396360
vt 0.382131 0.429361
vt 0.012215 0.290172
vt 0.003137 0.299242
vt 0.012215 0.223119
vt 0.289109 0.223119
vt 0.003137 0.000000
vt 0.298188 0.000000
vt 0.298188 0.299242
vt 0.289109 0.290172
vt 0.589782 0.156605
vt 0.547418 0.307267
vt 0.547418 0.005942
vt 0.300214 0.841207
vt 0.293824 0.841207
vt 0.293824 0.595114
vt 0.300214 0.595114
vt 0.301325 0.381860
vt 0.301325 0.379702
vt 0.547418 0.379702
vt 0.547418 0.381860
vt 0.301325 0.383909
vt 0.547418 0.383909
vt 0.301325 0.385747
vt 0.547418 0.385747
vt 0.196180 0.711448
vt 0.196180 0.957541
vt 0.194386 0.957541
vt 0.301325 0.387281
vt 0.547418 0.387281
vt 0.194386 0.711448
vt 0.192365 0.711448
vt 0.192365 0.957541
vt 0.190219 0.711448
vt 0.190219 0.957541
vt 0.547418 0.294315
vt 0.301325 0.294315
vt 0.244898 0.890425
vt 0.286138 0.957541
vt 0.196180 0.957541
vt 0.196180 0.890425
vt 0.196180 0.711448
vt 0.244898 0.778565
vt 0.196180 0.778565
vt 0.286138 0.711448
vt 0.552261 0.380326
vt 0.547418 0.313210
vt 0.552261 0.313210
vt 0.547418 0.380326
vt 0.102851 0.711448
vt 0.105016 0.711448
vt 0.105016 0.778565
vt 0.102851 0.778565
vt 0.100777 0.711448
vt 0.100777 0.778565
vt 0.098897 0.711448
vt 0.098897 0.778565
vt 0.558392 0.313210
vt 0.559992 0.380326
vt 0.558392 0.380326
vt 0.559992 0.313210
vt 0.556505 0.313210
vt 0.556505 0.380326
vt 0.554427 0.313210
vt 0.554427 0.380326
vt 0.144015 0.890425
vt 0.105016 0.957541
vt 0.105016 0.890425
vt 0.144015 0.778565
vt 0.102851 0.890425
vt 0.102851 0.957541
vt 0.100777 0.890425
vt 0.100777 0.957541
vt 0.098897 0.890425
vt 0.098897 0.957541
vt 0.570966 0.313210
vt 0.572566 0.380326
vt 0.570966 0.380326
vt 0.572566 0.313210
vt 0.569079 0.313210
vt 0.569079 0.380326
vt 0.567001 0.313210
vt 0.567001 0.380326
vt 0.564835 0.313210
vt 0.564835 0.380326
vt 0.559992 0.313210
vt 0.559992 0.380326
vt 0.301325 0.349020
vt 0.000000 0.349020
vt 0.607243 0.313210
vt 0.607389 0.313210
vt 0.607389 0.380326
vt 0.607243 0.380326
vt 0.301165 0.349020
vt 0.301310 0.349020
vt 0.301310 0.625915
vt 0.301165 0.625915
vt 0.607389 0.313210
vt 0.607534 0.313210
vt 0.607534 0.380326
vt 0.607389 0.380326
vt 0.301019 0.349020
vt 0.301165 0.349020
vt 0.301019 0.625915
vt 0.572809 0.320747
vt 0.573526 0.318698
vt 0.574681 0.316860
vt 0.576216 0.315325
vt 0.578054 0.314170
vt 0.580103 0.313453
vt 0.582261 0.313210
vt 0.572566 0.322904
vt 0.587108 0.313210
vt 0.587108 0.361928
vt 0.572566 0.361928
vt 0.737443 0.812352
vt 0.722915 0.700491
vt 0.737443 0.700491
vt 0.722915 0.812352
vt 0.601651 0.322904
vt 0.600690 0.318698
vt 0.601407 0.320747
vt 0.599535 0.316860
vt 0.598000 0.315325
vt 0.596162 0.314170
vt 0.594113 0.313453
vt 0.591956 0.313210
vt 0.587108 0.313210
vt 0.587108 0.361928
vt 0.601651 0.361928
vt 0.220381 0.349021
vt 0.287434 0.625915
vt 0.220381 0.625915
vt 0.287434 0.349021
vt 0.790125 0.346762
vt 0.812496 0.246093
vt 0.812496 0.346762
vt 0.790125 0.246093
vt 0.767753 0.346762
vt 0.745381 0.346762
vt 0.745381 0.246093
vt 0.767753 0.246093
vt 0.951377 0.982990
vt 0.973749 0.736897
vt 0.973749 0.982990
vt 0.484404 0.995802
vt 0.462054 0.995802
vt 0.462054 0.749709
vt 0.484404 0.749709
vt 0.723009 0.000000
vt 0.823678 0.246093
vt 0.723009 0.246093
vt 0.823678 0.000000
vt 0.622310 0.946584
vt 0.622310 0.700491
vt 0.722915 0.700491
vt 0.722915 0.946584
vt 0.723009 0.346762
vt 0.745381 0.246093
vt 0.723009 0.246093
vt 0.790125 0.246093
vt 0.439682 0.995802
vt 0.462054 0.749709
vt 0.462054 0.995802
vt 0.439682 0.749709
vt 0.506755 0.995802
vt 0.484404 0.995802
vt 0.484404 0.749709
vt 0.506755 0.749709
vt 0.823678 -0.000000
vt 0.924346 0.246093
vt 0.823678 0.246093
vt 0.924346 0.000000
vt 0.521706 0.946584
vt 0.521706 0.700491
vt 0.622310 0.946584
vt 0.607243 0.313210
vt 0.607243 0.361712
vt 0.604447 0.361712
vt 0.604447 0.313210
vt 0.301019 0.589237
vt 0.298223 0.589237
vt 0.298223 0.349020
vt 0.604447 0.313210
vt 0.604447 0.361712
vt 0.601651 0.361712
vt 0.601651 0.313210
vt 0.740238 0.700491
vt 0.740238 0.940707
vt 0.737443 0.940707
vt 0.737443 0.700491
vt 0.924346 0.240216
vt 0.972848 0.000000
vt 0.972848 0.240216
vt 0.924346 0.000000
vt 0.439682 0.989925
vt 0.391226 0.989925
vt 0.391226 0.749709
s 1
usemtl Material.003
f 19/29/10 17/19/8 18/28/9
f 35/49/14 36/53/15 33/45/14
f 29/82/24 30/84/24 38/83/24
f 17/85/25 35/86/25 38/87/25
f 17/85/25 38/87/25 30/88/25
f 17/89/24 19/90/24 36/91/24
f 17/89/24 36/91/24 35/92/24
f 36/93/26 45/94/27 33/95/28
f 46/96/27 45/94/27 36/93/26
f 47/97/27 19/98/26 18/99/28
f 48/100/27 19/98/26 47/97/27
f 49/101/27 36/93/26 19/98/26
f 49/101/27 48/100/27 46/96/27
f 49/101/27 19/98/26 48/100/27
f 49/101/27 46/96/27 36/93/26
f 47/102/13 18/103/13 27/104/13
f 47/102/13 27/104/13 50/105/13
f 51/106/13 52/107/13 53/108/13
f 51/106/13 53/108/13 54/109/13
f 51/106/13 47/102/13 52/107/13
f 52/107/13 47/102/13 50/105/13
f 34/116/13 33/117/13 45/118/13
f 57/119/13 34/116/13 45/118/13
f 58/120/13 59/121/13 60/122/13
f 61/123/13 58/120/13 60/122/13
f 45/118/13 60/122/13 59/121/13
f 45/118/13 59/121/13 57/119/13
f 62/124/29 60/125/29 45/126/29
f 62/124/29 45/126/29 46/127/29
f 62/124/29 46/127/29 63/128/29
f 62/124/29 63/128/29 60/125/29
f 64/129/30 65/130/30 66/131/30
f 67/132/30 46/96/30 48/100/30
f 67/132/30 65/130/30 46/96/30
f 67/132/30 66/131/30 65/130/30
f 68/133/30 69/134/30 70/135/30
f 68/133/30 64/129/30 66/131/30
f 68/133/30 70/135/30 64/129/30
f 68/133/30 66/131/30 67/132/30
f 71/136/30 70/135/30 46/96/30
f 71/136/30 46/96/30 65/130/30
f 71/136/30 65/130/30 64/129/30
f 71/136/30 64/129/30 70/135/30
f 72/137/30 48/100/30 69/134/30
f 72/137/30 67/132/30 48/100/30
f 72/137/30 69/134/30 68/133/30
f 72/137/30 68/133/30 67/132/30
f 73/138/31 47/139/31 51/140/31
f 73/138/31 51/140/31 74/141/31
f 73/138/31 74/141/31 48/142/31
f 73/138/31 48/142/31 47/139/31
f 75/143/32 51/144/32 54/145/33
f 74/146/32 51/144/32 75/143/32
f 60/147/32 76/148/32 61/149/33
f 63/150/32 76/148/32 60/147/32
f 77/151/32 75/143/32 76/148/32
f 77/151/32 63/150/32 74/146/32
f 77/151/32 76/148/32 63/150/32
f 77/151/32 74/146/32 75/143/32
f 80/156/8 75/160/35 54/152/34
f 76/192/14 100/182/14 61/191/14
f 118/202/39 119/203/39 120/204/39
f 118/202/39 120/204/39 63/128/39
f 121/205/39 63/128/39 46/127/39
f 121/205/39 118/202/39 63/128/39
f 122/206/39 121/205/39 123/207/39
f 122/206/39 118/202/39 121/205/39
f 122/206/39 119/203/39 118/202/39
f 124/208/39 123/207/39 121/205/39
f 124/208/39 121/205/39 46/127/39
f 125/209/39 70/210/39 119/203/39
f 125/209/39 122/206/39 123/207/39
f 125/209/39 119/203/39 122/206/39
f 125/209/39 123/207/39 124/208/39
f 126/211/39 46/127/39 70/210/39
f 126/211/39 124/208/39 46/127/39
f 126/211/39 70/210/39 125/209/39
f 126/211/39 125/209/39 124/208/39
f 127/212/40 74/141/40 128/213/40
f 127/212/40 128/213/40 129/214/40
f 130/215/40 131/216/40 132/217/40
f 133/218/40 48/142/40 74/141/40
f 133/218/40 74/141/40 127/212/40
f 133/218/40 132/217/40 131/216/40
f 133/218/40 131/216/40 48/142/40
f 134/219/40 129/214/40 69/220/40
f 134/219/40 69/220/40 130/215/40
f 134/219/40 127/212/40 129/214/40
f 134/219/40 133/218/40 127/212/40
f 134/219/40 130/215/40 132/217/40
f 134/219/40 132/217/40 133/218/40
f 135/221/40 69/220/40 48/142/40
f 135/221/40 130/215/40 69/220/40
f 135/221/40 131/216/40 130/215/40
f 135/221/40 48/142/40 131/216/40
f 136/222/24 119/223/24 137/224/24
f 138/225/24 70/226/24 69/227/24
f 138/225/24 137/224/24 70/226/24
f 129/228/24 139/229/24 138/225/24
f 129/228/24 136/222/24 139/229/24
f 129/228/24 119/223/24 136/222/24
f 129/228/24 138/225/24 69/227/24
f 70/226/24 137/224/24 119/223/24
f 140/230/41 63/150/41 120/231/41
f 140/230/41 120/231/41 128/232/41
f 140/230/41 128/232/41 74/146/41
f 140/230/41 74/146/41 63/150/41
f 100/233/24 76/234/24 75/235/24
f 100/233/24 75/235/24 80/236/24
f 141/257/12 80/258/12 90/259/12
f 141/257/12 90/259/12 142/260/12
f 117/261/12 143/262/12 144/263/12
f 100/264/12 143/262/12 117/261/12
f 100/264/12 80/258/12 141/257/12
f 100/264/12 141/257/12 143/262/12
f 119/223/56 129/228/56 128/307/56
f 119/223/56 128/307/56 120/308/56
f 139/309/14 163/310/14 164/311/14
f 139/309/14 164/311/14 138/312/14
f 138/313/25 164/314/25 165/315/25
f 138/313/25 165/315/25 137/316/25
f 137/317/8 165/318/8 166/319/8
f 137/317/8 166/319/8 136/320/8
f 136/321/12 166/322/12 163/316/12
f 136/321/12 163/316/12 139/323/12
f 164/350/24 166/351/24 165/352/24
f 164/350/24 163/353/24 166/351/24
f 189/411/13 183/412/13 187/413/13
f 189/411/13 184/414/13 183/412/13
usemtl Material.004
f 183/396/8 184/397/8 185/398/8
f 183/396/8 185/398/8 186/399/8
f 187/321/12 183/400/12 186/401/12
f 187/321/12 186/401/12 188/402/12
f 189/403/14 187/404/14 188/405/14
f 189/403/14 188/405/14 190/406/14
f 184/407/25 189/408/25 190/409/25
f 184/407/25 190/409/25 185/410/25
f 190/415/24 188/416/24 186/417/24
f 190/415/24 186/417/24 185/384/24
usemtl Material.005
f 1/1/1 2/2/1 3/3/1
f 4/4/1 1/1/1 3/3/1
f 5/5/2 3/3/2 6/6/2
f 5/5/2 4/4/2 3/3/2
f 7/7/3 6/6/3 8/8/3
f 7/7/3 5/5/3 6/6/3
f 9/9/4 10/10/4 11/11/4
f 9/12/5 8/8/5 10/13/5
f 9/12/5 7/7/5 8/8/5
f 12/14/4 9/9/4 11/11/4
f 13/15/6 11/11/6 14/16/6
f 13/15/6 12/14/6 11/11/6
f 15/17/7 14/16/7 16/18/7
f 15/17/7 13/15/7 14/16/7
f 17/19/8 16/20/8 14/21/8
f 17/19/8 14/21/8 11/22/8
f 17/19/8 11/22/8 10/23/8
f 17/19/8 10/23/8 8/24/8
f 17/19/8 8/24/8 6/25/8
f 17/19/8 6/25/8 3/26/8
f 17/19/8 3/26/8 2/27/8
f 18/28/9 17/19/8 2/27/8
f 20/30/8 16/20/8 17/19/8
f 21/31/8 18/28/9 2/27/8
f 22/32/8 23/33/8 20/30/8
f 24/34/8 25/35/8 26/36/8
f 27/37/8 18/28/9 21/31/8
f 28/38/11 26/36/8 22/32/8
f 28/38/11 24/34/8 26/36/8
f 29/39/8 22/32/8 20/30/8
f 29/39/8 28/38/11 22/32/8
f 30/40/8 29/39/8 20/30/8
f 17/19/8 30/40/8 20/30/8
f 15/17/12 16/18/12 20/41/12
f 15/17/12 20/41/12 31/42/12
f 1/1/13 32/43/13 21/44/13
f 1/1/13 21/44/13 2/2/13
f 33/45/14 34/46/14 32/47/14
f 33/45/14 32/47/14 1/48/14
f 35/49/14 5/50/14 7/51/14
f 35/49/14 4/52/14 5/50/14
f 35/49/14 1/48/14 4/52/14
f 35/49/14 33/45/14 1/48/14
f 9/54/14 35/49/14 7/51/14
f 12/55/14 35/49/14 9/54/14
f 13/56/14 35/49/14 12/55/14
f 15/57/14 35/49/14 13/56/14
f 31/58/14 35/49/14 15/57/14
f 37/59/14 38/60/14 31/58/14
f 39/61/14 31/58/14 40/62/14
f 39/61/14 37/59/14 31/58/14
f 41/63/14 40/62/14 42/64/14
f 41/63/14 42/64/14 43/65/14
f 41/63/14 44/66/16 39/61/14
f 41/63/14 39/61/14 40/62/14
f 38/60/14 35/49/14 31/58/14
f 40/67/17 20/41/17 23/68/17
f 40/67/17 31/42/17 20/41/17
f 42/69/18 23/68/18 22/70/18
f 42/69/18 40/67/18 23/68/18
f 43/71/19 22/70/19 26/72/19
f 43/71/19 42/69/19 22/70/19
f 41/73/20 26/72/20 25/74/20
f 41/75/21 25/76/21 24/77/21
f 41/73/20 43/71/20 26/72/20
f 44/78/21 41/75/21 24/77/21
f 39/79/22 24/77/22 28/80/22
f 39/79/22 44/78/22 24/77/22
f 37/81/23 28/80/23 29/82/23
f 37/81/23 39/79/23 28/80/23
f 29/82/24 38/83/24 37/81/24
f 50/110/8 27/37/8 21/31/8
f 50/110/8 21/31/8 55/111/8
f 56/112/13 55/113/13 21/44/13
f 32/43/13 56/112/13 21/44/13
f 34/46/14 56/114/14 32/47/14
f 34/46/14 57/115/14 56/114/14
f 54/152/34 53/153/8 78/154/8
f 54/152/34 78/154/8 79/155/8
f 80/156/8 81/157/8 82/158/8
f 80/156/8 83/159/8 81/157/8
f 80/156/8 79/155/8 83/159/8
f 80/156/8 54/152/34 79/155/8
f 84/161/8 80/156/8 82/158/8
f 85/162/8 80/156/8 84/161/8
f 86/163/8 80/156/8 85/162/8
f 87/164/8 80/156/8 86/163/8
f 88/165/8 80/156/8 87/164/8
f 89/166/8 90/167/8 88/165/8
f 91/168/8 88/165/8 92/169/8
f 91/168/8 89/166/8 88/165/8
f 93/170/8 92/169/8 94/171/8
f 93/170/8 94/171/8 95/172/36
f 93/170/8 96/173/8 91/168/8
f 93/170/8 91/168/8 92/169/8
f 90/167/8 80/156/8 88/165/8
f 53/153/8 97/174/8 78/154/8
f 53/153/8 52/175/8 97/174/8
f 52/175/8 50/110/8 55/111/8
f 52/175/8 55/111/8 97/174/8
f 55/113/13 56/112/13 98/176/13
f 55/113/13 98/176/13 97/177/13
f 57/115/14 59/178/14 98/179/14
f 57/115/14 98/179/14 56/114/14
f 59/178/14 58/180/14 99/181/14
f 59/178/14 99/181/14 98/179/14
f 100/182/14 101/183/14 102/184/14
f 100/182/14 102/184/14 103/185/14
f 100/182/14 103/185/14 104/186/14
f 100/182/14 104/186/14 105/187/14
f 100/182/14 105/187/14 106/188/14
f 100/182/14 106/188/14 107/189/14
f 100/182/14 107/189/14 108/190/14
f 61/191/14 100/182/14 108/190/14
f 109/193/14 101/183/14 100/182/14
f 99/181/14 61/191/14 108/190/14
f 110/194/14 111/195/37 109/193/14
f 112/196/38 113/197/14 114/198/14
f 58/180/14 61/191/14 99/181/14
f 115/199/14 114/198/14 110/194/14
f 115/199/14 112/196/38 114/198/14
f 116/200/14 110/194/14 109/193/14
f 116/200/14 115/199/14 110/194/14
f 117/201/14 116/200/14 109/193/14
f 100/182/14 117/201/14 109/193/14
f 83/237/42 79/238/42 108/239/42
f 83/237/42 108/239/42 107/240/42
f 81/241/43 107/240/43 106/242/43
f 81/241/43 83/237/43 107/240/43
f 82/243/44 106/242/44 105/244/44
f 82/243/44 81/241/44 106/242/44
f 84/245/45 104/246/45 103/247/45
f 84/248/46 105/244/46 104/249/46
f 84/248/46 82/243/46 105/244/46
f 85/250/45 84/245/45 103/247/45
f 86/251/47 103/247/47 102/252/47
f 86/251/47 85/250/47 103/247/47
f 87/253/48 102/252/48 101/254/48
f 87/253/48 86/251/48 102/252/48
f 99/255/13 108/239/13 79/238/13
f 99/255/13 79/238/13 78/256/13
f 145/265/24 90/266/24 89/267/24
f 145/265/24 142/268/24 90/266/24
f 92/269/49 88/270/49 146/271/49
f 92/269/49 146/271/49 147/272/49
f 94/273/50 147/272/50 148/274/50
f 94/273/50 92/269/50 147/272/50
f 95/275/51 148/274/51 149/276/51
f 95/275/51 94/273/51 148/274/51
f 93/277/52 149/278/52 150/279/52
f 93/277/52 95/280/52 149/278/52
f 96/281/53 150/279/53 151/282/53
f 96/281/53 93/277/53 150/279/53
f 91/283/54 151/282/54 152/284/54
f 91/283/54 96/281/54 151/282/54
f 89/267/55 152/284/55 145/265/55
f 89/267/55 91/283/55 152/284/55
f 153/285/25 101/254/25 109/286/25
f 153/285/25 109/286/25 154/287/25
f 88/270/25 155/288/25 146/271/25
f 87/253/25 155/288/25 88/270/25
f 87/253/25 101/254/25 153/285/25
f 87/253/25 153/285/25 155/288/25
f 98/176/13 99/255/13 78/256/13
f 98/176/13 78/256/13 97/177/13
f 156/289/49 154/287/49 109/286/49
f 156/289/49 109/286/49 111/290/49
f 157/291/50 111/290/50 110/292/50
f 157/291/50 156/289/50 111/290/50
f 158/293/51 110/292/51 114/294/51
f 158/293/51 157/291/51 110/292/51
f 159/295/52 114/296/52 113/297/52
f 159/295/52 158/298/52 114/296/52
f 160/299/53 113/297/53 112/300/53
f 160/299/53 159/295/53 113/297/53
f 161/301/54 112/300/54 115/302/54
f 161/301/54 160/299/54 112/300/54
f 162/303/55 115/302/55 116/304/55
f 162/303/55 161/301/55 115/302/55
f 116/304/24 144/305/24 162/303/24
f 116/304/24 117/306/24 144/305/24
f 156/324/8 157/325/8 158/326/8
f 156/324/8 158/326/8 159/327/8
f 156/324/8 159/327/8 160/328/8
f 156/324/8 160/328/8 161/329/8
f 156/324/8 161/329/8 162/330/8
f 154/331/8 162/330/8 144/332/8
f 154/331/8 156/324/8 162/330/8
f 143/333/8 154/331/8 144/332/8
f 153/334/8 154/331/8 143/333/8
f 153/335/24 141/336/24 155/337/24
f 153/335/24 143/338/24 141/336/24
f 146/339/14 148/340/14 147/341/14
f 146/339/14 149/342/14 148/340/14
f 146/339/14 150/343/14 149/342/14
f 146/339/14 151/344/14 150/343/14
f 146/339/14 152/345/14 151/344/14
f 146/339/14 145/346/14 152/345/14
f 142/347/14 145/346/14 146/339/14
f 141/348/14 146/339/14 155/349/14
f 141/348/14 142/347/14 146/339/14
f 167/354/8 168/355/8 169/356/8
f 167/354/8 170/357/8 168/355/8
f 171/358/14 172/359/14 173/360/14
f 171/358/14 173/360/14 174/361/14
f 171/362/13 169/363/13 172/364/13
f 171/362/13 167/123/13 169/363/13
f 174/365/24 173/366/24 168/367/24
f 174/365/24 168/367/24 170/368/24
f 173/369/12 169/370/12 168/371/12
f 173/369/12 172/372/12 169/370/12
f 174/373/25 170/374/25 167/375/25
f 174/373/25 167/375/25 171/376/25
f 175/377/8 176/378/8 177/359/8
f 175/377/8 178/379/8 176/378/8
f 179/354/14 180/358/14 181/361/14
f 179/354/14 181/361/14 182/380/14
f 179/381/13 177/382/13 180/383/13
f 179/381/13 175/384/13 177/382/13
f 182/385/24 181/386/24 176/387/24
f 182/385/24 176/387/24 178/388/24
f 181/389/12 177/390/12 176/391/12
f 181/389/12 180/392/12 177/390/12
f 182/393/25 178/394/25 175/374/25
f 182/393/25 175/374/25 179/395/25
